<svg width="177" height="182" viewBox="0 0 177 182" fill="none" xmlns="http://www.w3.org/2000/svg">
<path fill-rule="evenodd" clip-rule="evenodd" d="M342.647 -125.586C364.885 -93.075 346.757 -51.0364 351.604 -12.4812C357.323 33.0069 392.729 80.0426 373.541 120.141C354.226 160.506 303.433 174.528 259.155 180.721C218.859 186.357 179.437 169.286 140.964 152.671C104.904 137.098 69.5434 119.31 44.6867 88.1007C18.8565 55.6693 0.631144 16.3863 0.0285464 -24.2827C-0.571978 -64.8118 14.1275 -104.811 41.4135 -132.809C66.7521 -158.809 105.691 -161.663 141.427 -169.373C174.193 -176.442 206.509 -182.938 239.992 -175.652C277.633 -167.461 320.316 -158.233 342.647 -125.586Z" fill="url(#paint0_radial_324_9)"/>
<defs>
<radialGradient id="paint0_radial_324_9" cx="0" cy="0" r="1" gradientUnits="userSpaceOnUse" gradientTransform="translate(647.5 483) rotate(-131.747) scale(797.487 782.804)">
<stop stop-color="#047CFD"/>
<stop offset="1" stop-color="#A5DFFF"/>
</radialGradient>
</defs>
</svg>