<svg width="523" height="360" viewBox="0 0 523 360" fill="none" xmlns="http://www.w3.org/2000/svg">
<g clip-path="url(#clip0_491_2)">
<path d="M400.366 327.697C415.746 327.697 428.214 305.071 428.214 277.161C428.214 249.251 415.746 226.625 400.366 226.625C384.986 226.625 372.518 249.251 372.518 277.161C372.518 305.071 384.986 327.697 400.366 327.697Z" fill="#3F3D56"/>
<path d="M397.795 359.88C408.948 300.364 397.907 241.063 397.794 240.471L395.625 240.798C395.737 241.387 406.715 300.376 395.624 359.559L397.795 359.88Z" fill="#CACACA"/>
<path d="M375.849 266.294L374.811 268.02L399.993 280L401.031 278.274L375.849 266.294Z" fill="#CACACA"/>
<path d="M426.57 272.295L401.391 284.281L402.429 286.007L427.608 274.021L426.57 272.295Z" fill="#CACACA"/>
<path d="M467.276 296.023C497.358 296.023 521.744 251.77 521.744 197.181C521.744 142.592 497.358 98.339 467.276 98.339C437.195 98.339 412.809 142.592 412.809 197.181C412.809 251.77 437.195 296.023 467.276 296.023Z" fill="#E6E6E6"/>
<path d="M461.21 358.816C482.995 242.563 461.429 126.734 461.209 125.577L459.04 125.904C459.259 127.058 480.762 242.575 459.039 358.495L461.21 358.816Z" fill="#CACACA"/>
<path d="M418.827 176.751L417.789 178.477L467.043 201.908L468.081 200.182L418.827 176.751Z" fill="#CACACA"/>
<path d="M519.024 188.489L469.777 211.932L470.815 213.658L520.062 190.215L519.024 188.489Z" fill="#CACACA"/>
<path d="M340.777 359.126H51.0615C49.996 359.125 48.9745 358.748 48.221 358.078C47.4676 357.408 47.0437 356.5 47.0425 355.552V192.736C47.0437 191.788 47.4675 190.88 48.221 190.21C48.9744 189.54 49.996 189.163 51.0615 189.162H340.777C341.842 189.163 342.864 189.54 343.617 190.21C344.371 190.88 344.794 191.789 344.796 192.736V355.552C344.794 356.5 344.371 357.408 343.617 358.078C342.864 358.748 341.842 359.125 340.777 359.126Z" fill="#E4E4E4"/>
<path d="M77.7044 208.892C77.2477 208.892 76.8099 209.054 76.487 209.341C76.1641 209.628 75.9824 210.017 75.9819 210.424V337.865C75.9824 338.271 76.1641 338.661 76.487 338.948C76.8099 339.235 77.2477 339.396 77.7044 339.397H314.133C314.59 339.396 315.028 339.235 315.351 338.948C315.674 338.661 315.855 338.271 315.856 337.865V210.424C315.855 210.017 315.674 209.628 315.351 209.341C315.028 209.054 314.59 208.892 314.133 208.892H77.7044Z" fill="white"/>
<path d="M316.43 241.716V233.64H282.995V208.381H273.915V233.64H214.389V208.381H205.309V233.64H113.499V208.381H104.419V233.64H72.6714V241.716H104.419V273.121H72.6714V281.197H104.419V314.846H72.6714V322.921H153.351V339.907H162.431V322.921H205.309V339.907H214.389V322.921H316.43V314.846H214.389V281.197H316.43V273.121H282.995V241.716H316.43ZM205.309 241.716V251.586H113.499V241.716H205.309ZM113.499 259.662H205.309V273.121H113.499V259.662ZM113.499 314.846V281.197H153.351V314.846H113.499ZM205.309 314.846H162.431V281.197H205.309V314.846ZM273.915 273.121H214.389V241.716H273.915V273.121Z" fill="#E6E6E6"/>
<path d="M209.849 288.499C216.257 288.499 221.451 283.879 221.451 278.18C221.451 272.481 216.257 267.861 209.849 267.861C203.441 267.861 198.247 272.481 198.247 278.18C198.247 283.879 203.441 288.499 209.849 288.499Z" fill="#349AFE"/>
<path d="M211.24 216.881C250.767 216.881 282.811 188.382 282.811 153.227C282.811 118.071 250.767 89.5723 211.24 89.5723C171.712 89.5723 139.668 118.071 139.668 153.227C139.668 188.382 171.712 216.881 211.24 216.881Z" fill="#349AFE"/>
<path d="M211.94 256.703L189.329 222.35L166.717 187.997L211.474 187.758L256.23 187.518L234.085 222.111L211.94 256.703Z" fill="#349AFE"/>
<path d="M211.814 175.664C225.996 175.664 237.493 165.439 237.493 152.826C237.493 140.213 225.996 129.988 211.814 129.988C197.632 129.988 186.136 140.213 186.136 152.826C186.136 165.439 197.632 175.664 211.814 175.664Z" fill="white"/>
<path d="M209.584 0.327076C209.584 0.327076 194.27 -3.50974 189.74 15.0988C185.21 33.7073 188.087 31.3627 188.087 31.3627L222.276 27.8137C222.276 27.8137 232.556 5.98635 209.584 0.327076Z" fill="#2F2E41"/>
<path d="M187.312 81.9631C187.312 81.9631 164.208 82.9143 168.209 90.9804C168.492 91.5506 168.755 92.0848 168.999 92.583C171.859 98.4254 175.151 104.093 178.853 109.548L193.054 130.474L198.221 127.921L183.68 94.3018L196.75 93.3528L187.312 81.9631Z" fill="#FFB6B6"/>
<path d="M248.232 90.5059L255.7 104.977C255.7 104.977 261.302 109.959 267.437 129.887C273.572 149.815 274.906 149.103 274.906 149.103L268.842 150.9L243.964 110.671L231.693 96.9114L235.428 89.557L248.232 90.5059Z" fill="#FFB6B6"/>
<path d="M239.162 73.8993L249.895 91.6653C249.895 91.6653 274.227 134.19 271.713 134.049C268.886 133.89 260.945 136.82 258.507 139.666C257.33 141.039 240.134 107.495 234.094 99.9954L221.024 90.9804C221.024 90.9804 183.913 96.5356 183.867 94.7292C183.845 93.8443 196.154 115.074 193.628 114.134C190.75 113.062 183.981 118.277 180.997 117.197C179.765 116.752 171.065 97.9914 167.543 90.3038C167.101 89.3442 167.078 88.2724 167.479 87.2985C167.879 86.3246 168.674 85.5187 169.708 85.0388C172.354 83.8146 209.13 76.3461 209.13 76.3461L208.487 73.4249L211.154 68.6801L239.162 73.8993Z" fill="#2F2E41"/>
<path d="M217.155 21.5277C218.075 16.4838 214.224 11.7314 208.553 10.9129C202.881 10.0944 197.538 13.5198 196.618 18.5637C195.697 23.6076 199.549 28.36 205.22 29.1785C210.891 29.997 216.235 26.5716 217.155 21.5277Z" fill="#FFB6B6"/>
<path d="M240.134 75.3248C240.709 76.8575 236.989 77.7379 231.803 76.8767C227.317 76.1318 222.406 75.2469 218.533 74.5304C214.385 73.7618 211.421 73.1877 211.421 73.1877C211.421 73.1877 210.354 79.1186 206.887 78.4069C203.899 77.7948 194.971 50.0594 192.557 42.3943C192.381 41.8346 192.415 41.239 192.654 40.6981C192.893 40.1572 193.325 39.7006 193.883 39.398L206.145 32.7387C206.145 32.7387 214.595 30.1576 217.676 30.084C220.757 30.0105 226.092 29.2988 226.092 29.2988C226.092 29.2988 232.227 29.7732 233.294 33.8063C234.361 37.8393 238.813 61.7515 238.896 67.4939C238.986 73.7929 238.412 70.729 240.134 75.3248Z" fill="#CACACA"/>
<path d="M210.776 8.16145C210.776 8.16145 206.462 18.329 195.893 22.5495L194.167 13.533L210.776 8.16145Z" fill="#2F2E41"/>
<path d="M217.023 18.979C217.833 18.979 218.49 17.8637 218.49 16.488C218.49 15.1122 217.833 13.997 217.023 13.997C216.213 13.997 215.556 15.1122 215.556 16.488C215.556 17.8637 216.213 18.979 217.023 18.979Z" fill="#FFB6B6"/>
<path d="M202.521 132.846L181.899 141.278L181.779 141.046C180.801 139.153 180.708 136.992 181.521 135.037C182.334 133.083 183.987 131.496 186.115 130.626L186.116 130.625L198.711 125.476L202.521 132.846Z" fill="#2F2E41"/>
<path d="M265.768 149.692L278.417 144.649L278.418 144.649C280.556 143.796 282.987 143.734 285.176 144.476C287.365 145.218 289.134 146.703 290.092 148.604L290.21 148.837L269.499 157.095L265.768 149.692Z" fill="#2F2E41"/>
<path opacity="0.2" d="M231.522 53.3671L229.107 76.9899L233.4 77.1701L231.522 53.3671Z" fill="black"/>
<path d="M214.688 97.4977C215.2 96.9897 215.58 96.3881 215.802 95.7353C216.024 95.0825 216.082 94.3943 215.973 93.7193C215.864 93.0442 215.589 92.3988 215.169 91.8283C214.749 91.2578 214.193 90.7763 213.541 90.4175L204.263 48.7359L193.609 52.3611L206.079 92.1928C205.474 93.2071 205.308 94.3837 205.613 95.4994C205.918 96.6151 206.673 97.5926 207.734 98.2465C208.795 98.9004 210.09 99.1853 211.371 99.0474C212.653 98.9094 213.833 98.358 214.688 97.4977Z" fill="#FFB6B6"/>
<path d="M206.61 55.7608L194.912 57.5934C194.579 57.6455 194.237 57.6332 193.91 57.5574C193.583 57.4815 193.278 57.3439 193.016 57.1538C192.755 56.9637 192.542 56.7257 192.393 56.4559C192.244 56.1861 192.162 55.891 192.153 55.5905L191.83 45.0617C191.539 43.5455 191.937 41.9887 192.935 40.7327C193.933 39.4767 195.45 38.624 197.154 38.3617C198.859 38.0993 200.61 38.4487 202.025 39.3331C203.44 40.2176 204.402 41.565 204.702 43.0799L208.434 53.0401C208.54 53.3253 208.577 53.6276 208.54 53.9264C208.504 54.2253 208.395 54.5136 208.222 54.7718C208.049 55.03 207.816 55.252 207.538 55.4227C207.259 55.5933 206.943 55.7087 206.61 55.7608H206.61Z" fill="#CACACA"/>
<path d="M223.658 96.7644C224.326 96.4292 224.903 95.9677 225.348 95.4127C225.794 94.8576 226.097 94.2224 226.237 93.5518C226.377 92.8812 226.349 92.1915 226.157 91.5313C225.964 90.8711 225.612 90.2565 225.123 89.7307L231.363 47.6043L219.965 47.9996L217.415 89.2842C216.476 90.0724 215.895 91.1396 215.782 92.2834C215.669 93.4272 216.031 94.5683 216.801 95.4903C217.57 96.4123 218.693 97.0513 219.957 97.2861C221.221 97.521 222.538 97.3353 223.658 96.7644Z" fill="#FFB6B6"/>
<path d="M231.054 54.9276L219.312 53.3271C218.978 53.2816 218.659 53.1725 218.377 53.0074C218.094 52.8423 217.855 52.625 217.676 52.3702C217.496 52.1155 217.381 51.8294 217.337 51.5314C217.293 51.2333 217.322 50.9304 217.421 50.6431L220.912 40.5782C221.183 39.0593 222.121 37.698 223.519 36.7931C224.917 35.8881 226.662 35.5133 228.371 35.7507C230.079 35.9882 231.612 36.8186 232.634 38.0598C233.655 39.3011 234.081 40.8518 233.819 42.3721L233.762 52.8706C233.761 53.1712 233.686 53.4679 233.544 53.7406C233.401 54.0132 233.195 54.2554 232.938 54.4506C232.681 54.6458 232.379 54.7895 232.054 54.8718C231.729 54.9541 231.388 54.9732 231.054 54.9276Z" fill="#CACACA"/>
</g>
<defs>
<clipPath id="clip0_491_2">
<rect width="523" height="360" fill="white"/>
</clipPath>
</defs>
</svg>
