<svg width="536" height="406" viewBox="0 0 536 406" fill="none" xmlns="http://www.w3.org/2000/svg">
<g clip-path="url(#clip0_534_250)">
<path d="M284.838 235.975C288.365 235.975 291.225 233.268 291.225 229.929C291.225 226.591 288.365 223.884 284.838 223.884C281.311 223.884 278.451 226.591 278.451 229.929C278.451 233.268 281.311 235.975 284.838 235.975Z" fill="#FBBEBE"/>
<path d="M202.642 400.368C205.107 400.368 207.105 398.476 207.105 396.143C207.105 393.81 205.107 391.919 202.642 391.919C200.177 391.919 198.179 393.81 198.179 396.143C198.179 398.476 200.177 400.368 202.642 400.368Z" fill="#3F3D56"/>
<path opacity="0.1" d="M202.642 400.368C205.107 400.368 207.105 398.476 207.105 396.143C207.105 393.81 205.107 391.919 202.642 391.919C200.177 391.919 198.179 393.81 198.179 396.143C198.179 398.476 200.177 400.368 202.642 400.368Z" fill="black"/>
<path d="M169.667 365.4C172.132 365.4 174.13 363.508 174.13 361.175C174.13 358.842 172.132 356.951 169.667 356.951C167.202 356.951 165.204 358.842 165.204 361.175C165.204 363.508 167.202 365.4 169.667 365.4Z" fill="#3F3D56"/>
<path opacity="0.1" d="M169.667 365.4C172.132 365.4 174.13 363.508 174.13 361.175C174.13 358.842 172.132 356.951 169.667 356.951C167.202 356.951 165.204 358.842 165.204 361.175C165.204 363.508 167.202 365.4 169.667 365.4Z" fill="black"/>
<path d="M166.94 352.023C166.94 352.023 170.907 351.084 175.37 359.063L212.064 398.959C212.064 398.959 216.335 402.008 220.894 400.249C220.894 400.249 221.485 402.245 214.543 401.776C207.601 401.306 193.717 385.348 193.717 385.348C193.717 385.348 166.444 356.247 166.94 352.023Z" fill="#047CFD"/>
<path d="M172.394 371.736C174.859 371.736 176.857 369.845 176.857 367.512C176.857 365.179 174.859 363.287 172.394 363.287C169.929 363.287 167.931 365.179 167.931 367.512C167.931 369.845 169.929 371.736 172.394 371.736Z" fill="#3F3D56"/>
<path d="M205.617 406C208.082 406 210.08 404.109 210.08 401.776C210.08 399.443 208.082 397.551 205.617 397.551C203.152 397.551 201.154 399.443 201.154 401.776C201.154 404.109 203.152 406 205.617 406Z" fill="#3F3D56"/>
<path d="M250.445 291.619C250.445 291.619 281.684 330.108 284.164 332.454C284.164 332.454 278.213 349.821 279.701 355.454C281.189 361.086 276.726 374.698 276.726 374.698L282.18 381.269H286.643C286.643 381.269 290.027 362.425 294.081 353.107C304.494 329.169 299.536 326.353 294.081 316.496C288.627 306.639 275.238 287.395 274.246 287.395C273.255 287.395 250.445 291.619 250.445 291.619Z" fill="#FBBEBE"/>
<path d="M262.841 209.48C274.07 209.48 283.172 200.864 283.172 190.236C283.172 179.607 274.07 170.991 262.841 170.991C251.613 170.991 242.511 179.607 242.511 190.236C242.511 200.864 251.613 209.48 262.841 209.48Z" fill="#3F3D56"/>
<path d="M258.13 201.266C258.13 201.266 267.056 217.224 251.684 215.347L252.676 235.53C252.676 235.53 263.089 241.162 263.585 241.162C264.081 241.162 279.453 236.469 279.453 236.469L282.924 232.714L283.42 215.347C283.42 215.347 271.519 214.408 271.023 201.735C270.527 189.062 258.13 201.266 258.13 201.266Z" fill="#FBBEBE"/>
<path opacity="0.1" d="M258.13 201.266C258.13 201.266 267.056 217.224 251.684 215.347L252.676 235.53C252.676 235.53 263.089 241.162 263.585 241.162C264.081 241.162 279.453 236.469 279.453 236.469L282.924 232.714L283.42 215.347C283.42 215.347 271.519 214.408 271.023 201.735C270.527 189.062 258.13 201.266 258.13 201.266Z" fill="black"/>
<path d="M245.734 252.896L237.8 258.059L248.709 275.895L261.106 274.957L273.006 269.794C273.006 269.794 273.006 261.814 275.982 257.121C278.957 252.427 245.734 252.896 245.734 252.896Z" fill="#FBBEBE"/>
<path d="M275.486 195.164C275.486 197.855 274.547 200.471 272.814 202.605C271.08 204.738 268.651 206.269 265.903 206.959C263.155 207.65 260.242 207.461 257.62 206.421C254.997 205.382 252.811 203.552 251.402 201.214C250.282 199.374 249.696 197.287 249.701 195.164V195.159C249.701 191.923 251.06 188.819 253.479 186.531C255.897 184.243 259.176 182.957 262.596 182.958C266.015 182.959 269.294 184.245 271.711 186.534C274.129 188.823 275.486 191.927 275.486 195.164Z" fill="#FBBEBE"/>
<path d="M251.743 215.091C251.743 215.091 244.742 212.061 239.288 212.531C233.833 213 223.42 214.408 220.445 212.531C217.469 210.653 202.098 213.939 202.098 213.939C202.098 213.939 201.602 218.632 214.99 221.918C228.379 225.204 238.296 225.673 240.775 229.428C243.255 233.183 246.726 237.877 246.726 237.877L253.668 224.265L251.743 215.091Z" fill="#FBBEBE"/>
<path opacity="0.2" d="M251.402 201.214C250.282 199.374 249.696 197.287 249.701 195.164V195.159C252.696 194.99 256.112 195.244 259.122 196.572C264.259 198.844 256.618 200.44 251.402 201.214Z" fill="black"/>
<path d="M211.023 216.755C211.023 216.755 219.949 213.939 222.428 210.653C224.908 207.368 247.222 200.327 247.222 200.327C247.222 200.327 266.56 198.45 259.122 195.164C251.684 191.879 241.767 195.164 241.767 195.164C241.767 195.164 205.073 206.898 203.585 209.245C202.689 210.67 202.178 212.282 202.098 213.939L205.569 215.347L211.023 216.755Z" fill="#FBBEBE"/>
<path d="M224.907 274.957C224.907 274.957 214.99 289.038 223.916 323.302C223.916 323.302 223.916 340.668 222.428 346.77C220.94 352.872 222.428 384.789 222.428 384.789L227.387 389.483L231.85 386.667C231.85 386.667 228.626 374.698 234.081 362.494C239.535 350.291 235.569 334.332 235.569 334.332C235.569 334.332 245.734 301.711 243.254 290.915C240.775 280.12 224.907 274.957 224.907 274.957Z" fill="#FBBEBE"/>
<path d="M226.395 384.32C226.395 384.32 221.932 377.748 220.94 379.626C219.948 381.503 218.461 387.136 212.015 389.483C205.568 391.83 201.106 391.83 207.552 396.523C213.998 401.217 215.486 401.217 218.461 399.809C221.436 398.401 226.395 397.462 227.882 397.931C229.37 398.401 235.32 396.523 234.824 393.707C234.329 390.891 231.849 388.075 231.849 388.075C231.849 388.075 230.857 382.912 229.866 384.32C228.874 385.728 226.395 384.32 226.395 384.32Z" fill="#3F3D56"/>
<path d="M284.907 377.748C284.907 377.748 277.582 371.075 278.022 369.718C278.461 368.361 269.535 368.361 271.023 373.524C272.511 378.687 276.477 384.789 276.477 384.789C275.982 390.891 275.982 396.054 281.436 397.931C286.891 399.809 293.337 398.401 291.353 392.768C289.37 387.136 287.752 378.504 287.752 378.504L284.907 377.748Z" fill="#3F3D56"/>
<path d="M240.032 255.947C240.032 255.947 222.428 265.569 221.437 278.712C221.437 278.712 226.395 291.854 244.246 294.201C244.246 294.201 248.531 292.323 250.603 294.201C252.676 296.078 270.527 294.201 275.982 289.507C275.982 289.507 272.759 269.559 273.75 265.335C273.75 265.335 257.635 278.242 250.197 267.447C242.759 256.651 240.032 255.947 240.032 255.947Z" fill="#3F3D56"/>
<path d="M282.428 216.755C282.428 216.755 291.849 212.061 296.808 222.387C301.767 232.714 311.684 248.672 311.188 254.304C310.692 259.937 280.445 275.895 280.445 275.895C280.445 275.895 267.552 288.568 266.56 283.405C265.569 278.242 275.982 271.202 275.982 271.202C275.982 271.202 298.792 258.529 298.792 253.835C298.792 249.141 287.387 230.367 284.907 230.367C282.428 230.367 282.428 216.755 282.428 216.755Z" fill="#FBBEBE"/>
<path d="M252.676 214.408L248.709 213.939C248.709 213.939 253.674 229.387 244.497 234.805C244.497 234.805 249.701 249.611 242.263 253.835C234.825 258.059 272.015 266.977 275.486 263.223C278.957 259.468 290.086 235.625 289.232 234.873C288.378 234.122 282.428 229.897 283.915 224.734C284.796 221.77 285.3 218.717 285.418 215.64L280.773 214.541L277.469 230.367C277.469 230.367 262.593 235.999 256.147 227.55L252.676 214.408Z" fill="#047CFD"/>
<path d="M267.677 180.379H255.029C253.045 180.379 251.436 181.902 251.436 183.78V187.304C251.436 189.182 253.045 190.705 255.029 190.705H267.677C269.662 190.705 271.271 189.182 271.271 187.304V183.78C271.271 181.902 269.662 180.379 267.677 180.379Z" fill="#3F3D56"/>
<path d="M264.329 179.44C269.258 179.44 273.255 175.658 273.255 170.992C273.255 166.326 269.258 162.543 264.329 162.543C259.399 162.543 255.403 166.326 255.403 170.992C255.403 175.658 259.399 179.44 264.329 179.44Z" fill="#3F3D56"/>
<path d="M409.318 303.99C411.291 300.731 412.31 297.033 412.271 293.277C412.271 283.596 405.937 275.747 398.124 275.747C390.311 275.747 383.977 283.596 383.977 293.277C383.938 297.033 384.957 300.731 386.929 303.99C384.993 307.263 383.977 310.952 383.977 314.703C383.977 318.454 384.993 322.143 386.929 325.416C384.993 328.689 383.977 332.378 383.977 336.129C383.977 339.88 384.993 343.569 386.929 346.842C384.993 350.115 383.977 353.803 383.977 357.555C383.977 361.306 384.993 364.994 386.929 368.268C384.957 371.527 383.938 375.225 383.977 378.98C383.977 388.662 390.311 396.511 398.124 396.511C405.937 396.511 412.271 388.662 412.271 378.98C412.31 375.225 411.291 371.527 409.318 368.268C411.254 364.994 412.271 361.306 412.271 357.555C412.271 353.803 411.254 350.115 409.318 346.842C411.254 343.569 412.271 339.88 412.271 336.129C412.271 332.378 411.254 328.689 409.318 325.416C411.254 322.143 412.271 318.454 412.271 314.703C412.271 310.952 411.254 307.263 409.318 303.99Z" fill="#3F3D56"/>
<path d="M398.124 289.382C405.937 289.382 412.271 281.533 412.271 271.852C412.271 262.17 405.937 254.322 398.124 254.322C390.311 254.322 383.977 262.17 383.977 271.852C383.977 281.533 390.311 289.382 398.124 289.382Z" fill="#3F3D56"/>
<path d="M398.124 267.956C405.937 267.956 412.271 260.107 412.271 250.426C412.271 240.744 405.937 232.896 398.124 232.896C390.311 232.896 383.977 240.744 383.977 250.426C383.977 260.107 390.311 267.956 398.124 267.956Z" fill="#3F3D56"/>
<path d="M451.083 103.802C453.016 101.473 454.776 99.0204 456.352 96.4615L419.179 90.6826L459.382 90.9657C463.239 83.0229 465.343 74.4187 465.566 65.6796C465.788 56.9406 464.125 48.2504 460.677 40.141L406.739 66.6258L456.482 32.0151C451.822 24.3923 445.553 17.7595 438.067 12.5299C430.58 7.30036 422.036 3.58599 412.967 1.61823C403.898 -0.349532 394.498 -0.528522 385.353 1.0924C376.207 2.71333 367.513 6.09944 359.81 11.0398C352.107 15.9802 345.562 22.3689 340.582 29.8081C335.601 37.2473 332.293 45.5776 330.862 54.2799C329.431 62.9823 329.909 71.8703 332.265 80.3904C334.621 88.9104 338.806 96.8799 344.558 103.802C341.545 107.427 338.954 111.349 336.829 115.5L385.082 139.229L333.631 122.884C330.019 132.993 329.126 143.795 331.034 154.312C332.941 164.83 337.59 174.731 344.558 183.12C336.696 192.581 331.805 203.946 330.444 215.914C329.084 227.883 331.309 239.972 336.865 250.8C342.422 261.628 351.084 270.757 361.864 277.145C372.643 283.532 385.103 286.919 397.821 286.919C410.538 286.919 422.998 283.532 433.777 277.145C444.557 270.757 453.219 261.628 458.776 250.8C464.332 239.972 466.557 227.883 465.197 215.914C463.836 203.946 458.945 192.581 451.083 183.12C460.478 171.813 465.585 157.846 465.585 143.461C465.585 129.076 460.478 115.109 451.083 103.802Z" fill="#57B894"/>
<path opacity="0.1" d="M330.056 143.461C330.032 157.849 335.142 171.824 344.558 183.12C336.696 192.581 331.805 203.946 330.445 215.914C329.084 227.883 331.309 239.972 336.865 250.8C342.422 261.628 351.085 270.757 361.864 277.145C372.643 283.532 385.103 286.919 397.821 286.919C410.538 286.919 422.998 283.532 433.777 277.145C444.557 270.757 453.219 261.628 458.776 250.8C464.332 239.972 466.557 227.883 465.197 215.914C463.836 203.946 458.946 192.581 451.083 183.12C460.166 172.206 330.056 136.262 330.056 143.461Z" fill="black"/>
<path d="M7.91406 328.503C7.91406 360.907 29.3899 387.127 55.93 387.127L7.91406 328.503Z" fill="#46455B"/>
<path d="M55.9297 387.127C55.9297 354.36 79.8955 327.845 109.513 327.845L55.9297 387.127Z" fill="#047CFD"/>
<path d="M25.311 331.441C25.311 362.221 39.0058 387.128 55.9299 387.128L25.311 331.441Z" fill="#047CFD"/>
<path d="M55.9297 387.128C55.9297 345.258 83.6305 311.377 117.863 311.377L55.9297 387.128Z" fill="#46455B"/>
<path d="M45.8286 387.541C45.8286 387.541 52.6381 387.342 54.6903 385.959C56.7425 384.576 65.1649 382.924 65.674 385.142C66.1831 387.361 75.9074 396.176 68.2195 396.235C60.5317 396.293 50.3564 395.101 48.3082 393.92C46.2599 392.739 45.8286 387.541 45.8286 387.541Z" fill="#A8A8A8"/>
<path opacity="0.2" d="M68.3567 395.463C60.6689 395.521 50.4936 394.329 48.4453 393.148C46.8855 392.249 46.2639 389.021 46.0559 387.532C45.9119 387.538 45.8286 387.541 45.8286 387.541C45.8286 387.541 46.2599 392.739 48.3082 393.92C50.3564 395.101 60.5317 396.293 68.2195 396.235C70.4387 396.218 71.2052 395.47 71.1631 394.364C70.8548 395.032 70.0085 395.45 68.3567 395.463Z" fill="black"/>
<path d="M315.835 89.3286C313.803 87.3987 311.521 86.2435 309.747 86.0862L311.566 89.163L308.577 86.147C308.111 86.2409 307.689 86.4725 307.372 86.8083C305.873 88.432 307.231 92.1929 310.405 95.2085C313.579 98.2241 317.368 99.3525 318.868 97.7288C320.367 96.1051 319.009 92.3443 315.835 89.3286Z" fill="#57B894"/>
<path opacity="0.1" d="M316.93 91.1792C316.384 91.9395 316.118 92.9427 315.509 93.6443C314.899 94.3459 313.829 94.717 312.382 94.1033C311.603 93.7727 310.796 93.1924 310.003 92.7795C309.364 92.4293 308.656 92.2079 307.922 92.1292C308.598 93.2577 309.434 94.2937 310.405 95.2086C313.58 98.2242 317.368 99.3526 318.868 97.729C320.126 96.3662 319.371 93.4981 317.22 90.8286C317.115 90.9395 317.018 91.0566 316.93 91.1792Z" fill="black"/>
<path d="M317.951 184.204C320.582 183.1 322.539 181.497 323.33 179.986L319.643 180.491L323.689 178.929C323.763 178.484 323.686 178.029 323.468 177.628C322.404 175.721 318.208 175.574 314.096 177.299C309.985 179.024 307.514 181.968 308.579 183.875C309.643 185.782 313.839 185.929 317.951 184.204Z" fill="#57B894"/>
<path opacity="0.1" d="M315.733 184.508C315.178 183.754 314.284 183.16 313.811 182.37C313.337 181.58 313.354 180.501 314.478 179.442C315.083 178.872 315.944 178.367 316.636 177.814C317.21 177.375 317.682 176.828 318.023 176.208C316.667 176.401 315.346 176.768 314.096 177.299C309.984 179.024 307.514 181.968 308.578 183.875C309.472 185.475 312.571 185.836 315.975 184.89C315.903 184.758 315.822 184.631 315.733 184.508Z" fill="black"/>
<path d="M153.75 169.36C150.881 169.144 148.354 169.671 146.898 170.643L150.394 171.861L146.05 171.409C145.761 171.767 145.6 172.203 145.589 172.653C145.566 174.81 149.181 176.831 153.664 177.169C158.147 177.506 161.801 176.032 161.825 173.875C161.849 171.719 158.234 169.697 153.75 169.36Z" fill="#57B894"/>
<path opacity="0.1" d="M155.853 170.092C155.961 171.005 156.448 171.931 156.467 172.839C156.486 173.747 155.928 174.688 154.407 175.112C153.587 175.341 152.576 175.397 151.69 175.571C150.964 175.698 150.274 175.966 149.662 176.358C150.951 176.799 152.297 177.072 153.664 177.169C158.147 177.506 161.801 176.032 161.825 173.875C161.845 172.065 159.301 170.351 155.833 169.647C155.83 169.796 155.836 169.944 155.853 170.092Z" fill="black"/>
<path d="M220.528 240.14C221.769 237.682 222.155 235.259 221.717 233.625L219.264 236.278L221.264 232.601C221.015 232.217 220.643 231.919 220.203 231.748C218.085 230.955 214.795 233.425 212.857 237.266C210.918 241.107 211.063 244.865 213.182 245.658C215.3 246.452 218.589 243.981 220.528 240.14Z" fill="#57B894"/>
<path opacity="0.1" d="M219.053 241.736C218.113 241.505 217.026 241.603 216.123 241.295C215.221 240.986 214.493 240.156 214.619 238.66C214.687 237.854 214.994 236.94 215.14 236.095C215.275 235.408 215.258 234.701 215.09 234.021C214.193 235.001 213.442 236.094 212.857 237.267C210.918 241.108 211.063 244.865 213.182 245.659C214.96 246.325 217.562 244.691 219.499 241.878C219.354 241.822 219.205 241.774 219.053 241.736Z" fill="black"/>
<path d="M467.859 183.649C464.99 183.433 462.462 183.96 461.007 184.932L464.502 186.15L460.159 185.699C459.87 186.057 459.709 186.492 459.698 186.942C459.674 189.099 463.289 191.121 467.773 191.458C472.256 191.795 475.91 190.321 475.933 188.165C475.957 186.008 472.342 183.986 467.859 183.649Z" fill="#57B894"/>
<path opacity="0.1" d="M469.962 184.381C470.07 185.294 470.557 186.22 470.576 187.128C470.595 188.037 470.037 188.977 468.516 189.401C467.696 189.63 466.685 189.686 465.799 189.86C465.073 189.987 464.383 190.255 463.771 190.647C465.06 191.088 466.406 191.361 467.773 191.458C472.256 191.795 475.91 190.321 475.934 188.164C475.954 186.354 473.41 184.64 469.942 183.936C469.939 184.085 469.945 184.233 469.962 184.381Z" fill="black"/>
<path d="M534.637 254.429C535.878 251.971 536.263 249.549 535.826 247.914L533.373 250.567L535.373 246.89C535.124 246.507 534.752 246.208 534.312 246.037C532.193 245.244 528.904 247.714 526.966 251.556C525.027 255.397 525.172 259.154 527.291 259.947C529.409 260.741 532.698 258.271 534.637 254.429Z" fill="#57B894"/>
<path opacity="0.1" d="M533.162 256.026C532.222 255.794 531.134 255.892 530.232 255.584C529.329 255.275 528.602 254.445 528.728 252.949C528.796 252.143 529.103 251.229 529.249 250.384C529.384 249.697 529.367 248.99 529.199 248.31C528.302 249.291 527.551 250.383 526.966 251.556C525.027 255.397 525.172 259.154 527.291 259.948C529.069 260.614 531.671 258.98 533.608 256.167C533.462 256.111 533.313 256.064 533.162 256.026Z" fill="black"/>
<path d="M519.586 148.574C518.698 145.983 517.216 143.974 515.71 143.074L515.86 146.597L514.637 142.626C514.177 142.51 513.691 142.536 513.247 142.699C511.133 143.504 510.544 147.439 511.931 151.488C513.318 155.538 516.156 158.168 518.27 157.364C520.383 156.559 520.973 152.624 519.586 148.574Z" fill="#57B894"/>
<path opacity="0.1" d="M519.676 150.694C518.826 151.138 518.109 151.918 517.23 152.282C516.351 152.646 515.219 152.518 514.223 151.351C513.686 150.722 513.244 149.859 512.735 149.151C512.333 148.564 511.807 148.063 511.191 147.678C511.254 148.974 511.503 150.256 511.931 151.489C513.318 155.538 516.156 158.169 518.27 157.364C520.044 156.689 520.743 153.808 520.103 150.506C519.956 150.56 519.814 150.622 519.676 150.694Z" fill="black"/>
<path d="M476.07 234.065C478.945 234.209 481.456 233.619 482.884 232.611L479.356 231.481L483.71 231.823C483.989 231.458 484.138 231.019 484.136 230.568C484.1 228.412 480.429 226.482 475.938 226.257C471.447 226.032 467.836 227.598 467.872 229.754C467.909 231.91 471.579 233.841 476.07 234.065Z" fill="#57B894"/>
<path opacity="0.1" d="M473.948 233.386C473.814 232.476 473.302 231.563 473.257 230.655C473.213 229.748 473.745 228.794 475.253 228.331C476.066 228.082 477.075 228.001 477.956 227.805C478.678 227.66 479.361 227.374 479.961 226.967C478.661 226.559 477.307 226.32 475.938 226.257C471.447 226.032 467.836 227.598 467.872 229.754C467.903 231.564 470.494 233.214 473.981 233.83C473.98 233.682 473.969 233.533 473.948 233.386Z" fill="black"/>
</g>
<defs>
<clipPath id="clip0_534_250">
<rect width="536" height="406" fill="white"/>
</clipPath>
</defs>
</svg>
