<svg width="490" height="300" viewBox="0 0 490 300" fill="none" xmlns="http://www.w3.org/2000/svg">
<g clip-path="url(#clip0_540_320)">
<path d="M318.716 270.822H162.582C158.881 270.817 155.333 269.25 152.716 266.464C150.1 263.677 148.628 259.9 148.624 255.959V14.8624C148.628 10.922 150.1 7.14429 152.716 4.35801C155.333 1.57173 158.881 0.00444932 162.582 0H318.716C322.417 0.00444655 325.965 1.57173 328.582 4.35801C331.198 7.14429 332.67 10.922 332.675 14.8624V255.959C332.67 259.9 331.198 263.677 328.582 266.464C325.965 269.25 322.417 270.817 318.716 270.822Z" fill="#CBCBCB"/>
<path d="M318.991 261.339H162.307C161.166 261.338 160.072 260.855 159.266 259.996C158.459 259.137 158.005 257.972 158.004 256.758V14.0642C158.005 12.8495 158.459 11.685 159.266 10.8261C160.072 9.96719 161.166 9.48405 162.307 9.48267H318.991C320.132 9.48405 321.225 9.96719 322.032 10.8261C322.839 11.685 323.292 12.8495 323.294 14.0642V256.758C323.292 257.972 322.839 259.137 322.032 259.996C321.225 260.855 320.132 261.338 318.991 261.339Z" fill="white"/>
<path d="M240.055 5.81603C240.711 5.81603 241.243 5.24997 241.243 4.55169C241.243 3.85342 240.711 3.28735 240.055 3.28735C239.399 3.28735 238.868 3.85342 238.868 4.55169C238.868 5.24997 239.399 5.81603 240.055 5.81603Z" fill="white"/>
<path d="M239.224 194.944H239.133C238.939 194.943 238.752 194.861 238.614 194.714C238.476 194.567 238.399 194.368 238.398 194.161V186.335C238.399 186.127 238.476 185.928 238.614 185.782C238.752 185.635 238.939 185.552 239.133 185.552H239.224C239.419 185.552 239.606 185.635 239.744 185.782C239.881 185.928 239.959 186.127 239.959 186.335V194.161C239.959 194.368 239.881 194.567 239.744 194.714C239.606 194.861 239.419 194.943 239.224 194.944Z" fill="#3F3D56"/>
<path d="M242.164 194.944H242.073C241.878 194.943 241.692 194.861 241.554 194.714C241.416 194.567 241.339 194.368 241.338 194.161V186.335C241.339 186.127 241.416 185.928 241.554 185.782C241.692 185.635 241.878 185.552 242.073 185.552H242.164C242.359 185.552 242.546 185.635 242.684 185.782C242.821 185.928 242.899 186.127 242.899 186.335V194.161C242.899 194.368 242.821 194.567 242.684 194.714C242.546 194.861 242.359 194.943 242.164 194.944Z" fill="#3F3D56"/>
<path d="M178.02 194.87H177.929C177.734 194.869 177.547 194.787 177.409 194.64C177.272 194.493 177.194 194.294 177.194 194.087V186.261C177.194 186.053 177.272 185.854 177.409 185.708C177.547 185.561 177.734 185.478 177.929 185.478H178.02C178.214 185.478 178.401 185.561 178.539 185.708C178.677 185.854 178.754 186.053 178.755 186.261V194.087C178.754 194.294 178.677 194.493 178.539 194.64C178.401 194.787 178.214 194.869 178.02 194.87Z" fill="#3F3D56"/>
<path d="M182.387 194.943C182.316 194.943 182.247 194.925 182.184 194.89C182.122 194.856 182.068 194.805 182.027 194.744L179.363 190.714C179.277 190.583 179.23 190.428 179.23 190.268C179.229 190.108 179.274 189.952 179.358 189.821L182.025 185.693C182.078 185.611 182.155 185.549 182.243 185.516C182.332 185.483 182.429 185.481 182.519 185.511C182.608 185.541 182.687 185.6 182.743 185.681C182.799 185.762 182.829 185.859 182.829 185.959V194.473C182.829 194.573 182.799 194.671 182.744 194.751C182.688 194.832 182.61 194.891 182.521 194.921C182.478 194.936 182.432 194.943 182.387 194.943Z" fill="#3F3D56"/>
<path d="M302.543 194.087V186.261C302.543 186.053 302.621 185.854 302.758 185.708C302.896 185.561 303.083 185.478 303.278 185.478H303.369C303.564 185.478 303.75 185.561 303.888 185.708C304.026 185.854 304.103 186.053 304.104 186.261V194.087C304.103 194.294 304.026 194.493 303.888 194.64C303.75 194.787 303.564 194.869 303.369 194.87H303.278C303.083 194.869 302.896 194.787 302.758 194.64C302.621 194.493 302.543 194.294 302.543 194.087Z" fill="#3F3D56"/>
<path d="M298.777 194.921C298.687 194.891 298.609 194.832 298.554 194.751C298.498 194.671 298.469 194.573 298.469 194.473V185.959C298.469 185.859 298.499 185.762 298.555 185.681C298.61 185.6 298.689 185.541 298.779 185.511C298.869 185.481 298.965 185.483 299.054 185.516C299.143 185.549 299.22 185.611 299.273 185.693L301.939 189.821C302.024 189.952 302.069 190.108 302.068 190.268C302.067 190.428 302.021 190.583 301.935 190.714L299.27 194.744C299.23 194.805 299.176 194.856 299.113 194.89C299.051 194.925 298.981 194.943 298.911 194.943C298.865 194.943 298.82 194.936 298.777 194.921Z" fill="#3F3D56"/>
<path d="M304.055 170.087H177.439V171.13H304.055V170.087Z" fill="#CBCBCB"/>
<path d="M263.189 170.087H177.439V171.13H263.189V170.087Z" fill="#047CFD"/>
<path d="M263.189 174.261C265.083 174.261 266.619 172.626 266.619 170.609C266.619 168.592 265.083 166.957 263.189 166.957C261.294 166.957 259.759 168.592 259.759 170.609C259.759 172.626 261.294 174.261 263.189 174.261Z" fill="#047CFD"/>
<path d="M240.649 97.826C238.375 97.8232 236.196 96.8604 234.588 95.1487C232.981 93.437 232.076 91.1162 232.074 88.6955V68.8694C232.074 66.4479 232.977 64.1255 234.585 62.4133C236.193 60.701 238.374 59.739 240.649 59.739C242.923 59.739 245.104 60.701 246.712 62.4133C248.32 64.1255 249.224 66.4479 249.224 68.8694V88.6955C249.221 91.1162 248.317 93.437 246.709 95.1487C245.102 96.8604 242.922 97.8232 240.649 97.826Z" fill="#047CFD"/>
<path d="M240.649 105.391C235.842 105.385 231.234 103.35 227.835 99.7308C224.436 96.1118 222.524 91.205 222.519 86.0869C222.519 85.6718 222.673 85.2737 222.949 84.9802C223.225 84.6866 223.599 84.5217 223.989 84.5217C224.378 84.5217 224.752 84.6866 225.028 84.9802C225.304 85.2737 225.459 85.6718 225.459 86.0869C225.459 90.3765 227.059 94.4904 229.908 97.5236C232.756 100.557 236.62 102.261 240.649 102.261C244.677 102.261 248.541 100.557 251.39 97.5236C254.238 94.4904 255.839 90.3765 255.839 86.0869C255.839 85.6718 255.993 85.2737 256.269 84.9802C256.545 84.6866 256.919 84.5217 257.309 84.5217C257.698 84.5217 258.072 84.6866 258.348 84.9802C258.624 85.2737 258.779 85.6718 258.779 86.0869C258.773 91.205 256.861 96.1118 253.462 99.7308C250.064 103.35 245.455 105.385 240.649 105.391Z" fill="#047CFD"/>
<path d="M240.649 123.131C240.259 123.131 239.885 122.966 239.609 122.672C239.334 122.379 239.179 121.98 239.179 121.565V104.348C239.179 103.933 239.334 103.535 239.609 103.241C239.885 102.948 240.259 102.783 240.649 102.783C241.039 102.783 241.412 102.948 241.688 103.241C241.964 103.535 242.119 103.933 242.119 104.348V121.565C242.119 121.98 241.964 122.379 241.688 122.672C241.412 122.966 241.039 123.131 240.649 123.131Z" fill="#047CFD"/>
<path d="M237.219 66.7825C237.76 66.7825 238.199 66.3153 238.199 65.739C238.199 65.1627 237.76 64.6956 237.219 64.6956C236.678 64.6956 236.239 65.1627 236.239 65.739C236.239 66.3153 236.678 66.7825 237.219 66.7825Z" fill="white"/>
<path d="M237.219 76.6956C237.76 76.6956 238.199 76.2284 238.199 75.6521C238.199 75.0758 237.76 74.6086 237.219 74.6086C236.678 74.6086 236.239 75.0758 236.239 75.6521C236.239 76.2284 236.678 76.6956 237.219 76.6956Z" fill="white"/>
<path d="M244.079 70.4349C244.62 70.4349 245.059 69.9677 245.059 69.3914C245.059 68.8151 244.62 68.3479 244.079 68.3479C243.537 68.3479 243.099 68.8151 243.099 69.3914C243.099 69.9677 243.537 70.4349 244.079 70.4349Z" fill="white"/>
<path d="M252.293 123.411H229.005C228.615 123.411 228.241 123.246 227.965 122.952C227.69 122.659 227.535 122.261 227.535 121.845C227.535 121.43 227.69 121.032 227.965 120.739C228.241 120.445 228.615 120.28 229.005 120.28H252.293C252.683 120.28 253.057 120.445 253.333 120.739C253.608 121.032 253.763 121.43 253.763 121.845C253.763 122.261 253.608 122.659 253.333 122.952C253.057 123.246 252.683 123.411 252.293 123.411Z" fill="#047CFD"/>
<path d="M398.413 235.424C397.86 234.991 397.291 234.59 396.713 234.209C396.365 233.969 396.007 233.744 395.65 233.525C395.601 233.494 395.552 233.463 395.503 233.431C393.708 232.348 391.821 231.446 389.868 230.739C387.973 230.051 386.023 229.552 384.042 229.247C384.011 229.239 383.98 229.234 383.949 229.231C383.415 229.148 382.876 229.08 382.332 229.033C381.954 228.991 381.572 228.96 381.19 228.944C380.7 228.908 380.21 228.887 379.71 228.882C379.563 228.876 379.411 228.876 379.259 228.876C377.659 228.876 376.06 228.999 374.477 229.247C374.129 229.299 373.781 229.356 373.438 229.419C373.208 229.466 372.982 229.513 372.757 229.56C371.821 229.763 370.902 230.005 369.998 230.285C369.587 230.416 369.18 230.551 368.773 230.697C368.225 230.89 367.686 231.099 367.152 231.329C366.676 231.522 366.211 231.736 365.75 231.955C361.956 233.776 358.518 236.342 355.617 239.52C354.47 240.767 353.414 242.105 352.456 243.522C352.001 244.195 351.568 244.887 351.158 245.598C350.4 246.896 349.726 248.247 349.139 249.642C347.94 252.475 347.103 255.467 346.65 258.537C346.382 260.353 346.247 262.188 346.248 264.026C346.248 264.36 346.253 264.694 346.263 265.023C346.455 272.639 348.983 279.98 353.461 285.923C353.941 286.57 354.446 287.196 354.97 287.802C355.494 288.407 356.038 288.996 356.602 289.56C357.293 290.259 358.008 290.916 358.748 291.548C363.292 295.398 368.712 297.901 374.458 298.802C380.204 299.702 386.071 298.969 391.465 296.676C392.21 296.363 392.94 296.024 393.651 295.649C393.122 295.033 392.619 294.393 392.142 293.729C391.431 294.083 390.711 294.407 389.971 294.699C384.861 296.723 379.337 297.261 373.967 296.259C368.596 295.256 363.574 292.75 359.414 288.996C358.767 288.412 358.135 287.796 357.538 287.155C356.866 286.44 356.224 285.694 355.622 284.916C355.102 284.254 354.602 283.565 354.137 282.856C350.175 276.881 348.211 269.664 348.56 262.359C348.909 255.055 351.551 248.087 356.063 242.572C356.337 242.233 356.616 241.904 356.901 241.586C357.484 240.934 358.087 240.303 358.714 239.703C361.661 236.872 365.095 234.677 368.827 233.238C368.861 233.223 368.901 233.212 368.935 233.197C369.053 233.15 369.175 233.108 369.298 233.061C370.461 232.636 371.647 232.286 372.85 232.012C373.286 231.913 373.727 231.824 374.168 231.746C374.178 231.746 374.183 231.741 374.193 231.741C375.438 231.524 376.695 231.386 377.956 231.329C378.387 231.308 378.823 231.297 379.259 231.297C379.798 231.297 380.342 231.313 380.876 231.35C381.258 231.365 381.646 231.397 382.023 231.433C382.356 231.464 382.689 231.501 383.018 231.548C386.835 232.042 390.529 233.302 393.905 235.263C394.777 235.765 395.624 236.313 396.444 236.906C397.1 237.381 397.742 237.882 398.36 238.403C398.997 237.908 399.658 237.438 400.334 237C399.712 236.447 399.07 235.915 398.413 235.424Z" fill="#3F3D56"/>
<path d="M383.822 182.861L382.039 215.134H347.017C343.978 215.103 341.038 216.287 338.779 218.451C336.751 220.423 335.49 223.133 335.247 226.047L339.242 227.562C339.236 227.073 339.283 226.585 339.382 226.107C339.659 224.826 340.426 222.495 342.486 221.186C343.392 220.638 344.419 220.359 345.461 220.378H385.158L387.389 186.683H400.757V182.861H383.822Z" fill="#3F3D56"/>
<path d="M418.587 199.012L418.577 199.268L417.49 229.722L417.401 232.143C417.083 232.132 416.764 232.127 416.441 232.127C415.814 232.127 415.191 232.148 414.574 232.19C411.547 232.376 408.564 233.046 405.725 234.177C404.99 234.47 404.264 234.793 403.559 235.143C402.449 235.691 401.373 236.312 400.335 237C399.658 237.438 398.997 237.908 398.36 238.404C395.648 240.512 393.277 243.076 391.338 245.995C390.659 247.011 390.039 248.07 389.481 249.167L386.889 249.193L369.19 249.402L358.915 249.527H358.91L351.668 249.61L349.139 249.642H348.958L346.65 249.668L341.667 249.73L339.349 249.757L336.135 249.793L338.139 229.623L355.617 230.651L358.714 230.833L359.527 230.88L367.152 231.329L368.788 231.423L372.836 231.663L374.193 231.741L380.774 232.127L380.877 231.35L381.073 229.847L381.19 228.944L381.822 224.087L382.023 222.564L382.307 220.377V220.362L382.332 220.164L382.989 215.134L383.523 211.07L384.018 207.287V207.271L384.806 201.193L384.939 200.197L386.497 200.139L392.553 199.931L395.229 199.837L403.642 199.539L415.378 199.127H415.382L416.353 199.091L416.583 199.08H416.588L418.587 199.012Z" fill="#2F2E41"/>
<path d="M416.441 271.315C419.794 271.315 422.512 268.421 422.512 264.85C422.512 261.28 419.794 258.386 416.441 258.386C413.088 258.386 410.37 261.28 410.37 264.85C410.37 268.421 413.088 271.315 416.441 271.315Z" fill="#3F3D56"/>
<path d="M375.985 269.444C378.29 269.444 380.159 267.455 380.159 265C380.159 262.546 378.29 260.556 375.985 260.556C373.68 260.556 371.812 262.546 371.812 265C371.812 267.455 373.68 269.444 375.985 269.444Z" fill="#3F3D56"/>
<path d="M404.23 232.2C403.49 232.508 402.76 232.852 402.044 233.223C400.791 233.873 399.578 234.609 398.413 235.424C397.737 235.889 397.081 236.383 396.444 236.906C393.347 239.422 390.69 242.499 388.594 245.995H391.338C393.277 243.076 395.648 240.512 398.36 238.404C398.997 237.908 399.658 237.438 400.334 237C401.372 236.312 402.449 235.691 403.558 235.143C404.264 234.793 404.989 234.47 405.724 234.177C408.564 233.046 411.547 232.376 414.574 232.19V229.758C411.024 229.968 407.53 230.792 404.23 232.2ZM386.213 250.737H388.716C388.957 250.205 389.211 249.678 389.481 249.167L386.889 249.193C386.648 249.699 386.423 250.216 386.213 250.737ZM418.587 229.779C418.224 229.748 417.857 229.732 417.489 229.722C417.141 229.706 416.793 229.701 416.441 229.701C415.813 229.701 415.191 229.722 414.574 229.758C411.024 229.968 407.53 230.792 404.23 232.2C403.49 232.508 402.76 232.852 402.044 233.223C400.791 233.873 399.578 234.609 398.413 235.424C397.737 235.889 397.081 236.383 396.444 236.906C392.422 240.175 389.154 244.377 386.889 249.193C386.648 249.699 386.423 250.216 386.212 250.737C385.487 252.484 384.9 254.292 384.458 256.143C384.167 257.342 383.938 258.558 383.772 259.784C383.625 260.859 383.526 261.946 383.473 263.045C383.444 263.645 383.429 264.245 383.429 264.85C383.43 266.182 383.5 267.513 383.64 268.837C384.3 274.998 386.485 280.862 389.971 285.83C390.446 286.508 390.946 287.17 391.465 287.807C395.019 292.191 399.536 295.572 404.613 297.649C409.691 299.726 415.172 300.435 420.568 299.712C425.965 298.989 431.11 296.857 435.546 293.506C439.982 290.155 443.572 285.688 445.995 280.503C448.419 275.318 449.601 269.575 449.437 263.786C449.273 257.997 447.768 252.341 445.055 247.321C442.343 242.301 438.507 238.073 433.889 235.013C429.271 231.952 424.015 230.154 418.587 229.779H418.587ZM416.441 297.574C412.143 297.576 407.894 296.616 403.968 294.757C400.042 292.897 396.526 290.179 393.651 286.779C393.122 286.163 392.619 285.524 392.142 284.859C388.191 279.449 385.946 272.848 385.727 265.998C385.713 265.617 385.708 265.237 385.708 264.85C385.703 259.965 386.731 255.142 388.716 250.737C388.957 250.205 389.211 249.678 389.481 249.167C390.038 248.07 390.658 247.011 391.338 245.995C393.277 243.076 395.648 240.512 398.36 238.404C398.997 237.908 399.658 237.438 400.334 237C401.372 236.312 402.449 235.691 403.559 235.143C404.264 234.793 404.989 234.47 405.724 234.177C408.564 233.046 411.547 232.376 414.574 232.19C415.191 232.148 415.813 232.127 416.441 232.127C416.764 232.127 417.083 232.132 417.401 232.143C417.798 232.158 418.195 232.179 418.587 232.205C426.533 232.796 433.954 236.649 439.284 242.953C444.615 249.256 447.438 257.516 447.16 265.993C446.882 274.47 443.523 282.5 437.793 288.392C432.062 294.283 424.407 297.575 416.441 297.574ZM385.727 265.998C385.713 265.617 385.708 265.237 385.708 264.85C385.703 259.965 386.731 255.142 388.716 250.737H386.213C385.487 252.484 384.9 254.292 384.458 256.143C384.533 256.481 384.571 256.828 384.571 257.176C384.571 258.113 384.292 259.027 383.772 259.784C383.625 260.859 383.526 261.946 383.473 263.045C383.444 263.645 383.429 264.245 383.429 264.85C383.43 266.182 383.5 267.513 383.64 268.837C384.3 274.998 386.485 280.862 389.971 285.83C390.711 285.537 391.431 285.214 392.142 284.859C388.191 279.449 385.946 272.848 385.727 265.998Z" fill="#3F3D56"/>
<path opacity="0.1" d="M397.581 215.587C397.866 215.587 398.097 215.341 398.097 215.037C398.097 214.734 397.866 214.488 397.581 214.488C397.296 214.488 397.065 214.734 397.065 215.037C397.065 215.341 397.296 215.587 397.581 215.587Z" fill="black"/>
<path opacity="0.1" d="M395.828 224.689C396.113 224.689 396.344 224.443 396.344 224.14C396.344 223.836 396.113 223.59 395.828 223.59C395.543 223.59 395.312 223.836 395.312 224.14C395.312 224.443 395.543 224.689 395.828 224.689Z" fill="black"/>
<path d="M330.304 281.747L325.652 281.746L323.439 262.641L330.304 262.642L330.304 281.747Z" fill="#FFB7B7"/>
<path d="M330.304 280.132L325.467 280.127H322.331C321.564 280.127 320.805 280.287 320.096 280.6C319.387 280.912 318.743 281.37 318.201 281.948C317.658 282.525 317.228 283.211 316.935 283.966C316.641 284.72 316.49 285.529 316.491 286.346V286.55H331.49V280.132H330.304Z" fill="#2F2E41"/>
<path d="M345.707 284.128L341.056 284.026L339.21 264.877L346.075 265.027L345.707 284.128Z" fill="#FFB7B7"/>
<path d="M345.738 282.511L340.897 282.407L337.766 282.339C336.999 282.321 336.237 282.464 335.522 282.76C334.807 283.056 334.155 283.499 333.601 284.064C333.048 284.629 332.604 285.305 332.296 286.053C331.989 286.801 331.823 287.606 331.808 288.423L331.803 288.626L346.802 288.955L346.826 287.635L346.924 282.537L345.738 282.511Z" fill="#2F2E41"/>
<path d="M361.909 215.689L335.034 225.129C333.437 225.547 331.985 226.441 330.848 227.705C329.71 228.969 328.933 230.552 328.609 232.268L320.489 275.154L333.504 275.37L341.73 239.328L359.491 231.591L345.882 239.977C344.653 241.015 343.703 242.378 343.125 243.93L335.117 275.759H349.471L357.629 250.306L393.034 228.817L361.909 215.689Z" fill="#2F2E41"/>
<path d="M389.02 170.915L372.006 173.114C372.006 173.114 362.019 177.884 362.019 180.308C362.019 182.732 358.043 217.479 358.043 217.479C358.043 217.479 354.507 219.803 368.318 223.893C382.129 227.982 384.607 233.628 384.607 233.628L385.658 238.345L401.48 232.426L404.136 192.025L407.167 176.293L396.927 170.208L389.02 170.915Z" fill="#CBCBCB"/>
<path d="M381.721 167.395C388.438 167.395 393.884 161.597 393.884 154.445C393.884 147.293 388.438 141.494 381.721 141.494C375.004 141.494 369.558 147.293 369.558 154.445C369.558 161.597 375.004 167.395 381.721 167.395Z" fill="#FFB7B7"/>
<path d="M390.058 141.15L390.299 139.763L387.042 139.119C387.042 139.119 382.435 134.621 377.149 137.882C371.863 141.142 369.546 142.837 369.546 142.837L367.108 145.225L368.942 146.305L366.625 148L368.579 148.386L366.913 150.21L369.658 156.134C369.658 156.134 370.171 150.854 374.079 151.626C377.988 152.399 383.516 147.751 383.516 147.751L391.958 157.312C391.958 157.312 392.028 153.041 394.31 153.482C394.31 153.482 397.103 143.26 390.058 141.15Z" fill="#2F2E41"/>
<path d="M393.182 198.554C393.595 197.895 394.138 197.341 394.774 196.93C395.41 196.52 396.122 196.262 396.862 196.177C397.601 196.091 398.349 196.179 399.053 196.434C399.756 196.69 400.399 197.106 400.936 197.655L417.038 188.911L415.994 198.851L400.863 205.63C399.938 206.528 398.735 207.034 397.483 207.051C396.232 207.068 395.017 206.596 394.071 205.724C393.124 204.852 392.51 203.64 392.347 202.319C392.183 200.997 392.48 199.657 393.182 198.554Z" fill="#FFB7B7"/>
<path d="M403.218 177.053L407.168 176.292L428.242 186.329L429.677 196.163L417.037 199.701L410.424 190.644L400.744 193.505L395.03 184.348L403.218 177.053Z" fill="#CBCBCB"/>
<path d="M384.424 188.314L383.935 211.053C383.923 211.638 384.358 212.122 384.907 212.136L393.965 212.356C394.514 212.37 394.969 211.907 394.982 211.322L395.47 188.583C395.482 187.999 395.048 187.514 394.499 187.501L385.441 187.28C384.891 187.267 384.436 187.73 384.424 188.314Z" fill="#3F3D56"/>
<path d="M389.97 196.559C390.929 196.559 391.707 195.73 391.707 194.709C391.707 193.687 390.929 192.859 389.97 192.859C389.01 192.859 388.232 193.687 388.232 194.709C388.232 195.73 389.01 196.559 389.97 196.559Z" fill="white"/>
<path d="M384.746 201.162C384.097 200.857 383.393 200.707 382.684 200.723C381.974 200.74 381.277 200.921 380.641 201.255C380.005 201.589 379.445 202.068 379.001 202.657C378.557 203.247 378.241 203.933 378.073 204.666L360.906 206.41L366.528 213.841L381.967 211.046C383.144 211.264 384.355 211.016 385.371 210.347C386.387 209.678 387.137 208.636 387.48 207.418C387.822 206.199 387.733 204.89 387.229 203.737C386.725 202.584 385.842 201.667 384.746 201.162Z" fill="#FFB7B7"/>
<path d="M367.293 183.768L366.394 201.56L369.767 202.696L368.318 215.1L359.657 216.493L363.271 184.382L367.293 183.768Z" fill="#CBCBCB"/>
<path d="M417.249 182.859L416.911 188.979L416.779 191.369V191.4L416.367 198.783L416.352 199.09L415.466 215.134H380.318C377.321 215.135 374.431 216.317 372.204 218.452C371.837 218.808 371.494 219.19 371.175 219.595C370.976 219.845 370.79 220.107 370.616 220.377C370.392 220.711 370.186 221.057 369.999 221.416C369.559 222.261 369.222 223.162 368.994 224.097C368.969 224.172 368.95 224.249 368.935 224.327C368.803 224.893 368.713 225.468 368.666 226.049L368.774 230.697L368.788 231.423L368.828 233.238L369.053 243.37L369.19 249.402L369.318 255.083C366.098 255 360.566 256.816 357.366 268.983C356.661 271.664 356.092 274.007 355.622 276.047C355.382 277.085 355.165 278.047 354.97 278.932C354.642 280.445 354.373 281.744 354.137 282.856C353.877 284.108 353.662 285.115 353.461 285.924C352.76 288.668 352.202 289.017 350.433 288.308C349.253 287.964 348.046 287.739 346.827 287.635C343.196 287.176 337.575 286.753 332.161 286.414C331.935 286.404 331.715 286.388 331.489 286.372C323.762 285.892 316.652 285.59 316.652 285.59V290.327L350.433 293.562C350.433 293.562 353.917 295.226 356.602 289.56C356.969 288.784 357.282 287.98 357.538 287.155C357.709 286.638 357.871 286.08 358.023 285.48C358.263 284.551 358.505 283.617 358.748 282.678C358.969 281.828 359.194 280.972 359.415 280.127C360.87 274.555 362.271 269.322 363.094 266.311C363.408 265.094 363.969 263.964 364.738 263.003C365.507 262.042 366.465 261.273 367.544 260.75C368.298 260.373 369.122 260.182 369.954 260.191L373.943 260.004L373.541 250.737H388.717C388.957 250.205 389.212 249.678 389.481 249.167C390.038 248.07 390.659 247.011 391.338 245.995H373.37L373.179 240.866L372.85 232.012L372.836 231.663L372.757 229.56L372.684 227.562C372.673 227.067 372.719 226.573 372.821 226.09C372.86 225.908 372.909 225.699 372.973 225.48C373.225 224.544 373.629 223.663 374.168 222.877C374.55 222.322 375.011 221.836 375.536 221.437C375.66 221.341 375.789 221.252 375.923 221.17C376.686 220.71 377.537 220.439 378.412 220.377C378.572 220.362 378.732 220.356 378.892 220.362H414.574V232.19C415.191 232.148 415.813 232.127 416.441 232.127C416.764 232.127 417.083 232.132 417.401 232.143C417.798 232.158 418.195 232.179 418.587 232.205V220.247L419.998 198.871L420.807 186.668H434.179L434.184 182.859H417.249Z" fill="#3F3D56"/>
<path d="M92.4666 196.478C93.1556 196.113 93.761 195.592 94.2402 194.951C94.7194 194.31 95.0608 193.564 95.2402 192.768C95.4197 191.971 95.4329 191.142 95.2789 190.339C95.1249 189.536 94.8075 188.779 94.349 188.121L98.2851 147.144H89.7787L86.6505 187.156C85.6633 188.049 85.0182 189.297 84.8374 190.663C84.6567 192.029 84.9528 193.419 85.6697 194.568C86.3866 195.717 87.4745 196.546 88.7272 196.898C89.9799 197.25 91.3104 197.101 92.4666 196.478V196.478Z" fill="#9F616A"/>
<path d="M100.277 124.529C106.924 124.529 112.312 118.792 112.312 111.715C112.312 104.637 106.924 98.9001 100.277 98.9001C93.6304 98.9001 88.2422 104.637 88.2422 111.715C88.2422 118.792 93.6304 124.529 100.277 124.529Z" fill="#9F616A"/>
<path d="M102.543 171.008C102.061 171.007 101.593 170.839 101.209 170.528C100.826 170.217 100.549 169.781 100.422 169.286C99.4573 165.556 96.9487 159.25 92.9655 150.541C92.0668 148.572 91.5691 146.423 91.5051 144.235C91.4411 142.047 91.8123 139.87 92.5943 137.845C93.3763 135.821 94.5515 133.995 96.0427 132.489C97.5339 130.982 99.3074 129.828 101.247 129.102C103.085 128.411 105.035 128.12 106.98 128.245C108.926 128.37 110.828 128.91 112.575 129.832C114.321 130.753 115.876 132.039 117.148 133.612C118.419 135.185 119.382 137.013 119.978 138.989C123.066 149.296 122.916 160.336 122.709 164.604C122.683 165.118 122.5 165.608 122.187 166.001C121.874 166.393 121.449 166.666 120.977 166.777L103.016 170.953C102.86 170.989 102.702 171.008 102.543 171.008Z" fill="#047CFD"/>
<path d="M119.936 292.692H125.943L128.801 268.02H119.935L119.936 292.692Z" fill="#9F616A"/>
<path d="M118.405 298.892L118.404 290.604L130.235 290.603C132.234 290.603 134.152 291.449 135.566 292.954C136.98 294.46 137.775 296.501 137.775 298.631V298.891L118.405 298.892Z" fill="#2F2E41"/>
<path d="M59.8667 284.402L65.1308 287.484L78.7993 267.33L71.0299 262.782L59.8667 284.402Z" fill="#9F616A"/>
<path d="M72.6928 298.986L55.7188 289.05L59.4692 281.786L69.8362 287.855C71.5867 288.883 72.883 290.608 73.4407 292.651C73.9983 294.695 73.7718 296.891 72.8108 298.757L72.6928 298.986Z" fill="#2F2E41"/>
<path d="M119.656 278.998C119.121 278.997 118.604 278.79 118.202 278.413C117.8 278.037 117.54 277.517 117.471 276.952L109.958 215.309C109.925 215.037 109.812 214.782 109.635 214.582C109.458 214.382 109.226 214.247 108.972 214.196C108.718 214.144 108.456 214.18 108.222 214.297C107.989 214.414 107.796 214.607 107.671 214.847L76.3606 275.333C76.1022 275.827 75.686 276.206 75.1876 276.4C74.6892 276.595 74.1417 276.593 73.6446 276.394L66.8199 273.626C66.5454 273.514 66.2946 273.346 66.0821 273.13C65.8697 272.914 65.6999 272.655 65.5828 272.368C65.4656 272.081 65.4035 271.772 65.4001 271.459C65.3966 271.147 65.4519 270.836 65.5626 270.547L87.2521 213.814C87.307 213.67 87.3442 213.519 87.3628 213.365C90.3006 189.154 97.7751 176.842 99.9959 173.646C100.158 173.411 100.265 173.138 100.307 172.85C100.349 172.562 100.326 172.267 100.239 171.99L99.9336 171.015C99.8116 170.628 99.7866 170.214 99.861 169.813C99.9354 169.413 100.107 169.04 100.358 168.732C108.36 159.026 122.308 164.322 122.448 164.377L122.518 164.404L122.562 164.468C138.201 187.306 132.419 261.482 131.101 276.12C131.052 276.67 130.821 277.184 130.45 277.571C130.08 277.957 129.593 278.192 129.075 278.233L119.827 278.991C119.77 278.996 119.713 278.998 119.656 278.998Z" fill="#2F2E41"/>
<path d="M147.064 126.6C147.004 126.881 146.965 127.168 146.947 127.456L125.898 140.385L120.781 137.249L115.327 144.852L123.878 151.341C124.569 151.866 125.4 152.137 126.248 152.115C127.097 152.093 127.915 151.779 128.581 151.219L150.286 132.987C151.266 133.373 152.333 133.432 153.345 133.157C154.357 132.882 155.266 132.285 155.952 131.446C156.637 130.607 157.067 129.566 157.183 128.461C157.3 127.355 157.097 126.239 156.603 125.259C156.109 124.279 155.346 123.483 154.416 122.976C153.487 122.469 152.434 122.275 151.398 122.421C150.363 122.566 149.394 123.044 148.619 123.791C147.845 124.537 147.303 125.517 147.064 126.6H147.064Z" fill="#9F616A"/>
<path d="M125.194 140.998L118.391 150.386C118.197 150.653 117.952 150.873 117.672 151.03C117.391 151.187 117.082 151.278 116.766 151.296C116.449 151.315 116.133 151.26 115.838 151.137C115.543 151.013 115.277 150.824 115.057 150.581L107.355 142.065C106.076 141.003 105.244 139.445 105.043 137.731C104.842 136.017 105.287 134.288 106.282 132.924C107.277 131.559 108.739 130.671 110.348 130.453C111.958 130.236 113.582 130.707 114.866 131.764L124.525 137.515C124.801 137.68 125.041 137.906 125.228 138.178C125.415 138.451 125.545 138.763 125.608 139.093C125.672 139.424 125.668 139.765 125.596 140.094C125.525 140.422 125.387 140.731 125.194 140.998L125.194 140.998Z" fill="#047CFD"/>
<path d="M98.8266 157.308L87.8674 155.201C87.5555 155.141 87.2595 155.011 86.9995 154.818C86.7394 154.625 86.5214 154.375 86.3603 154.084C86.1993 153.794 86.0989 153.47 86.0661 153.134C86.0332 152.799 86.0687 152.459 86.1701 152.14L89.7229 140.939C90.0199 139.242 90.9368 137.74 92.2726 136.762C93.6085 135.783 95.2541 135.409 96.8488 135.721C98.4434 136.032 99.8569 137.005 100.779 138.425C101.702 139.844 102.057 141.596 101.769 143.294L101.422 155.072C101.412 155.409 101.334 155.74 101.193 156.043C101.052 156.345 100.852 156.611 100.605 156.823C100.359 157.035 100.073 157.189 99.7657 157.272C99.4587 157.356 99.1385 157.368 98.8266 157.308Z" fill="#047CFD"/>
<path d="M102.182 108.767C105.275 111.021 109.337 113.339 112.496 110.938C114.57 109.362 115.224 106.443 114.383 103.882C112.87 99.2754 108.714 97.2475 104.739 95.6931C99.5725 93.6724 93.9467 92.0648 88.6129 93.5119C83.279 94.9591 78.5651 100.458 79.528 106.228C80.3023 110.869 84.4133 114.73 83.8297 119.402C83.2423 124.104 78.2761 126.579 73.8918 127.419C69.5074 128.26 64.6012 128.53 61.4503 131.883C57.4308 136.161 58.4345 143.806 62.2167 148.323C65.9989 152.839 71.7065 154.886 77.2371 156.278C84.5648 158.122 92.4903 159.091 99.4498 156.031C106.409 152.971 111.825 144.733 109.809 137.008C108.957 133.745 106.951 130.988 105.013 128.303C103.074 125.619 101.111 122.811 100.371 119.518C99.7549 116.773 100.211 113.586 101.92 111.527C102.231 111.167 102.427 110.711 102.479 110.225C102.532 109.739 102.438 109.247 102.212 108.821L102.182 108.767Z" fill="#2F2E41"/>
</g>
<defs>
<clipPath id="clip0_540_320">
<rect width="490" height="300" fill="white"/>
</clipPath>
</defs>
</svg>
