<svg width="577" height="338" viewBox="0 0 577 338" fill="none" xmlns="http://www.w3.org/2000/svg">
<g clip-path="url(#clip0_491_34)">
<path d="M8.79133 231.052C-4.19317 196.104 -3.71441 151.806 16.4371 122.315C23.1789 163.209 41.5907 199.882 68.4148 225.848C78.7896 235.816 91.1819 245.588 94.016 261.3C95.7797 271.075 93.2799 281.416 88.9584 289.931C84.6365 298.447 78.6124 305.452 72.6569 312.356L71.9887 314.718C46.0742 292.886 21.7758 266 8.79133 231.052Z" fill="#F0F0F0"/>
<path d="M16.998 122.742C12.3604 153.642 15.8056 186.546 27.0779 214.857C29.5149 220.977 32.4249 226.928 36.3209 231.851C40.1488 236.614 44.955 240.043 50.2402 241.781C55.1413 243.522 60.3203 244.613 64.7883 247.773C69.4977 251.105 72.4204 256.695 73.5589 263.105C74.952 270.949 73.9458 278.933 72.739 286.7C71.3989 295.323 69.8948 304.254 71.8366 312.923C72.0719 313.974 70.7188 314.356 70.4838 313.308C67.1054 298.225 73.6739 283.35 72.7558 268.187C72.3274 261.111 70.144 254.15 65.1581 250.05C60.7983 246.465 55.4584 245.335 50.4833 243.624C45.2595 241.828 40.5681 239.084 36.5761 234.532C32.4924 229.876 29.3851 224.051 26.8302 218.033C21.1201 204.334 17.2158 189.627 15.2601 174.452C12.9492 157.148 13.088 139.49 15.6705 122.243C15.8307 121.176 17.1572 121.681 16.998 122.742L16.998 122.742Z" fill="white"/>
<path d="M23.0151 205.89C18.8085 207.53 14.2597 207.298 10.181 205.234C6.10222 203.17 2.75918 199.409 0.748872 194.623C0.344835 193.653 1.56479 192.843 1.96936 193.815C3.8346 198.276 6.94893 201.779 10.7503 203.691C14.5516 205.603 18.7896 205.799 22.6992 204.243C23.5492 203.907 23.8602 205.555 23.0151 205.89L23.0151 205.89Z" fill="white"/>
<path d="M47.6593 241.296C51.8627 231.572 52.8995 220.276 50.5628 209.663C50.3306 208.612 51.6837 208.228 51.9156 209.279C54.3302 220.329 53.2317 232.08 48.8392 242.188C48.42 243.152 47.2423 242.254 47.6593 241.296Z" fill="white"/>
<path d="M14.7352 157.697C16.4715 157.475 18.1353 156.731 19.5772 155.533C21.0191 154.336 22.1939 152.721 22.9961 150.834C23.4051 149.865 24.5823 150.763 24.176 151.726C23.2817 153.806 21.9825 155.587 20.3919 156.915C18.8012 158.243 16.9675 159.076 15.0511 159.343C14.8722 159.386 14.6863 159.345 14.5314 159.228C14.3764 159.111 14.2639 158.926 14.2167 158.712C14.1758 158.494 14.2073 158.265 14.3044 158.075C14.4015 157.884 14.5563 157.749 14.7352 157.697Z" fill="white"/>
<path d="M123.155 122.658C122.914 123.272 122.673 123.885 122.437 124.512C119.229 132.787 116.579 141.365 114.513 150.161C114.344 150.838 114.181 151.528 114.029 152.209C109.237 173.467 107.729 195.623 109.583 217.551C110.328 226.275 111.617 234.919 113.439 243.405C115.956 255.126 119.451 267.59 118.663 279.293C118.592 280.515 118.458 281.731 118.264 282.933L74.4089 315.527C74.2787 315.54 74.1541 315.566 74.0234 315.579L72.3213 316.978C72.2022 316.548 72.0863 316.1 71.9672 315.67C71.8972 315.421 71.8371 315.165 71.7671 314.916C71.7236 314.748 71.6805 314.579 71.6333 314.43C71.6187 314.374 71.6045 314.318 71.5959 314.274C71.5487 314.125 71.5179 313.981 71.4768 313.844C70.8231 311.338 70.1827 308.822 69.5556 306.295C69.5495 306.283 69.5495 306.283 69.5531 306.263C64.8157 286.999 61.3583 267.084 60.4949 247.164C60.4691 246.564 60.4367 245.953 60.4309 245.339C60.0827 236.357 60.3384 227.356 61.1954 218.424C61.6776 213.536 62.3628 208.68 63.2485 203.876C65.5567 191.468 69.4544 179.579 74.7988 168.644C85.4554 146.849 101.722 129.443 121.63 123.122C122.14 122.961 122.64 122.807 123.155 122.658Z" fill="#F0F0F0"/>
<path d="M123.397 123.408C104.405 144.683 90.8751 173.479 85.8675 204.341C84.7848 211.014 84.1638 217.897 84.8388 224.682C85.5385 231.289 87.6795 237.548 91.0393 242.808C94.091 247.789 97.6866 252.454 99.6902 258.25C101.802 264.361 101.37 270.965 99.107 276.917C96.3385 284.2 91.5844 289.839 86.7779 295.156C81.4412 301.059 75.8211 307.088 73.0823 315.433C72.7505 316.444 71.4806 315.758 71.812 314.748C76.5771 300.231 89.1817 293.166 95.9515 280.386C99.1103 274.423 100.811 267.265 98.859 260.339C97.1516 254.283 93.4472 249.468 90.3214 244.458C87.0393 239.196 84.6512 233.568 83.716 227.009C82.7593 220.3 83.1604 213.373 84.0981 206.696C86.3173 191.575 90.4766 176.972 96.4236 163.423C103.14 147.913 111.988 133.916 122.584 122.037C123.24 121.302 124.049 122.678 123.397 123.408L123.397 123.408Z" fill="white"/>
<path d="M87.0598 194.205C82.8894 192.433 79.3724 188.915 77.137 184.279C74.9015 179.643 74.0931 174.191 74.8562 168.897C75.0136 167.826 76.3882 168.074 76.2306 169.146C75.5125 174.074 76.266 179.152 78.3549 183.464C80.4438 187.776 83.7306 191.037 87.6221 192.659C88.4674 193.013 87.9003 194.557 87.0598 194.205H87.0598Z" fill="white"/>
<path d="M89.2185 240.53C97.3864 235.845 103.803 227.586 107.189 217.4C107.524 216.39 108.793 217.076 108.459 218.084C104.919 228.676 98.2277 237.254 89.7191 242.107C88.9079 242.569 88.4116 240.99 89.2185 240.53H89.2185Z" fill="white"/>
<path d="M104.294 149.66C105.791 150.755 107.487 151.38 109.231 151.48C110.975 151.58 112.712 151.151 114.286 150.232C115.092 149.758 115.587 151.338 114.787 151.809C113.044 152.815 111.125 153.285 109.198 153.18C107.271 153.075 105.394 152.397 103.732 151.206C103.568 151.109 103.44 150.941 103.374 150.733C103.308 150.526 103.31 150.297 103.378 150.091C103.453 149.887 103.592 149.727 103.763 149.646C103.935 149.565 104.126 149.57 104.294 149.66H104.294Z" fill="white"/>
<path d="M384.956 115.527L384.77 115.061C384.713 114.919 379.128 100.709 382.241 86.7033C385.355 72.6972 396.065 63.8519 396.172 63.7643L396.526 63.4764L396.712 63.9429C396.769 64.0847 402.354 78.2943 399.24 92.3004C396.126 106.306 385.416 115.153 385.309 115.239L384.956 115.527ZM398.792 90.7167C400.882 78.7737 386.321 74.0076 383.272 85.6413C383.161 86.0677 383.056 86.4993 382.959 86.9361C380.239 99.1649 384.324 111.592 385.256 114.175C387.131 112.515 395.806 104.292 398.525 92.0634C398.624 91.6178 398.713 91.169 398.792 90.7167Z" fill="#3F3D56"/>
<path d="M370.554 92.1827C373.667 106.19 384.336 114.864 384.336 114.864C384.336 114.864 389.954 100.829 386.84 86.8226C383.726 72.8158 373.057 64.1415 373.057 64.1415C373.057 64.1415 367.44 78.1759 370.554 92.1827Z" fill="#349AFE"/>
<path d="M385.125 115.331L384.7 115.303C384.571 115.294 371.653 114.326 363.106 104.205C354.56 94.0851 353.418 78.3953 353.407 78.2376L353.372 77.7219L353.797 77.7503C353.927 77.7586 366.845 78.7274 375.39 88.8477C383.936 98.968 385.079 114.658 385.09 114.815L385.125 115.331ZM363.625 103.559C371.087 112.403 381.994 114.095 384.303 114.361C384.022 111.56 382.335 98.3405 374.873 89.496C374.606 89.18 374.335 88.8731 374.06 88.5753C366.565 80.4562 356.033 93.5823 362.83 102.564C363.088 102.904 363.353 103.236 363.625 103.559Z" fill="#3F3D56"/>
<path d="M394.306 89.1723C385.761 99.2934 384.717 114.852 384.717 114.852C384.717 114.852 397.527 114.001 406.072 103.88C414.617 93.7589 415.662 78.1992 415.662 78.1992C415.662 78.1992 402.85 79.0503 394.306 89.1723Z" fill="#3F3D56"/>
<path d="M384.539 61.8294C387.616 61.8294 390.111 58.7938 390.111 55.0492C390.111 51.3045 387.616 48.2689 384.539 48.2689C381.462 48.2689 378.967 51.3045 378.967 55.0492C378.967 58.7938 381.462 61.8294 384.539 61.8294Z" fill="#349AFE"/>
<path d="M374.428 112.067H395.685C398.231 112.067 400.673 113.298 402.473 115.489C404.274 117.679 405.285 120.65 405.285 123.749C405.285 130.2 402.281 153.6 396.979 153.6L370.921 154.435C365.62 154.435 364.828 130.2 364.828 123.749C364.828 120.65 365.84 117.679 367.64 115.489C369.44 113.298 371.882 112.067 374.428 112.067Z" fill="#E6E6E6"/>
<path d="M329.063 111.728C328.745 111.979 328.443 112.26 328.161 112.568L295.209 102.346L292.962 92.6733L280.52 94.8937L283.132 112.489C283.343 113.911 283.927 115.211 284.797 116.194C285.667 117.177 286.775 117.79 287.956 117.941L326.432 122.871C327.059 124.479 328.073 125.816 329.34 126.705C330.607 127.593 332.066 127.992 333.524 127.847C334.981 127.701 336.368 127.02 337.499 125.892C338.63 124.765 339.452 123.245 339.856 121.535C340.26 119.825 340.227 118.006 339.76 116.319C339.294 114.633 338.416 113.16 337.245 112.095C336.073 111.03 334.663 110.425 333.202 110.359C331.74 110.294 330.297 110.771 329.064 111.728H329.063Z" fill="#FFB6B6"/>
<path d="M278.296 103.674L286.786 112.585L298.662 125.043L303.908 92.3846L304.456 88.9887L304.888 86.2936L292.854 60.7864L282.822 61.4873L282.136 61.5373L282.123 61.7209L281.965 63.4314L279.908 85.9432L279.86 86.4855L278.296 103.674Z" fill="#E6E6E6"/>
<path d="M333.783 327.019H342.19L346.19 287.562H333.782L333.783 327.019Z" fill="#FFB6B6"/>
<path d="M246.012 327.853H254.419L258.418 288.396H246.01L246.012 327.853Z" fill="#FFB6B6"/>
<path d="M239.292 310.477L261.921 314.649L294.842 179.078L329.806 315.483L355.178 311.311L322.264 152.778V140.262L317.806 121.488L318.273 116.407L321.516 80.8702L322.922 65.459L323.013 64.4636C323.089 63.6281 322.908 62.788 322.503 62.1067C322.098 61.4254 321.499 60.9518 320.824 60.7781L310.263 58.0747H293.007L282.824 61.4873L282.125 61.721L281.809 61.8295L281.967 63.4315L284.353 87.7789L284.483 89.1139L286.787 112.585L287.295 117.733C267.409 135.256 266.723 152.778 266.723 152.778L239.292 310.477Z" fill="#2F2E41"/>
<path d="M303.721 47.5196C313.022 47.5196 320.563 38.3444 320.563 27.0262C320.563 15.708 313.022 6.53284 303.721 6.53284C294.419 6.53284 286.879 15.708 286.879 27.0262C286.879 38.3444 294.419 47.5196 303.721 47.5196Z" fill="#FFB6B6"/>
<path d="M286.031 113.025L285.408 118.816L318.724 124.118L319.347 118.327L286.031 113.025Z" fill="#349AFE"/>
<path d="M364.035 120.072C363.716 120.323 363.415 120.604 363.132 120.912L330.181 110.69L327.933 101.017L315.492 103.238L318.104 120.833C318.315 122.255 318.899 123.554 319.769 124.538C320.639 125.521 321.747 126.134 322.928 126.285L361.404 131.215C362.031 132.823 363.045 134.16 364.312 135.048C365.579 135.937 367.038 136.335 368.495 136.19C369.953 136.045 371.339 135.364 372.47 134.236C373.602 133.109 374.424 131.589 374.828 129.879C375.232 128.169 375.198 126.35 374.732 124.663C374.265 122.977 373.388 121.504 372.216 120.439C371.045 119.374 369.635 118.769 368.173 118.703C366.712 118.638 365.269 119.115 364.036 120.072H364.035Z" fill="#FFB6B6"/>
<path d="M313.349 66.0012L319.178 60.5777C320.755 59.8501 322.913 61.9169 323.292 63.9153L331.521 104.8L314.378 119.819L311.978 115.23L313.349 66.0012Z" fill="#E6E6E6"/>
<path d="M316.626 10.059C319.775 9.5892 323.232 9.92128 325.687 12.3677C328.142 14.8141 328.934 19.9006 326.61 22.5289C324.553 24.856 321.335 24.3086 318.578 24.9703C316.204 25.6178 314.076 27.2159 312.537 29.5088C310.997 31.8017 310.134 34.6568 310.086 37.6171C310.127 46.1062 316.823 52.5351 318.025 60.8965C318.848 66.6038 316.868 72.6097 313.448 76.6414C310.029 80.6732 305.327 82.8518 300.59 83.4417C295.853 84.0316 291.064 83.1305 286.46 81.6494C281.838 80.1625 277.287 78.0524 273.409 74.6506C269.53 71.2488 266.351 66.4519 265.105 60.8348C263.86 55.2177 264.754 48.7771 267.963 44.4641C271.638 39.5254 277.751 37.8274 280.93 32.4022C284.496 26.3212 283.175 17.6619 286.059 11.0694C287.984 6.66801 291.63 3.66588 295.516 2.08388C299.402 0.501883 303.552 0.189819 307.648 0.0371261C309.801 -0.0463127 312.019 -0.0705045 314.025 0.884869C316.031 1.84024 317.796 4.01632 317.898 6.63463C317.999 9.25294 316.626 10.059 316.626 10.059Z" fill="#2F2E41"/>
<path d="M128.586 336.892H58.5393C57.2866 336.89 56.0858 336.284 55.2001 335.206C54.3144 334.128 53.8162 332.667 53.8149 331.143V278.003C53.8197 272.906 55.4857 268.02 58.4475 264.416C61.4093 260.812 65.4249 258.785 69.6135 258.779H128.586C129.839 258.781 131.039 259.387 131.925 260.465C132.811 261.542 133.309 263.004 133.31 264.528V331.143C133.309 332.667 132.811 334.128 131.925 335.206C131.04 336.284 129.839 336.89 128.586 336.892ZM69.6135 260.448C65.7886 260.453 62.1216 262.304 59.4169 265.595C56.7122 268.886 55.1908 273.348 55.1864 278.003V331.143C55.1873 332.224 55.5409 333.262 56.1694 334.027C56.798 334.792 57.6503 335.222 58.5393 335.223H128.586C129.475 335.222 130.327 334.792 130.956 334.027C131.584 333.262 131.938 332.224 131.939 331.143V264.528C131.938 263.446 131.584 262.409 130.956 261.644C130.327 260.879 129.475 260.449 128.586 260.448H69.6135Z" fill="#3F3D56"/>
<path d="M71.9307 262.56C68.0857 262.565 64.3995 264.426 61.6807 267.734C58.9619 271.043 57.4326 275.528 57.4282 280.207V328.939C57.4293 330.045 57.7909 331.106 58.4336 331.888C59.0764 332.67 59.9478 333.11 60.8568 333.111H126.269C127.178 333.11 128.049 332.67 128.692 331.888C129.335 331.106 129.696 330.045 129.697 328.939V266.732C129.696 265.626 129.335 264.565 128.692 263.783C128.049 263.001 127.178 262.561 126.269 262.56H71.9307Z" fill="#349AFE"/>
<path d="M98.6024 278.477H88.8886C88.4341 278.477 87.9983 278.257 87.6769 277.866C87.3556 277.475 87.1748 276.944 87.1743 276.391V257.136H100.317V276.391C100.316 276.944 100.135 277.475 99.8141 277.866C99.4927 278.257 99.0569 278.477 98.6024 278.477Z" fill="#3F3D56"/>
<path d="M487.615 240.618L490.614 230.888L490.722 230.813L514.885 214.012C515.145 213.832 515.426 213.702 515.719 213.627C516.392 213.454 517.094 213.581 517.697 213.984C518.3 214.386 518.764 215.039 519.006 215.822C519.247 216.606 519.25 217.469 519.014 218.255C518.777 219.04 518.317 219.697 517.717 220.106L487.615 240.618Z" fill="#3F3D56"/>
<path d="M398.758 240.618L368.659 220.108C368.059 219.699 367.599 219.042 367.363 218.256C367.126 217.469 367.129 216.606 367.371 215.823C367.613 215.039 368.077 214.386 368.68 213.983C369.283 213.581 369.985 213.454 370.658 213.626C370.951 213.701 371.232 213.831 371.492 214.012L395.763 230.888L398.758 240.618Z" fill="#3F3D56"/>
<path d="M490.017 241.826H396.358L388.48 197.092H497.895L490.017 241.826Z" fill="#3F3D56"/>
<path d="M493.102 238.303H393.274L386.407 200.237C386.198 199.078 386.205 197.877 386.428 196.722C386.651 195.567 387.084 194.488 387.695 193.564C388.306 192.639 389.079 191.893 389.958 191.381C390.838 190.868 391.8 190.602 392.775 190.602H493.601C494.576 190.602 495.538 190.868 496.417 191.381C497.297 191.893 498.07 192.639 498.681 193.564C499.292 194.488 499.725 195.567 499.948 196.722C500.17 197.877 500.177 199.078 499.968 200.237L493.102 238.303ZM394.377 236.634H491.999L498.629 199.878C498.794 198.963 498.789 198.015 498.613 197.103C498.437 196.191 498.095 195.339 497.612 194.609C497.13 193.879 496.519 193.29 495.825 192.885C495.131 192.481 494.371 192.271 493.601 192.271H392.775C392.005 192.271 391.245 192.481 390.551 192.886C389.856 193.29 389.245 193.879 388.763 194.609C388.28 195.339 387.939 196.192 387.763 197.104C387.587 198.016 387.581 198.964 387.746 199.879L394.377 236.634Z" fill="#3F3D56"/>
<path opacity="0.1" d="M490.017 241.826H396.358L388.48 197.092H497.895L490.017 241.826Z" fill="black"/>
<path d="M489.11 337.018H397.266C396.02 337.016 394.825 336.413 393.944 335.341C393.063 334.269 392.568 332.816 392.566 331.3V235.742H493.809V331.3C493.808 332.816 493.312 334.269 492.431 335.341C491.55 336.413 490.356 337.016 489.11 337.018ZM393.938 237.411V331.3C393.939 332.373 394.29 333.403 394.914 334.162C395.538 334.921 396.383 335.348 397.266 335.349H489.11C489.992 335.348 490.838 334.921 491.462 334.162C492.086 333.403 492.437 332.373 492.438 331.3V237.411H393.938Z" fill="#3F3D56"/>
<path d="M396.263 239.58V328.59C396.264 329.807 396.662 330.973 397.369 331.834C398.076 332.694 399.035 333.178 400.035 333.179H486.34C487.34 333.178 488.298 332.694 489.005 331.834C489.712 330.973 490.11 329.807 490.111 328.59V239.58H396.263Z" fill="#3F3D56"/>
<path d="M498.237 197.509H388.138V197.092C388.139 195.67 388.604 194.307 389.43 193.301C390.256 192.296 391.377 191.73 392.545 191.729H493.83C494.998 191.73 496.119 192.296 496.945 193.301C497.771 194.307 498.236 195.67 498.237 197.092V197.509Z" fill="#349AFE"/>
<path d="M152.096 277.844C148.717 277.848 145.478 279.484 143.088 282.391C140.699 285.298 139.355 289.24 139.351 293.351V328.941C139.352 330.047 139.714 331.107 140.356 331.889C140.999 332.672 141.871 333.111 142.78 333.113H192.609C193.517 333.111 194.389 332.672 195.032 331.889C195.674 331.107 196.036 330.047 196.037 328.941V282.016C196.036 280.909 195.674 279.849 195.032 279.067C194.389 278.285 193.517 277.845 192.609 277.844H152.096Z" fill="#3F3D56"/>
<path d="M203.774 274.284H153.411C152.134 274.282 150.908 273.664 150.005 272.564C149.101 271.465 148.593 269.974 148.591 268.419V216.98C148.593 215.425 149.101 213.934 150.005 212.834C150.908 211.735 152.133 211.116 153.411 211.115H198.354C202.198 211.12 205.883 212.98 208.602 216.288C211.32 219.596 212.849 224.08 212.853 228.758V263.236C212.851 266.165 211.893 268.973 210.191 271.044C208.489 273.115 206.181 274.28 203.774 274.284ZM153.411 212.783C152.497 212.785 151.621 213.227 150.974 214.014C150.327 214.801 149.964 215.867 149.963 216.98V268.419C149.964 269.532 150.328 270.598 150.974 271.385C151.621 272.171 152.497 272.614 153.411 272.615H203.774C205.817 272.612 207.777 271.623 209.222 269.865C210.667 268.107 211.48 265.723 211.482 263.236V228.758C211.478 224.523 210.093 220.462 207.632 217.468C205.171 214.473 201.834 212.788 198.354 212.783L153.411 212.783Z" fill="#3F3D56"/>
<path d="M195.004 337.062H140.383C139.105 337.061 137.88 336.442 136.976 335.343C136.072 334.244 135.564 332.753 135.562 331.198V291.095C135.567 286.535 137.057 282.162 139.708 278.937C142.358 275.712 145.951 273.898 149.699 273.893H195.004C196.282 273.895 197.507 274.514 198.411 275.613C199.315 276.713 199.823 278.203 199.824 279.758V331.198C199.823 332.753 199.315 334.244 198.411 335.343C197.507 336.442 196.282 337.061 195.004 337.062ZM149.699 275.562C146.315 275.567 143.07 277.205 140.677 280.117C138.284 283.029 136.938 286.977 136.934 291.095V331.198C136.935 332.31 137.299 333.377 137.945 334.163C138.592 334.95 139.468 335.392 140.383 335.394H195.004C195.919 335.392 196.795 334.95 197.442 334.163C198.088 333.377 198.452 332.31 198.453 331.198V279.758C198.452 278.646 198.088 277.579 197.442 276.793C196.795 276.006 195.919 275.563 195.004 275.562H149.699Z" fill="#3F3D56"/>
<path d="M155.808 215.065C154.899 215.066 154.028 215.506 153.385 216.288C152.742 217.07 152.38 218.131 152.379 219.237V266.162C152.38 267.268 152.742 268.329 153.385 269.111C154.028 269.893 154.899 270.333 155.808 270.334H201.378C203.416 270.331 205.37 269.345 206.811 267.591C208.253 265.837 209.063 263.459 209.065 260.979V231.015C209.061 226.786 207.679 222.732 205.222 219.742C202.764 216.751 199.432 215.069 195.957 215.065H155.808Z" fill="#E6E6E6"/>
<path d="M184.406 227.477H177.328C176.873 227.476 176.437 227.257 176.116 226.865C175.795 226.474 175.614 225.944 175.613 225.391V210.476H186.12V225.391C186.12 225.944 185.939 226.474 185.617 226.865C185.296 227.257 184.86 227.476 184.406 227.477Z" fill="#3F3D56"/>
<path d="M333.436 318.648L343.493 317.917V323.16L353.055 331.196C353.527 331.592 353.883 332.162 354.07 332.823C354.257 333.483 354.266 334.198 354.095 334.865C353.924 335.532 353.583 336.115 353.12 336.529C352.658 336.942 352.099 337.166 351.525 337.166H339.552L337.488 331.979L336.682 337.166H332.168L333.436 318.648Z" fill="#2F2E41"/>
<path d="M245.664 318.648L255.721 317.917V323.16L265.283 331.196C265.755 331.592 266.111 332.162 266.298 332.823C266.485 333.483 266.494 334.198 266.323 334.865C266.152 335.532 265.811 336.115 265.348 336.529C264.886 336.942 264.327 337.166 263.753 337.166H251.78L249.716 331.979L248.91 337.166H244.396L245.664 318.648Z" fill="#2F2E41"/>
<path d="M75.3782 320.918H56.7424C56.5605 320.918 56.3861 320.83 56.2575 320.673C56.1289 320.517 56.0566 320.305 56.0566 320.083C56.0566 319.862 56.1289 319.65 56.2575 319.493C56.3861 319.337 56.5605 319.249 56.7424 319.249H75.3782C75.5601 319.249 75.7345 319.337 75.8631 319.493C75.9917 319.65 76.0639 319.862 76.0639 320.083C76.0639 320.305 75.9917 320.517 75.8631 320.673C75.7345 320.83 75.5601 320.918 75.3782 320.918Z" fill="#3F3D56"/>
<path d="M157.664 319.249H139.028C138.846 319.249 138.672 319.161 138.543 319.005C138.415 318.848 138.342 318.636 138.342 318.415C138.342 318.193 138.415 317.981 138.543 317.825C138.672 317.668 138.846 317.58 139.028 317.58H157.664C157.846 317.58 158.02 317.668 158.149 317.825C158.277 317.981 158.35 318.193 158.35 318.415C158.35 318.636 158.277 318.848 158.149 319.005C158.02 319.161 157.846 319.249 157.664 319.249Z" fill="#349AFE"/>
<path d="M415.493 312.968H396.857C396.675 312.968 396.501 312.88 396.372 312.724C396.244 312.567 396.171 312.355 396.171 312.134C396.171 311.913 396.244 311.7 396.372 311.544C396.501 311.387 396.675 311.3 396.857 311.3H415.493C415.675 311.3 415.849 311.387 415.978 311.544C416.106 311.7 416.179 311.913 416.179 312.134C416.179 312.355 416.106 312.567 415.978 312.724C415.849 312.88 415.675 312.968 415.493 312.968Z" fill="#349AFE"/>
<path d="M423.036 304.624H404.4C404.218 304.624 404.044 304.537 403.915 304.38C403.787 304.224 403.714 304.011 403.714 303.79C403.714 303.569 403.787 303.357 403.915 303.2C404.044 303.044 404.218 302.956 404.4 302.956H423.036C423.218 302.956 423.392 303.044 423.521 303.2C423.649 303.357 423.722 303.569 423.722 303.79C423.722 304.011 423.649 304.224 423.521 304.38C423.392 304.537 423.218 304.624 423.036 304.624Z" fill="#349AFE"/>
<path d="M388.064 142.753H369.428C369.247 142.753 369.072 142.665 368.944 142.509C368.815 142.352 368.743 142.14 368.743 141.919C368.743 141.698 368.815 141.485 368.944 141.329C369.072 141.172 369.247 141.084 369.428 141.084H388.064C388.246 141.084 388.421 141.172 388.549 141.329C388.678 141.485 388.75 141.698 388.75 141.919C388.75 142.14 388.678 142.352 388.549 142.509C388.421 142.665 388.246 142.753 388.064 142.753Z" fill="#349AFE"/>
<path d="M170.693 259.173H152.057C151.875 259.173 151.701 259.085 151.572 258.929C151.443 258.772 151.371 258.56 151.371 258.339C151.371 258.117 151.443 257.905 151.572 257.749C151.701 257.592 151.875 257.504 152.057 257.504H170.693C170.875 257.504 171.049 257.592 171.178 257.749C171.306 257.905 171.378 258.117 171.378 258.339C171.378 258.56 171.306 258.772 171.178 258.929C171.049 259.085 170.875 259.173 170.693 259.173Z" fill="#3F3D56"/>
<path d="M170.693 252.498H152.057C151.875 252.498 151.701 252.41 151.572 252.254C151.443 252.097 151.371 251.885 151.371 251.664C151.371 251.442 151.443 251.23 151.572 251.074C151.701 250.917 151.875 250.829 152.057 250.829H170.693C170.875 250.829 171.049 250.917 171.178 251.074C171.306 251.23 171.378 251.442 171.378 251.664C171.378 251.885 171.306 252.097 171.178 252.254C171.049 252.41 170.875 252.498 170.693 252.498Z" fill="#3F3D56"/>
<path d="M447 211.363H439.922C439.468 211.362 439.032 211.142 438.711 210.751C438.389 210.36 438.208 209.83 438.208 209.277V194.361H448.715V209.277C448.714 209.83 448.533 210.36 448.212 210.751C447.891 211.142 447.455 211.362 447 211.363Z" fill="#349AFE"/>
<path d="M171.377 289.874H164.299C163.844 289.874 163.408 289.654 163.087 289.263C162.766 288.872 162.585 288.342 162.584 287.789V272.873H173.091V287.789C173.091 288.342 172.91 288.872 172.589 289.263C172.267 289.654 171.831 289.874 171.377 289.874Z" fill="#349AFE"/>
</g>
<defs>
<clipPath id="clip0_491_34">
<rect width="577" height="338" fill="white"/>
</clipPath>
</defs>
</svg>
