<svg width="477" height="296" viewBox="0 0 477 296" fill="none" xmlns="http://www.w3.org/2000/svg">
<g clip-path="url(#clip0_540_377)">
<path d="M236.048 50.3203C244.039 50.3203 250.518 44.18 250.518 36.6056C250.518 29.0312 244.039 22.8909 236.048 22.8909C228.056 22.8909 221.577 29.0312 221.577 36.6056C221.577 44.18 228.056 50.3203 236.048 50.3203Z" fill="#FD6584"/>
<path d="M268.433 30.1114C268.025 28.8432 267.234 27.7157 266.159 26.8679C265.083 26.02 263.77 25.4888 262.38 25.3396C262.347 25.337 262.314 25.337 262.282 25.3396C262.243 25.3281 262.203 25.3195 262.163 25.3139C257.318 24.7181 251.931 26.1666 248.305 29.3204C246.959 30.4727 245.883 31.8795 245.146 33.4501C244.473 32.58 243.588 31.8783 242.565 31.4057C241.542 30.9332 240.414 30.704 239.276 30.738C237.81 30.8299 236.409 31.3483 235.264 32.2225C234.12 33.0966 233.288 34.284 232.881 35.6228C232.837 35.7864 232.849 35.9592 232.916 36.1156C232.984 36.2721 233.103 36.4037 233.255 36.4909C233.691 36.8442 234.209 37.0942 234.767 37.2202C235.965 37.4617 237.174 37.6825 238.382 37.8829C240.745 38.2732 243.121 38.59 245.509 38.8331C247.086 38.9923 248.666 39.119 250.251 39.2132C253.524 39.4084 256.814 39.4546 260.093 39.357C261.718 39.3056 263.279 39.2543 264.764 38.5763C265.846 38.0719 266.771 37.3089 267.447 36.3625C268.083 35.4521 268.501 34.4206 268.672 33.3406C268.842 32.2606 268.761 31.1583 268.433 30.1114Z" fill="#E6E6E6"/>
<path d="M238.664 50.0921C238.637 49.5175 238.535 48.9482 238.361 48.3971C237.95 47.129 237.159 46.0019 236.082 45.1542C235.006 44.3066 233.692 43.7752 232.302 43.6253C232.271 43.6227 232.24 43.6227 232.209 43.6253C232.168 43.6143 232.127 43.6057 232.085 43.5996C229.403 43.2883 226.682 43.5534 224.124 44.3752C220.189 45.6234 216.737 48.1402 215.073 51.7358C214.4 50.8652 213.514 50.1631 212.49 49.6906C211.466 49.218 210.336 48.9891 209.198 49.0237C207.732 49.1156 206.331 49.634 205.186 50.5082C204.042 51.3823 203.21 52.5697 202.803 53.9085C202.761 54.0721 202.775 54.2441 202.842 54.4C202.909 54.5559 203.026 54.6877 203.177 54.7766C203.614 55.1289 204.132 55.3788 204.689 55.506C205.892 55.7474 207.096 55.9682 208.31 56.1686C210.672 56.5589 213.046 56.8757 215.431 57.1188C220.275 57.6117 225.15 57.7868 230.02 57.6427C231.64 57.5913 233.207 57.54 234.692 56.862C235.772 56.3574 236.695 55.5943 237.369 54.6482C238.319 53.3064 238.774 51.7046 238.664 50.0921Z" fill="#E6E6E6"/>
<path d="M427.126 216.508C427.334 225.859 425.972 235.182 423.092 244.128C422.991 244.453 422.871 244.778 422.75 245.103H363.376C364.225 241.142 365.573 237.291 367.39 233.634C372.331 223.695 380.398 215.189 388.364 206.74C399.335 195.1 410.044 183.555 411.738 168.416C416.087 174.7 419.558 181.491 422.064 188.62C418.996 189.697 416.18 191.334 413.775 193.437C413.11 194.029 412.404 194.89 412.747 195.711C413.069 196.4 413.957 196.629 414.743 196.782C416.639 197.126 418.535 197.47 420.43 197.795C421.923 198.082 423.435 198.349 424.948 198.617C426.277 204.501 427.007 210.492 427.126 216.508Z" fill="#F2F2F2"/>
<path d="M477 210.315C467.481 215.801 461.431 224.287 456.49 233.787C452.19 234.716 448.22 236.693 444.974 239.521C444.288 240.114 443.582 240.974 443.945 241.796C444.248 242.484 445.156 242.714 445.942 242.866C447.817 243.211 449.733 243.555 451.609 243.88C451.428 244.281 451.246 244.701 451.065 245.103H388.142C390.998 241.452 394.162 238.026 397.601 234.858C398.347 234.15 399.113 233.481 399.9 232.793C407.921 225.923 417.131 220.414 427.126 216.508C442.871 210.269 460.09 208.131 477 210.315Z" fill="#F2F2F2"/>
<path d="M398.629 245.103H342.604C342.298 240.851 342.325 236.583 342.685 232.335C344.923 206.09 359.988 181.089 382.717 165.95C379.813 175.756 381.305 185.504 384.33 195.291C383.907 195.425 383.483 195.539 383.1 195.692C380.032 196.77 377.216 198.406 374.811 200.509C374.146 201.102 373.44 201.962 373.783 202.784C374.085 203.472 374.993 203.701 375.779 203.854C377.675 204.198 379.571 204.542 381.446 204.867C382.959 205.154 384.472 205.422 385.984 205.708C386.69 205.823 387.396 205.957 388.102 206.09C388.203 206.32 388.263 206.53 388.364 206.74C391.913 216.011 395.786 225.358 397.601 234.858C398.05 237.242 398.36 239.647 398.528 242.064C398.589 243.077 398.629 244.09 398.629 245.103Z" fill="#F2F2F2"/>
<path d="M93.2865 216.508C93.4944 225.859 92.133 235.182 89.2531 244.128C89.1521 244.453 89.0311 244.778 88.9101 245.103H29.5371C30.3858 241.142 31.7333 237.291 33.5505 233.634C38.4915 223.695 46.5585 215.189 54.5246 206.74C65.4957 195.1 76.2047 183.555 77.8988 168.416C82.2475 174.7 85.7183 181.491 88.2245 188.62C85.1562 189.697 82.3403 191.334 79.9357 193.437C79.2701 194.029 78.5642 194.89 78.9071 195.711C79.2298 196.4 80.1171 196.629 80.9037 196.782C82.7994 197.126 84.6952 197.47 86.5909 197.795C88.0833 198.082 89.5958 198.349 91.1084 198.617C92.4378 204.501 93.1673 210.492 93.2865 216.508Z" fill="#F2F2F2"/>
<path d="M143.161 210.315C133.641 215.801 127.591 224.287 122.65 233.787C118.351 234.716 114.381 236.693 111.135 239.521C110.449 240.114 109.743 240.974 110.106 241.796C110.409 242.484 111.316 242.714 112.103 242.866C113.978 243.211 115.894 243.555 117.77 243.88C117.588 244.281 117.407 244.701 117.225 245.103H54.3027C57.1591 241.452 60.3223 238.026 63.7613 234.858C64.5075 234.15 65.2739 233.481 66.0604 232.793C74.0814 225.923 83.2915 220.414 93.2865 216.508C109.032 210.269 126.251 208.131 143.161 210.315Z" fill="#F2F2F2"/>
<path d="M64.7898 245.103H8.76459C8.45864 240.851 8.48564 236.583 8.84534 232.335C11.0839 206.09 26.1489 181.089 48.8777 165.95C45.9736 175.756 47.4659 185.504 50.4911 195.291C50.0676 195.425 49.6441 195.539 49.2609 195.692C46.1926 196.77 43.3767 198.406 40.9721 200.509C40.3065 201.102 39.6007 201.962 39.9435 202.784C40.246 203.472 41.1535 203.701 41.9401 203.854C43.8358 204.198 45.7316 204.542 47.6071 204.867C49.1197 205.154 50.6323 205.422 52.1448 205.708C52.8506 205.823 53.5566 205.957 54.2624 206.09C54.3632 206.32 54.4237 206.53 54.5245 206.74C58.074 216.011 61.9462 225.358 63.7613 234.858C64.2106 237.242 64.5203 239.647 64.689 242.064C64.7495 243.077 64.7898 244.09 64.7898 245.103Z" fill="#F2F2F2"/>
<path d="M273.363 222.809L323.423 227.021L323.959 227.068V24.6191C323.781 24.501 323.602 24.3829 323.423 24.2647C312.99 17.3483 301.704 11.6664 289.817 7.34521L287.259 40.7836L287.026 43.8449L284.495 77.0059L283.714 87.2069L273.455 221.628L273.363 222.809Z" fill="#E6E6E6"/>
<path d="M149.566 20.8488C149.209 21.0645 148.851 21.2803 148.493 21.5063V227.067L149.566 226.975L199.084 222.809L198.992 221.628L188.733 87.2068L187.952 77.0057L185.421 43.8447L185.188 40.7834L182.506 5.7168C170.937 9.51745 159.881 14.5964 149.566 20.8488Z" fill="#E6E6E6"/>
<path d="M148.493 21.5063C147.773 21.9481 147.052 22.4001 146.342 22.8572V229.872C146.342 235.044 149.577 239.38 153.902 240.484C154.609 240.665 155.338 240.757 156.07 240.756H316.92C317.65 240.757 318.377 240.666 319.082 240.484C320.689 240.061 322.146 239.234 323.298 238.09C325.495 235.865 326.695 232.919 326.647 229.872V26.4579C325.759 25.8364 324.864 25.22 323.959 24.619C323.781 24.5009 323.602 24.3828 323.423 24.2646V229.872C323.424 230.538 323.34 231.202 323.174 231.85C322.409 234.906 319.889 237.145 316.92 237.145H156.07C152.482 237.145 149.566 233.884 149.566 229.872V20.8489C149.209 21.0646 148.851 21.2803 148.493 21.5063Z" fill="#E6E6E6"/>
<path d="M325.036 40.7856H147.953V43.8465H325.036V40.7856Z" fill="#E6E6E6"/>
<path d="M270.8 1.7413C269.727 1.48962 268.654 1.25334 267.57 1.03247V84.1455H270.8V1.7413Z" fill="#E6E6E6"/>
<path d="M205.419 0C204.341 0.190049 203.263 0.385236 202.189 0.595831V84.1455H205.419V0Z" fill="#E6E6E6"/>
<path d="M113.234 235.399C113.234 237.155 113.589 238.895 114.28 240.525C114.546 241.157 114.863 241.768 115.229 242.354C115.701 243.117 116.249 243.836 116.865 244.501C118.227 245.971 119.904 247.149 121.784 247.956C123.665 248.763 125.705 249.18 127.769 249.18H339.839C343.694 249.18 347.391 247.728 350.116 245.145C352.842 242.561 354.374 239.058 354.374 235.404C354.374 231.75 352.842 228.246 350.116 225.663C347.391 223.079 343.694 221.628 339.839 221.628H127.769C123.917 221.632 120.223 223.083 117.498 225.665C114.773 228.247 113.24 231.747 113.234 235.399Z" fill="#E6E6E6"/>
<path d="M147.953 87.208L323.959 87.208V77.0053L147.953 77.0053V87.208Z" fill="#E6E6E6"/>
<path d="M243.491 79.5559H228.42C228.42 78.0676 229.044 76.6403 230.154 75.588C231.265 74.5356 232.771 73.9444 234.341 73.9444H237.57C238.348 73.9444 239.118 74.0896 239.836 74.3716C240.555 74.6536 241.207 75.0669 241.757 75.588C242.307 76.1091 242.743 76.7277 243.04 77.4085C243.338 78.0893 243.491 78.819 243.491 79.5559H243.491Z" fill="#E6E6E6"/>
<path d="M0 243.268C4.70803 248.555 9.80029 253.524 15.2395 258.138H452.363C457.802 253.524 462.895 248.555 467.603 243.268H0Z" fill="#3F3D56"/>
<path d="M214.985 193.542V246.221H253.924V193.542C253.924 193.163 253.797 192.794 253.56 192.489C253.323 192.184 252.989 191.959 252.607 191.847C252.427 191.79 252.238 191.763 252.049 191.764H216.865C216.619 191.764 216.374 191.81 216.146 191.899C215.918 191.988 215.711 192.119 215.537 192.284C215.362 192.449 215.223 192.645 215.129 192.861C215.034 193.077 214.985 193.308 214.985 193.542ZM230.181 211.643C230.191 210.604 230.634 209.612 231.412 208.881C232.191 208.15 233.242 207.74 234.338 207.74C235.433 207.74 236.485 208.15 237.263 208.881C238.042 209.612 238.484 210.604 238.494 211.643V217.755C238.489 218.796 238.048 219.793 237.27 220.528C236.491 221.262 235.437 221.675 234.338 221.675C233.239 221.675 232.185 221.262 231.406 220.528C230.627 219.793 230.187 218.796 230.181 217.755V211.643Z" fill="#2F2E41"/>
<path d="M214.866 244.537V249.617C214.867 249.88 214.977 250.132 215.173 250.318C215.369 250.505 215.634 250.611 215.912 250.613H252.997C253.275 250.612 253.541 250.506 253.737 250.319C253.933 250.133 254.043 249.88 254.043 249.617V244.537H214.866Z" fill="#3F3D56"/>
<path d="M153.729 114.173V210.359C153.73 211.584 154.244 212.76 155.158 213.626C156.073 214.493 157.313 214.981 158.606 214.982H308.996C310.29 214.981 311.53 214.493 312.444 213.626C313.359 212.76 313.873 211.584 313.874 210.359V114.173C313.871 112.949 313.356 111.775 312.441 110.91C311.527 110.044 310.288 109.557 308.996 109.556H158.606C157.314 109.557 156.075 110.044 155.161 110.91C154.247 111.775 153.732 112.949 153.729 114.173Z" fill="#3F3D56"/>
<path d="M157.257 115.37V209.172C157.258 209.827 157.533 210.455 158.022 210.918C158.51 211.381 159.173 211.642 159.864 211.643H307.745C308.436 211.642 309.098 211.381 309.587 210.918C310.075 210.455 310.35 209.827 310.351 209.172V115.37C310.351 114.714 310.077 114.085 309.588 113.621C309.099 113.157 308.436 112.896 307.745 112.894H159.864C159.172 112.896 158.509 113.157 158.02 113.621C157.531 114.085 157.257 114.714 157.257 115.37Z" fill="#047CFD"/>
<path d="M187.411 251.81C187.561 251.989 187.753 252.133 187.97 252.232C188.188 252.331 188.427 252.381 188.668 252.38H276.648C276.888 252.38 277.126 252.329 277.343 252.23C277.56 252.132 277.752 251.989 277.903 251.812C278.055 251.635 278.163 251.428 278.219 251.207C278.276 250.985 278.28 250.754 278.23 250.531L276.865 244.383C276.808 244.132 276.686 243.899 276.51 243.704C276.334 243.509 276.109 243.359 275.857 243.268C275.674 243.2 275.479 243.165 275.282 243.165H190.028C189.832 243.165 189.637 243.2 189.454 243.268C189.201 243.359 188.977 243.509 188.801 243.704C188.624 243.899 188.503 244.132 188.446 244.383L187.08 250.531C187.032 250.754 187.036 250.985 187.093 251.206C187.151 251.427 187.259 251.633 187.411 251.81Z" fill="#2F2E41"/>
<path d="M272.212 245.813H274.393C274.539 245.813 274.657 245.701 274.657 245.563V244.523C274.657 244.385 274.539 244.273 274.393 244.273H272.212C272.066 244.273 271.948 244.385 271.948 244.523V245.563C271.948 245.701 272.066 245.813 272.212 245.813Z" fill="#3F3D56"/>
<path d="M266.793 245.813H268.973C269.119 245.813 269.238 245.701 269.238 245.563V244.523C269.238 244.385 269.119 244.273 268.973 244.273H266.793C266.646 244.273 266.528 244.385 266.528 244.523V245.563C266.528 245.701 266.646 245.813 266.793 245.813Z" fill="#3F3D56"/>
<path d="M261.373 245.813H263.554C263.7 245.813 263.818 245.701 263.818 245.563V244.523C263.818 244.385 263.7 244.273 263.554 244.273H261.373C261.227 244.273 261.109 244.385 261.109 244.523V245.563C261.109 245.701 261.227 245.813 261.373 245.813Z" fill="#3F3D56"/>
<path d="M255.953 245.813H258.134C258.28 245.813 258.398 245.701 258.398 245.563V244.523C258.398 244.385 258.28 244.273 258.134 244.273H255.953C255.807 244.273 255.689 244.385 255.689 244.523V245.563C255.689 245.701 255.807 245.813 255.953 245.813Z" fill="#3F3D56"/>
<path d="M250.534 245.813H252.714C252.861 245.813 252.979 245.701 252.979 245.563V244.523C252.979 244.385 252.861 244.273 252.714 244.273H250.534C250.388 244.273 250.269 244.385 250.269 244.523V245.563C250.269 245.701 250.388 245.813 250.534 245.813Z" fill="#3F3D56"/>
<path d="M245.114 245.813H247.295C247.441 245.813 247.56 245.701 247.56 245.563V244.523C247.56 244.385 247.441 244.273 247.295 244.273H245.114C244.968 244.273 244.85 244.385 244.85 244.523V245.563C244.85 245.701 244.968 245.813 245.114 245.813Z" fill="#3F3D56"/>
<path d="M239.695 245.813H241.876C242.022 245.813 242.14 245.701 242.14 245.563V244.523C242.14 244.385 242.022 244.273 241.876 244.273H239.695C239.549 244.273 239.43 244.385 239.43 244.523V245.563C239.43 245.701 239.549 245.813 239.695 245.813Z" fill="#3F3D56"/>
<path d="M234.276 245.813H236.456C236.602 245.813 236.721 245.701 236.721 245.563V244.523C236.721 244.385 236.602 244.273 236.456 244.273H234.276C234.129 244.273 234.011 244.385 234.011 244.523V245.563C234.011 245.701 234.129 245.813 234.276 245.813Z" fill="#3F3D56"/>
<path d="M228.856 245.813H231.037C231.183 245.813 231.301 245.701 231.301 245.563V244.523C231.301 244.385 231.183 244.273 231.037 244.273H228.856C228.71 244.273 228.592 244.385 228.592 244.523V245.563C228.592 245.701 228.71 245.813 228.856 245.813Z" fill="#3F3D56"/>
<path d="M223.437 245.813H225.617C225.763 245.813 225.882 245.701 225.882 245.563V244.523C225.882 244.385 225.763 244.273 225.617 244.273H223.437C223.291 244.273 223.172 244.385 223.172 244.523V245.563C223.172 245.701 223.291 245.813 223.437 245.813Z" fill="#3F3D56"/>
<path d="M218.017 245.813H220.198C220.344 245.813 220.462 245.701 220.462 245.563V244.523C220.462 244.385 220.344 244.273 220.198 244.273H218.017C217.871 244.273 217.753 244.385 217.753 244.523V245.563C217.753 245.701 217.871 245.813 218.017 245.813Z" fill="#3F3D56"/>
<path d="M212.598 245.813H214.778C214.924 245.813 215.043 245.701 215.043 245.563V244.523C215.043 244.385 214.924 244.273 214.778 244.273H212.598C212.452 244.273 212.333 244.385 212.333 244.523V245.563C212.333 245.701 212.452 245.813 212.598 245.813Z" fill="#3F3D56"/>
<path d="M207.178 245.813H209.359C209.505 245.813 209.624 245.701 209.624 245.563V244.523C209.624 244.385 209.505 244.273 209.359 244.273H207.178C207.032 244.273 206.914 244.385 206.914 244.523V245.563C206.914 245.701 207.032 245.813 207.178 245.813Z" fill="#3F3D56"/>
<path d="M201.759 245.813H203.94C204.086 245.813 204.204 245.701 204.204 245.563V244.523C204.204 244.385 204.086 244.273 203.94 244.273H201.759C201.613 244.273 201.494 244.385 201.494 244.523V245.563C201.494 245.701 201.613 245.813 201.759 245.813Z" fill="#3F3D56"/>
<path d="M196.339 245.813H198.52C198.666 245.813 198.785 245.701 198.785 245.563V244.523C198.785 244.385 198.666 244.273 198.52 244.273H196.339C196.193 244.273 196.075 244.385 196.075 244.523V245.563C196.075 245.701 196.193 245.813 196.339 245.813Z" fill="#3F3D56"/>
<path d="M190.92 245.813H193.101C193.247 245.813 193.365 245.701 193.365 245.563V244.523C193.365 244.385 193.247 244.273 193.101 244.273H190.92C190.774 244.273 190.656 244.385 190.656 244.523V245.563C190.656 245.701 190.774 245.813 190.92 245.813Z" fill="#3F3D56"/>
<path d="M272.276 248.382H274.457C274.603 248.382 274.721 248.27 274.721 248.131V247.092C274.721 246.953 274.603 246.841 274.457 246.841H272.276C272.13 246.841 272.011 246.953 272.011 247.092V248.131C272.011 248.27 272.13 248.382 272.276 248.382Z" fill="#3F3D56"/>
<path d="M266.857 248.382H269.037C269.183 248.382 269.302 248.27 269.302 248.131V247.092C269.302 246.953 269.183 246.841 269.037 246.841H266.857C266.71 246.841 266.592 246.953 266.592 247.092V248.131C266.592 248.27 266.71 248.382 266.857 248.382Z" fill="#3F3D56"/>
<path d="M261.437 248.382H263.618C263.764 248.382 263.882 248.27 263.882 248.131V247.092C263.882 246.953 263.764 246.841 263.618 246.841H261.437C261.291 246.841 261.173 246.953 261.173 247.092V248.131C261.173 248.27 261.291 248.382 261.437 248.382Z" fill="#3F3D56"/>
<path d="M256.018 248.382H258.198C258.344 248.382 258.463 248.27 258.463 248.131V247.092C258.463 246.953 258.344 246.841 258.198 246.841H256.018C255.872 246.841 255.753 246.953 255.753 247.092V248.131C255.753 248.27 255.872 248.382 256.018 248.382Z" fill="#3F3D56"/>
<path d="M250.598 248.382H252.778C252.925 248.382 253.043 248.27 253.043 248.131V247.092C253.043 246.953 252.925 246.841 252.778 246.841H250.598C250.452 246.841 250.333 246.953 250.333 247.092V248.131C250.333 248.27 250.452 248.382 250.598 248.382Z" fill="#3F3D56"/>
<path d="M245.179 248.382H247.359C247.506 248.382 247.624 248.27 247.624 248.131V247.092C247.624 246.953 247.506 246.841 247.359 246.841H245.179C245.033 246.841 244.914 246.953 244.914 247.092V248.131C244.914 248.27 245.033 248.382 245.179 248.382Z" fill="#3F3D56"/>
<path d="M239.759 248.382H241.94C242.086 248.382 242.204 248.27 242.204 248.131V247.092C242.204 246.953 242.086 246.841 241.94 246.841H239.759C239.613 246.841 239.494 246.953 239.494 247.092V248.131C239.494 248.27 239.613 248.382 239.759 248.382Z" fill="#3F3D56"/>
<path d="M234.339 248.382H236.52C236.666 248.382 236.785 248.27 236.785 248.131V247.092C236.785 246.953 236.666 246.841 236.52 246.841H234.339C234.193 246.841 234.075 246.953 234.075 247.092V248.131C234.075 248.27 234.193 248.382 234.339 248.382Z" fill="#3F3D56"/>
<path d="M228.92 248.382H231.101C231.247 248.382 231.365 248.27 231.365 248.131V247.092C231.365 246.953 231.247 246.841 231.101 246.841H228.92C228.774 246.841 228.655 246.953 228.655 247.092V248.131C228.655 248.27 228.774 248.382 228.92 248.382Z" fill="#3F3D56"/>
<path d="M223.501 248.382H225.681C225.827 248.382 225.946 248.27 225.946 248.131V247.092C225.946 246.953 225.827 246.841 225.681 246.841H223.501C223.355 246.841 223.236 246.953 223.236 247.092V248.131C223.236 248.27 223.355 248.382 223.501 248.382Z" fill="#3F3D56"/>
<path d="M218.081 248.382H220.262C220.408 248.382 220.526 248.27 220.526 248.131V247.092C220.526 246.953 220.408 246.841 220.262 246.841H218.081C217.935 246.841 217.817 246.953 217.817 247.092V248.131C217.817 248.27 217.935 248.382 218.081 248.382Z" fill="#3F3D56"/>
<path d="M212.662 248.382H214.842C214.988 248.382 215.107 248.27 215.107 248.131V247.092C215.107 246.953 214.988 246.841 214.842 246.841H212.662C212.516 246.841 212.397 246.953 212.397 247.092V248.131C212.397 248.27 212.516 248.382 212.662 248.382Z" fill="#3F3D56"/>
<path d="M207.242 248.382H209.423C209.569 248.382 209.688 248.27 209.688 248.131V247.092C209.688 246.953 209.569 246.841 209.423 246.841H207.242C207.096 246.841 206.978 246.953 206.978 247.092V248.131C206.978 248.27 207.096 248.382 207.242 248.382Z" fill="#3F3D56"/>
<path d="M201.823 248.382H204.003C204.15 248.382 204.268 248.27 204.268 248.131V247.092C204.268 246.953 204.15 246.841 204.003 246.841H201.823C201.677 246.841 201.558 246.953 201.558 247.092V248.131C201.558 248.27 201.677 248.382 201.823 248.382Z" fill="#3F3D56"/>
<path d="M196.403 248.382H198.584C198.73 248.382 198.849 248.27 198.849 248.131V247.092C198.849 246.953 198.73 246.841 198.584 246.841H196.403C196.257 246.841 196.139 246.953 196.139 247.092V248.131C196.139 248.27 196.257 248.382 196.403 248.382Z" fill="#3F3D56"/>
<path d="M190.984 248.382H193.165C193.311 248.382 193.429 248.27 193.429 248.131V247.092C193.429 246.953 193.311 246.841 193.165 246.841H190.984C190.838 246.841 190.719 246.953 190.719 247.092V248.131C190.719 248.27 190.838 248.382 190.984 248.382Z" fill="#3F3D56"/>
<path d="M227.294 251.464H248.443C248.589 251.464 248.708 251.351 248.708 251.213V250.173C248.708 250.035 248.589 249.923 248.443 249.923H227.294C227.148 249.923 227.03 250.035 227.03 250.173V251.213C227.03 251.351 227.148 251.464 227.294 251.464Z" fill="#3F3D56"/>
<path d="M167.295 125.816H305.666C305.81 125.813 305.947 125.757 306.048 125.659C306.148 125.562 306.205 125.431 306.205 125.294C306.205 125.158 306.148 125.027 306.048 124.93C305.947 124.832 305.81 124.776 305.666 124.773H167.295C167.151 124.776 167.014 124.832 166.913 124.93C166.813 125.027 166.756 125.158 166.756 125.294C166.756 125.431 166.813 125.562 166.913 125.659C167.014 125.757 167.151 125.813 167.295 125.816Z" fill="#3F3D56"/>
<path d="M296.247 122.11C298.028 122.11 299.472 120.711 299.472 118.986C299.472 117.26 298.028 115.861 296.247 115.861C294.466 115.861 293.022 117.26 293.022 118.986C293.022 120.711 294.466 122.11 296.247 122.11Z" fill="#3F3D56"/>
<path d="M285.107 122.11C286.888 122.11 288.332 120.711 288.332 118.986C288.332 117.26 286.888 115.861 285.107 115.861C283.326 115.861 281.882 117.26 281.882 118.986C281.882 120.711 283.326 122.11 285.107 122.11Z" fill="#3F3D56"/>
<path d="M273.967 122.11C275.748 122.11 277.191 120.711 277.191 118.986C277.191 117.26 275.748 115.861 273.967 115.861C272.186 115.861 270.742 117.26 270.742 118.986C270.742 120.711 272.186 122.11 273.967 122.11Z" fill="#3F3D56"/>
<path d="M173.412 117.204C173.412 117.278 173.427 117.351 173.456 117.419C173.486 117.488 173.529 117.55 173.584 117.602C173.639 117.655 173.704 117.696 173.776 117.725C173.848 117.754 173.925 117.768 174.003 117.769H181.915C182.072 117.765 182.22 117.704 182.33 117.598C182.439 117.492 182.5 117.349 182.5 117.201C182.5 117.053 182.439 116.91 182.33 116.804C182.22 116.698 182.072 116.637 181.915 116.634H174.003C173.845 116.635 173.694 116.696 173.583 116.803C173.473 116.91 173.411 117.054 173.412 117.204Z" fill="#3F3D56"/>
<path d="M173.412 119.336C173.412 119.409 173.427 119.483 173.456 119.551C173.486 119.619 173.529 119.682 173.584 119.734C173.639 119.786 173.704 119.828 173.776 119.857C173.848 119.885 173.925 119.9 174.003 119.901H181.915C182.072 119.897 182.221 119.836 182.33 119.73C182.44 119.624 182.501 119.481 182.501 119.333C182.501 119.185 182.44 119.042 182.33 118.936C182.221 118.83 182.072 118.769 181.915 118.765H174.003C173.845 118.767 173.694 118.828 173.583 118.935C173.473 119.042 173.411 119.186 173.412 119.336Z" fill="#3F3D56"/>
<path d="M173.412 121.462C173.411 121.612 173.473 121.756 173.583 121.863C173.694 121.969 173.845 122.03 174.003 122.032H181.915C182.072 122.029 182.22 121.967 182.33 121.861C182.439 121.755 182.5 121.613 182.5 121.465C182.5 121.316 182.439 121.174 182.33 121.068C182.22 120.962 182.072 120.9 181.915 120.897H174.003C173.925 120.897 173.848 120.912 173.776 120.941C173.704 120.969 173.639 121.011 173.584 121.063C173.529 121.116 173.486 121.178 173.456 121.247C173.427 121.315 173.412 121.388 173.412 121.462Z" fill="#3F3D56"/>
<path d="M175.858 137.936H173.014C172.152 137.936 171.454 138.599 171.454 139.416C171.454 140.233 172.152 140.895 173.014 140.895H175.858C176.72 140.895 177.418 140.233 177.418 139.416C177.418 138.599 176.72 137.936 175.858 137.936Z" fill="#E6E6E6"/>
<path d="M208.374 137.936H205.531C204.669 137.936 203.97 138.599 203.97 139.416C203.97 140.233 204.669 140.895 205.531 140.895H208.374C209.236 140.895 209.935 140.233 209.935 139.416C209.935 138.599 209.236 137.936 208.374 137.936Z" fill="#E6E6E6"/>
<path d="M217.588 137.936H214.744C213.882 137.936 213.184 138.599 213.184 139.416C213.184 140.233 213.882 140.895 214.744 140.895H217.588C218.45 140.895 219.148 140.233 219.148 139.416C219.148 138.599 218.45 137.936 217.588 137.936Z" fill="#E6E6E6"/>
<path d="M199.53 137.689H181.859C180.997 137.689 180.298 138.352 180.298 139.169C180.298 139.986 180.997 140.648 181.859 140.648H199.53C200.392 140.648 201.091 139.986 201.091 139.169C201.091 138.352 200.392 137.689 199.53 137.689Z" fill="#E6E6E6"/>
<path d="M242.885 137.689H225.215C224.353 137.689 223.654 138.352 223.654 139.169C223.654 139.986 224.353 140.648 225.215 140.648H242.885C243.747 140.648 244.446 139.986 244.446 139.169C244.446 138.352 243.747 137.689 242.885 137.689Z" fill="#E6E6E6"/>
<path d="M184.528 144.614H181.685C180.823 144.614 180.125 145.276 180.125 146.093C180.125 146.91 180.823 147.572 181.685 147.572H184.528C185.39 147.572 186.089 146.91 186.089 146.093C186.089 145.276 185.39 144.614 184.528 144.614Z" fill="#E6E6E6"/>
<path d="M217.046 144.614H214.202C213.34 144.614 212.642 145.276 212.642 146.093C212.642 146.91 213.34 147.572 214.202 147.572H217.046C217.908 147.572 218.606 146.91 218.606 146.093C218.606 145.276 217.908 144.614 217.046 144.614Z" fill="#E6E6E6"/>
<path d="M226.258 144.614H223.415C222.553 144.614 221.854 145.276 221.854 146.093C221.854 146.91 222.553 147.572 223.415 147.572H226.258C227.12 147.572 227.819 146.91 227.819 146.093C227.819 145.276 227.12 144.614 226.258 144.614Z" fill="#E6E6E6"/>
<path d="M208.201 144.367H190.53C189.668 144.367 188.969 145.029 188.969 145.846C188.969 146.663 189.668 147.326 190.53 147.326H208.201C209.063 147.326 209.761 146.663 209.761 145.846C209.761 145.029 209.063 144.367 208.201 144.367Z" fill="#E6E6E6"/>
<path d="M251.557 144.367H233.886C233.024 144.367 232.325 145.029 232.325 145.846C232.325 146.663 233.024 147.326 233.886 147.326H251.557C252.419 147.326 253.117 146.663 253.117 145.846C253.117 145.029 252.419 144.367 251.557 144.367Z" fill="#E6E6E6"/>
<path d="M193.2 151.291H190.357C189.495 151.291 188.796 151.953 188.796 152.77C188.796 153.587 189.495 154.25 190.357 154.25H193.2C194.062 154.25 194.761 153.587 194.761 152.77C194.761 151.953 194.062 151.291 193.2 151.291Z" fill="#E6E6E6"/>
<path d="M225.716 151.291H222.873C222.011 151.291 221.312 151.953 221.312 152.77C221.312 153.587 222.011 154.25 222.873 154.25H225.716C226.578 154.25 227.277 153.587 227.277 152.77C227.277 151.953 226.578 151.291 225.716 151.291Z" fill="#E6E6E6"/>
<path d="M234.93 151.291H232.087C231.225 151.291 230.526 151.953 230.526 152.77C230.526 153.587 231.225 154.25 232.087 154.25H234.93C235.792 154.25 236.491 153.587 236.491 152.77C236.491 151.953 235.792 151.291 234.93 151.291Z" fill="#E6E6E6"/>
<path d="M216.872 151.044H199.201C198.339 151.044 197.641 151.707 197.641 152.524C197.641 153.341 198.339 154.003 199.201 154.003H216.872C217.734 154.003 218.433 153.341 218.433 152.524C218.433 151.707 217.734 151.044 216.872 151.044Z" fill="#E6E6E6"/>
<path d="M260.227 151.044H242.557C241.695 151.044 240.996 151.707 240.996 152.524C240.996 153.341 241.695 154.003 242.557 154.003H260.227C261.089 154.003 261.788 153.341 261.788 152.524C261.788 151.707 261.089 151.044 260.227 151.044Z" fill="#E6E6E6"/>
<path d="M201.871 157.969H199.028C198.166 157.969 197.467 158.631 197.467 159.448C197.467 160.265 198.166 160.927 199.028 160.927H201.871C202.733 160.927 203.431 160.265 203.431 159.448C203.431 158.631 202.733 157.969 201.871 157.969Z" fill="#E6E6E6"/>
<path d="M234.388 157.969H231.545C230.683 157.969 229.984 158.631 229.984 159.448C229.984 160.265 230.683 160.927 231.545 160.927H234.388C235.25 160.927 235.949 160.265 235.949 159.448C235.949 158.631 235.25 157.969 234.388 157.969Z" fill="#E6E6E6"/>
<path d="M243.601 157.969H240.758C239.896 157.969 239.197 158.631 239.197 159.448C239.197 160.265 239.896 160.927 240.758 160.927H243.601C244.463 160.927 245.162 160.265 245.162 159.448C245.162 158.631 244.463 157.969 243.601 157.969Z" fill="#E6E6E6"/>
<path d="M225.543 157.722H207.872C207.01 157.722 206.312 158.384 206.312 159.201C206.312 160.018 207.01 160.68 207.872 160.68H225.543C226.405 160.68 227.104 160.018 227.104 159.201C227.104 158.384 226.405 157.722 225.543 157.722Z" fill="#E6E6E6"/>
<path d="M208.374 184.521H205.531C204.669 184.521 203.97 185.183 203.97 186C203.97 186.817 204.669 187.479 205.531 187.479H208.374C209.236 187.479 209.935 186.817 209.935 186C209.935 185.183 209.236 184.521 208.374 184.521Z" fill="#E6E6E6"/>
<path d="M217.588 184.521H214.744C213.882 184.521 213.184 185.183 213.184 186C213.184 186.817 213.882 187.479 214.744 187.479H217.588C218.45 187.479 219.148 186.817 219.148 186C219.148 185.183 218.45 184.521 217.588 184.521Z" fill="#E6E6E6"/>
<path d="M242.885 184.767H225.215C224.353 184.767 223.654 185.43 223.654 186.247C223.654 187.064 224.353 187.726 225.215 187.726H242.885C243.747 187.726 244.446 187.064 244.446 186.247C244.446 185.43 243.747 184.767 242.885 184.767Z" fill="#E6E6E6"/>
<path d="M175.858 184.521H173.014C172.152 184.521 171.454 185.183 171.454 186C171.454 186.817 172.152 187.479 173.014 187.479H175.858C176.72 187.479 177.418 186.817 177.418 186C177.418 185.183 176.72 184.521 175.858 184.521Z" fill="#E6E6E6"/>
<path d="M199.53 184.767H181.859C180.997 184.767 180.298 185.43 180.298 186.247C180.298 187.064 180.997 187.726 181.859 187.726H199.53C200.392 187.726 201.091 187.064 201.091 186.247C201.091 185.43 200.392 184.767 199.53 184.767Z" fill="#E6E6E6"/>
<path d="M184.528 177.843H181.685C180.823 177.843 180.125 178.506 180.125 179.323C180.125 180.14 180.823 180.802 181.685 180.802H184.528C185.39 180.802 186.089 180.14 186.089 179.323C186.089 178.506 185.39 177.843 184.528 177.843Z" fill="#E6E6E6"/>
<path d="M217.046 177.843H214.202C213.34 177.843 212.642 178.506 212.642 179.323C212.642 180.14 213.34 180.802 214.202 180.802H217.046C217.908 180.802 218.606 180.14 218.606 179.323C218.606 178.506 217.908 177.843 217.046 177.843Z" fill="#E6E6E6"/>
<path d="M226.258 177.843H223.415C222.553 177.843 221.854 178.506 221.854 179.323C221.854 180.14 222.553 180.802 223.415 180.802H226.258C227.12 180.802 227.819 180.14 227.819 179.323C227.819 178.506 227.12 177.843 226.258 177.843Z" fill="#E6E6E6"/>
<path d="M208.201 178.09H190.53C189.668 178.09 188.969 178.752 188.969 179.569C188.969 180.386 189.668 181.048 190.53 181.048H208.201C209.063 181.048 209.761 180.386 209.761 179.569C209.761 178.752 209.063 178.09 208.201 178.09Z" fill="#E6E6E6"/>
<path d="M193.2 171.166H190.357C189.495 171.166 188.796 171.828 188.796 172.645C188.796 173.462 189.495 174.124 190.357 174.124H193.2C194.062 174.124 194.761 173.462 194.761 172.645C194.761 171.828 194.062 171.166 193.2 171.166Z" fill="#E6E6E6"/>
<path d="M225.716 171.166H222.873C222.011 171.166 221.312 171.828 221.312 172.645C221.312 173.462 222.011 174.124 222.873 174.124H225.716C226.578 174.124 227.277 173.462 227.277 172.645C227.277 171.828 226.578 171.166 225.716 171.166Z" fill="#E6E6E6"/>
<path d="M234.93 171.166H232.087C231.225 171.166 230.526 171.828 230.526 172.645C230.526 173.462 231.225 174.124 232.087 174.124H234.93C235.792 174.124 236.491 173.462 236.491 172.645C236.491 171.828 235.792 171.166 234.93 171.166Z" fill="#E6E6E6"/>
<path d="M216.872 171.412H199.201C198.339 171.412 197.641 172.075 197.641 172.892C197.641 173.709 198.339 174.371 199.201 174.371H216.872C217.734 174.371 218.433 173.709 218.433 172.892C218.433 172.075 217.734 171.412 216.872 171.412Z" fill="#E6E6E6"/>
<path d="M201.871 164.488H199.028C198.166 164.488 197.467 165.151 197.467 165.968C197.467 166.785 198.166 167.447 199.028 167.447H201.871C202.733 167.447 203.431 166.785 203.431 165.968C203.431 165.151 202.733 164.488 201.871 164.488Z" fill="#E6E6E6"/>
<path d="M234.388 164.488H231.545C230.683 164.488 229.984 165.151 229.984 165.968C229.984 166.785 230.683 167.447 231.545 167.447H234.388C235.25 167.447 235.949 166.785 235.949 165.968C235.949 165.151 235.25 164.488 234.388 164.488Z" fill="#E6E6E6"/>
<path d="M243.601 164.488H240.758C239.896 164.488 239.197 165.151 239.197 165.968C239.197 166.785 239.896 167.447 240.758 167.447H243.601C244.463 167.447 245.162 166.785 245.162 165.968C245.162 165.151 244.463 164.488 243.601 164.488Z" fill="#E6E6E6"/>
<path d="M225.543 164.735H207.872C207.01 164.735 206.312 165.397 206.312 166.214C206.312 167.031 207.01 167.694 207.872 167.694H225.543C226.405 167.694 227.104 167.031 227.104 166.214C227.104 165.397 226.405 164.735 225.543 164.735Z" fill="#E6E6E6"/>
<path d="M189.633 280.426C189.514 280.483 189.395 280.539 189.276 280.591C188.522 280.945 187.764 281.294 187 281.639C184.713 282.671 182.397 283.652 180.052 284.582C173.882 287.028 167.552 289.092 161.1 290.761C160.016 284.356 158.965 269.249 157.957 258.139C157.767 256.049 157.577 254.102 157.388 252.381C157.207 250.122 156.865 247.878 156.363 245.663C156.314 245.489 156.243 245.322 156.152 245.165C156.255 246.053 156.363 248.704 156.466 252.381C156.521 254.102 156.569 256.049 156.623 258.139C156.878 268.833 157.144 283.385 157.409 291.67C156.656 291.845 155.897 292.019 155.139 292.184C154.662 292.292 154.179 292.394 153.697 292.492C153.112 292.615 152.526 292.738 151.941 292.851C151.329 292.975 150.716 293.093 150.104 293.206C140.096 295.069 129.921 296.005 119.722 296C119.045 296 118.373 295.995 117.695 295.99C117.489 295.99 117.284 295.985 117.072 295.98C116.476 295.969 115.858 295.959 115.23 295.944C103.177 295.628 91.2037 293.992 79.5478 291.069L80.0193 258.139L80.1006 252.381L80.1331 250.198C79.8646 250.9 79.704 251.636 79.6562 252.381C79.4665 253.783 79.2714 255.771 79.0763 258.139C78.3338 267.262 77.5697 281.978 76.7785 290.35C67.4082 287.823 60.558 285.517 51.9952 281.459C51.6646 281.305 51.3286 281.145 50.998 280.986C51.0577 280.591 51.1227 280.195 51.1823 279.789C52.1524 273.4 51.0089 265.084 52.0819 258.139C52.9003 252.782 53.7457 247.635 54.5966 243.269C55.6263 238.015 56.6722 233.885 57.7073 231.876C58.8996 229.56 60.0919 227.279 61.2463 225.096C61.7449 224.156 62.2344 223.234 62.7149 222.328C62.9751 221.84 63.2352 221.357 63.4899 220.884C64.6497 218.732 65.7444 216.744 66.747 214.983C67.4516 213.745 68.1019 212.625 68.698 211.644C69.3972 210.488 70.015 209.533 70.5244 208.809C74.2871 203.403 79.8858 199.378 86.3926 197.401L86.5552 197.359L86.7123 197.421L86.8912 197.498L97.2207 193.918L101.833 183.393L125.521 182.012L129.347 184.77L131.304 186.183L133.39 187.688L137.227 190.456L138.316 190.775L139.937 191.247L151.02 194.473L151.134 194.427L151.296 194.468C157.217 196.264 162.4 199.765 166.124 204.484C166.492 204.936 166.834 205.403 167.164 205.876C168.064 207.139 169.278 209.137 170.709 211.644C171.299 212.676 171.923 213.796 172.578 214.983C172.974 215.697 176.388 225.795 179.71 236.109C182.816 245.765 185.84 255.612 186.235 258.139C186.306 258.607 186.382 259.079 186.452 259.547C186.902 262.469 187.346 265.412 187.775 268.284C188.409 272.542 189.026 276.651 189.617 280.324C189.623 280.36 189.628 280.39 189.633 280.426Z" fill="#3F3D56"/>
<path opacity="0.2" d="M164.53 243.245L159.925 226.402L155.858 240.936L164.53 243.245Z" fill="black"/>
<path d="M8.57884 243.05C8.81761 243.709 9.27053 244.279 9.87258 244.679C10.4746 245.078 11.1948 245.287 11.9298 245.275L26.2869 244.924C27.0272 244.911 27.743 244.67 28.3272 244.239C28.9115 243.808 29.3328 243.209 29.5282 242.532L31.5599 221.942C32.2807 222.251 33.0655 222.404 33.8566 222.389C35.2449 222.356 36.5624 221.802 37.5194 220.848C38.4763 219.894 38.9944 218.619 38.9595 217.304C38.9247 215.988 38.3398 214.739 37.3335 213.832C36.3273 212.925 34.9821 212.434 33.5939 212.467C33.2776 212.466 32.9622 212.497 32.6529 212.56C32.3166 212.215 31.9078 211.941 31.4529 211.755C30.9979 211.569 30.5069 211.475 30.0115 211.48L7.92685 212.02C7.74365 212.027 7.56138 212.048 7.38209 212.084C6.89777 212.17 6.43842 212.353 6.03494 212.621C5.63146 212.889 5.29322 213.235 5.04299 213.638C4.79276 214.04 4.63634 214.488 4.58427 214.952C4.53219 215.417 4.58567 215.886 4.74109 216.329L8.57884 243.05ZM31.9766 220.544L33.4223 215.637C33.5867 215.07 33.5905 214.472 33.4333 213.904C33.5035 213.903 33.5653 213.872 33.6355 213.872C34.6268 213.852 35.5857 214.206 36.3021 214.856C37.0185 215.506 37.4338 216.398 37.457 217.337C37.4803 218.277 37.1094 219.187 36.4259 219.867C35.7424 220.548 34.802 220.944 33.8109 220.969C33.17 220.988 32.5358 220.841 31.9766 220.544Z" fill="#2F2E41"/>
<path d="M7.38184 212.084C7.85234 214.634 13.1422 216.427 19.5029 216.115C25.352 215.86 30.1346 213.913 31.0108 211.606C30.6865 211.515 30.3493 211.473 30.0112 211.48L7.92659 212.02C7.74339 212.027 7.56113 212.048 7.38184 212.084Z" fill="#3F3D56"/>
<path d="M20.6687 231.735C20.6977 231.728 20.7254 231.717 20.7505 231.701L23.8683 229.767C23.906 229.744 23.937 229.712 23.9585 229.675C23.9799 229.637 23.9911 229.595 23.9911 229.552C23.9912 229.51 23.98 229.468 23.9586 229.43C23.9371 229.393 23.9062 229.361 23.8685 229.338L20.6278 227.326C20.598 227.307 20.5647 227.294 20.5297 227.288C20.4947 227.281 20.4587 227.282 20.4237 227.288C20.3888 227.295 20.3556 227.309 20.3261 227.328C20.2966 227.347 20.2714 227.371 20.2518 227.399C20.2323 227.427 20.2188 227.459 20.2122 227.492C20.2056 227.526 20.206 227.56 20.2133 227.593C20.2207 227.626 20.2348 227.657 20.255 227.685C20.2752 227.713 20.3009 227.737 20.3308 227.755L23.2253 229.552L20.4538 231.272C20.4002 231.305 20.3607 231.355 20.3424 231.413C20.3241 231.472 20.3282 231.534 20.354 231.59C20.3798 231.645 20.4255 231.691 20.4831 231.717C20.5408 231.744 20.6065 231.75 20.6686 231.735H20.6687Z" fill="#047CFD"/>
<path d="M15.7442 231.951C15.7966 231.938 15.8437 231.911 15.8797 231.873C15.9157 231.835 15.9388 231.787 15.9462 231.737C15.9535 231.686 15.9447 231.634 15.9209 231.588C15.8971 231.542 15.8594 231.504 15.8125 231.479L12.9386 229.917L15.7164 227.962C15.7449 227.942 15.769 227.916 15.7873 227.887C15.8055 227.858 15.8176 227.826 15.8228 227.793C15.8279 227.76 15.8261 227.726 15.8175 227.693C15.8088 227.66 15.7934 227.63 15.7722 227.603C15.751 227.576 15.7244 227.553 15.6939 227.535C15.6634 227.518 15.6295 227.507 15.5944 227.502C15.5592 227.497 15.5233 227.499 15.4888 227.507C15.4544 227.515 15.4219 227.53 15.3934 227.55L12.2833 229.739C12.2472 229.765 12.2183 229.798 12.1993 229.837C12.1802 229.875 12.1717 229.918 12.1743 229.96C12.1769 230.003 12.1907 230.044 12.2144 230.08C12.2381 230.117 12.271 230.147 12.31 230.168L15.5428 231.924C15.6038 231.958 15.6761 231.967 15.7442 231.951Z" fill="#047CFD"/>
<path d="M20.3584 233.43C20.3846 233.424 20.4096 233.414 20.4326 233.401C20.463 233.383 20.4895 233.36 20.5106 233.333C20.5316 233.306 20.5468 233.275 20.5552 233.242C20.5636 233.209 20.5652 233.175 20.5597 233.142C20.5543 233.109 20.5419 233.077 20.5234 233.048L16.1036 226.161C16.066 226.103 16.0058 226.061 15.9361 226.045C15.8663 226.03 15.7928 226.04 15.7316 226.076C15.6704 226.111 15.6264 226.168 15.6094 226.234C15.5923 226.3 15.6035 226.37 15.6405 226.428L20.0603 233.315C20.0905 233.362 20.1357 233.398 20.1894 233.419C20.243 233.44 20.3022 233.444 20.3584 233.43Z" fill="#047CFD"/>
<path d="M425.509 280.985C425.178 281.144 424.842 281.303 424.512 281.458C415.949 285.515 409.099 287.822 399.729 290.349C398.937 281.976 398.173 267.26 397.431 258.138C397.236 255.77 397.041 253.782 396.851 252.38C396.803 251.634 396.642 250.899 396.374 250.197L396.406 252.38L396.488 258.138L396.959 291.068C385.303 293.991 373.33 295.627 361.277 295.942C360.649 295.958 360.031 295.968 359.435 295.978C359.223 295.983 359.018 295.989 358.812 295.989C358.134 295.994 357.462 295.999 356.785 295.999C344.084 296.008 331.429 294.554 319.098 291.669C319.363 283.384 319.629 268.832 319.883 258.138C319.938 256.047 319.986 254.101 320.041 252.38C320.144 248.702 320.252 246.052 320.355 245.163C320.264 245.321 320.193 245.488 320.144 245.662C319.642 247.876 319.299 250.121 319.119 252.38C318.93 254.101 318.74 256.047 318.55 258.138C317.542 269.248 316.491 284.355 315.407 290.76C308.955 289.09 302.625 287.026 296.455 284.581C293.203 283.296 290.01 281.911 286.874 280.425C287.47 276.727 288.093 272.582 288.732 268.283C289.231 264.949 289.746 261.523 290.272 258.138C291.084 252.909 318.702 196.444 325.211 194.466L325.373 194.425L325.487 194.472L336.57 191.246L338.19 190.773L339.28 190.455L343.117 187.686L345.203 186.181L347.16 184.769L350.986 182.01L374.674 183.392L379.286 193.917L389.616 197.497L389.795 197.42L389.952 197.358L390.114 197.399C396.621 199.377 402.22 203.402 405.983 208.807C406.492 209.532 407.11 210.487 407.809 211.643C408.405 212.624 409.055 213.744 409.76 214.981C410.763 216.743 411.857 218.731 413.017 220.883C413.272 221.356 413.532 221.839 413.792 222.327C414.274 223.231 414.764 224.153 415.261 225.095C416.415 227.278 417.607 229.559 418.8 231.875C419.835 233.884 420.881 238.013 421.91 243.268C422.761 247.634 423.607 252.781 424.425 258.138C425.498 265.082 424.355 273.398 425.325 279.788C425.384 280.194 425.449 280.59 425.509 280.985Z" fill="#3F3D56"/>
<path d="M356.034 178.232C371.25 178.232 383.585 166.542 383.585 152.12C383.585 137.699 371.25 126.009 356.034 126.009C340.818 126.009 328.483 137.699 328.483 152.12C328.483 166.542 340.818 178.232 356.034 178.232Z" fill="#FFB6B6"/>
<path opacity="0.2" d="M311.977 243.245L316.581 226.402L320.648 240.936L311.977 243.245Z" fill="black"/>
<path d="M434.516 232.271C432.869 253.782 434.576 263.254 425.482 280.99C417.208 284.828 408.589 287.96 399.729 290.349C398.808 290.595 397.884 290.835 396.959 291.068C385.304 293.991 373.33 295.626 361.278 295.942C360.649 295.958 360.031 295.968 359.435 295.978C359.224 295.983 359.018 295.989 358.812 295.989C358.134 295.994 357.462 295.999 356.785 295.999C344.084 296.008 331.429 294.554 319.098 291.669C317.862 291.381 316.632 291.078 315.407 290.76C308.956 289.09 302.625 287.026 296.455 284.58C293.204 283.296 290.01 281.911 286.874 280.425C286.164 280.086 285.454 279.747 284.755 279.398C281.162 273.409 279.119 266.125 279.075 257.373C281.563 242.292 429.021 219.265 434.516 232.271Z" fill="#2F2E41"/>
<path opacity="0.2" d="M434.512 235.955C434.596 234.623 434.69 233.247 434.8 231.815C429.304 218.809 281.846 241.836 279.358 256.917C279.365 258.299 279.428 259.641 279.533 260.951C285.557 246.067 425.644 224.181 434.512 235.955Z" fill="black"/>
<path d="M275.408 233.285L287.511 227.55L277.425 201.738L274.767 188.722C274.421 187.031 273.614 185.455 272.425 184.152C271.235 182.85 269.706 181.866 267.99 181.298C266.274 180.731 264.431 180.601 262.645 180.921C260.859 181.24 259.193 181.998 257.813 183.119C255.769 184.78 254.485 187.129 254.233 189.671C253.981 192.212 254.78 194.747 256.463 196.74L266.33 208.43L275.408 233.285Z" fill="#FFB6B6"/>
<path d="M287.512 222.77L271.374 230.418L283.621 266.788C284.5 269.4 286.077 271.752 288.198 273.617C290.318 275.481 292.912 276.794 295.725 277.429C299.195 278.212 302.838 277.928 306.125 276.616C309.413 275.305 312.174 273.036 314.009 270.137L346.485 217.378C348.787 213.743 349.497 209.399 348.465 205.274C347.432 201.148 344.739 197.569 340.96 195.301C338.927 194.081 336.647 193.28 334.266 192.951C331.885 192.621 329.458 192.771 327.143 193.389C324.827 194.008 322.675 195.082 320.826 196.541C318.977 198 317.473 199.811 316.412 201.858L296.59 241.889L287.512 222.77Z" fill="#3F3D56"/>
<path d="M113.542 176.431C130.284 176.431 143.856 163.567 143.856 147.7C143.856 131.832 130.284 118.969 113.542 118.969C96.8 118.969 83.228 131.832 83.228 147.7C83.228 163.567 96.8 176.431 113.542 176.431Z" fill="#A0616A"/>
<path d="M83.5921 127.901C86.0569 124.752 89.5995 122.514 92.3092 119.552C93.796 117.926 95.0306 116.085 96.7021 114.63C99.8076 111.926 104.151 110.819 108.365 110.681C112.983 110.568 117.565 111.488 121.739 113.365C125.913 115.243 129.561 118.025 132.39 121.487C134.593 120.263 136.796 119.039 138.998 117.815C139.869 119.986 140.739 122.157 141.609 124.328C142.323 123.739 143.234 123.41 144.18 123.397C145.127 123.385 146.047 123.69 146.778 124.259C147.51 124.828 148.005 125.624 148.176 126.506C148.347 127.388 148.183 128.299 147.713 129.078C148.238 127.543 150.639 127.217 151.964 128.231C153.288 129.245 153.642 131.05 153.426 132.651C153.155 134.407 152.336 136.046 151.074 137.357C149.813 138.668 148.166 139.592 146.346 140.009C143.471 140.616 140.126 139.978 137.825 141.721C135.981 143.118 135.424 145.661 133.541 147.012C131.222 148.676 127.943 147.907 125.06 148.275C120.016 148.918 116.021 153.808 116.628 158.598C116.171 157.087 115.692 155.531 114.656 154.304C113.62 153.076 111.875 152.246 110.286 152.697C107.66 153.443 107.23 156.836 107.867 159.363C109.555 166.066 115.952 176.901 115.952 176.901C107.646 180.007 97.7491 177.07 91.3398 171.177C84.9306 165.284 81.5926 156.939 80.1385 148.589C78.9055 141.508 79.0802 133.665 83.5921 127.901Z" fill="#2F2E41"/>
<path d="M390.56 166.515C396.328 153.983 393.06 142.451 386.03 136.333V136.328C383.266 130.457 379.591 125.927 375.386 124.863C373.354 123.626 371.381 122.172 369.191 121.432C368.172 121.07 367.085 120.908 365.997 120.955C364.909 121.002 363.843 121.257 362.862 121.704L361.745 121.422C360.797 119.126 359.686 119.08 358.45 120.59C353.692 118.489 349.405 117.549 345.59 117.549C333.147 117.549 325.787 127.534 323.836 139.605L334.236 142.23L337.851 136.77L336.182 142.723L341.921 144.166C350.657 154.948 340.203 179.818 326.952 193.656C330.106 192.829 333.248 192.131 336.377 191.56L347.747 175.761L340.701 190.143C344.359 189.634 349.026 190.122 354.125 191.103C355.843 188.977 356.748 186.141 355.86 183.614C357.313 186.279 358.315 189.145 358.829 192.105C369.593 194.596 384.274 195.875 392.186 196.82C398.579 194.842 398.596 172.504 390.56 166.515Z" fill="#2F2E41"/>
<path d="M394.313 123.887C398.537 132.851 390.013 136.707 382.205 136.598C375.149 136.5 369.153 131.802 368.793 125.123C368.62 121.915 369.798 118.774 372.069 116.39C374.339 114.006 377.516 112.575 380.9 112.411C387.948 112.07 391.435 117.78 394.313 123.887Z" fill="#2F2E41"/>
<path d="M198.343 269.823L191.384 258.823L214.521 242.187L224.14 232.561C225.39 231.31 226.964 230.392 228.705 229.899C230.447 229.406 232.294 229.354 234.063 229.749C235.832 230.145 237.46 230.973 238.786 232.152C240.111 233.33 241.087 234.818 241.615 236.466C242.398 238.908 242.15 241.544 240.922 243.815C239.694 246.087 237.583 247.818 235.035 248.643L220.086 253.48L198.343 269.823Z" fill="#A0616A"/>
<path d="M203.372 269.46L192.539 278.017L189.617 280.323L189.276 280.591C188.523 280.945 187.764 281.294 187 281.638C184.713 282.671 182.397 283.652 180.052 284.582C173.882 287.027 167.552 289.091 161.1 290.761C159.875 291.079 158.645 291.382 157.41 291.67C156.656 291.845 155.898 292.019 155.139 292.184C154.662 292.291 154.18 292.394 153.697 292.492C153.112 292.615 152.527 292.738 151.941 292.851C151.329 292.975 150.717 293.093 150.104 293.206C148.456 291.72 147.144 289.932 146.248 287.95C145.352 285.969 144.89 283.835 144.891 281.679C144.891 281.541 144.891 281.397 144.896 281.253L146.636 238.965L147.405 220.222C147.524 215.983 149.387 211.957 152.596 209.002C155.805 206.048 160.106 204.401 164.58 204.412C165.1 204.412 165.615 204.437 166.124 204.484C166.493 204.936 166.834 205.403 167.165 205.876C168.064 207.139 169.278 209.137 170.709 211.644C171.3 212.676 171.923 213.796 172.579 214.983C172.974 215.696 176.389 225.795 179.711 236.109L178.247 246.88L175.603 266.296L186.453 259.546L194.094 254.79L194.999 256.223L197.357 259.952L201.909 267.143L203.372 269.46Z" fill="#3F3D56"/>
<path d="M197.432 257.374C197.427 258.247 197.405 259.105 197.357 259.952C197.244 262.29 196.957 264.618 196.5 266.917C195.752 270.779 194.418 274.518 192.539 278.017C192.289 278.485 192.024 278.947 191.753 279.399C191.054 279.748 190.344 280.087 189.634 280.426C189.515 280.483 189.395 280.539 189.276 280.591C186.257 282.014 183.183 283.344 180.052 284.582C173.882 287.028 167.552 289.092 161.1 290.761C159.875 291.079 158.645 291.382 157.41 291.67C154.998 292.235 152.563 292.747 150.104 293.206C140.097 295.069 129.921 296.005 119.723 296C119.045 296 118.373 295.995 117.696 295.99C117.49 295.99 117.284 295.985 117.073 295.98C116.476 295.969 115.859 295.959 115.23 295.944C103.177 295.628 91.204 293.992 79.5481 291.069C78.6214 290.838 77.6983 290.598 76.7788 290.35C67.9181 287.962 59.2996 284.83 51.0255 280.991C41.9316 263.255 43.6387 253.784 41.9912 232.272C45.373 224.264 102.586 229.919 146.636 238.965C158.591 241.42 169.571 244.127 178.247 246.88C187.211 249.721 193.709 252.607 196.256 255.319C196.852 255.881 197.26 256.595 197.432 257.374Z" fill="#2F2E41"/>
<path opacity="0.2" d="M41.9945 235.955C41.9103 234.623 41.8163 233.247 41.7065 231.815C47.2019 218.809 194.66 241.836 197.148 256.917C197.141 258.299 197.079 259.641 196.974 260.951C190.95 246.067 50.8622 224.181 41.9945 235.955Z" fill="black"/>
</g>
<defs>
<clipPath id="clip0_540_377">
<rect width="477" height="296" fill="white"/>
</clipPath>
</defs>
</svg>
