<svg width="626" height="450" viewBox="0 0 626 450" fill="none" xmlns="http://www.w3.org/2000/svg">
<path d="M319.711 449.046C338.539 449.046 353.802 433.477 353.802 414.272C353.802 395.066 338.539 379.497 319.711 379.497C300.883 379.497 285.62 395.066 285.62 414.272C285.62 433.477 300.883 449.046 319.711 449.046Z" fill="#047CFD"/>
<path d="M523.374 447.093C542.446 441.25 562.722 435.157 577.848 421.268C591.364 408.856 600.489 389.903 594.89 371.29C589.302 352.714 572.564 340.328 555.283 334.167C545.482 330.673 535.228 328.735 524.978 327.212C513.836 325.557 502.644 324.201 491.457 322.896C446.162 317.611 400.696 314.383 355.06 313.211C332.542 312.632 310.027 312.646 287.506 312.98C267.392 313.278 246.209 313.27 227.55 304.55C213.041 297.769 199.871 285.433 195.828 269.221C191.161 250.507 199.77 231.45 212.118 217.897C218.627 210.753 226.234 204.74 234.082 199.211C242.595 193.213 251.406 187.64 260.407 182.438C278.135 172.196 296.669 163.48 315.817 156.38C325.263 152.877 334.849 149.854 344.519 147.066C352.684 144.711 360.874 142.353 368.765 139.145C384.02 132.943 398.529 122.438 402.408 105.216C406.084 88.8936 399.885 71.1742 389.019 59.0486C376.448 45.02 357.493 38.8703 339.32 37.8753C318.919 36.7583 298.987 41.9667 279.811 48.5768C259.359 55.6269 239.348 63.7334 218.463 69.444C197.753 75.1012 176.643 79.104 155.323 81.4159C144.887 82.5495 134.135 83.8295 123.636 82.9617C114.837 82.2344 106.084 79.5948 99.5989 73.2251C94.0387 67.7634 90.7264 60.2571 91.8652 52.3358C92.072 50.8971 94.2147 51.5087 94.0091 52.9387C92.6229 62.5812 99.0486 71.4665 106.967 76.018C116.118 81.2782 127.254 81.2854 137.443 80.6838C159.535 79.3228 181.477 76.0872 203.042 71.0107C224.232 66.0738 244.666 59.0162 265.076 51.4771C284.461 44.3169 304.279 37.3285 324.988 35.7777C342.957 34.432 361.859 37.1023 377.514 46.6811C391.271 55.0996 401.388 69.1389 404.612 85.2493C407.762 100.992 403.399 116.838 391.717 127.823C379.621 139.198 363.035 144.061 347.579 148.54C327.974 154.22 308.791 160.861 290.222 169.482C271.4 178.197 253.349 188.549 236.269 200.423C219.782 211.915 203.511 226.376 198.297 246.878C195.868 256.428 196.316 266.558 200.38 275.578C203.994 283.599 209.946 290.346 216.879 295.55C233.421 307.966 254.27 310.516 274.252 310.769C296.694 311.054 319.136 310.281 341.585 310.657C387.336 311.423 432.993 314.264 478.557 319.179C489.974 320.412 501.377 321.774 512.765 323.267C523.008 324.609 533.286 325.943 543.357 328.328C561.264 332.567 578.689 340.719 589.819 356.206C594.758 362.919 597.819 370.874 598.673 379.223C599.452 387.934 597.361 396.662 593.5 404.412C584.953 421.565 568.944 432.476 551.943 439.644C542.837 443.483 533.392 446.392 523.965 449.28C522.592 449.7 522.005 447.512 523.374 447.093L523.374 447.093Z" fill="#F2F2F2"/>
<path d="M93.3009 70.6832C103.124 70.6832 111.088 62.5602 111.088 52.5399C111.088 42.5197 103.124 34.3966 93.3009 34.3966C83.4775 34.3966 75.5142 42.5197 75.5142 52.5399C75.5142 62.5602 83.4775 70.6832 93.3009 70.6832Z" fill="#F2F2F2"/>
<path d="M216.696 105.08C226.519 105.08 234.483 96.9568 234.483 86.9366C234.483 76.9163 226.519 68.7933 216.696 68.7933C206.873 68.7933 198.909 76.9163 198.909 86.9366C198.909 96.9568 206.873 105.08 216.696 105.08Z" fill="#F2F2F2"/>
<path d="M321.193 36.2866C331.017 36.2866 338.98 28.1635 338.98 18.1433C338.98 8.12302 331.017 0 321.193 0C311.37 0 303.406 8.12302 303.406 18.1433C303.406 28.1635 311.37 36.2866 321.193 36.2866Z" fill="#F2F2F2"/>
<path d="M386.411 113.396C396.234 113.396 404.198 105.273 404.198 95.2523C404.198 85.232 396.234 77.109 386.411 77.109C376.588 77.109 368.624 85.232 368.624 95.2523C368.624 105.273 376.588 113.396 386.411 113.396Z" fill="#F2F2F2"/>
<path d="M298.219 202.6C308.042 202.6 316.005 194.477 316.005 184.457C316.005 174.436 308.042 166.313 298.219 166.313C288.395 166.313 280.432 174.436 280.432 184.457C280.432 194.477 288.395 202.6 298.219 202.6Z" fill="#F2F2F2"/>
<path d="M186.31 245.69C196.134 245.69 204.097 237.567 204.097 227.547C204.097 217.527 196.134 209.404 186.31 209.404C176.487 209.404 168.524 217.527 168.524 227.547C168.524 237.567 176.487 245.69 186.31 245.69Z" fill="#F2F2F2"/>
<path d="M304.889 312.972C314.712 312.972 322.675 304.849 322.675 294.828C322.675 284.808 314.712 276.685 304.889 276.685C295.065 276.685 287.102 284.808 287.102 294.828C287.102 304.849 295.065 312.972 304.889 312.972Z" fill="#F2F2F2"/>
<path d="M432.36 350.77C442.183 350.77 450.147 342.647 450.147 332.627C450.147 322.607 442.183 314.484 432.36 314.484C422.537 314.484 414.573 322.607 414.573 332.627C414.573 342.647 422.537 350.77 432.36 350.77Z" fill="#F2F2F2"/>
<path d="M581.324 342.455C591.147 342.455 599.111 334.332 599.111 324.311C599.111 314.291 591.147 306.168 581.324 306.168C571.501 306.168 563.537 314.291 563.537 324.311C563.537 334.332 571.501 342.455 581.324 342.455Z" fill="#F2F2F2"/>
<path d="M316.059 51.4086C262.779 51.7925 219.154 95.9578 218.397 150.302C218.39 150.804 218.387 154.331 218.387 158.946C218.388 165.711 221.022 172.2 225.712 176.984C230.402 181.768 236.763 184.456 243.395 184.457H243.395C246.683 184.456 249.939 183.794 252.976 182.51C256.013 181.225 258.772 179.343 261.096 176.97C263.419 174.597 265.262 171.781 266.518 168.681C267.774 165.582 268.419 162.26 268.416 158.907C268.414 155.768 268.412 153.595 268.412 153.462C268.41 145.063 270.552 136.809 274.626 129.51C278.701 122.212 284.568 116.121 291.65 111.837C298.732 107.553 306.785 105.223 315.018 105.077C323.25 104.931 331.378 106.973 338.602 111.003C345.826 115.033 351.897 120.911 356.218 128.061C360.54 135.21 362.962 143.383 363.247 151.777C363.532 160.171 361.67 168.496 357.844 175.933C354.018 183.37 348.36 189.663 341.427 194.193L341.435 194.204C341.435 194.204 305.841 217.578 294.989 249.643L294.998 249.646C293.09 256.214 292.123 263.03 292.128 269.881C292.128 272.698 292.29 297.339 292.604 317.339C292.714 324.24 295.479 330.82 300.302 335.66C305.126 340.5 311.621 343.212 318.387 343.21H318.387C321.787 343.21 325.153 342.524 328.292 341.192C331.431 339.86 334.281 337.908 336.678 335.448C339.074 332.988 340.97 330.069 342.257 326.859C343.543 323.649 344.195 320.211 344.174 316.743C344.065 298.427 344.006 277.099 344.006 275.551C344.006 255.862 362.626 236.245 377.922 223.452C395.535 208.72 408.209 188.645 413.3 165.999C414.427 161.336 415.048 156.562 415.153 151.761C415.153 138.521 412.584 125.412 407.595 113.189C402.607 100.967 395.296 89.8715 386.085 80.5434C376.874 71.2153 365.945 63.8386 353.926 58.8383C341.908 53.838 329.038 51.3129 316.059 51.4086Z" fill="#047CFD"/>
<path d="M465.752 206.377C478.031 206.377 487.985 196.223 487.985 183.698C487.985 171.172 478.031 161.019 465.752 161.019C453.473 161.019 443.518 171.172 443.518 183.698C443.518 196.223 453.473 206.377 465.752 206.377Z" fill="#2F2E41"/>
<path d="M424.667 440.072H415.581L411.259 404.324H424.669L424.667 440.072Z" fill="#A0616A"/>
<path d="M409.091 437.424H426.614V448.678H398.058C398.058 447.2 398.344 445.736 398.898 444.371C399.453 443.006 400.265 441.765 401.29 440.72C402.314 439.675 403.531 438.846 404.869 438.28C406.208 437.715 407.642 437.424 409.091 437.424Z" fill="#2F2E41"/>
<path d="M495.073 440.072H485.987L481.664 404.324H495.075L495.073 440.072Z" fill="#A0616A"/>
<path d="M479.497 437.424H497.02V448.678H468.464C468.464 447.2 468.749 445.736 469.304 444.371C469.858 443.006 470.671 441.765 471.696 440.72C472.72 439.675 473.936 438.846 475.275 438.28C476.613 437.715 478.048 437.424 479.497 437.424Z" fill="#2F2E41"/>
<path d="M462.373 206.509C472.426 206.509 480.576 198.196 480.576 187.942C480.576 177.687 472.426 169.374 462.373 169.374C452.32 169.374 444.17 177.687 444.17 187.942C444.17 198.196 452.32 206.509 462.373 206.509Z" fill="#A0616A"/>
<path d="M473.222 266.408L481.367 247.32C483.345 242.842 483.912 237.848 482.989 233.028C482.067 228.207 479.7 223.798 476.216 220.408C475.501 219.686 474.741 219.012 473.941 218.389C469.922 215.182 464.97 213.434 459.867 213.422C456.437 213.436 453.049 214.204 449.936 215.675C449.669 215.796 449.41 215.925 449.143 216.053C448.632 216.303 448.128 216.575 447.639 216.854C444.448 218.723 441.733 221.331 439.712 224.466C437.691 227.602 436.42 231.178 436.003 234.907L432.409 265.63C431.505 268.041 399.252 355.129 410.532 421.617C410.652 422.327 410.991 422.979 411.5 423.478C412.01 423.977 412.662 424.297 413.362 424.391L424.798 425.979C425.633 426.095 426.48 425.884 427.169 425.389C427.858 424.894 428.337 424.151 428.511 423.31L447.698 330.016C447.818 329.436 448.124 328.914 448.569 328.533C449.014 328.152 449.571 327.934 450.151 327.914C450.732 327.894 451.302 328.073 451.771 328.423C452.24 328.772 452.58 329.272 452.738 329.842L479.848 427.952C480.041 428.664 480.458 429.293 481.035 429.741C481.612 430.189 482.317 430.431 483.042 430.431C483.258 430.43 483.474 430.41 483.687 430.371L497.656 427.627C498.469 427.472 499.195 427.013 499.693 426.34C500.19 425.668 500.424 424.829 500.347 423.99C498.294 400.638 487.385 283.667 473.222 266.408Z" fill="#2F2E41"/>
<path d="M391.634 203.394C391.507 204.498 391.62 205.616 391.963 206.671C392.306 207.726 392.872 208.691 393.621 209.498C394.369 210.306 395.282 210.936 396.296 211.345C397.309 211.753 398.398 211.93 399.485 211.863L409.66 236.804L417.356 225.167L406.514 203.266C406.283 201.41 405.392 199.705 404.01 198.474C402.629 197.243 400.853 196.572 399.018 196.588C397.184 196.604 395.419 197.305 394.058 198.559C392.697 199.814 391.834 201.534 391.633 203.394L391.634 203.394Z" fill="#A0616A"/>
<path d="M461.364 291.522C462.445 291.39 463.486 291.018 464.411 290.432C465.337 289.845 466.125 289.059 466.72 288.128C467.316 287.197 467.704 286.145 467.857 285.045C468.011 283.944 467.926 282.823 467.609 281.76L489.016 265.856L476.128 260.933L457.775 276.79C456.059 277.453 454.641 278.734 453.79 280.391C452.938 282.048 452.712 283.966 453.155 285.782C453.597 287.598 454.677 289.185 456.19 290.243C457.703 291.301 459.544 291.756 461.364 291.522Z" fill="#A0616A"/>
<path d="M426.466 253.432C425.645 253.431 424.826 253.349 424.021 253.186C422.074 252.808 420.248 251.948 418.704 250.68C417.16 249.412 415.945 247.776 415.167 245.917L400.912 228.187C400.611 227.812 400.391 227.376 400.269 226.908C400.146 226.439 400.123 225.949 400.201 225.471C400.279 224.993 400.456 224.537 400.721 224.135C400.985 223.732 401.331 223.392 401.736 223.137L411.877 216.733C412.252 216.497 412.668 216.338 413.103 216.267C413.538 216.195 413.982 216.212 414.41 216.317C414.839 216.422 415.242 216.612 415.598 216.877C415.954 217.142 416.255 217.476 416.483 217.86L426.53 234.743L445.771 220.239C447.303 219.42 449.072 219.19 450.757 219.592C452.441 219.993 453.927 221 454.944 222.427C455.961 223.854 456.441 225.607 456.295 227.365C456.15 229.123 455.389 230.77 454.152 232.003L434.949 249.872C432.692 252.153 429.643 253.433 426.466 253.432Z" fill="#2F2E41"/>
<path d="M478.455 280.097C478.429 280.097 478.403 280.097 478.377 280.096C477.909 280.085 477.449 279.973 477.026 279.769C476.603 279.564 476.228 279.271 475.923 278.909L466.906 268.18C466.599 267.814 466.372 267.386 466.239 266.925C466.106 266.463 466.07 265.977 466.135 265.501C466.199 265.024 466.362 264.566 466.613 264.159C466.863 263.751 467.196 263.402 467.588 263.135L484.472 251.654L469.177 232.896C468.287 231.383 467.96 229.594 468.257 227.856C468.554 226.118 469.454 224.546 470.792 223.429C472.131 222.311 473.819 221.723 475.548 221.77C477.277 221.817 478.932 222.498 480.21 223.687L498.8 242.217C500.263 243.581 501.379 245.286 502.054 247.186C502.729 249.087 502.942 251.126 502.674 253.129C502.406 255.132 501.666 257.039 500.516 258.685C499.367 260.332 497.843 261.67 496.076 262.584L480.882 279.029C480.57 279.366 480.194 279.635 479.776 279.818C479.359 280.002 478.909 280.097 478.455 280.097Z" fill="#2F2E41"/>
<path d="M457.745 240.561C457.6 240.561 457.455 240.551 457.312 240.533C456.684 240.455 456.091 240.195 455.604 239.783C455.116 239.372 454.755 238.827 454.562 238.213L447.787 217.023C447.617 216.488 447.643 215.907 447.86 215.39C448.077 214.872 448.471 214.452 448.968 214.208L449.188 214.102C449.387 214.005 449.584 213.909 449.786 213.818C452.946 212.323 456.385 211.544 459.867 211.532C464.389 211.541 468.809 212.896 472.586 215.431C473.092 215.775 473.446 216.307 473.571 216.915C473.696 217.522 473.582 218.155 473.254 218.677L460.544 238.988C460.246 239.471 459.833 239.868 459.343 240.143C458.854 240.418 458.304 240.562 457.745 240.561Z" fill="#E6E6E6"/>
<path d="M483.281 173.573C487.299 173.573 490.556 170.25 490.556 166.152C490.556 162.053 487.299 158.731 483.281 158.731C479.263 158.731 476.005 162.053 476.005 166.152C476.005 170.25 479.263 173.573 483.281 173.573Z" fill="#2F2E41"/>
<path d="M458.341 157.995C453.23 157.995 448.329 160.065 444.716 163.752C441.102 167.438 439.072 172.437 439.072 177.65V185.966H449.099L453.894 177.65L455.333 185.966H485.762L477.61 177.65C477.61 172.437 475.579 167.438 471.966 163.752C468.352 160.065 463.451 157.995 458.341 157.995Z" fill="#2F2E41"/>
<path d="M487.02 161.069C487.825 158.502 489.49 156.308 491.724 154.87C493.958 153.433 496.617 152.845 499.234 153.21C503.871 154 507.536 157.802 509.72 162.048C511.905 166.294 512.913 171.046 514.382 175.601C515.85 180.156 517.932 184.736 521.639 187.684C525.346 190.633 531.035 191.433 534.675 188.399C534.259 191.561 532.88 194.508 530.731 196.826C528.583 199.143 525.775 200.713 522.704 201.313C519.633 201.914 516.455 201.514 513.619 200.171C510.783 198.827 508.433 196.609 506.901 193.828C504.98 190.342 504.484 186.256 503.914 182.299C503.344 178.342 502.604 174.248 500.311 171.004C498.017 167.761 493.724 165.642 490.08 167.12L487.02 161.069Z" fill="#2F2E41"/>
<path d="M250.456 172.39C243.824 172.389 237.463 169.701 232.773 164.917C228.084 160.133 225.449 153.645 225.448 146.879C225.448 142.265 225.451 138.737 225.458 138.235C225.669 122.431 229.571 106.905 236.841 92.9461C224.897 109.625 218.329 129.678 218.047 150.331C218.04 150.833 218.037 154.36 218.037 158.975C218.038 165.74 220.672 172.229 225.362 177.013C230.052 181.797 236.413 184.485 243.045 184.486C248.496 184.484 253.796 182.667 258.142 179.312C262.487 175.956 265.641 171.246 267.122 165.896C262.543 170.085 256.607 172.398 250.456 172.39Z" fill="#3F3D56"/>
<path d="M317.754 105.162C325.422 105.536 332.886 107.802 339.506 111.767C346.126 115.731 351.704 121.275 355.761 127.922C359.817 134.57 362.232 142.123 362.797 149.932C363.362 157.741 362.06 165.573 359.004 172.756C363.425 167.46 366.674 161.254 368.53 154.561C370.386 147.869 370.806 140.846 369.76 133.973C368.715 127.099 366.228 120.537 362.471 114.733C358.714 108.928 353.774 104.019 347.987 100.338C342.201 96.6581 335.705 94.2938 328.942 93.4065C322.179 92.5193 315.308 93.13 308.797 95.1971C302.286 97.2642 296.289 100.739 291.214 105.385C286.139 110.03 282.106 115.737 279.389 122.117C284.084 116.483 289.985 112.024 296.637 109.085C303.289 106.145 310.513 104.803 317.754 105.162Z" fill="#3F3D56"/>
<path d="M325.448 331.144C318.682 331.145 312.187 328.434 307.363 323.594C302.54 318.754 299.775 312.174 299.665 305.273C299.351 285.273 299.189 260.631 299.189 257.815C299.184 250.964 300.151 244.148 302.059 237.579L302.05 237.577C303.177 234.28 304.538 231.071 306.122 227.975C301.259 234.586 297.389 241.898 294.639 249.672L294.648 249.675C292.74 256.243 291.773 263.059 291.778 269.91C291.778 272.727 291.94 297.368 292.254 317.368C292.364 324.269 295.129 330.849 299.952 335.689C304.776 340.529 311.271 343.241 318.037 343.239C323.616 343.238 329.044 341.392 333.507 337.978C337.97 334.564 341.228 329.766 342.792 324.304C338.051 328.713 331.864 331.153 325.448 331.144Z" fill="#3F3D56"/>
<path d="M93.781 440.417L102.866 440.416L107.189 404.668L93.7788 404.669L93.781 440.417Z" fill="#FFB8B8"/>
<path d="M120.39 449.022L91.8343 449.023L91.8338 437.769L109.357 437.768C112.283 437.768 115.089 438.954 117.158 441.064C119.227 443.174 120.39 446.037 120.39 449.022L120.39 449.022Z" fill="#2F2E41"/>
<path d="M61.1721 440.417L70.2575 440.416L74.5804 404.668L61.1699 404.669L61.1721 440.417Z" fill="#FFB8B8"/>
<path d="M87.781 449.022L59.2254 449.023L59.2249 437.769L76.7477 437.768C79.6738 437.768 82.4801 438.954 84.5492 441.064C86.6184 443.174 87.7809 446.037 87.781 449.022L87.781 449.022Z" fill="#2F2E41"/>
<path d="M69.1119 429.422L60.2371 428.946C59.7794 428.922 59.3311 428.805 58.9181 428.602C58.5051 428.4 58.1356 428.116 57.8311 427.766C57.5265 427.417 57.2929 427.01 57.1438 426.568C56.9947 426.126 56.9331 425.658 56.9625 425.191L67.5698 305.396L116.417 318.841L121.124 317.532L106.406 423.583C106.281 424.38 105.893 425.111 105.305 425.653C104.718 426.195 103.967 426.517 103.176 426.565L93.6094 427.019C93.131 427.046 92.6524 426.972 92.2036 426.801C91.7549 426.63 91.3459 426.365 91.0024 426.024C90.6589 425.684 90.3884 425.274 90.2081 424.821C90.0277 424.369 89.9414 423.883 89.9546 423.394L91.6881 359.744C91.6962 359.45 91.5959 359.163 91.4071 358.94C91.2182 358.718 90.9544 358.575 90.6677 358.541C90.381 358.507 90.0922 358.583 89.8581 358.756C89.624 358.928 89.4617 359.184 89.4031 359.472L72.6859 426.611C72.5281 427.408 72.1043 428.124 71.4868 428.638C70.8693 429.151 70.0963 429.43 69.2996 429.428C69.2374 429.428 69.1749 429.426 69.1119 429.422Z" fill="#2F2E41"/>
<path d="M95.4125 207.378C105.465 207.378 113.615 199.065 113.615 188.81C113.615 178.556 105.465 170.243 95.4125 170.243C85.3595 170.243 77.21 178.556 77.21 188.81C77.21 199.065 85.3595 207.378 95.4125 207.378Z" fill="#FFB8B8"/>
<path d="M65.1064 243.36L67.1078 287.409L67.8313 303.434C67.8601 304.132 68.0923 304.805 68.4982 305.367C68.9041 305.929 69.4652 306.355 70.1097 306.591L117.049 323.935C117.428 324.079 117.83 324.151 118.234 324.147C118.697 324.149 119.155 324.057 119.581 323.874C120.008 323.692 120.394 323.424 120.716 323.086C121.039 322.748 121.291 322.348 121.459 321.908C121.626 321.468 121.705 320.999 121.691 320.527L119.766 241.327C119.64 234.829 117.295 228.579 113.136 223.656C108.976 218.732 103.263 215.443 96.9817 214.356C96.5277 214.285 96.0657 214.214 95.6038 214.152C91.7086 213.658 87.7548 214.042 84.0205 215.275C80.2862 216.508 76.8622 218.561 73.9893 221.289C71.0144 224.08 68.6769 227.503 67.142 231.317C65.607 235.131 64.9121 239.242 65.1063 243.36L65.1064 243.36Z" fill="#CCCCCC"/>
<path d="M139.472 315.146C138.361 314.794 137.347 314.183 136.51 313.361C135.672 312.538 135.035 311.528 134.648 310.41C134.262 309.291 134.137 308.096 134.283 306.92C134.43 305.744 134.844 304.619 135.493 303.635L119.575 282.044L133.311 281.177L146.321 301.813C147.714 302.911 148.683 304.475 149.058 306.229C149.434 307.984 149.192 309.817 148.375 311.408C147.558 312.998 146.218 314.245 144.59 314.928C142.962 315.612 141.15 315.689 139.472 315.146H139.472Z" fill="#FFB8B8"/>
<path d="M128.28 299.728C127.858 299.553 127.475 299.295 127.151 298.968C126.828 298.641 126.572 298.253 126.397 297.824L102.416 239.543C101.945 238.402 101.7 237.177 101.693 235.939C101.687 234.702 101.92 233.474 102.378 232.328C102.837 231.182 103.513 230.14 104.367 229.26C105.221 228.38 106.236 227.681 107.355 227.202C108.474 226.723 109.675 226.473 110.888 226.468C112.102 226.462 113.305 226.701 114.428 227.17C115.551 227.638 116.573 228.328 117.434 229.2C118.296 230.072 118.981 231.108 119.45 232.25L143.431 290.532C143.785 291.396 143.789 292.368 143.442 293.235C143.094 294.102 142.424 294.794 141.578 295.157L130.931 299.715C130.512 299.896 130.062 299.99 129.607 299.992C129.152 299.995 128.701 299.905 128.28 299.728L128.28 299.728Z" fill="#CCCCCC"/>
<path d="M89.5602 297.672L112.593 252.685C113.038 251.82 113.8 251.17 114.714 250.877C115.627 250.585 116.617 250.674 117.466 251.125L150.899 268.936C151.747 269.389 152.384 270.167 152.671 271.099C152.958 272.031 152.87 273.04 152.428 273.907L129.395 318.893C128.951 319.759 128.188 320.409 127.275 320.701C126.361 320.994 125.371 320.904 124.522 320.453L91.0895 302.643C90.2413 302.189 89.6039 301.412 89.3173 300.48C89.0306 299.548 89.1179 298.538 89.5602 297.672Z" fill="#3F3D56"/>
<path d="M105.007 277.119C104.597 276.009 103.939 275.012 103.085 274.208C102.231 273.404 101.204 272.814 100.087 272.487C98.97 272.159 97.7932 272.103 96.6508 272.321C95.5083 272.54 94.4318 273.028 93.5071 273.747L71.4379 258.813L71.4004 272.851L92.3634 284.88C93.5206 286.234 95.108 287.128 96.8471 287.407C98.5863 287.686 100.366 287.331 101.875 286.405C103.383 285.479 104.524 284.041 105.096 282.343C105.669 280.645 105.637 278.795 105.007 277.119Z" fill="#FFB8B8"/>
<path d="M77.1043 280.276L59.068 265.702C57.1168 265.034 55.3538 263.893 53.9302 262.376C52.5066 260.86 51.465 259.014 50.8948 256.997C50.3246 254.979 50.2429 252.851 50.6566 250.794C51.0702 248.738 51.967 246.814 53.2699 245.189L69.6464 223.296C70.7844 221.878 72.3849 220.924 74.1553 220.61C75.9257 220.296 77.7478 220.643 79.2884 221.586C80.829 222.53 81.9853 224.007 82.5458 225.749C83.1064 227.49 83.0338 229.38 82.3414 231.071L69.3839 252.692L88.426 261.905C88.8688 262.119 89.2621 262.427 89.5797 262.807C89.8973 263.188 90.1321 263.633 90.2685 264.113C90.405 264.593 90.44 265.098 90.3713 265.592C90.3026 266.087 90.1316 266.562 89.8698 266.984L82.1832 279.393C81.9234 279.812 81.5802 280.17 81.1759 280.445C80.7716 280.72 80.3152 280.905 79.8363 280.989C79.8173 280.992 79.7982 280.995 79.779 280.998C79.3084 281.071 78.8283 281.044 78.3682 280.92C77.9082 280.795 77.478 280.576 77.1043 280.276Z" fill="#CCCCCC"/>
<path d="M81.6581 201.243C81.58 201.01 81.5552 200.762 81.5856 200.518C81.6161 200.273 81.701 200.039 81.8338 199.834C81.9666 199.628 82.1438 199.456 82.3518 199.331C82.5598 199.206 82.7931 199.131 83.0338 199.112C83.5268 199.139 84.0093 199.268 84.4521 199.491C84.8949 199.714 85.2888 200.026 85.61 200.409C86.2688 201.183 87.0357 201.855 87.8861 202.402C88.7666 202.855 89.9609 202.79 90.4628 201.927C90.9342 201.117 90.6112 200.031 90.3259 199.09C89.5997 196.694 89.1934 194.21 89.1179 191.704C89.0357 188.907 89.4226 185.987 90.9408 183.805C92.9002 180.99 96.4039 179.921 99.7196 179.998C103.035 180.076 106.297 181.12 109.582 181.78C110.716 182.008 112.048 182.124 112.807 181.228C113.613 180.275 113.317 178.732 112.974 177.445C112.084 174.106 111.14 170.653 109.072 167.956C106.836 165.153 103.642 163.319 100.133 162.823C96.7649 162.397 93.3455 162.793 90.1562 163.978C84.9602 165.649 80.388 168.898 77.0512 173.291C73.6115 177.962 72.1252 183.833 72.9172 189.62C73.6911 194.659 76.3091 199.213 80.2437 202.361L81.6581 201.243Z" fill="#2F2E41"/>
<path d="M312.2 440.564C307.357 438.413 303.071 435.143 299.679 431.012C296.287 426.881 293.883 422.003 292.656 416.762C291.43 411.521 291.414 406.061 292.61 400.813C293.806 395.565 296.181 390.672 299.549 386.521C295.645 389.429 292.391 393.15 290.005 397.439C287.618 401.727 286.153 406.484 285.707 411.394C285.261 416.304 285.843 421.255 287.416 425.918C288.989 430.58 291.516 434.849 294.83 438.439C298.143 442.03 302.168 444.86 306.636 446.743C311.104 448.625 315.913 449.517 320.745 449.359C325.576 449.201 330.32 447.996 334.66 445.825C339.001 443.654 342.839 440.566 345.919 436.766C341.114 440.348 335.472 442.584 329.556 443.251C323.64 443.917 317.656 442.991 312.2 440.564Z" fill="#3F3D56"/>
</svg>
