<svg width="578" height="430" viewBox="0 0 578 430" fill="none" xmlns="http://www.w3.org/2000/svg">
<path d="M168.874 0L76.8192 47.737C78.3933 50.3315 79.4074 53.2021 79.8015 56.1787C80.1956 59.1553 79.9616 62.1774 79.1133 65.0658C78.2651 67.9543 76.8199 70.6503 74.8633 72.9942C72.9068 75.3381 70.4787 77.2822 67.723 78.7113C64.9673 80.1403 61.94 81.0252 58.8205 81.3136C55.701 81.602 52.5528 81.2879 49.5624 80.3901C46.572 79.4923 43.8002 78.0289 41.4114 76.0867C39.0226 74.1445 37.0652 71.763 35.6554 69.0834L4.26733 85.3603L85.5721 229.067L250.179 143.706L168.874 0Z" fill="#F2F2F2"/>
<path d="M55.1697 77.1897C65.6652 77.1897 74.1736 69.044 74.1736 58.9957C74.1736 48.9475 65.6652 40.8018 55.1697 40.8018C44.6741 40.8018 36.1658 48.9475 36.1658 58.9957C36.1658 69.044 44.6741 77.1897 55.1697 77.1897Z" fill="#047CFD"/>
<path d="M400.026 384.713L499.556 353.631C498.496 350.808 498.039 347.809 498.211 344.814C498.383 341.818 499.182 338.885 500.56 336.19C501.938 333.496 503.867 331.093 506.232 329.125C508.598 327.156 511.352 325.663 514.331 324.732C517.311 323.802 520.455 323.454 523.578 323.708C526.7 323.962 529.738 324.814 532.511 326.213C535.283 327.612 537.734 329.529 539.719 331.851C541.703 334.174 543.18 336.854 544.063 339.733L578 329.135L525.062 173.758L347.088 229.337L400.026 384.713Z" fill="#F2F2F2"/>
<path d="M522.97 364.484C533.465 364.484 541.974 356.338 541.974 346.29C541.974 336.242 533.465 328.096 522.97 328.096C512.474 328.096 503.966 336.242 503.966 346.29C503.966 356.338 512.474 364.484 522.97 364.484Z" fill="#047CFD"/>
<path d="M526.891 85.2419H67.3557V285.118H526.891V85.2419Z" fill="#3F3D56"/>
<path d="M519.31 92.5H74.937V273.952H519.31V92.5Z" fill="white"/>
<path d="M474.115 265.298H430.96V279.256H474.115V265.298Z" fill="#3F3D56"/>
<path d="M428.628 275.906H397.137V279.814H428.628V275.906Z" fill="#047CFD"/>
<path d="M111.093 161.173H280.795L307.105 173.444L349.025 192.996L376.434 143.865H453.995" stroke="#3F3D56" stroke-width="2" stroke-miterlimit="10"/>
<path d="M177.822 161.173L190.404 189.647H221.312" stroke="#3F3D56" stroke-width="2" stroke-miterlimit="10"/>
<path d="M224.99 161.173L267.965 138.84H298.29" stroke="#3F3D56" stroke-width="2" stroke-miterlimit="10"/>
<path d="M177.574 166.197C180.473 166.197 182.823 163.948 182.823 161.172C182.823 158.397 180.473 156.148 177.574 156.148C174.676 156.148 172.326 158.397 172.326 161.172C172.326 163.948 174.676 166.197 177.574 166.197Z" fill="#047CFD"/>
<path d="M226.56 166.197C229.459 166.197 231.809 163.948 231.809 161.172C231.809 158.397 229.459 156.148 226.56 156.148C223.662 156.148 221.312 158.397 221.312 161.172C221.312 163.948 223.662 166.197 226.56 166.197Z" fill="#047CFD"/>
<path d="M307.037 173.455L310.536 223.145H340.861" stroke="#3F3D56" stroke-width="2" stroke-miterlimit="10"/>
<path d="M365.442 163.569L332.114 138.84H363.605" stroke="#3F3D56" stroke-width="2" stroke-miterlimit="10"/>
<path d="M420.493 143.865L452.829 168.431H483.154" stroke="#3F3D56" stroke-width="2" stroke-miterlimit="10"/>
<path d="M307.037 178.48C309.936 178.48 312.286 176.23 312.286 173.455C312.286 170.68 309.936 168.431 307.037 168.431C304.139 168.431 301.789 170.68 301.789 173.455C301.789 176.23 304.139 178.48 307.037 178.48Z" fill="#047CFD"/>
<path d="M420.172 148.89C423.071 148.89 425.42 146.64 425.42 143.865C425.42 141.09 423.071 138.84 420.172 138.84C417.273 138.84 414.923 141.09 414.923 143.865C414.923 146.64 417.273 148.89 420.172 148.89Z" fill="#047CFD"/>
<path d="M365.354 168.43C368.253 168.43 370.602 166.181 370.602 163.406C370.602 160.631 368.253 158.381 365.354 158.381C362.455 158.381 360.105 160.631 360.105 163.406C360.105 166.181 362.455 168.43 365.354 168.43Z" fill="#047CFD"/>
<path d="M190.987 194.113H221.312" stroke="#3F3D56" stroke-width="2" stroke-miterlimit="10"/>
<path d="M472.098 50.4075C476.851 50.4075 480.703 46.7191 480.703 42.1692C480.703 37.6194 476.851 33.931 472.098 33.931C467.346 33.931 463.493 37.6194 463.493 42.1692C463.493 46.7191 467.346 50.4075 472.098 50.4075Z" stroke="#3F3D56" stroke-width="2" stroke-miterlimit="10"/>
<path d="M88.6414 430C137.597 430 177.283 423.001 177.283 414.367C177.283 405.734 137.597 398.734 88.6414 398.734C39.6861 398.734 0 405.734 0 414.367C0 423.001 39.6861 430 88.6414 430Z" fill="#F2F2F2"/>
<path d="M149.518 275.615L133.704 283.254L134.727 285.205L150.54 277.567L149.518 275.615Z" fill="#047CFD"/>
<path d="M146.947 261.408L146.236 265.489C146.236 265.489 147.302 293.716 139.487 284.874C131.672 276.032 137.001 264.129 137.001 264.129L139.132 260.728L146.947 261.408Z" fill="#FBBEBE"/>
<path d="M101.479 130.818C101.479 130.818 100.058 145.102 99.3474 145.782C98.637 146.462 110.004 159.385 110.004 159.385L119.95 150.543C119.95 150.543 119.24 137.62 121.371 134.899C123.502 132.179 101.479 130.818 101.479 130.818Z" fill="#FBBEBE"/>
<path opacity="0.1" d="M101.479 130.818C101.479 130.818 100.058 145.102 99.3474 145.782C98.637 146.462 110.004 159.385 110.004 159.385L119.95 150.543C119.95 150.543 119.24 137.62 121.371 134.899C123.502 132.179 101.479 130.818 101.479 130.818Z" fill="black"/>
<path d="M75.1929 391.318V403.561L70.2196 404.241L63.1155 402.201L65.2464 389.277L75.1929 391.318Z" fill="#3F3D56"/>
<path d="M68.7989 397.439C68.7989 397.439 66.6676 391.998 63.1154 392.678C59.5632 393.359 58.8528 397.439 58.8528 397.439C58.8528 397.439 56.0111 407.642 51.7484 411.043C47.4858 414.443 43.2232 423.285 51.7484 424.646C60.2737 426.006 67.378 422.605 67.378 421.925C67.378 421.245 69.5093 417.164 73.0615 416.484C76.6136 415.804 79.4554 415.123 79.4554 412.403C79.4554 409.682 77.3241 406.962 77.3241 406.962C77.3241 406.962 76.6136 394.06 75.1928 395.75C74.2101 397.085 73.4881 398.579 73.0615 400.16L68.7989 397.439Z" fill="#2F2E41"/>
<path d="M105.742 385.197L102.9 395.399L110.004 396.759L113.556 393.359L114.266 384.517L105.742 385.197Z" fill="#3F3D56"/>
<path d="M105.031 394.039C105.031 394.039 107.873 391.998 109.293 391.998H111.425C111.425 391.998 111.425 387.237 114.977 387.237C118.529 387.237 117.819 390.638 117.819 390.638C117.819 390.638 125.633 402.2 127.765 404.241C129.896 406.281 141.263 412.403 132.027 415.123C122.792 417.844 116.398 417.844 112.135 413.083C112.135 413.083 107.873 411.042 105.031 411.042C102.189 411.042 98.637 409.682 98.637 407.642C98.637 405.601 100.768 401.52 100.768 401.52C100.768 401.52 102.189 389.278 102.9 390.638C103.61 391.998 105.031 394.039 105.031 394.039Z" fill="#2F2E41"/>
<path d="M74.4824 228.761V251.206C74.4824 251.206 66.6676 294.736 66.6676 309.019C66.6676 323.303 54.5902 391.318 60.2737 392.678C65.9572 394.039 79.4554 396.079 80.1658 394.039C80.8763 391.998 85.8493 327.383 86.5597 326.703C87.2702 326.023 102.189 272.291 102.189 272.291L105.031 272.971L106.452 334.185C106.452 334.185 99.3475 389.278 102.9 389.278C106.452 389.278 121.371 388.597 121.371 384.517C121.371 380.436 129.186 304.938 129.186 304.938C129.186 304.938 138.421 245.085 134.869 238.963C131.317 232.842 131.317 229.441 131.317 229.441L74.4824 228.761Z" fill="#2F2E41"/>
<path d="M113.201 141.361C121.048 141.361 127.41 135.271 127.41 127.758C127.41 120.245 121.048 114.155 113.201 114.155C105.354 114.155 98.9922 120.245 98.9922 127.758C98.9922 135.271 105.354 141.361 113.201 141.361Z" fill="#FBBEBE"/>
<path d="M110.004 151.223C110.004 151.223 101.124 144.081 100.413 141.361C100.413 141.361 95.7954 145.782 95.7954 146.462C95.7954 147.142 75.9033 149.183 70.9302 154.624C65.9572 160.065 61.6946 171.628 61.6946 171.628L73.772 193.393C73.772 193.393 74.4824 205.636 74.4824 206.996C74.4824 208.356 70.9302 230.121 72.3511 230.801C73.772 231.481 87.9807 238.283 100.058 236.923C112.135 235.562 124.213 233.522 127.765 233.522C131.317 233.522 134.159 234.882 134.159 233.522C134.159 232.162 132.028 229.441 132.028 228.081C132.028 226.72 131.317 223.32 131.317 221.279C131.317 219.239 129.896 215.838 129.896 213.117C129.896 210.397 145.526 173.668 145.526 173.668C145.526 173.668 144.815 162.106 133.448 156.664C122.081 151.223 120.661 149.183 120.661 149.183C120.661 149.183 120.439 145.102 119.839 145.102C119.24 145.102 117.108 151.223 111.425 151.903L110.004 151.223Z" fill="#D0CDE1"/>
<path d="M71.6404 241.684L76.6136 249.165L89.4013 246.445L80.1657 236.243L71.6404 241.684Z" fill="#FBBEBE"/>
<path d="M141.263 168.227L145.526 173.668C145.526 173.668 154.051 213.117 152.63 227.401C151.209 241.684 149.788 252.566 149.788 252.566C149.788 252.566 152.63 262.769 150.499 262.769C148.367 262.769 135.58 263.449 135.58 261.408C135.58 259.368 137 246.445 137 246.445L133.448 216.518L125.634 206.316L141.263 168.227Z" fill="#D0CDE1"/>
<path d="M103.55 121.154C104.421 120.8 105.428 121.087 106.361 120.936C107.456 120.759 108.436 119.982 109.542 120.08C110.066 120.173 110.576 120.332 111.057 120.551C111.299 120.66 111.56 120.721 111.827 120.73C112.094 120.739 112.36 120.696 112.609 120.604C112.727 120.552 112.832 120.474 112.916 120.378C112.999 120.281 113.06 120.168 113.092 120.047C113.124 119.926 113.128 119.799 113.103 119.676C113.077 119.553 113.024 119.437 112.946 119.336C113.882 119.257 114.767 118.893 115.47 118.296C115.61 118.157 115.772 118.04 115.951 117.95C116.16 117.898 116.377 117.888 116.59 117.92C116.803 117.951 117.007 118.025 117.189 118.135L118.815 118.852C119.181 118.976 119.503 119.197 119.744 119.489C119.937 119.777 119.975 120.165 120.249 120.386C120.598 120.668 121.121 120.53 121.577 120.558C121.991 120.597 122.376 120.779 122.658 121.072C122.941 121.364 123.102 121.745 123.11 122.144C123.104 122.6 122.93 123.161 123.308 123.44C123.526 123.602 123.837 123.576 124.094 123.676C124.758 123.934 124.761 124.82 124.662 125.5C124.564 126.18 124.613 127.077 125.296 127.287C125.777 127.434 126.268 127.12 126.768 127.05C127.522 126.944 128.219 127.395 128.89 127.741C129.561 128.086 130.452 128.319 131.034 127.848C131.575 127.41 131.541 126.608 131.392 125.944C131.178 124.993 130.827 124.075 130.349 123.216C130.172 122.963 130.068 122.67 130.047 122.367C130.088 122.153 130.175 121.95 130.304 121.771C130.432 121.592 130.599 121.441 130.792 121.328C131.615 120.706 132.56 120.079 132.826 119.109C133.022 118.397 132.802 117.646 132.819 116.909C132.84 116.013 133.212 115.122 133.037 114.241C132.721 112.645 130.866 111.877 129.668 110.727C128.023 109.146 127.489 106.617 125.547 105.382C123.993 104.394 121.961 104.512 120.192 103.947C118.249 103.326 116.685 101.9 114.768 101.208C113.721 100.838 112.603 100.695 111.492 100.788C110.381 100.882 109.305 101.209 108.342 101.747C107.77 102.153 107.132 102.466 106.453 102.671C105.881 102.735 105.303 102.728 104.733 102.652C103.6 102.596 102.471 102.819 101.454 103.3C101.064 103.449 100.74 103.721 100.535 104.071C100.192 104.801 100.691 105.942 99.9382 106.291C99.5874 106.454 99.1734 106.298 98.7837 106.306C98.026 106.322 97.443 106.953 97.0825 107.591C96.8014 108.266 96.3978 108.888 95.8904 109.428C94.9642 110.205 93.2815 110.333 93.0395 111.489C93.0351 111.978 93.0641 112.467 93.1264 112.953C93.0564 113.977 91.9115 114.755 91.9713 115.78C92.0402 116.962 93.6089 117.54 94.0282 118.654C94.3475 119.502 93.9273 120.419 93.6382 121.277C93.3491 122.135 93.2619 123.234 94.0086 123.783C94.3014 123.999 94.6778 124.087 94.9764 124.295C95.749 124.833 95.7393 125.919 95.6535 126.83C95.604 127.019 95.6038 127.217 95.6527 127.406C95.7016 127.595 95.7983 127.77 95.9342 127.915C96.0618 127.989 96.2043 128.036 96.3524 128.053C96.5005 128.07 96.6506 128.057 96.7929 128.014C97.2568 127.906 97.6929 127.709 98.0743 127.434C98.4557 127.159 98.7745 126.813 99.0111 126.416C99.2599 126.022 99.3099 125.675 99.7619 125.466C100.069 125.324 100.441 125.45 100.753 125.266C102.239 124.391 101.727 121.893 103.55 121.154Z" fill="#2F2E41"/>
<path d="M63.8257 169.587L61.6944 171.628C61.6944 171.628 48.9067 208.356 53.1692 216.518C57.4318 224.68 65.957 245.085 68.7988 244.404C71.6405 243.724 81.5866 237.603 81.5866 236.923C81.5866 236.243 69.5092 217.198 69.5092 217.198C69.5092 217.198 68.0883 213.117 68.7988 212.437C69.5092 211.757 69.5092 212.437 68.7988 211.077C68.0883 209.716 68.0883 211.077 69.5092 209.716C70.9301 208.356 70.9301 208.356 70.9301 207.676C70.9301 206.996 75.1927 189.992 75.1927 189.992L63.8257 169.587Z" fill="#D0CDE1"/>
<path d="M74.8372 249.505L90.4672 244.745L92.5981 249.505L75.548 252.906L74.8372 249.505Z" fill="#2F2E41"/>
<path opacity="0.1" d="M74.8372 249.505L90.4672 244.745L92.5981 249.505L75.548 252.906L74.8372 249.505Z" fill="black"/>
<path opacity="0.1" d="M96.1501 146.802L108.228 156.324L109.649 154.284L96.1501 146.802Z" fill="black"/>
<path opacity="0.1" d="M120.305 149.523L111.78 154.284L112.491 156.324L120.305 149.523Z" fill="black"/>
</svg>
