<svg width="596" height="380" viewBox="0 0 596 380" fill="none" xmlns="http://www.w3.org/2000/svg">
<path d="M89.7297 103.768C90.7238 93.0999 93.4696 82.667 97.8573 72.8857C99.0802 70.1637 100.426 67.5016 101.895 64.8994C101.969 64.7634 101.987 64.6041 101.945 64.4552C101.903 64.3064 101.804 64.1796 101.67 64.1015C101.536 64.0235 101.377 64.0004 101.227 64.037C101.076 64.0736 100.945 64.1672 100.862 64.2979C95.52 73.7756 91.7772 84.0638 89.7838 94.7512C89.2293 97.7357 88.8126 100.741 88.5335 103.768C88.4626 104.531 89.6592 104.526 89.7297 103.768Z" fill="#E6E6E6"/>
<path d="M104.792 66.8108C108.976 66.8108 112.368 63.4314 112.368 59.2626C112.368 55.0938 108.976 51.7144 104.792 51.7144C100.608 51.7144 97.2168 55.0938 97.2168 59.2626C97.2168 63.4314 100.608 66.8108 104.792 66.8108Z" fill="#E6E6E6"/>
<path d="M90.5045 103.968C91.1495 97.0476 92.9307 90.2793 95.7773 83.9337C96.5706 82.1678 97.4438 80.4408 98.3968 78.7527C98.4446 78.6644 98.4561 78.5611 98.4289 78.4645C98.4017 78.3679 98.338 78.2856 98.2511 78.235C98.1641 78.1844 98.0609 78.1694 97.9631 78.1931C97.8653 78.2169 97.7806 78.2776 97.7268 78.3624C94.2609 84.5111 91.8328 91.1855 90.5396 98.1189C90.1799 100.055 89.9095 102.005 89.7285 103.968C89.6825 104.464 90.4588 104.461 90.5045 103.968Z" fill="#E6E6E6"/>
<path d="M100.276 79.9928C102.991 79.9928 105.191 77.8003 105.191 75.0959C105.191 72.3914 102.991 70.199 100.276 70.199C97.5621 70.199 95.3618 72.3914 95.3618 75.0959C95.3618 77.8003 97.5621 79.9928 100.276 79.9928Z" fill="#E6E6E6"/>
<path d="M89.525 103.506C85.7614 97.6539 82.988 91.2255 81.3154 84.4777C80.8509 82.5991 80.4733 80.7023 80.1827 78.7871C80.1659 78.6882 80.1112 78.5997 80.0302 78.5402C79.9491 78.4807 79.848 78.4549 79.7482 78.4683C79.6485 78.4816 79.5578 78.5331 79.4954 78.6118C79.4329 78.6905 79.4036 78.7902 79.4135 78.89C80.4762 85.8622 82.6817 92.6129 85.9419 98.8723C86.8534 100.619 87.8438 102.322 88.9132 103.982C89.1826 104.4 89.7927 103.922 89.525 103.506Z" fill="#E6E6E6"/>
<path d="M79.4075 79.649C82.1218 79.649 84.3221 77.4566 84.3221 74.7521C84.3221 72.0476 82.1218 69.8552 79.4075 69.8552C76.6933 69.8552 74.4929 72.0476 74.4929 74.7521C74.4929 77.4566 76.6933 79.649 79.4075 79.649Z" fill="#E6E6E6"/>
<path d="M74.4377 107.839V98.2174C74.4388 97.2608 74.8207 96.3437 75.4995 95.6673C76.1784 94.9909 77.0987 94.6105 78.0588 94.6094H100.59C101.55 94.6105 102.47 94.9909 103.149 95.6673C103.828 96.3437 104.209 97.2608 104.211 98.2174V107.839C104.209 108.795 103.828 109.712 103.149 110.389C102.47 111.065 101.55 111.446 100.59 111.447H78.0588C77.0987 111.446 76.1784 111.065 75.4995 110.389C74.8207 109.712 74.4388 108.795 74.4377 107.839Z" fill="#F2F2F2"/>
<path d="M99.7849 46.5029H90.1288C89.1688 46.5019 88.2484 46.1214 87.5696 45.445C86.8908 44.7686 86.5089 43.8515 86.5078 42.895V3.60799C86.5089 2.65142 86.8908 1.73434 87.5696 1.05794C88.2484 0.38155 89.1688 0.00107803 90.1288 0H99.7849C100.745 0.00107803 101.665 0.38155 102.344 1.05794C103.023 1.73434 103.405 2.65142 103.406 3.60799V42.895C103.405 43.8515 103.023 44.7686 102.344 45.445C101.665 46.1214 100.745 46.5019 99.7849 46.5029Z" fill="#F2F2F2"/>
<path d="M103.004 7.61682H86.9102V10.8239H103.004V7.61682Z" fill="#CCCCCC"/>
<path d="M103.004 32.4719H86.9102V35.679H103.004V32.4719Z" fill="#CCCCCC"/>
<path d="M123.925 46.5029H114.269C113.309 46.5019 112.389 46.1214 111.71 45.445C111.031 44.7686 110.649 43.8515 110.648 42.895V3.60799C110.649 2.65142 111.031 1.73434 111.71 1.05794C112.389 0.38155 113.309 0.00107803 114.269 0H123.925C124.885 0.00107803 125.805 0.38155 126.484 1.05794C127.163 1.73434 127.545 2.65142 127.546 3.60799V42.895C127.545 43.8515 127.163 44.7686 126.484 45.445C125.805 46.1214 124.885 46.5019 123.925 46.5029Z" fill="#F2F2F2"/>
<path d="M127.144 7.61682H111.05V10.8239H127.144V7.61682Z" fill="#CCCCCC"/>
<path d="M127.144 32.4719H111.05V35.679H127.144V32.4719Z" fill="#CCCCCC"/>
<path d="M148.065 46.5029H138.409C137.449 46.5019 136.529 46.1214 135.85 45.445C135.171 44.7686 134.789 43.8515 134.788 42.895V3.60799C134.789 2.65142 135.171 1.73434 135.85 1.05794C136.529 0.38155 137.449 0.00107803 138.409 0H148.065C149.025 0.00107803 149.946 0.38155 150.624 1.05794C151.303 1.73434 151.685 2.65142 151.686 3.60799V42.895C151.685 43.8515 151.303 44.7686 150.624 45.445C149.946 46.1214 149.025 46.5019 148.065 46.5029Z" fill="#F2F2F2"/>
<path d="M151.284 7.61682H135.19V10.8239H151.284V7.61682Z" fill="#CCCCCC"/>
<path d="M151.284 32.4719H135.19V35.679H151.284V32.4719Z" fill="#CCCCCC"/>
<path d="M160.94 111.447H151.284C150.324 111.446 149.403 111.065 148.724 110.389C148.046 109.712 147.664 108.795 147.663 107.839V68.5518C147.664 67.5953 148.046 66.6782 148.724 66.0018C149.403 65.3254 150.324 64.9449 151.284 64.9438H160.94C161.9 64.9449 162.82 65.3254 163.499 66.0018C164.178 66.6782 164.56 67.5953 164.561 68.5518V107.839C164.56 108.795 164.178 109.712 163.499 110.389C162.82 111.065 161.9 111.446 160.94 111.447Z" fill="#F2F2F2"/>
<path d="M164.158 72.5605H148.065V75.7676H164.158V72.5605Z" fill="#CCCCCC"/>
<path d="M164.158 97.4155H148.065V100.623H164.158V97.4155Z" fill="#CCCCCC"/>
<path d="M185.08 111.447H175.424C174.464 111.446 173.543 111.065 172.865 110.389C172.186 109.712 171.804 108.795 171.803 107.839V68.5518C171.804 67.5953 172.186 66.6782 172.865 66.0018C173.543 65.3254 174.464 64.9449 175.424 64.9438H185.08C186.04 64.9449 186.96 65.3254 187.639 66.0018C188.318 66.6782 188.7 67.5953 188.701 68.5518V107.839C188.7 108.795 188.318 109.712 187.639 110.389C186.96 111.065 186.04 111.446 185.08 111.447Z" fill="#F2F2F2"/>
<path d="M188.298 72.5605H172.205V75.7676H188.298V72.5605Z" fill="#CCCCCC"/>
<path d="M188.298 97.4155H172.205V100.623H188.298V97.4155Z" fill="#CCCCCC"/>
<path d="M209.22 111.447H199.564C198.604 111.446 197.683 111.065 197.005 110.389C196.326 109.712 195.944 108.795 195.943 107.839V68.5518C195.944 67.5953 196.326 66.6782 197.005 66.0018C197.683 65.3254 198.604 64.9449 199.564 64.9438H209.22C210.18 64.9449 211.1 65.3254 211.779 66.0018C212.458 66.6782 212.84 67.5953 212.841 68.5518V107.839C212.84 108.795 212.458 109.712 211.779 110.389C211.1 111.065 210.18 111.446 209.22 111.447Z" fill="#F2F2F2"/>
<path d="M212.439 72.5605H196.345V75.7676H212.439V72.5605Z" fill="#CCCCCC"/>
<path d="M212.439 97.4155H196.345V100.623H212.439V97.4155Z" fill="#CCCCCC"/>
<path d="M97.3708 176.39H87.7148C86.7547 176.389 85.8344 176.009 85.1555 175.332C84.4767 174.656 84.0948 173.739 84.0938 172.782V133.495C84.0948 132.539 84.4767 131.622 85.1555 130.945C85.8344 130.269 86.7547 129.889 87.7148 129.887H97.3708C98.3308 129.889 99.2512 130.269 99.9301 130.945C100.609 131.622 100.991 132.539 100.992 133.495V172.782C100.991 173.739 100.609 174.656 99.9301 175.332C99.2512 176.009 98.3308 176.389 97.3708 176.39Z" fill="#F2F2F2"/>
<path d="M100.59 137.504H84.4961V140.711H100.59V137.504Z" fill="#CCCCCC"/>
<path d="M100.59 162.359H84.4961V165.566H100.59V162.359Z" fill="#CCCCCC"/>
<path d="M121.511 176.39H111.855C110.895 176.389 109.975 176.009 109.296 175.332C108.617 174.656 108.235 173.739 108.234 172.782V133.495C108.235 132.539 108.617 131.622 109.296 130.945C109.975 130.269 110.895 129.889 111.855 129.887H121.511C122.471 129.889 123.391 130.269 124.07 130.945C124.749 131.622 125.131 132.539 125.132 133.495V172.782C125.131 173.739 124.749 174.656 124.07 175.332C123.391 176.009 122.471 176.389 121.511 176.39Z" fill="#F2F2F2"/>
<path d="M124.73 137.504H108.636V140.711H124.73V137.504Z" fill="#CCCCCC"/>
<path d="M124.73 162.359H108.636V165.566H124.73V162.359Z" fill="#CCCCCC"/>
<path d="M145.651 176.39H135.995C135.035 176.389 134.115 176.009 133.436 175.332C132.757 174.656 132.375 173.739 132.374 172.782V133.495C132.375 132.539 132.757 131.622 133.436 130.945C134.115 130.269 135.035 129.889 135.995 129.887H145.651C146.611 129.889 147.532 130.269 148.21 130.945C148.889 131.622 149.271 132.539 149.272 133.495V172.782C149.271 173.739 148.889 174.656 148.21 175.332C147.532 176.009 146.611 176.389 145.651 176.39Z" fill="#F2F2F2"/>
<path d="M148.87 137.504H132.776V140.711H148.87V137.504Z" fill="#CCCCCC"/>
<path d="M148.87 162.359H132.776V165.566H148.87V162.359Z" fill="#CCCCCC"/>
<path d="M172.205 46.5029H162.549C161.589 46.5019 160.669 46.1214 159.99 45.445C159.311 44.7686 158.929 43.8515 158.928 42.895V3.60799C158.929 2.65142 159.311 1.73434 159.99 1.05794C160.669 0.38155 161.589 0.00107803 162.549 0H172.205C173.165 0.00107803 174.086 0.38155 174.765 1.05794C175.443 1.73434 175.825 2.65142 175.826 3.60799V42.895C175.825 43.8515 175.443 44.7686 174.765 45.445C174.086 46.1214 173.165 46.5019 172.205 46.5029Z" fill="#F2F2F2"/>
<path d="M175.424 7.61682H159.331V10.8239H175.424V7.61682Z" fill="#CCCCCC"/>
<path d="M175.424 32.4719H159.331V35.679H175.424V32.4719Z" fill="#CCCCCC"/>
<path d="M196.345 46.5029H186.689C185.729 46.5019 184.809 46.1214 184.13 45.445C183.451 44.7686 183.069 43.8515 183.068 42.895V3.60799C183.069 2.65142 183.451 1.73434 184.13 1.05794C184.809 0.38155 185.729 0.00107803 186.689 0H196.345C197.305 0.00107803 198.226 0.38155 198.905 1.05794C199.584 1.73434 199.965 2.65142 199.966 3.60799V42.895C199.965 43.8515 199.584 44.7686 198.905 45.445C198.226 46.1214 197.305 46.5019 196.345 46.5029Z" fill="#F2F2F2"/>
<path d="M199.564 7.61682H183.471V10.8239H199.564V7.61682Z" fill="#CCCCCC"/>
<path d="M199.564 32.4719H183.471V35.679H199.564V32.4719Z" fill="#CCCCCC"/>
<path d="M220.486 46.5029H210.83C209.869 46.5019 208.949 46.1214 208.27 45.445C207.591 44.7686 207.21 43.8515 207.208 42.895V3.60799C207.21 2.65142 207.591 1.73434 208.27 1.05794C208.949 0.38155 209.869 0.00107803 210.83 0H220.486C221.446 0.00107803 222.366 0.38155 223.045 1.05794C223.724 1.73434 224.105 2.65142 224.107 3.60799V42.895C224.105 43.8515 223.724 44.7686 223.045 45.445C222.366 46.1214 221.446 46.5019 220.486 46.5029Z" fill="#F2F2F2"/>
<path d="M223.704 7.61682H207.611V10.8239H223.704V7.61682Z" fill="#CCCCCC"/>
<path d="M223.704 32.4719H207.611V35.679H223.704V32.4719Z" fill="#CCCCCC"/>
<path d="M244.626 46.5029H234.97C234.01 46.5019 233.089 46.1214 232.41 45.445C231.732 44.7686 231.35 43.8515 231.349 42.895V3.60799C231.35 2.65142 231.732 1.73434 232.41 1.05794C233.089 0.38155 234.01 0.00107803 234.97 0H244.626C245.586 0.00107803 246.506 0.38155 247.185 1.05794C247.864 1.73434 248.246 2.65142 248.247 3.60799V42.895C248.246 43.8515 247.864 44.7686 247.185 45.445C246.506 46.1214 245.586 46.5019 244.626 46.5029Z" fill="#F2F2F2"/>
<path d="M247.844 7.61682H231.751V10.8239H247.844V7.61682Z" fill="#CCCCCC"/>
<path d="M247.844 32.4719H231.751V35.679H247.844V32.4719Z" fill="#CCCCCC"/>
<path d="M280.788 47.7056H51.457C51.2436 47.7056 51.0389 47.6211 50.888 47.4708C50.7371 47.3204 50.6523 47.1165 50.6523 46.9038C50.6523 46.6912 50.7371 46.4872 50.888 46.3369C51.0389 46.1865 51.2436 46.1021 51.457 46.1021H280.788C281.002 46.1021 281.206 46.1865 281.357 46.3369C281.508 46.4872 281.593 46.6912 281.593 46.9038C281.593 47.1165 281.508 47.3204 281.357 47.4708C281.206 47.6211 281.002 47.7056 280.788 47.7056Z" fill="#CCCCCC"/>
<path d="M280.788 112.649H51.457C51.2436 112.649 51.0389 112.565 50.888 112.415C50.7371 112.264 50.6523 112.06 50.6523 111.848C50.6523 111.635 50.7371 111.431 50.888 111.281C51.0389 111.13 51.2436 111.046 51.457 111.046H280.788C281.002 111.046 281.206 111.13 281.357 111.281C281.508 111.431 281.593 111.635 281.593 111.848C281.593 112.06 281.508 112.264 281.357 112.415C281.206 112.565 281.002 112.649 280.788 112.649Z" fill="#CCCCCC"/>
<path d="M280.788 177.593H51.457C51.2436 177.593 51.0389 177.509 50.888 177.358C50.7371 177.208 50.6523 177.004 50.6523 176.791C50.6523 176.579 50.7371 176.375 50.888 176.224C51.0389 176.074 51.2436 175.99 51.457 175.99H280.788C281.002 175.99 281.206 176.074 281.357 176.224C281.508 176.375 281.593 176.579 281.593 176.791C281.593 177.004 281.508 177.208 281.357 177.358C281.206 177.509 281.002 177.593 280.788 177.593Z" fill="#CCCCCC"/>
<path d="M267.207 303.458C267.207 297.258 243.79 292.233 214.903 292.233C186.017 292.233 162.6 297.258 162.6 303.458C162.6 307.431 172.227 310.919 186.74 312.914V374.415C186.74 375.797 187.291 377.122 188.272 378.1C189.253 379.077 190.583 379.626 191.97 379.626C193.358 379.626 194.688 379.077 195.669 378.1C196.65 377.122 197.201 375.797 197.201 374.415V314.022C202.73 314.449 208.689 314.682 214.903 314.682C221.118 314.682 227.076 314.449 232.606 314.022V374.415C232.606 375.797 233.157 377.122 234.138 378.1C235.119 379.077 236.449 379.626 237.837 379.626C239.224 379.626 240.554 379.077 241.535 378.1C242.516 377.122 243.067 375.797 243.067 374.415V312.914C257.58 310.919 267.207 307.431 267.207 303.458Z" fill="#CCCCCC"/>
<path d="M257.143 369.543H267.008L271.701 331.628H257.141L257.143 369.543Z" fill="#A0616A"/>
<path d="M286.034 378.669L255.03 378.671L255.029 366.735L274.055 366.734C277.232 366.734 280.279 367.991 282.525 370.229C284.772 372.468 286.034 375.504 286.034 378.669L286.034 378.669Z" fill="#2F2E41"/>
<path d="M272.543 364.057L281.955 361.114L275.041 323.539L261.149 327.882L272.543 364.057Z" fill="#A0616A"/>
<path d="M302.851 364.146L273.268 373.396L269.682 362.008L287.834 356.332C290.866 355.384 294.151 355.675 296.967 357.14C299.783 358.606 301.899 361.126 302.851 364.146Z" fill="#2F2E41"/>
<path d="M265.943 346.606L247.896 299.405C243.848 300.352 209.894 307.838 198.523 295.774C194.625 291.639 193.865 285.649 196.263 277.968L202.9 269.658L203.106 269.669C205.615 269.801 264.612 273.096 268.656 290.827C272.066 305.776 278.293 333.646 280.12 341.832C280.305 342.68 280.179 343.567 279.763 344.33C279.347 345.092 278.67 345.681 277.856 345.988L270.598 348.7C270.194 348.851 269.765 348.929 269.333 348.929C268.599 348.929 267.881 348.707 267.276 348.292C266.671 347.878 266.206 347.29 265.943 346.606Z" fill="#2F2E41"/>
<path d="M255.482 352.219L237.436 305.017C233.387 305.965 199.434 313.45 188.062 301.387C184.165 297.252 183.405 291.261 185.803 283.581L192.439 275.271L192.645 275.282C195.155 275.413 254.151 278.708 258.195 296.44C261.605 311.388 267.832 339.259 269.659 347.445C269.845 348.293 269.718 349.179 269.302 349.942C268.887 350.705 268.21 351.294 267.395 351.601L260.137 354.312C259.733 354.464 259.305 354.542 258.873 354.542C258.138 354.542 257.421 354.32 256.815 353.905C256.21 353.49 255.745 352.902 255.482 352.219Z" fill="#2F2E41"/>
<path d="M279.87 239.07C279.604 239.425 279.365 239.801 279.158 240.194L239.472 244.36L233.759 236.556L220.811 243.607L232.032 262.546L280.704 250.18C281.932 251.373 283.496 252.165 285.186 252.451C286.877 252.737 288.615 252.504 290.169 251.781C291.724 251.059 293.021 249.883 293.887 248.408C294.754 246.934 295.15 245.231 295.022 243.527C294.894 241.823 294.249 240.198 293.171 238.869C292.094 237.539 290.636 236.568 288.991 236.084C287.346 235.6 285.593 235.627 283.963 236.16C282.334 236.693 280.906 237.709 279.87 239.07V239.07Z" fill="#A0616A"/>
<path d="M185.547 286.073C185.004 285.683 184.58 285.151 184.322 284.536C184.063 283.92 183.981 283.246 184.084 282.586C186.323 267.88 183.747 246.812 181.191 231.728C180.668 228.667 180.872 225.527 181.786 222.559C182.7 219.591 184.298 216.877 186.454 214.636C188.61 212.394 191.262 210.687 194.2 209.65C197.137 208.614 200.276 208.277 203.368 208.667C206.057 209.021 208.721 209.545 211.344 210.234C215.701 211.327 219.555 213.865 222.273 217.431C224.99 220.996 226.409 225.376 226.297 229.852C225.914 244.407 228.881 262.569 230.174 269.701C230.262 270.191 230.248 270.694 230.133 271.178C230.017 271.662 229.803 272.118 229.503 272.516C229.209 272.91 228.835 273.238 228.406 273.48C227.977 273.721 227.502 273.871 227.012 273.919C212.682 275.376 197.229 282.339 189.293 286.36C188.783 286.622 188.218 286.76 187.644 286.761C186.89 286.759 186.156 286.518 185.547 286.073Z" fill="#047CFD"/>
<path d="M224.229 248.14C223.786 247.967 223.382 247.707 223.04 247.377C222.698 247.047 222.426 246.653 222.238 246.218L214.247 227.823C213.763 226.712 213.503 225.516 213.483 224.305C213.463 223.094 213.683 221.89 214.13 220.764C214.577 219.637 215.243 218.609 216.089 217.739C216.935 216.869 217.944 216.173 219.06 215.692C220.176 215.211 221.376 214.953 222.592 214.934C223.807 214.916 225.015 215.136 226.145 215.582C227.275 216.028 228.306 216.692 229.179 217.536C230.052 218.379 230.749 219.386 231.231 220.498L239.223 238.893C239.603 239.771 239.618 240.764 239.265 241.653C238.911 242.542 238.219 243.256 237.338 243.637L227 248.096C226.564 248.286 226.094 248.387 225.619 248.395C225.143 248.402 224.67 248.316 224.229 248.14H224.229Z" fill="#047CFD"/>
<path d="M242.051 237.467C241.784 237.822 241.546 238.198 241.339 238.59L201.652 242.757L195.939 234.952L182.991 242.003L194.212 260.942L242.885 248.577C244.113 249.77 245.676 250.562 247.367 250.848C249.058 251.134 250.796 250.9 252.35 250.178C253.904 249.456 255.201 248.279 256.068 246.805C256.935 245.33 257.33 243.628 257.202 241.924C257.075 240.22 256.429 238.595 255.352 237.265C254.274 235.935 252.816 234.964 251.172 234.48C249.527 233.997 247.773 234.023 246.144 234.557C244.515 235.09 243.087 236.105 242.051 237.467V237.467Z" fill="#A0616A"/>
<path d="M186.409 248.942C185.966 248.768 185.562 248.509 185.22 248.179C184.879 247.849 184.606 247.455 184.419 247.019L176.427 228.625C175.943 227.513 175.684 226.318 175.664 225.107C175.644 223.895 175.864 222.692 176.311 221.565C176.758 220.439 177.423 219.411 178.269 218.541C179.115 217.671 180.125 216.975 181.24 216.494C182.356 216.012 183.556 215.755 184.772 215.736C185.988 215.717 187.195 215.937 188.325 216.384C189.456 216.83 190.487 217.494 191.359 218.338C192.232 219.181 192.929 220.188 193.411 221.3L201.403 239.695C201.783 240.573 201.798 241.565 201.445 242.455C201.092 243.344 200.399 244.058 199.518 244.439L189.18 248.898C188.744 249.087 188.275 249.189 187.799 249.196C187.323 249.204 186.851 249.117 186.409 248.942H186.409Z" fill="#047CFD"/>
<path d="M201.897 202.41C212.812 202.41 221.66 193.593 221.66 182.717C221.66 171.842 212.812 163.025 201.897 163.025C190.982 163.025 182.133 171.842 182.133 182.717C182.133 193.593 190.982 202.41 201.897 202.41Z" fill="#A0616A"/>
<path d="M187.767 196.232C187.682 195.985 187.655 195.722 187.688 195.463C187.721 195.204 187.813 194.956 187.957 194.738C188.102 194.519 188.294 194.337 188.52 194.204C188.746 194.072 188.999 193.992 189.26 193.972C189.796 194.001 190.319 194.138 190.8 194.374C191.281 194.611 191.709 194.942 192.057 195.347C192.773 196.169 193.605 196.881 194.529 197.462C195.485 197.942 196.781 197.873 197.326 196.958C197.838 196.098 197.488 194.947 197.178 193.949C196.389 191.408 195.948 188.773 195.866 186.115C195.777 183.148 196.197 180.052 197.845 177.738C199.973 174.752 203.777 173.618 207.377 173.7C210.977 173.782 214.519 174.89 218.085 175.59C219.316 175.831 220.763 175.955 221.587 175.004C222.462 173.993 222.141 172.357 221.768 170.992C220.802 167.451 219.777 163.789 217.531 160.928C215.104 157.956 211.636 156.011 207.826 155.484C204.169 155.033 200.456 155.453 196.994 156.71C191.352 158.481 186.388 161.927 182.765 166.586C179.03 171.541 177.416 177.768 178.276 183.905C179.116 189.25 181.959 194.079 186.231 197.418L187.767 196.232Z" fill="#2F2E41"/>
<path d="M112.305 243.64C113.299 232.972 116.045 222.54 120.432 212.758C121.655 210.036 123.001 207.374 124.47 204.772C124.544 204.636 124.562 204.477 124.52 204.328C124.478 204.179 124.379 204.052 124.245 203.974C124.111 203.896 123.952 203.873 123.802 203.91C123.651 203.946 123.52 204.04 123.437 204.17C118.095 213.648 114.352 223.936 112.359 234.624C111.804 237.608 111.388 240.614 111.108 243.64C111.038 244.404 112.234 244.399 112.305 243.64Z" fill="#3F3D56"/>
<path d="M127.367 206.683C131.551 206.683 134.943 203.304 134.943 199.135C134.943 194.966 131.551 191.587 127.367 191.587C123.183 191.587 119.792 194.966 119.792 199.135C119.792 203.304 123.183 206.683 127.367 206.683Z" fill="#047CFD"/>
<path d="M113.08 243.841C113.725 236.92 115.506 230.152 118.352 223.806C119.146 222.04 120.019 220.313 120.972 218.625C121.02 218.537 121.031 218.434 121.004 218.337C120.977 218.24 120.913 218.158 120.826 218.108C120.739 218.057 120.636 218.042 120.538 218.066C120.44 218.089 120.356 218.15 120.302 218.235C116.836 224.384 114.408 231.058 113.115 237.991C112.755 239.928 112.485 241.877 112.304 243.841C112.258 244.336 113.034 244.333 113.08 243.841Z" fill="#3F3D56"/>
<path d="M122.851 219.865C125.566 219.865 127.766 217.673 127.766 214.968C127.766 212.264 125.566 210.071 122.851 210.071C120.137 210.071 117.937 212.264 117.937 214.968C117.937 217.673 120.137 219.865 122.851 219.865Z" fill="#047CFD"/>
<path d="M112.1 243.379C108.337 237.526 105.563 231.098 103.891 224.35C103.426 222.472 103.049 220.575 102.758 218.66C102.741 218.561 102.686 218.472 102.605 218.413C102.524 218.353 102.423 218.327 102.323 218.341C102.224 218.354 102.133 218.406 102.071 218.484C102.008 218.563 101.979 218.663 101.989 218.763C103.051 225.735 105.257 232.485 108.517 238.745C109.429 240.492 110.419 242.195 111.488 243.854C111.758 244.273 112.368 243.795 112.1 243.379Z" fill="#3F3D56"/>
<path d="M101.983 219.521C104.697 219.521 106.897 217.329 106.897 214.624C106.897 211.92 104.697 209.728 101.983 209.728C99.2684 209.728 97.0681 211.92 97.0681 214.624C97.0681 217.329 99.2684 219.521 101.983 219.521Z" fill="#047CFD"/>
<path d="M97.0129 247.711V238.09C97.014 237.133 97.3959 236.216 98.0747 235.54C98.7536 234.863 99.6739 234.483 100.634 234.482H123.165C124.125 234.483 125.045 234.863 125.724 235.54C126.403 236.216 126.785 237.133 126.786 238.09V247.711C126.785 248.668 126.403 249.585 125.724 250.261C125.045 250.938 124.125 251.318 123.165 251.319H100.634C99.6739 251.318 98.7536 250.938 98.0747 250.261C97.3959 249.585 97.014 248.668 97.0129 247.711Z" fill="#CCCCCC"/>
<path d="M298.992 244.928H235.423C233.867 244.928 232.606 246.184 232.606 247.734C232.606 249.284 233.867 250.54 235.423 250.54H298.992C300.547 250.54 301.808 249.284 301.808 247.734C301.808 246.184 300.547 244.928 298.992 244.928Z" fill="#CCCCCC"/>
<path d="M341.639 250.54H270.023C268.637 250.539 267.307 249.989 266.327 249.012C265.346 248.035 264.795 246.711 264.793 245.329V206.042C264.795 204.66 265.346 203.335 266.327 202.358C267.307 201.381 268.637 200.832 270.023 200.83H341.639C343.026 200.832 344.355 201.381 345.336 202.358C346.316 203.335 346.868 204.66 346.869 206.042V245.329C346.868 246.711 346.316 248.035 345.336 249.012C344.355 249.989 343.026 250.539 341.639 250.54Z" fill="#CCCCCC"/>
<path d="M305.831 230.496C308.498 230.496 310.659 228.342 310.659 225.685C310.659 223.029 308.498 220.875 305.831 220.875C303.165 220.875 301.003 223.029 301.003 225.685C301.003 228.342 303.165 230.496 305.831 230.496Z" fill="white"/>
<path d="M523.897 303.458C523.897 297.258 500.48 292.233 471.594 292.233C442.707 292.233 419.29 297.258 419.29 303.458C419.29 307.431 428.917 310.919 443.43 312.914V374.415C443.43 375.797 443.981 377.122 444.962 378.1C445.943 379.077 447.273 379.626 448.661 379.626C450.048 379.626 451.378 379.077 452.359 378.1C453.34 377.122 453.891 375.797 453.891 374.415V314.022C459.421 314.449 465.379 314.682 471.594 314.682C477.808 314.682 483.767 314.449 489.296 314.022V374.415C489.296 375.797 489.847 377.122 490.828 378.1C491.809 379.077 493.14 379.626 494.527 379.626C495.914 379.626 497.244 379.077 498.225 378.1C499.206 377.122 499.757 375.797 499.757 374.415V312.914C514.27 310.919 523.897 307.431 523.897 303.458Z" fill="#CCCCCC"/>
<path d="M477.377 200.716C489.82 200.716 499.908 190.665 499.908 178.266C499.908 165.868 489.82 155.817 477.377 155.817C464.934 155.817 454.846 165.868 454.846 178.266C454.846 190.665 464.934 200.716 477.377 200.716Z" fill="#2F2E41"/>
<path d="M421.307 370.344H411.442L406.749 332.43H421.309L421.307 370.344Z" fill="#FFB8B8"/>
<path d="M404.396 367.536H423.421V379.472H392.417C392.417 377.904 392.726 376.352 393.328 374.904C393.93 373.456 394.813 372.14 395.925 371.032C397.037 369.923 398.358 369.044 399.811 368.444C401.265 367.844 402.822 367.536 404.396 367.536Z" fill="#2F2E41"/>
<path d="M405.907 364.859L396.495 361.915L403.409 324.34L417.301 328.684L405.907 364.859Z" fill="#FFB8B8"/>
<path d="M390.616 357.133L408.769 362.809L405.182 374.198L375.6 364.948C376.071 363.452 376.833 362.064 377.842 360.862C378.852 359.66 380.089 358.667 381.484 357.942C382.878 357.216 384.402 356.771 385.969 356.633C387.536 356.494 389.115 356.664 390.616 357.133Z" fill="#2F2E41"/>
<path d="M409.117 349.731C408.685 349.731 408.256 349.653 407.852 349.502L400.595 346.79C399.78 346.483 399.103 345.894 398.687 345.132C398.272 344.369 398.145 343.482 398.33 342.634C400.157 334.448 406.385 306.578 409.795 291.629C413.839 273.898 472.835 270.603 475.344 270.471L475.55 270.46L482.187 278.77C484.585 286.45 483.825 292.441 479.928 296.576C468.556 308.64 434.603 301.154 430.554 300.207L412.507 347.408C412.244 348.092 411.78 348.68 411.174 349.094C410.569 349.509 409.852 349.731 409.117 349.731Z" fill="#2F2E41"/>
<path d="M419.578 355.344C419.146 355.344 418.717 355.266 418.313 355.114L411.055 352.403C410.24 352.095 409.564 351.507 409.148 350.744C408.732 349.981 408.606 349.095 408.791 348.247C410.618 340.06 416.845 312.19 420.255 297.241C424.299 279.51 483.295 276.215 485.805 276.084L486.011 276.073L492.648 284.383C495.046 292.063 494.286 298.053 490.388 302.188C479.017 314.252 445.064 306.766 441.015 305.819L422.968 353.02C422.705 353.704 422.24 354.292 421.635 354.707C421.03 355.121 420.312 355.343 419.578 355.344Z" fill="#2F2E41"/>
<path d="M398.58 239.872C398.847 240.227 399.085 240.603 399.292 240.996L438.979 245.162L444.692 237.357L457.639 244.409L446.419 263.347L397.746 250.982C396.518 252.175 394.955 252.967 393.264 253.253C391.573 253.539 389.835 253.305 388.281 252.583C386.727 251.861 385.43 250.684 384.563 249.21C383.696 247.735 383.3 246.033 383.428 244.329C383.556 242.625 384.202 241 385.279 239.67C386.356 238.341 387.814 237.369 389.459 236.886C391.104 236.402 392.858 236.428 394.487 236.962C396.116 237.495 397.544 238.51 398.58 239.872Z" fill="#FFB8B8"/>
<path d="M490.806 287.563C490.232 287.561 489.667 287.424 489.157 287.161C481.221 283.141 465.768 276.178 451.438 274.721C450.948 274.673 450.473 274.523 450.044 274.281C449.615 274.04 449.241 273.711 448.947 273.318C448.647 272.919 448.433 272.464 448.318 271.98C448.202 271.495 448.188 270.993 448.276 270.503C449.569 263.37 452.536 245.209 452.154 230.654C452.041 226.178 453.46 221.798 456.178 218.232C458.895 214.667 462.749 212.129 467.106 211.036C469.729 210.346 472.393 209.823 475.083 209.469C478.174 209.079 481.314 209.416 484.251 210.452C487.188 211.489 489.84 213.196 491.996 215.438C494.152 217.679 495.751 220.393 496.664 223.361C497.578 226.329 497.782 229.469 497.259 232.53C494.703 247.614 492.127 268.681 494.366 283.388C494.469 284.047 494.387 284.722 494.128 285.337C493.87 285.953 493.446 286.485 492.903 286.875C492.295 287.32 491.56 287.561 490.806 287.563Z" fill="#047CFD"/>
<path d="M452.888 249.197C452.393 249.196 451.904 249.094 451.45 248.898L441.112 244.439C440.232 244.058 439.539 243.344 439.186 242.455C438.832 241.565 438.847 240.573 439.228 239.695L447.219 221.3C447.701 220.188 448.399 219.181 449.271 218.338C450.144 217.494 451.175 216.83 452.305 216.384C453.435 215.937 454.643 215.717 455.859 215.736C457.074 215.755 458.274 216.012 459.39 216.494C460.506 216.975 461.516 217.671 462.362 218.541C463.207 219.411 463.873 220.439 464.32 221.565C464.767 222.692 464.987 223.895 464.967 225.107C464.947 226.318 464.688 227.513 464.204 228.625L456.212 247.019C455.931 247.665 455.467 248.215 454.876 248.602C454.286 248.989 453.595 249.196 452.888 249.197Z" fill="#047CFD"/>
<path d="M476.553 203.211C487.468 203.211 496.317 194.395 496.317 183.519C496.317 172.643 487.468 163.827 476.553 163.827C465.638 163.827 456.79 172.643 456.79 183.519C456.79 194.395 465.638 203.211 476.553 203.211Z" fill="#FFB8B8"/>
<path d="M456.434 173.844C465.795 179.538 476.349 183.003 487.274 183.969L484.023 180.088C486.39 180.96 488.881 181.453 491.403 181.548C493.921 181.509 496.561 180.543 497.99 178.476C498.628 177.448 499.006 176.283 499.094 175.078C499.182 173.873 498.976 172.665 498.493 171.557C497.503 169.346 495.961 167.425 494.014 165.976C490.564 163.257 486.492 161.43 482.162 160.659C477.831 159.888 473.376 160.196 469.194 161.557C466.326 162.411 463.757 164.053 461.782 166.295C459.908 168.598 456.301 170.649 457.26 173.456L456.434 173.844Z" fill="#2F2E41"/>
<path d="M479.876 157.952C473.643 151.654 466.1 146.793 457.778 143.713C452.436 141.741 446.621 140.523 441.037 141.643C435.452 142.763 430.17 146.612 428.612 152.072C427.338 156.537 428.654 161.344 430.631 165.546C432.608 169.749 435.248 173.646 436.847 178.006C438.478 182.454 438.969 187.238 438.274 191.923C437.579 196.608 435.721 201.046 432.868 204.834C430.016 208.622 426.259 211.641 421.938 213.615C417.618 215.589 412.871 216.457 408.129 216.14C413.616 216.873 418.674 219.443 424.038 220.81C429.401 222.178 435.732 222.085 439.718 218.256C443.935 214.205 444.019 207.619 443.815 201.786L442.906 175.772C442.752 171.35 442.62 166.786 444.22 162.659C445.821 158.532 449.624 154.917 454.065 154.955C457.431 154.983 460.409 157.015 463.108 159.018C465.807 161.022 468.664 163.159 472.017 163.457C475.369 163.755 479.197 161.283 478.946 157.939" fill="#2F2E41"/>
<path d="M388.01 225.368L433.517 226.439L440.109 274.911L398.084 275.851L388.01 225.368Z" fill="#E6E6E6"/>
<path d="M436.4 238.268C436.666 238.624 436.904 238.999 437.112 239.392L476.798 243.558L482.511 235.754L495.459 242.805L484.238 261.744L435.566 249.379C434.338 250.571 432.774 251.364 431.084 251.65C429.393 251.936 427.655 251.702 426.1 250.98C424.546 250.257 423.249 249.081 422.383 247.606C421.516 246.132 421.12 244.429 421.248 242.725C421.376 241.021 422.021 239.396 423.099 238.067C424.176 236.737 425.634 235.766 427.279 235.282C428.924 234.798 430.677 234.825 432.307 235.358C433.936 235.892 435.363 236.907 436.4 238.268V238.268Z" fill="#FFB8B8"/>
<path d="M490.708 249.999C490.213 249.998 489.724 249.896 489.27 249.7L478.932 245.24C478.051 244.859 477.358 244.146 477.005 243.257C476.652 242.367 476.667 241.375 477.047 240.496L485.039 222.102C485.521 220.99 486.218 219.983 487.091 219.139C487.963 218.296 488.994 217.632 490.125 217.186C491.255 216.739 492.463 216.519 493.678 216.538C494.894 216.557 496.094 216.814 497.21 217.295C498.326 217.777 499.335 218.472 500.181 219.342C501.027 220.213 501.692 221.24 502.139 222.367C502.586 223.494 502.806 224.697 502.786 225.908C502.766 227.12 502.507 228.315 502.023 229.427L494.032 247.821C493.751 248.467 493.286 249.017 492.696 249.404C492.105 249.791 491.414 249.997 490.708 249.999Z" fill="#047CFD"/>
<path d="M397.161 249.739H76.9022C75.5151 249.739 74.1847 250.288 73.2038 251.265C72.2229 252.243 71.6719 253.568 71.6719 254.95C71.6719 256.332 72.2229 257.658 73.2038 258.635C74.1847 259.613 75.5151 260.162 76.9022 260.162H86.156V373.613C86.156 374.995 86.707 376.321 87.6879 377.298C88.6688 378.275 89.9991 378.825 91.3863 378.825C92.7735 378.825 94.1039 378.275 95.0847 377.298C96.0656 376.321 96.6167 374.995 96.6167 373.613V270.176L155.254 376.073C155.949 377.267 157.091 378.137 158.43 378.493C159.768 378.849 161.194 378.661 162.394 377.971C163.593 377.281 164.469 376.145 164.829 374.812C165.189 373.479 165.003 372.058 164.313 370.861L103.017 260.162H383.08V260.229L321.821 370.861C321.127 372.058 320.939 373.481 321.298 374.816C321.657 376.151 322.534 377.289 323.735 377.98C324.936 378.671 326.364 378.859 327.704 378.501C329.044 378.143 330.186 377.27 330.88 376.073L383.08 281.802V373.613C383.08 374.995 383.631 376.321 384.612 377.298C385.592 378.275 386.923 378.825 388.31 378.825C389.697 378.825 391.028 378.275 392.008 377.298C392.989 376.321 393.54 374.995 393.54 373.613V262.91L395.062 260.162H397.161C398.549 260.162 399.879 259.613 400.86 258.635C401.841 257.658 402.392 256.332 402.392 254.95C402.392 253.568 401.841 252.243 400.86 251.265C399.879 250.288 398.549 249.739 397.161 249.739Z" fill="#3F3D56"/>
</svg>
