<svg width="855" height="857" viewBox="0 0 855 857" fill="none" xmlns="http://www.w3.org/2000/svg">
<path fill-rule="evenodd" clip-rule="evenodd" d="M661.348 602.537C618.737 645.521 548.788 629.217 491.437 647.188C423.773 668.391 363.149 735.535 295.828 717.076C228.059 698.494 190.555 624.447 167.071 558.25C145.7 498.007 159.286 432.896 172.476 369.365C184.839 309.819 200.808 250.738 240.601 204.095C281.953 155.625 336.178 116.943 398.102 104.902C459.813 92.9025 525.561 104.507 576.966 138.69C624.703 170.434 641.395 229.357 664.49 282.044C685.666 330.35 705.824 378.123 705.301 431.453C704.713 491.406 704.138 559.373 661.348 602.537Z" fill="url(#paint0_radial_342_53)"/>
<g clip-path="url(#clip0_342_53)">
<path d="M502.253 501.874V593.477H287.747C263.307 593.477 243.422 572.93 243.422 547.676C243.422 522.421 263.307 501.874 287.747 501.874H502.253Z" fill="#F2F2F2"/>
<path d="M507.521 592.772C507.521 593.706 507.174 594.602 506.557 595.263C505.939 595.924 505.102 596.295 504.228 596.295H283.926C271.961 596.295 260.486 591.21 252.025 582.158C243.565 573.106 238.812 560.829 238.812 548.028C238.812 535.227 243.565 522.949 252.025 513.898C260.486 504.846 271.961 499.76 283.926 499.76H504.228C505.102 499.76 505.939 500.132 506.557 500.792C507.174 501.453 507.521 502.349 507.521 503.283C507.521 504.218 507.174 505.114 506.557 505.775C505.939 506.435 505.102 506.807 504.228 506.807H283.926C273.708 506.807 263.908 511.15 256.682 518.88C249.457 526.611 245.398 537.095 245.398 548.028C245.398 558.96 249.457 569.445 256.682 577.176C263.908 584.906 273.708 589.249 283.926 589.249H504.228C505.102 589.249 505.939 589.621 506.557 590.281C507.174 590.942 507.521 591.838 507.521 592.772Z" fill="#047CFD"/>
<path d="M502.253 523.013H271.742C271.567 523.013 271.4 522.939 271.276 522.807C271.153 522.675 271.083 522.496 271.083 522.309C271.083 522.122 271.153 521.943 271.276 521.81C271.4 521.678 271.567 521.604 271.742 521.604H502.253C502.427 521.604 502.595 521.678 502.718 521.81C502.842 521.943 502.911 522.122 502.911 522.309C502.911 522.496 502.842 522.675 502.718 522.807C502.595 522.939 502.427 523.013 502.253 523.013Z" fill="#CCCCCC"/>
<path d="M502.253 539.925H271.742C271.567 539.925 271.4 539.85 271.276 539.718C271.153 539.586 271.083 539.407 271.083 539.22C271.083 539.033 271.153 538.854 271.276 538.722C271.4 538.59 271.567 538.515 271.742 538.515H502.253C502.427 538.515 502.595 538.59 502.718 538.722C502.842 538.854 502.911 539.033 502.911 539.22C502.911 539.407 502.842 539.586 502.718 539.718C502.595 539.85 502.427 539.925 502.253 539.925Z" fill="#CCCCCC"/>
<path d="M502.253 556.836H271.742C271.567 556.836 271.4 556.762 271.276 556.629C271.153 556.497 271.083 556.318 271.083 556.131C271.083 555.944 271.153 555.765 271.276 555.633C271.4 555.501 271.567 555.427 271.742 555.427H502.253C502.427 555.427 502.595 555.501 502.718 555.633C502.842 555.765 502.911 555.944 502.911 556.131C502.911 556.318 502.842 556.497 502.718 556.629C502.595 556.762 502.427 556.836 502.253 556.836Z" fill="#CCCCCC"/>
<path d="M502.253 573.747H271.742C271.567 573.747 271.4 573.673 271.276 573.541C271.153 573.409 271.083 573.229 271.083 573.042C271.083 572.856 271.153 572.676 271.276 572.544C271.4 572.412 271.567 572.338 271.742 572.338H502.253C502.427 572.338 502.595 572.412 502.718 572.544C502.842 572.676 502.911 572.856 502.911 573.042C502.911 573.229 502.842 573.409 502.718 573.541C502.595 573.673 502.427 573.747 502.253 573.747Z" fill="#CCCCCC"/>
<path d="M668.034 519.117L614.316 590.446L447.284 446.454C428.253 430.048 424.819 400.7 439.629 381.035C454.439 361.37 481.972 358.719 501.003 375.125L668.034 519.117Z" fill="#F2F2F2"/>
<path d="M618.831 593.435C618.283 594.162 617.488 594.626 616.619 594.726C615.751 594.826 614.881 594.553 614.201 593.967L442.656 446.084C433.339 438.052 427.386 426.389 426.106 413.662C424.826 400.934 428.325 388.183 435.832 378.215C443.339 368.247 454.24 361.878 466.136 360.508C478.033 359.139 489.95 362.882 499.267 370.914L670.812 518.798C671.149 519.088 671.43 519.446 671.637 519.852C671.845 520.258 671.975 520.704 672.022 521.164C672.068 521.625 672.029 522.09 671.908 522.534C671.786 522.978 671.583 523.392 671.312 523.753C671.041 524.113 670.705 524.413 670.326 524.635C669.946 524.856 669.529 524.996 669.099 525.045C668.669 525.095 668.234 525.053 667.819 524.922C667.404 524.792 667.017 524.575 666.68 524.284L495.135 376.401C491.195 373.002 486.669 370.467 481.813 368.94C476.958 367.413 471.868 366.925 466.836 367.503C461.804 368.081 456.928 369.714 452.486 372.309C448.044 374.904 444.124 378.41 440.949 382.626C437.773 386.842 435.406 391.686 433.98 396.882C432.555 402.077 432.101 407.522 432.643 412.906C433.186 418.289 434.714 423.506 437.141 428.257C439.568 433.008 442.846 437.202 446.788 440.597L618.333 588.481C619.013 589.067 619.447 589.918 619.541 590.847C619.634 591.776 619.379 592.707 618.831 593.435Z" fill="#CCCCCC"/>
<path d="M655.638 535.578L476.144 380.842C476.076 380.784 476.02 380.712 475.979 380.631C475.937 380.55 475.911 380.46 475.902 380.368C475.893 380.276 475.901 380.183 475.925 380.095C475.949 380.006 475.99 379.923 476.044 379.851C476.098 379.779 476.165 379.719 476.241 379.675C476.317 379.63 476.4 379.602 476.486 379.593C476.572 379.583 476.659 379.591 476.742 379.617C476.825 379.643 476.903 379.686 476.97 379.744L656.464 534.481C656.532 534.539 656.588 534.61 656.629 534.691C656.671 534.773 656.697 534.862 656.706 534.954C656.716 535.046 656.708 535.139 656.684 535.228C656.659 535.317 656.619 535.4 656.564 535.472C656.51 535.544 656.443 535.604 656.367 535.648C656.291 535.693 656.208 535.721 656.122 535.73C656.036 535.74 655.949 535.732 655.866 535.706C655.782 535.679 655.705 535.636 655.638 535.578V535.578Z" fill="#CCCCCC"/>
<path d="M645.72 548.746L466.226 394.01C466.09 393.893 466.004 393.723 465.985 393.537C465.967 393.351 466.018 393.165 466.127 393.02C466.237 392.875 466.396 392.782 466.569 392.762C466.743 392.741 466.917 392.796 467.053 392.913L646.547 547.649C646.614 547.707 646.67 547.779 646.712 547.86C646.753 547.941 646.78 548.03 646.789 548.122C646.798 548.214 646.791 548.308 646.766 548.396C646.742 548.485 646.701 548.568 646.647 548.64C646.593 548.712 646.526 548.772 646.45 548.817C646.374 548.861 646.29 548.889 646.204 548.899C646.118 548.909 646.031 548.9 645.948 548.874C645.865 548.848 645.788 548.805 645.72 548.746Z" fill="#CCCCCC"/>
<path d="M635.803 561.915L456.309 407.179C456.173 407.061 456.086 406.891 456.067 406.705C456.049 406.52 456.1 406.333 456.209 406.188C456.319 406.042 456.478 405.949 456.652 405.929C456.825 405.909 456.999 405.964 457.135 406.081L636.629 560.817C636.697 560.875 636.753 560.947 636.794 561.028C636.836 561.11 636.862 561.199 636.871 561.291C636.88 561.383 636.873 561.476 636.848 561.565C636.824 561.653 636.783 561.736 636.729 561.808C636.675 561.88 636.608 561.94 636.532 561.985C636.456 562.029 636.373 562.057 636.287 562.067C636.201 562.077 636.114 562.068 636.031 562.042C635.948 562.016 635.87 561.973 635.803 561.915V561.915Z" fill="#CCCCCC"/>
<path d="M625.886 575.083L446.392 420.347C446.324 420.289 446.268 420.217 446.227 420.136C446.185 420.055 446.159 419.966 446.15 419.874C446.141 419.782 446.149 419.689 446.173 419.6C446.197 419.511 446.238 419.428 446.292 419.356C446.346 419.284 446.413 419.224 446.489 419.18C446.565 419.136 446.648 419.108 446.734 419.098C446.82 419.088 446.907 419.096 446.99 419.122C447.073 419.148 447.151 419.192 447.218 419.25L626.712 573.986C626.78 574.044 626.836 574.116 626.877 574.197C626.919 574.278 626.945 574.367 626.954 574.459C626.964 574.551 626.956 574.645 626.932 574.733C626.907 574.822 626.867 574.905 626.812 574.977C626.758 575.049 626.691 575.109 626.615 575.154C626.539 575.198 626.456 575.226 626.37 575.236C626.284 575.246 626.197 575.237 626.114 575.211C626.031 575.185 625.953 575.141 625.886 575.083Z" fill="#CCCCCC"/>
<path d="M412.661 492.246L405.132 492.245L401.551 461.174L412.664 461.175L412.661 492.246Z" fill="#FFB8B8"/>
<path d="M399.753 489.944H414.274V499.725H390.611C390.611 498.441 390.847 497.169 391.307 495.982C391.766 494.795 392.439 493.717 393.288 492.809C394.137 491.9 395.145 491.18 396.254 490.688C397.364 490.197 398.553 489.944 399.753 489.944Z" fill="#2F2E41"/>
<path d="M335.739 492.246L328.21 492.245L324.629 461.174L335.742 461.175L335.739 492.246Z" fill="#FFB8B8"/>
<path d="M322.832 489.944H337.353V499.725H313.689C313.689 498.441 313.926 497.169 314.385 495.982C314.845 494.795 315.518 493.717 316.367 492.809C317.216 491.9 318.224 491.18 319.333 490.688C320.443 490.197 321.631 489.944 322.832 489.944Z" fill="#2F2E41"/>
<path d="M360.888 261.768V258.244C360.888 252.218 363.126 246.437 367.109 242.176C371.092 237.914 376.495 235.52 382.128 235.52H382.128C387.761 235.52 393.164 237.914 397.147 242.176C401.13 246.437 403.368 252.218 403.368 258.244V261.768C403.368 266.113 401.755 270.28 398.883 273.352C396.011 276.424 392.117 278.15 388.056 278.15H376.201C374.19 278.15 372.199 277.727 370.341 276.903C368.483 276.08 366.795 274.873 365.373 273.352C363.951 271.831 362.823 270.025 362.054 268.037C361.284 266.049 360.888 263.919 360.888 261.768Z" fill="#2F2E41"/>
<path d="M382.128 279.363C391.062 279.363 398.304 271.614 398.304 262.056C398.304 252.498 391.062 244.75 382.128 244.75C373.194 244.75 365.952 252.498 365.952 262.056C365.952 271.614 373.194 279.363 382.128 279.363Z" fill="#FFB8B8"/>
<path d="M294.141 321.537C294.798 320.873 295.582 320.372 296.439 320.069C297.296 319.765 298.205 319.666 299.102 319.778C299.998 319.891 300.861 320.213 301.629 320.721C302.397 321.229 303.051 321.911 303.546 322.719L317.413 319.912L321.062 328.512L301.428 332.181C300.104 332.98 298.552 333.233 297.066 332.89C295.581 332.547 294.264 331.633 293.366 330.321C292.467 329.009 292.05 327.39 292.193 325.771C292.336 324.152 293.029 322.645 294.141 321.537V321.537Z" fill="#FFB8B8"/>
<path d="M369.517 290.262L369.698 290.556L346.959 306.582L308.59 319.691C308.082 319.866 307.645 320.224 307.356 320.704C307.066 321.184 306.941 321.757 307.002 322.325L307.839 330.038C307.876 330.38 307.979 330.709 308.142 331.005C308.305 331.301 308.524 331.558 308.786 331.758C309.047 331.958 309.344 332.098 309.658 332.168C309.973 332.238 310.298 332.237 310.612 332.165L346.723 323.884C348.47 323.485 350.123 322.707 351.578 321.597L377.123 302.151C378.049 301.442 378.788 300.489 379.268 299.384C379.748 298.28 379.953 297.061 379.862 295.846C379.768 294.63 379.38 293.461 378.736 292.454C378.092 291.447 377.214 290.637 376.189 290.103C375.163 289.57 374.025 289.331 372.887 289.41C371.749 289.489 370.65 289.884 369.698 290.556L369.517 290.262Z" fill="#CCCCCC"/>
<path d="M405.266 483.429C404.688 483.429 404.123 483.249 403.639 482.911C403.155 482.573 402.774 482.092 402.541 481.525L368.024 390.274C367.943 390.077 367.808 389.91 367.636 389.797C367.464 389.683 367.264 389.629 367.063 389.641C366.861 389.654 366.668 389.731 366.509 389.864C366.35 389.998 366.233 390.18 366.174 390.386L338.013 479.222C337.894 479.635 337.698 480.018 337.435 480.348C337.173 480.677 336.851 480.945 336.488 481.136C336.125 481.326 335.729 481.436 335.326 481.457C334.922 481.478 334.518 481.411 334.14 481.259L324.696 477.47C324.184 477.267 323.734 476.915 323.397 476.454C323.061 475.993 322.85 475.441 322.788 474.86C318.54 435.265 355.587 335.321 355.962 334.316L356.065 334.038L389.837 342.031L389.907 342.113C403.38 357.839 414.455 457.026 416.539 476.75C416.616 477.462 416.465 478.182 416.109 478.79C415.753 479.398 415.215 479.858 414.582 480.095L406.246 483.249C405.932 483.368 405.6 483.429 405.266 483.429Z" fill="#2F2E41"/>
<path d="M376.169 345.248C367.986 345.248 358.864 343.502 356.056 336.298L355.992 336.133L356.079 335.979C358.295 332.089 361.225 325.452 359.65 324.206C356.549 321.752 355.044 317.716 355.177 312.209C355.467 300.255 363.081 289.641 374.123 285.798H374.123C377.205 284.743 380.341 283.879 383.516 283.21C385.831 282.71 388.221 282.765 390.513 283.371C392.806 283.977 394.944 285.118 396.776 286.713C398.63 288.319 400.129 290.344 401.165 292.643C402.2 294.942 402.747 297.458 402.766 300.01C402.882 312.786 401.044 330.58 391.628 342.796C391.187 343.363 390.573 343.745 389.894 343.875C385.364 344.751 380.772 345.211 376.169 345.248Z" fill="#CCCCCC"/>
<path d="M373.125 344.769C373.57 343.06 374.628 341.608 376.068 340.729C377.509 339.85 379.215 339.614 380.817 340.073C381.144 340.171 381.463 340.298 381.77 340.451L392.299 330.2L399.621 335.478L384.565 349.733C383.885 351.045 382.814 352.075 381.524 352.661C380.233 353.246 378.797 353.353 377.443 352.965C376.654 352.734 375.916 352.338 375.271 351.8C374.627 351.262 374.088 350.593 373.686 349.831C373.285 349.068 373.029 348.229 372.932 347.36C372.836 346.491 372.902 345.611 373.125 344.769Z" fill="#FFB8B8"/>
<path d="M390.631 344.899C389.948 344.9 389.286 344.647 388.757 344.184L384.605 340.554C384.259 340.251 383.981 339.869 383.793 339.435C383.604 339.002 383.51 338.528 383.517 338.05C383.524 337.572 383.632 337.101 383.833 336.674C384.033 336.247 384.322 335.874 384.677 335.583L402.091 321.293C402.298 321.123 402.433 320.872 402.468 320.596C402.503 320.319 402.435 320.04 402.278 319.817L391.529 304.613C390.281 302.853 389.654 300.677 389.761 298.469C389.868 296.262 390.702 294.167 392.114 292.554C393.601 290.835 395.638 289.778 397.82 289.591C400.003 289.404 402.171 290.102 403.895 291.546L403.963 291.623L415.187 308.817C416.4 309.836 417.378 311.14 418.042 312.629C418.707 314.118 419.041 315.751 419.018 317.401C418.995 319.051 418.615 320.673 417.91 322.14C417.204 323.608 416.191 324.88 414.949 325.859L392.395 344.278C391.884 344.682 391.266 344.899 390.631 344.899Z" fill="#CCCCCC"/>
<path d="M367.8 257.187V248.601L382.128 241.907L395.79 248.601V257.187C395.79 257.561 395.651 257.92 395.404 258.184C395.157 258.448 394.822 258.597 394.473 258.597H369.117C368.767 258.597 368.432 258.448 368.185 258.184C367.938 257.92 367.8 257.561 367.8 257.187Z" fill="#2F2E41"/>
<path d="M381.47 236.659C379.364 229.445 383.788 221.177 390.329 218.321C396.87 215.465 404.695 217.461 410.215 222.179C415.734 226.897 419.158 233.964 420.973 241.269C422.787 248.574 423.131 256.191 423.466 263.741C431.503 265.32 436.97 275.518 434.186 283.737C431.402 291.956 421.098 296.039 413.981 291.743C406.865 287.447 404.804 275.9 409.94 269.101C412.37 265.884 413.728 261.891 413.797 257.755C413.867 253.619 412.645 249.577 410.325 246.268C408.005 242.959 404.72 240.573 400.989 239.487C397.258 238.401 393.296 238.678 389.729 240.274C385.768 242.046 380.798 237.442 381.47 236.659Z" fill="#2F2E41"/>
<path d="M291.171 288.227C281.549 288.159 272.047 285.933 263.28 281.691C262.758 281.442 262.315 281.036 262.005 280.523C261.695 280.009 261.531 279.411 261.533 278.799V253.138C261.534 252.297 261.847 251.491 262.402 250.897C262.958 250.302 263.711 249.968 264.497 249.967H317.844C318.63 249.968 319.383 250.302 319.939 250.897C320.494 251.491 320.807 252.297 320.808 253.138V278.799C320.81 279.411 320.646 280.009 320.336 280.523C320.026 281.036 319.583 281.442 319.061 281.691C310.294 285.933 300.792 288.159 291.171 288.227Z" fill="#047CFD"/>
<path d="M291.163 267.438C290.768 267.438 290.376 267.354 290.012 267.19L247.708 248.095C247.163 247.848 246.699 247.433 246.376 246.902C246.053 246.371 245.886 245.749 245.897 245.115C245.908 244.482 246.096 243.866 246.437 243.348C246.778 242.83 247.256 242.433 247.809 242.209L290.113 225.038C290.794 224.761 291.548 224.762 292.228 225.043L333.965 242.214C334.515 242.44 334.99 242.837 335.329 243.354C335.667 243.871 335.854 244.484 335.864 245.115C335.875 245.745 335.71 246.365 335.39 246.895C335.069 247.425 334.609 247.841 334.066 248.089L292.329 267.184C291.96 267.352 291.564 267.438 291.163 267.438Z" fill="#047CFD"/>
<path d="M266.473 283.437C268.656 283.437 270.425 281.544 270.425 279.209C270.425 276.874 268.656 274.982 266.473 274.982C264.291 274.982 262.521 276.874 262.521 279.209C262.521 281.544 264.291 283.437 266.473 283.437Z" fill="#3F3D56"/>
<path opacity="0.2" d="M334.211 245.378L292.473 264.473C292.148 264.622 291.798 264.699 291.444 264.7C291.09 264.701 290.739 264.626 290.413 264.479L248.11 245.384C247.579 245.15 247.135 244.733 246.85 244.199C246.664 244.545 246.548 244.93 246.511 245.327C246.474 245.725 246.517 246.126 246.636 246.505C246.755 246.884 246.948 247.231 247.202 247.523C247.456 247.816 247.766 248.048 248.11 248.202L290.413 267.297C290.739 267.444 291.09 267.52 291.444 267.519C291.798 267.518 292.148 267.441 292.473 267.292L334.211 248.197C334.553 248.041 334.861 247.808 335.113 247.516C335.365 247.223 335.557 246.876 335.675 246.498C335.793 246.121 335.834 245.72 335.797 245.324C335.76 244.928 335.644 244.544 335.458 244.199C335.175 244.729 334.737 245.143 334.211 245.378Z" fill="black"/>
<path d="M266.805 279.193C266.98 279.193 267.147 279.119 267.271 278.986C267.394 278.854 267.464 278.675 267.464 278.488V254.91L289.185 246.444C289.36 246.447 289.528 246.375 289.654 246.245C289.779 246.115 289.851 245.937 289.854 245.75C289.856 245.563 289.789 245.382 289.668 245.248C289.546 245.114 289.379 245.037 289.205 245.035L267.483 253.501C267.309 253.497 267.135 253.53 266.972 253.6C266.81 253.67 266.663 253.774 266.539 253.906C266.414 254.037 266.315 254.193 266.248 254.366C266.18 254.538 266.146 254.723 266.146 254.91V278.488C266.146 278.675 266.216 278.854 266.339 278.986C266.463 279.119 266.63 279.193 266.805 279.193Z" fill="#3F3D56"/>
</g>
<defs>
<radialGradient id="paint0_radial_342_53" cx="0" cy="0" r="1" gradientUnits="userSpaceOnUse" gradientTransform="translate(491 589.5) rotate(-109.062) scale(693.529 700.162)">
<stop stop-color="#047CFD"/>
<stop offset="1" stop-color="#A5DFFF"/>
</radialGradient>
<clipPath id="clip0_342_53">
<rect width="490" height="380" fill="white" transform="translate(190 217)"/>
</clipPath>
</defs>
</svg>
