<svg width="560" height="460" viewBox="0 0 560 460" fill="none" xmlns="http://www.w3.org/2000/svg">
<g clip-path="url(#clip0_540_500)">
<path d="M299.232 97.448C319.534 97.448 335.993 80.4177 335.993 59.4097C335.993 38.4018 319.534 21.3715 299.232 21.3715C278.93 21.3715 262.472 38.4018 262.472 59.4097C262.472 80.4177 278.93 97.448 299.232 97.448Z" fill="#FF6584"/>
<path d="M188.547 242.477C188.547 315.944 146.34 341.596 94.2736 341.596C42.2077 341.596 0 315.944 0 242.477C0 169.01 94.2736 75.5476 94.2736 75.5476C94.2736 75.5476 188.547 169.01 188.547 242.477Z" fill="#F2F2F2"/>
<path d="M90.8398 330.358L91.8048 268.873L131.987 192.806L91.9564 259.227L92.3901 231.581L120.084 176.547L92.505 224.265L93.2861 174.541L122.94 130.728L93.4085 166.723L93.8961 75.5475L90.8312 196.246L91.0828 191.268L60.9331 143.514L90.5997 200.826L87.7904 256.358L87.7066 254.884L52.9492 204.63L87.6015 260.091L87.25 267.036L87.1874 267.141L87.2161 267.711L80.0886 408.601H89.6112L90.7537 335.828L125.321 280.503L90.8398 330.358Z" fill="#3F3D56"/>
<path d="M467.916 203.934C467.916 293.687 416.352 325.025 352.744 325.025C289.136 325.025 237.572 293.687 237.572 203.934C237.572 114.18 352.744 -2.28882e-05 352.744 -2.28882e-05C352.744 -2.28882e-05 467.916 114.18 467.916 203.934Z" fill="#F2F2F2"/>
<path d="M348.549 311.296L349.728 236.181L398.817 143.252L349.913 224.397L350.443 190.622L384.275 123.39L350.584 181.684L351.537 120.938L387.765 67.4127L351.687 111.386L352.283 0L348.538 147.455L348.846 141.372L312.013 83.0327L348.256 153.049L344.823 220.892L344.721 219.091L302.259 157.698L344.593 225.453L344.163 233.937L344.087 234.065L344.122 234.761L335.414 406.884H347.048L348.444 317.979L390.673 250.39L348.549 311.296Z" fill="#3F3D56"/>
<path d="M229.732 413.641C327.436 413.641 406.641 410.714 406.641 407.103C406.641 403.492 327.436 400.565 229.732 400.565C132.028 400.565 52.8237 403.492 52.8237 407.103C52.8237 410.714 132.028 413.641 229.732 413.641Z" fill="#3F3D56"/>
<path d="M240.071 206.214H219.394V407.103H240.071V206.214Z" fill="#2F2E41"/>
<path d="M324.505 251.978H197.567V215.129H324.505L361.265 233.554L324.505 251.978Z" fill="#3F3D56"/>
<path opacity="0.1" d="M324.505 249.007H197.567V251.978H324.505L361.265 233.554L358.301 232.068L324.505 249.007Z" fill="black"/>
<path d="M135.535 300.715H262.472V263.865H135.535L98.7744 282.29L135.535 300.715Z" fill="#3F3D56"/>
<path opacity="0.1" d="M101.739 280.804L98.7744 282.29L135.535 300.715H262.472V297.743H135.535L101.739 280.804Z" fill="black"/>
<path d="M290.616 222.261H268.79V244.846H290.616V222.261Z" fill="#047CFD"/>
<path d="M180.91 293.583C186.937 293.583 191.823 288.527 191.823 282.29C191.823 276.053 186.937 270.997 180.91 270.997C174.883 270.997 169.997 276.053 169.997 282.29C169.997 288.527 174.883 293.583 180.91 293.583Z" fill="#047CFD"/>
<path d="M229.732 238.903C233.222 238.903 236.05 235.976 236.05 232.365C236.05 228.754 233.222 225.827 229.732 225.827C226.243 225.827 223.414 228.754 223.414 232.365C223.414 235.976 226.243 238.903 229.732 238.903Z" fill="#2F2E41"/>
<path d="M229.732 287.639C233.222 287.639 236.05 284.712 236.05 281.101C236.05 277.491 233.222 274.564 229.732 274.564C226.243 274.564 223.414 277.491 223.414 281.101C223.414 284.712 226.243 287.639 229.732 287.639Z" fill="#2F2E41"/>
<path d="M187.228 384.718C187.228 398.072 179.557 402.735 170.092 402.735C169.873 402.735 169.654 402.732 169.436 402.727C168.997 402.717 168.563 402.696 168.134 402.665C159.593 402.04 152.957 397.137 152.957 384.718C152.957 371.865 168.829 355.647 170.021 354.446L170.024 354.444C170.07 354.398 170.093 354.375 170.093 354.375C170.093 354.375 187.228 371.363 187.228 384.718Z" fill="#047CFD"/>
<path d="M169.468 400.692L175.736 391.63L169.452 401.687L169.436 402.727C168.997 402.717 168.563 402.696 168.134 402.665L168.809 389.305L168.804 389.201L168.816 389.182L168.879 387.92L162.581 377.838L168.899 386.973L168.914 387.241L169.424 377.147L164.032 366.729L169.49 375.375L170.022 354.446L170.024 354.375V354.444L169.935 370.947L175.303 364.405L169.913 372.369L169.771 381.407L174.783 372.733L169.75 382.737L169.671 387.762L176.948 375.689L169.644 389.515L169.468 400.692Z" fill="#3F3D56"/>
<path d="M452.04 437.364C452.04 437.364 443.907 444.45 439.627 444.007C435.347 443.565 427.214 443.564 430.638 448.437C434.063 453.309 448.188 455.966 454.18 456.409C460.173 456.852 473.442 457.295 472.586 454.637C471.73 451.98 470.874 439.578 467.449 438.692C464.025 437.807 452.04 437.364 452.04 437.364Z" fill="#575A89"/>
<path d="M498.717 430.406C498.717 430.406 492.724 439.494 488.486 440.257C484.248 441.021 476.415 443.283 480.979 447.023C485.542 450.764 499.838 449.395 505.725 448.155C511.612 446.916 524.508 443.652 522.993 441.33C521.478 439.009 517.433 427.301 513.904 427.4C510.376 427.5 498.717 430.406 498.717 430.406Z" fill="#575A89"/>
<path d="M447.276 300.44C447.276 300.44 441.767 339.479 443.051 346.566C444.335 353.653 445.191 364.725 445.191 364.725C445.191 364.725 444.335 374.027 445.191 378.456C446.047 382.885 451.184 424.962 451.184 425.848C451.184 426.734 450.328 429.391 451.184 431.606C452.04 433.82 453.752 432.049 451.184 435.592C448.615 439.135 450.328 440.021 450.756 440.021C451.184 440.021 467.877 441.793 468.733 440.021C469.589 438.25 468.305 437.807 468.733 435.592C469.161 433.377 469.589 432.935 470.445 432.492C471.301 432.049 473.013 432.934 471.729 430.72C470.445 428.505 467.449 425.848 468.305 424.519C469.161 423.19 467.877 413.446 467.877 413.446C467.877 413.446 467.021 391.743 466.593 378.456C466.165 365.168 470.445 351.438 470.445 351.438C470.978 362.31 474.881 372.715 481.574 381.113C492.703 394.844 498.268 420.533 498.268 420.533C498.268 420.533 500.836 424.519 499.552 428.062C498.268 431.606 494.415 429.391 498.268 431.606C502.12 433.82 515.389 430.72 516.673 429.391C517.957 428.062 514.961 426.291 515.817 422.747C516.673 419.204 520.097 420.09 517.101 418.318C514.105 416.547 513.249 416.99 513.249 415.218C513.249 413.446 505.544 374.913 493.559 363.84L492.703 323.534C492.703 323.534 503.404 295.188 492.275 292.53C481.146 289.873 447.276 300.44 447.276 300.44Z" fill="#2F2E41"/>
<path d="M455.036 195.532C455.036 195.532 462.313 214.134 460.601 216.792C458.888 219.449 481.574 207.933 481.574 207.933C481.574 207.933 474.298 189.331 474.298 187.116C474.298 184.902 455.036 195.532 455.036 195.532Z" fill="#A0616A"/>
<path d="M460.387 200.182C469.133 200.182 476.224 192.845 476.224 183.794C476.224 174.744 469.133 167.406 460.387 167.406C451.64 167.406 444.549 174.744 444.549 183.794C444.549 192.845 451.64 200.182 460.387 200.182Z" fill="#A0616A"/>
<path d="M481.574 200.404C481.574 200.404 470.445 199.075 464.881 206.162C459.316 213.248 458.46 215.02 458.46 215.02C458.46 215.02 445.191 237.166 447.759 248.239C448.385 249.238 448.957 250.273 449.472 251.339C450.328 253.111 450.328 277.914 449.472 281.9C448.615 285.886 447.759 287.215 448.615 292.973C449.472 298.731 441.767 308.032 450.756 309.804C459.744 311.576 466.593 310.247 469.589 306.261C472.585 302.274 470.017 299.617 479.434 299.617C488.851 299.617 494.843 292.973 494.843 292.973C494.843 292.973 490.135 287.658 491.847 286.772C493.559 285.886 491.847 283.672 490.991 281.457C490.135 279.243 490.135 277.471 491.419 277.471C492.703 277.471 491.847 276.585 490.991 274.371C490.135 272.156 505.972 234.065 496.555 222.992C487.138 211.92 482.43 205.719 482.43 205.719C482.43 205.719 484.142 199.075 481.574 200.404Z" fill="#047CFD"/>
<path d="M457.176 242.481V261.969L443.479 308.918C443.479 308.918 434.491 333.278 443.479 333.278C452.468 333.278 451.986 310.027 451.986 310.027L471.302 274.814C471.302 274.814 479.006 246.91 478.15 244.695C477.294 242.481 457.176 242.481 457.176 242.481Z" fill="#A0616A"/>
<path d="M464.453 213.691C464.453 213.691 451.612 219.006 455.036 233.179C458.46 247.353 455.036 246.91 455.036 246.91C455.036 246.91 472.586 245.138 478.15 249.124L479.434 243.809C479.434 243.809 484.571 213.248 464.453 213.691Z" fill="#047CFD"/>
<path d="M454.979 171.492C453.99 171.854 452.93 171.957 451.894 171.79C450.858 171.623 449.878 171.192 449.043 170.536C447.43 169.16 446.745 166.622 447.694 164.695C448.514 163.03 450.267 162.117 451.948 161.436C455.656 159.935 459.562 159.023 463.534 158.729C465.427 158.59 467.416 158.612 469.106 159.507C469.942 159.95 470.668 160.589 471.496 161.048C473.018 161.891 474.79 162.079 476.436 162.622C478.119 163.19 479.665 164.126 480.968 165.366C482.272 166.606 483.303 168.121 483.992 169.809C484.439 170.955 484.751 172.153 484.922 173.377C485.415 176.727 485.071 180.151 483.924 183.325C482.099 188.352 478.272 192.746 478.056 198.111C475.714 196.353 474.845 193.179 472.968 190.9C471.572 189.216 469.665 188.071 467.558 187.653C466.975 187.616 466.415 187.405 465.946 187.045C465.619 186.641 465.414 186.146 465.357 185.623L463.754 177.793C463.428 176.199 463.016 174.462 461.75 173.494C460.962 172.972 460.068 172.646 459.138 172.541C456.928 172.142 454.69 171.931 452.446 171.91" fill="#2F2E41"/>
</g>
<defs>
<clipPath id="clip0_540_500">
<rect width="560" height="460" fill="white"/>
</clipPath>
</defs>
</svg>
