<svg width="412" height="413" viewBox="0 0 412 413" fill="none" xmlns="http://www.w3.org/2000/svg">
<g clip-path="url(#clip0_588_65)">
<path d="M328.143 293.431C328.143 293.431 379.113 296.256 367.241 313.453C355.369 330.651 324.174 303.365 324.174 303.365L328.143 293.431Z" fill="#FFB8B8"/>
<path d="M234.214 129.625L244.589 132.405C244.589 132.405 250.641 151.865 254.963 169.471C259.286 187.078 267.932 239.897 267.932 239.897L334.958 290.245L326.964 309.413L237.673 271.694L217.788 188.004L234.214 129.625Z" fill="#575A89"/>
<path opacity="0.2" d="M243.976 164.167L240.109 250.957L248.177 276.761L224.542 258.183L243.976 164.167Z" fill="black"/>
<path d="M257.99 318.2C257.99 318.2 269.229 350.633 270.958 372.872C272.687 395.112 274.416 412.718 274.416 412.718H221.678L211.304 396.039V412.718H149.92C149.92 412.718 132.629 352.486 139.546 345.073C146.462 337.659 212.168 306.153 212.168 306.153L257.99 318.2Z" fill="#2F2E41"/>
<path d="M191.851 94.4122C209.995 94.4122 224.704 78.6468 224.704 59.1993C224.704 39.7517 209.995 23.9863 191.851 23.9863C173.707 23.9863 158.998 39.7517 158.998 59.1993C158.998 78.6468 173.707 94.4122 191.851 94.4122Z" fill="#FFB8B8"/>
<path d="M166.779 74.0256L164.186 114.799L197.039 162.058L213.465 117.578C213.465 117.578 198.768 107.385 207.413 86.0722L166.779 74.0256Z" fill="#FFB8B8"/>
<path d="M262.743 326.075C262.743 334.419 241.129 347.39 241.129 347.39V352.023L232.483 356.656L213.464 315.886L208.28 360.36C208.28 360.36 170.237 366.852 158.135 360.36C146.028 353.875 139.978 356.656 122.687 350.171C105.396 343.685 129.604 256.577 129.604 256.577L112.313 122.212L150.089 101.967L152.079 100.898L157.274 99.8732L165.237 98.2969L191.851 117.579L193.994 129.626L195.312 137.041L202.224 128.697L207.445 110.294L244.59 132.407L234.217 221.363C234.217 221.363 262.743 317.738 262.743 326.075Z" fill="#575A89"/>
<path d="M135.655 354.802C135.655 354.802 175.425 389.089 156.405 395.575C137.384 402.062 127.01 360.362 127.01 360.362L135.655 354.802Z" fill="#FFB8B8"/>
<path d="M120.958 124.065L112.312 122.212C112.312 122.212 99.3438 129.625 98.4793 144.452C97.6147 159.278 86.3755 263.064 86.3755 263.064L122.687 367.776L152.082 355.729L123.551 257.504L145.165 172.251L120.958 124.065Z" fill="#575A89"/>
<path d="M195.653 152.344C197.394 152.344 198.805 150.831 198.805 148.966C198.805 147.1 197.394 145.588 195.653 145.588C193.913 145.588 192.502 147.1 192.502 148.966C192.502 150.831 193.913 152.344 195.653 152.344Z" fill="#2F2E41"/>
<path d="M195.653 174.3C197.394 174.3 198.805 172.788 198.805 170.922C198.805 169.056 197.394 167.544 195.653 167.544C193.913 167.544 192.502 169.056 192.502 170.922C192.502 172.788 193.913 174.3 195.653 174.3Z" fill="#2F2E41"/>
<path d="M213.512 318.984C215.252 318.984 216.663 317.471 216.663 315.606C216.663 313.74 215.252 312.228 213.512 312.228C211.771 312.228 210.36 313.74 210.36 315.606C210.36 317.471 211.771 318.984 213.512 318.984Z" fill="#2F2E41"/>
<path d="M164.114 23.1252L158.041 20.5192C158.041 20.5192 170.739 5.53502 188.406 6.83803L183.437 0.974598C183.437 0.974598 195.583 -4.23726 206.625 9.44395C212.43 16.6358 219.146 25.0896 223.333 34.6126H229.836L227.122 41.0188L236.623 47.4251L226.871 46.2744C227.452 49.7825 227.541 53.364 227.136 56.9004C226.717 60.4378 225.033 63.6627 222.439 65.8944C222.439 65.8944 214.907 49.1846 214.907 46.5787V53.0936C214.907 53.0936 208.834 47.2302 208.834 43.3213L205.521 47.8817H183.437L186.75 42.0184L174.052 43.9728L179.021 36.8064L159.36 66.399C159.36 66.399 148.103 32.8975 164.114 23.1252Z" fill="#2F2E41"/>
<path d="M359.476 272.222C388.484 272.222 412 247.017 412 215.925C412 184.833 388.484 159.628 359.476 159.628C330.467 159.628 306.951 184.833 306.951 215.925C306.951 247.017 330.467 272.222 359.476 272.222Z" fill="#3F3D56"/>
<path opacity="0.1" d="M359.476 264.341C384.423 264.341 404.647 242.664 404.647 215.925C404.647 189.186 384.423 167.51 359.476 167.51C334.528 167.51 314.305 189.186 314.305 215.925C314.305 242.664 334.528 264.341 359.476 264.341Z" fill="black"/>
<path d="M357.311 244.495V237.448C353.988 237.379 350.55 236.122 348.544 234.378L349.92 229.704C352.303 231.618 355.193 232.669 358.171 232.703C362.239 232.703 364.99 229.843 364.99 225.866C364.99 222.029 362.755 219.657 358.515 217.563C352.67 214.773 349.06 211.563 349.06 205.493C349.06 199.702 352.441 195.307 357.712 194.26V187.214H361.265V193.981C363.914 194.02 366.498 194.867 368.714 196.423L367.281 201.028C365.156 199.469 362.637 198.641 360.062 198.656C355.65 198.656 353.988 201.865 353.988 204.656C353.988 208.284 356.108 210.098 361.093 212.61C366.995 215.54 369.975 219.168 369.975 225.378C369.975 230.889 366.823 236.053 360.921 237.238V244.495H357.311Z" fill="#047CFD"/>
<path opacity="0.2" d="M131.313 284.228L152.321 354.561L135.513 281.375L131.313 284.228Z" fill="black"/>
<path d="M24.2103 146.825H10.8761C10.2949 146.824 9.73777 146.576 9.32683 146.136C8.91588 145.696 8.68473 145.098 8.68408 144.475V123.931C8.68473 123.308 8.91588 122.711 9.32683 122.27C9.73777 121.83 10.2949 121.582 10.8761 121.581H24.2103C24.7915 121.582 25.3487 121.83 25.7596 122.27C26.1705 122.711 26.4017 123.308 26.4023 123.931V144.475C26.4017 145.098 26.1705 145.696 25.7596 146.136C25.3487 146.576 24.7915 146.824 24.2103 146.825ZM10.8761 122.707C10.5735 122.708 10.2833 122.837 10.0693 123.066C9.85532 123.295 9.73494 123.606 9.73457 123.931V144.475C9.73494 144.8 9.85532 145.111 10.0693 145.34C10.2833 145.57 10.5735 145.699 10.8761 145.699H24.2103C24.513 145.699 24.8031 145.57 25.0171 145.34C25.2311 145.111 25.3515 144.8 25.3519 144.475V123.931C25.3515 123.606 25.2311 123.295 25.0171 123.066C24.8031 122.837 24.513 122.708 24.2103 122.707H10.8761Z" fill="#3F3D56"/>
<path d="M48.5655 146.825H36.5239C35.7714 146.824 35.0499 146.503 34.5178 145.933C33.9857 145.363 33.6864 144.589 33.6855 143.783V102.292C33.6864 101.486 33.9857 100.712 34.5178 100.142C35.0499 99.5718 35.7714 99.2509 36.5239 99.25H48.5655C49.318 99.2509 50.0394 99.5718 50.5715 100.142C51.1036 100.712 51.4029 101.486 51.4038 102.292V143.783C51.4029 144.589 51.1036 145.363 50.5715 145.933C50.0394 146.503 49.318 146.824 48.5655 146.825ZM36.5239 100.376C36.0499 100.376 35.5954 100.579 35.2603 100.938C34.9251 101.297 34.7366 101.784 34.736 102.292V143.783C34.7366 144.291 34.9251 144.778 35.2603 145.137C35.5954 145.496 36.0499 145.698 36.5239 145.699H48.5655C49.0395 145.698 49.4939 145.496 49.8291 145.137C50.1643 144.778 50.3528 144.291 50.3533 143.783V102.292C50.3528 101.784 50.1643 101.297 49.8291 100.938C49.4939 100.579 49.0395 100.377 48.5655 100.376L36.5239 100.376Z" fill="#3F3D56"/>
<path d="M73.1025 146.825H61.9908C61.115 146.824 60.2754 146.451 59.6561 145.787C59.0368 145.123 58.6885 144.223 58.6875 143.284V82.2459C58.6885 81.3072 59.0368 80.4073 59.6561 79.7435C60.2754 79.0798 61.115 78.7064 61.9908 78.7053H73.1025C73.9783 78.7064 74.8179 79.0798 75.4372 79.7435C76.0564 80.4073 76.4048 81.3072 76.4058 82.2459V143.284C76.4048 144.223 76.0564 145.123 75.4372 145.787C74.8179 146.451 73.9783 146.824 73.1025 146.825ZM61.9908 79.8313C61.3935 79.832 60.8209 80.0866 60.3986 80.5393C59.9762 80.992 59.7387 81.6057 59.738 82.2459V143.284C59.7387 143.925 59.9762 144.538 60.3986 144.991C60.8209 145.444 61.3935 145.698 61.9908 145.699H73.1025C73.6997 145.698 74.2724 145.444 74.6947 144.991C75.117 144.538 75.3546 143.925 75.3553 143.284V82.2459C75.3546 81.6057 75.117 80.992 74.6947 80.5393C74.2724 80.0866 73.6997 79.832 73.1025 79.8313H61.9908Z" fill="#3F3D56"/>
<path d="M22.5436 125.494H12.543V142.912H22.5436V125.494Z" fill="#047CFD"/>
<path d="M47.5451 103.386H37.5444V142.912H47.5451V103.386Z" fill="#047CFD"/>
<path d="M72.5465 82.8413H62.5459V142.912H72.5465V82.8413Z" fill="#047CFD"/>
<path d="M379.751 82.0832H309.894C309.825 82.0832 309.757 82.0687 309.693 82.0404C309.629 82.0121 309.571 81.9706 309.522 81.9184C309.474 81.8661 309.435 81.804 309.409 81.7357C309.382 81.6674 309.369 81.5942 309.369 81.5202V5.51903C309.369 5.36972 309.424 5.22652 309.522 5.12094C309.621 5.01537 309.755 4.95605 309.894 4.95605C310.033 4.95605 310.167 5.01537 310.265 5.12094C310.364 5.22652 310.419 5.36972 310.419 5.51903V80.9573H379.751C379.891 80.9573 380.024 81.0166 380.123 81.1222C380.221 81.2277 380.277 81.3709 380.277 81.5202C380.277 81.6696 380.221 81.8128 380.123 81.9183C380.024 82.0239 379.891 82.0832 379.751 82.0832Z" fill="#3F3D56"/>
<path d="M83.5138 154.707H0.525244C0.456263 154.707 0.387956 154.692 0.324222 154.664C0.260488 154.636 0.202577 154.594 0.1538 154.542C0.105023 154.489 0.0663343 154.427 0.0399447 154.359C0.0135551 154.291 -1.79243e-05 154.218 1.77648e-08 154.144V65.7571C1.77648e-08 65.6078 0.0553376 65.4646 0.15384 65.359C0.252342 65.2534 0.38594 65.1941 0.525244 65.1941C0.664547 65.1941 0.798145 65.2534 0.896648 65.359C0.99515 65.4646 1.05049 65.6078 1.05049 65.7571V153.581H83.5138C83.6531 153.581 83.7867 153.64 83.8852 153.746C83.9837 153.851 84.039 153.994 84.039 154.144C84.039 154.293 83.9837 154.436 83.8852 154.542C83.7867 154.647 83.6531 154.707 83.5138 154.707Z" fill="#3F3D56"/>
<path d="M334.002 75.0275H320.667C320.086 75.0269 319.529 74.7792 319.118 74.3387C318.707 73.8982 318.476 73.301 318.475 72.678V52.1334C318.476 51.5105 318.707 50.9132 319.118 50.4728C319.529 50.0323 320.086 49.7846 320.667 49.7839H334.002C334.583 49.7847 335.14 50.0325 335.551 50.4729C335.962 50.9134 336.193 51.5105 336.193 52.1334V72.6781C336.193 73.3009 335.962 73.8981 335.551 74.3385C335.14 74.779 334.583 75.0268 334.002 75.0275ZM320.667 50.9099C320.365 50.9103 320.075 51.0393 319.86 51.2687C319.646 51.498 319.526 51.809 319.526 52.1334V72.6781C319.526 73.0025 319.646 73.3135 319.86 73.5428C320.075 73.7722 320.365 73.9012 320.667 73.9016H334.002C334.304 73.9012 334.594 73.7721 334.808 73.5428C335.022 73.3134 335.143 73.0024 335.143 72.6781V52.1334C335.143 51.8091 335.022 51.4981 334.808 51.2687C334.594 51.0393 334.304 50.9103 334.002 50.9099H320.667Z" fill="#3F3D56"/>
<path d="M361.309 75.0277H349.036C348.314 75.0268 347.622 74.719 347.111 74.1719C346.601 73.6247 346.314 72.8829 346.313 72.1092V34.897C346.314 34.1233 346.601 33.3815 347.111 32.8344C347.622 32.2873 348.314 31.9796 349.036 31.9788H361.309C362.03 31.9796 362.722 32.2873 363.233 32.8344C363.743 33.3815 364.03 34.1233 364.031 34.897V72.1092C364.03 72.8829 363.743 73.6247 363.233 74.1719C362.722 74.719 362.03 75.0268 361.309 75.0277ZM349.036 33.1047C348.592 33.1052 348.167 33.2942 347.854 33.6302C347.54 33.9662 347.364 34.4218 347.363 34.897V72.1092C347.364 72.5844 347.54 73.0401 347.854 73.3761C348.167 73.7122 348.592 73.9012 349.036 73.9018H361.309C361.752 73.9012 362.177 73.7122 362.49 73.3761C362.804 73.0401 362.98 72.5844 362.981 72.1092V34.897C362.98 34.4218 362.804 33.9662 362.49 33.6302C362.177 33.2942 361.752 33.1052 361.309 33.1047H349.036Z" fill="#3F3D56"/>
<path d="M332.095 53.8916H322.094V71.31H332.095V53.8916Z" fill="#047CFD"/>
<path d="M360.173 36.6523H350.172V70.3539H360.173V36.6523Z" fill="#047CFD"/>
<path d="M327.227 43.8012C329.837 43.8012 331.954 41.5328 331.954 38.7345C331.954 35.9362 329.837 33.6677 327.227 33.6677C324.616 33.6677 322.5 35.9362 322.5 38.7345C322.5 41.5328 324.616 43.8012 327.227 43.8012Z" fill="#047CFD"/>
<path d="M355.065 24.6601C357.675 24.6601 359.792 22.3916 359.792 19.5934C359.792 16.7951 357.675 14.5266 355.065 14.5266C352.454 14.5266 350.337 16.7951 350.337 19.5934C350.337 22.3916 352.454 24.6601 355.065 24.6601Z" fill="#047CFD"/>
</g>
<defs>
<clipPath id="clip0_588_65">
<rect width="412" height="413" fill="white"/>
</clipPath>
</defs>
</svg>
