<svg width="410" height="398" viewBox="0 0 410 398" fill="none" xmlns="http://www.w3.org/2000/svg">
<g clip-path="url(#clip0_561_95)">
<path d="M287.732 396.657C287.303 397.108 286.857 397.554 286.406 398H234.92C234.497 397.565 234.079 397.119 233.662 396.657C233.645 396.64 233.628 396.617 233.611 396.6C228.018 390.403 224.496 381.394 222.3 371.895C222.159 371.319 222.035 370.737 221.911 370.15C221.335 367.481 220.867 364.783 220.483 362.107C220.415 361.644 220.347 361.181 220.291 360.719C219.772 356.875 219.422 353.093 219.196 349.543C219.168 349.085 219.139 348.639 219.111 348.194C218.698 341.125 218.694 334.039 219.1 326.971C219.1 326.971 219.168 326.971 219.298 326.976C219.676 326.993 220.584 327.033 221.922 327.112C225.608 327.337 232.561 327.902 240.739 329.234C241.185 329.307 241.637 329.386 242.088 329.465C249.006 330.608 255.829 332.261 262.503 334.41C262.921 334.551 263.333 334.692 263.75 334.833L263.756 334.861L268.875 360.549L270.998 337.684C272.685 338.446 274.328 339.258 275.902 340.128C276.342 340.37 276.772 340.613 277.195 340.861C280.795 342.902 284.063 345.479 286.886 348.504C303.677 367.114 300.082 383.748 287.732 396.657Z" fill="#F2F2F2"/>
<path d="M266.216 364.084L267.109 365.073C277.426 376.62 283.583 387.339 285.48 397.087C285.51 397.229 285.531 397.37 285.561 397.512L284.901 397.637L284.265 397.749C282.329 387.12 275.121 376.133 266.125 366.059C265.838 365.731 265.547 365.399 265.246 365.076C261.4 360.844 257.265 356.785 253.084 352.99C252.763 352.693 252.433 352.396 252.102 352.099C246.558 347.118 240.979 342.612 236.005 338.813C235.654 338.543 235.299 338.278 234.948 338.017C226.502 331.622 219.948 327.383 218.487 326.454C218.311 326.338 218.212 326.277 218.189 326.262L218.535 325.71L218.535 325.7L218.886 325.144C218.908 325.159 219.243 325.363 219.849 325.758C222.123 327.224 228.234 331.258 235.836 336.993C236.178 337.253 236.533 337.519 236.884 337.789C240.924 340.867 245.343 344.395 249.805 348.256C250.928 349.224 252.022 350.19 253.089 351.155C253.424 351.448 253.755 351.745 254.076 352.041C258.596 356.144 262.643 360.158 266.216 364.084Z" fill="white"/>
<path d="M241.225 328.139C241.072 328.506 240.909 328.873 240.739 329.234C239.45 332.024 237.801 334.633 235.834 336.995C235.547 337.334 235.253 337.678 234.948 338.017C234.124 338.925 233.248 339.804 232.318 340.653C228.515 344.095 224.009 346.669 219.111 348.194C218.953 348.244 218.801 348.295 218.643 348.34C218.671 348.786 218.699 349.226 218.727 349.684C218.885 349.639 219.038 349.593 219.196 349.543C224.392 347.976 229.176 345.273 233.199 341.629C234.183 340.74 235.119 339.8 236.004 338.813C236.309 338.48 236.602 338.135 236.884 337.791C238.987 335.264 240.738 332.463 242.088 329.465C242.246 329.104 242.404 328.743 242.557 328.376C242.105 328.297 241.659 328.218 241.225 328.139Z" fill="white"/>
<path d="M262.734 333.411C262.666 333.744 262.587 334.077 262.503 334.41C260.972 340.755 257.714 346.552 253.088 351.157C252.767 351.479 252.439 351.795 252.101 352.099C252.005 352.195 251.897 352.297 251.796 352.387C247.588 356.186 242.534 358.924 237.053 360.373C231.573 361.822 225.826 361.941 220.29 360.718C220.161 360.696 220.025 360.662 219.896 360.634C219.963 361.097 220.025 361.565 220.099 362.028C220.228 362.056 220.353 362.084 220.483 362.107C226.158 363.281 232.031 363.102 237.624 361.583C243.217 360.064 248.374 357.248 252.676 353.364C252.812 353.24 252.953 353.121 253.083 352.991C253.421 352.675 253.749 352.359 254.076 352.043C258.81 347.306 262.157 341.364 263.756 334.861C263.84 334.523 263.919 334.184 263.993 333.845C263.575 333.699 263.157 333.552 262.734 333.411Z" fill="white"/>
<path d="M275.902 339.174C275.907 339.49 275.907 339.812 275.902 340.128C275.808 349.048 272.348 357.604 266.217 364.083C265.9 364.421 265.573 364.749 265.246 365.076C264.89 365.42 264.535 365.765 264.168 366.092C258.49 371.21 251.318 374.367 243.709 375.097C236.1 375.828 228.458 374.094 221.91 370.15C221.798 370.092 221.689 370.028 221.583 369.958C221.719 370.557 221.854 371.144 222.001 371.731C222.102 371.787 222.198 371.844 222.3 371.894C229.038 375.651 236.782 377.207 244.447 376.342C252.113 375.478 259.316 372.237 265.048 367.074C265.415 366.741 265.782 366.408 266.126 366.058C266.465 365.736 266.787 365.409 267.108 365.07C273.327 358.512 276.917 349.895 277.194 340.861C277.206 340.557 277.211 340.252 277.211 339.947C276.782 339.682 276.342 339.428 275.902 339.174Z" fill="white"/>
<path d="M161.798 93.4594H62.5829C61.7573 93.4585 60.9657 93.1301 60.3819 92.5462C59.7981 91.9623 59.4697 91.1707 59.4688 90.345V15.006C59.4697 14.1803 59.798 13.3886 60.3819 12.8047C60.9657 12.2208 61.7572 11.8923 62.5829 11.8914H184.364C185.19 11.8923 185.982 12.2208 186.566 12.8047C187.149 13.3886 187.478 14.1803 187.479 15.006V67.7772C187.471 74.5862 184.763 81.1141 179.948 85.9288C175.134 90.7435 168.607 93.4517 161.798 93.4594Z" fill="white"/>
<path d="M161.798 93.7416H62.5829C61.6825 93.7405 60.8192 93.3823 60.1825 92.7456C59.5458 92.1088 59.1876 91.2455 59.1865 90.345V15.006C59.1875 14.1054 59.5457 13.2421 60.1824 12.6053C60.8191 11.9684 61.6824 11.6102 62.5829 11.6091H184.364C185.265 11.6102 186.128 11.9684 186.765 12.6052C187.402 13.242 187.76 14.1054 187.761 15.006V67.7772C187.753 74.661 185.015 81.2606 180.148 86.1282C175.281 90.9957 168.681 93.7338 161.798 93.7416ZM62.5829 12.738C61.9817 12.7388 61.4053 12.9779 60.9802 13.4031C60.5551 13.8283 60.316 14.4047 60.3153 15.006V90.345C60.316 90.9462 60.5551 91.5226 60.9802 91.9478C61.4053 92.3729 61.9817 92.612 62.5829 92.6127H161.798C168.382 92.6053 174.694 89.9863 179.35 85.3303C184.006 80.6744 186.625 74.3617 186.632 67.7772V15.006C186.631 14.4047 186.392 13.8283 185.967 13.4031C185.542 12.9779 184.966 12.7388 184.364 12.738H62.5829Z" fill="#CCCCCC"/>
<path d="M160.291 37.3347H86.6559C85.9798 37.3347 85.3315 37.0661 84.8535 36.5881C84.3755 36.1101 84.1069 35.4617 84.1069 34.7856C84.1069 34.1096 84.3755 33.4612 84.8535 32.9832C85.3315 32.5051 85.9798 32.2366 86.6559 32.2366H160.291C160.967 32.2376 161.614 32.5066 162.091 32.9845C162.568 33.4625 162.836 34.1102 162.836 34.7856C162.836 35.461 162.568 36.1088 162.091 36.5868C161.614 37.0647 160.967 37.3337 160.291 37.3347Z" fill="#CCCCCC"/>
<path d="M160.291 54.895H86.6559C85.9798 54.895 85.3315 54.6264 84.8535 54.1484C84.3755 53.6704 84.1069 53.022 84.1069 52.3459C84.1069 51.6699 84.3755 51.0215 84.8535 50.5435C85.3315 50.0654 85.9798 49.7969 86.6559 49.7969H160.291C160.967 49.7969 161.616 50.0654 162.094 50.5435C162.572 51.0215 162.84 51.6699 162.84 52.3459C162.84 53.022 162.572 53.6704 162.094 54.1484C161.616 54.6264 160.967 54.895 160.291 54.895Z" fill="#CCCCCC"/>
<path d="M160.291 72.9571H86.6559C85.9798 72.9571 85.3315 72.6886 84.8535 72.2105C84.3755 71.7325 84.1069 71.0841 84.1069 70.4081C84.1069 69.732 84.3755 69.0836 84.8535 68.6056C85.3315 68.1276 85.9798 67.859 86.6559 67.859H160.291C160.967 67.859 161.616 68.1276 162.094 68.6056C162.572 69.0836 162.84 69.732 162.84 70.4081C162.84 71.0841 162.572 71.7325 162.094 72.2105C161.616 72.6886 160.967 72.9571 160.291 72.9571Z" fill="#CCCCCC"/>
<path d="M183.45 30.4444C191.857 30.4444 198.672 23.6292 198.672 15.2222C198.672 6.8152 191.857 0 183.45 0C175.044 0 168.229 6.8152 168.229 15.2222C168.229 23.6292 175.044 30.4444 183.45 30.4444Z" fill="#047CFD"/>
<path d="M181.373 23.1446C181.111 23.1446 180.851 23.0834 180.616 22.9658C180.381 22.8482 180.177 22.6775 180.019 22.4671L175.866 16.9299C175.733 16.752 175.636 16.5496 175.581 16.3342C175.526 16.1188 175.513 15.8947 175.545 15.6745C175.576 15.4544 175.651 15.2426 175.764 15.0513C175.877 14.86 176.027 14.6928 176.205 14.5594C176.383 14.426 176.585 14.329 176.801 14.2738C177.016 14.2186 177.24 14.2064 177.46 14.2379C177.681 14.2693 177.892 14.3438 178.084 14.4571C178.275 14.5704 178.442 14.7203 178.575 14.8982L181.292 18.5205L188.27 8.05347C188.519 7.6798 188.906 7.4204 189.347 7.33233C189.787 7.24425 190.244 7.33472 190.618 7.58383C190.992 7.83294 191.251 8.22029 191.339 8.66065C191.427 9.10102 191.337 9.55834 191.088 9.932L182.782 22.3905C182.632 22.6158 182.43 22.8019 182.193 22.933C181.956 23.0641 181.691 23.1365 181.421 23.1441C181.405 23.1443 181.389 23.1446 181.373 23.1446Z" fill="white"/>
<path d="M125.178 158.895H25.9629C19.1543 158.887 12.6268 156.179 7.8124 151.364C2.99801 146.549 0.289908 140.022 0.282227 133.213V80.441C0.283196 79.6153 0.611638 78.8236 1.1955 78.2397C1.77936 77.6558 2.57097 77.3274 3.39668 77.3264H125.178C126.004 77.3274 126.795 77.6558 127.379 78.2397C127.963 78.8236 128.291 79.6153 128.292 80.441V155.78C128.291 156.606 127.963 157.397 127.379 157.981C126.795 158.565 126.004 158.894 125.178 158.895Z" fill="white"/>
<path d="M125.178 159.177H25.9628C19.0795 159.169 12.4803 156.431 7.61299 151.564C2.7457 146.696 0.0078262 140.096 0 133.213V80.4412C0.00102029 79.5406 0.35921 78.6772 0.995985 78.0404C1.63276 77.4035 2.49612 77.0453 3.39665 77.0443H125.178C126.078 77.0453 126.942 77.4035 127.579 78.0404C128.215 78.6772 128.574 79.5406 128.575 80.4412V155.78C128.574 156.681 128.215 157.544 127.579 158.181C126.942 158.818 126.078 159.176 125.178 159.177ZM3.39665 78.1732C2.79541 78.1739 2.219 78.4131 1.79385 78.8383C1.36871 79.2634 1.12954 79.8399 1.12882 80.4412V133.213C1.13626 139.797 3.75508 146.11 8.41075 150.766C13.0664 155.422 19.3787 158.041 25.9628 158.048H125.178C125.779 158.047 126.356 157.808 126.781 157.383C127.206 156.958 127.445 156.381 127.446 155.78V80.4412C127.445 79.8399 127.206 79.2634 126.781 78.8383C126.356 78.4131 125.779 78.1739 125.178 78.1732H3.39665Z" fill="#CCCCCC"/>
<path d="M101.105 102.77H27.4693C26.7933 102.77 26.145 102.501 25.667 102.023C25.189 101.545 24.9204 100.897 24.9204 100.221C24.9204 99.5448 25.189 98.8964 25.667 98.4184C26.145 97.9403 26.7933 97.6718 27.4693 97.6718H101.105C101.781 97.6718 102.429 97.9403 102.907 98.4184C103.385 98.8964 103.654 99.5448 103.654 100.221C103.654 100.897 103.385 101.545 102.907 102.023C102.429 102.501 101.781 102.77 101.105 102.77Z" fill="#CCCCCC"/>
<path d="M101.105 120.33H27.4693C26.7933 120.33 26.145 120.062 25.667 119.583C25.189 119.105 24.9204 118.457 24.9204 117.781C24.9204 117.105 25.189 116.457 25.667 115.979C26.145 115.5 26.7933 115.232 27.4693 115.232H101.105C101.781 115.232 102.429 115.5 102.907 115.979C103.385 116.457 103.654 117.105 103.654 117.781C103.654 118.457 103.385 119.105 102.907 119.583C102.429 120.062 101.781 120.33 101.105 120.33Z" fill="#CCCCCC"/>
<path d="M101.105 138.392H27.4693C26.7933 138.392 26.145 138.124 25.667 137.646C25.189 137.168 24.9204 136.519 24.9204 135.843C24.9204 135.167 25.189 134.519 25.667 134.041C26.145 133.563 26.7933 133.294 27.4693 133.294H101.105C101.781 133.294 102.429 133.563 102.907 134.041C103.385 134.519 103.654 135.167 103.654 135.843C103.654 136.519 103.385 137.168 102.907 137.646C102.429 138.124 101.781 138.392 101.105 138.392Z" fill="#CCCCCC"/>
<path d="M125.316 96.4842C133.723 96.4842 140.537 89.669 140.537 81.262C140.537 72.855 133.723 66.0398 125.316 66.0398C116.91 66.0398 110.095 72.855 110.095 81.262C110.095 89.669 116.91 96.4842 125.316 96.4842Z" fill="#047CFD"/>
<path d="M123.239 89.1844C122.976 89.1844 122.717 89.1231 122.482 89.0056C122.247 88.888 122.042 88.7173 121.885 88.5069L117.732 82.9697C117.599 82.7918 117.502 82.5894 117.447 82.374C117.391 82.1586 117.379 81.9344 117.411 81.7143C117.442 81.4942 117.517 81.2824 117.63 81.0911C117.743 80.8998 117.893 80.7326 118.071 80.5992C118.249 80.4658 118.451 80.3688 118.667 80.3136C118.882 80.2584 119.106 80.2462 119.326 80.2776C119.546 80.3091 119.758 80.3836 119.949 80.4969C120.141 80.6102 120.308 80.7601 120.441 80.938L123.158 84.5602L130.136 74.0933C130.385 73.7196 130.772 73.4602 131.212 73.3721C131.653 73.284 132.11 73.3745 132.484 73.6236C132.857 73.8727 133.117 74.2601 133.205 74.7005C133.293 75.1408 133.202 75.5981 132.953 75.9718L124.648 88.4303C124.498 88.6556 124.296 88.8416 124.059 88.9727C123.822 89.1039 123.557 89.1762 123.286 89.1838C123.271 89.1841 123.255 89.1844 123.239 89.1844Z" fill="white"/>
<path d="M248.797 229.119H109.973C103.165 229.111 96.637 226.403 91.8226 221.588C87.0083 216.774 84.3002 210.246 84.2925 203.437V125.818C84.2937 124.754 84.7171 123.733 85.4697 122.981C86.2223 122.228 87.2427 121.805 88.307 121.803H248.797C249.862 121.805 250.882 122.228 251.635 122.981C252.387 123.733 252.811 124.754 252.812 125.818V225.104C252.811 226.168 252.387 227.189 251.635 227.941C250.882 228.694 249.862 229.118 248.797 229.119Z" fill="white"/>
<path d="M248.797 229.401H109.973C103.09 229.393 96.4905 226.655 91.6232 221.788C86.756 216.92 84.0181 210.32 84.0103 203.437V125.818C84.0115 124.679 84.4646 123.587 85.2702 122.781C86.0757 121.976 87.1678 121.522 88.307 121.521H248.797C249.937 121.522 251.029 121.976 251.834 122.781C252.64 123.587 253.093 124.679 253.094 125.818V225.104C253.093 226.243 252.64 227.335 251.834 228.141C251.029 228.946 249.937 229.4 248.797 229.401ZM88.307 122.65C87.4671 122.651 86.6619 122.985 86.068 123.579C85.4741 124.173 85.1401 124.978 85.1391 125.818V203.437C85.1465 210.021 87.7653 216.334 92.421 220.99C97.0767 225.646 103.389 228.265 109.973 228.272H248.797C249.637 228.271 250.443 227.937 251.036 227.343C251.63 226.749 251.964 225.944 251.965 225.104V125.818C251.964 124.978 251.63 124.173 251.036 123.579C250.442 122.985 249.637 122.651 248.797 122.65H88.307Z" fill="#CCCCCC"/>
<path d="M217.073 155.244H120.032C119.59 155.245 119.153 155.158 118.745 154.99C118.337 154.821 117.966 154.574 117.654 154.262C117.341 153.95 117.094 153.579 116.925 153.171C116.755 152.764 116.668 152.326 116.668 151.885C116.668 151.443 116.755 151.006 116.925 150.598C117.094 150.19 117.341 149.82 117.654 149.508C117.966 149.196 118.337 148.949 118.745 148.78C119.153 148.611 119.59 148.525 120.032 148.526H217.073C217.514 148.525 217.951 148.611 218.359 148.78C218.768 148.949 219.138 149.196 219.451 149.508C219.763 149.82 220.011 150.19 220.18 150.598C220.349 151.006 220.436 151.443 220.436 151.885C220.436 152.326 220.349 152.764 220.18 153.171C220.011 153.579 219.763 153.95 219.451 154.262C219.138 154.574 218.768 154.821 218.359 154.99C217.951 155.158 217.514 155.245 217.073 155.244Z" fill="#CCCCCC"/>
<path d="M217.073 178.386H120.032C119.59 178.387 119.153 178.3 118.745 178.132C118.337 177.963 117.966 177.716 117.654 177.404C117.341 177.092 117.094 176.721 116.925 176.313C116.755 175.905 116.668 175.468 116.668 175.027C116.668 174.585 116.755 174.148 116.925 173.74C117.094 173.332 117.341 172.962 117.654 172.65C117.966 172.338 118.337 172.09 118.745 171.922C119.153 171.753 119.59 171.667 120.032 171.667H217.073C217.964 171.667 218.818 172.021 219.448 172.651C220.078 173.281 220.432 174.136 220.432 175.027C220.432 175.918 220.078 176.772 219.448 177.402C218.818 178.032 217.964 178.386 217.073 178.386Z" fill="#CCCCCC"/>
<path d="M217.073 202.189H120.032C119.141 202.189 118.287 201.835 117.657 201.205C117.027 200.575 116.673 199.721 116.673 198.83C116.673 197.939 117.027 197.085 117.657 196.455C118.287 195.825 119.141 195.471 120.032 195.471H217.073C217.514 195.47 217.951 195.557 218.36 195.725C218.768 195.894 219.138 196.141 219.451 196.453C219.763 196.765 220.011 197.136 220.18 197.543C220.349 197.951 220.436 198.388 220.436 198.83C220.436 199.272 220.349 199.709 220.18 200.117C220.011 200.524 219.763 200.895 219.451 201.207C219.138 201.519 218.768 201.766 218.36 201.935C217.951 202.103 217.514 202.19 217.073 202.189Z" fill="#CCCCCC"/>
<path d="M249.301 147.149C259.943 147.149 268.57 138.522 268.57 127.88C268.57 117.237 259.943 108.61 249.301 108.61C238.66 108.61 230.033 117.237 230.033 127.88C230.033 138.522 238.66 147.149 249.301 147.149Z" fill="#047CFD"/>
<path d="M246.673 137.909C246.341 137.909 246.012 137.831 245.715 137.682C245.417 137.533 245.158 137.317 244.959 137.051L239.702 130.042C239.533 129.816 239.41 129.56 239.34 129.287C239.271 129.015 239.255 128.731 239.295 128.452C239.335 128.174 239.429 127.906 239.573 127.663C239.716 127.421 239.906 127.21 240.131 127.041C240.356 126.872 240.612 126.749 240.885 126.679C241.158 126.609 241.441 126.594 241.72 126.634C241.999 126.674 242.267 126.768 242.509 126.911C242.751 127.055 242.963 127.244 243.131 127.47L246.571 132.055L255.403 118.805C255.719 118.333 256.209 118.005 256.766 117.894C257.323 117.783 257.902 117.898 258.374 118.213C258.847 118.528 259.175 119.018 259.287 119.575C259.399 120.131 259.285 120.71 258.97 121.183L248.457 136.954C248.267 137.239 248.011 137.475 247.711 137.641C247.411 137.807 247.076 137.898 246.733 137.908C246.713 137.908 246.693 137.909 246.673 137.909Z" fill="white"/>
<path d="M299.219 382.617L291.38 385.238L277.537 356.247L289.107 352.377L299.219 382.617Z" fill="#FFB6B6"/>
<path d="M303.76 389.547L278.483 396.308L278.376 395.988C277.497 393.36 277.694 392.24 278.931 389.76C279.536 388.539 280.377 387.449 281.406 386.555C282.434 385.661 283.63 384.98 284.924 384.551L284.924 384.551L288.37 379.504L298.156 380.126L300.363 379.388L303.76 389.547Z" fill="#2F2E41"/>
<path d="M318.587 389.988H310.321L306.389 358.102L318.589 358.103L318.587 389.988Z" fill="#FFB6B6"/>
<path d="M320.695 396.308L294.042 396.307V395.969C294.042 393.198 295.121 392.286 297.081 390.327C298.042 389.36 299.185 388.594 300.444 388.073C301.703 387.551 303.053 387.284 304.416 387.288H304.417L309.285 383.594L318.369 387.289L320.696 387.289L320.695 396.308Z" fill="#2F2E41"/>
<path d="M255.677 134.516C255.848 135.382 256.206 136.2 256.726 136.913C257.247 137.625 257.917 138.215 258.691 138.641C259.464 139.066 260.321 139.317 261.202 139.376C262.082 139.434 262.965 139.299 263.788 138.979L273.331 148.942L280.799 144.62L267.125 130.739C266.497 129.392 265.396 128.323 264.032 127.734C262.668 127.145 261.135 127.076 259.724 127.542C258.313 128.008 257.121 128.975 256.376 130.26C255.63 131.545 255.381 133.059 255.677 134.516Z" fill="#FFB6B6"/>
<path d="M317.436 184.613L321.738 180.162L296.86 157.12L271.821 134.761L264.886 144.561L291.125 169.054L317.436 184.613Z" fill="#E4E4E4"/>
<path d="M302.15 335.828C302.15 330.235 302.261 326.245 302.35 323.038C302.61 313.655 302.68 311.133 299.089 294.975L298.167 290.825L292.729 307.14C290.993 312.344 290.105 317.794 290.101 323.28L298.485 373.59H281.349L268.798 319.2L268.792 302.563C267.686 301.419 267.068 299.89 267.068 298.298C267.068 296.707 267.686 295.178 268.792 294.033L272.962 269.108L277.182 235.516H323.411C323.411 235.516 331.57 252.428 323.462 269.204L323.461 335.849L319.272 381.93H306.34L302.15 335.828Z" fill="#2F2E41"/>
<path d="M320.585 239.582L277.344 235.979L277.119 235.96L280.57 173.841C280.773 169.936 282.143 166.181 284.504 163.063C286.864 159.944 290.106 157.607 293.81 156.352V152.004C293.812 150.928 294.239 149.897 295 149.136C295.761 148.375 296.793 147.947 297.868 147.946H304.186C304.941 147.944 305.68 148.152 306.322 148.549C306.963 148.946 307.481 149.514 307.816 150.19L310.906 156.369L322.588 165.715C328.358 170.332 323.714 216.615 323.464 219.057L326.29 233.185C326.445 233.963 326.426 234.765 326.235 235.534C326.043 236.303 325.684 237.02 325.182 237.633C324.68 238.247 324.049 238.742 323.333 239.082C322.617 239.422 321.835 239.6 321.043 239.602C320.891 239.601 320.738 239.595 320.585 239.582Z" fill="#E4E4E4"/>
<path d="M274.793 255.984C275.477 255.426 276.029 254.725 276.413 253.93C276.796 253.135 277 252.265 277.011 251.383C277.022 250.5 276.839 249.626 276.476 248.821C276.112 248.017 275.577 247.302 274.907 246.727L279.197 233.615L271.865 229.064L266.067 247.667C265.175 248.856 264.751 250.33 264.874 251.811C264.998 253.292 265.66 254.676 266.736 255.702C267.811 256.727 269.225 257.322 270.71 257.374C272.195 257.426 273.648 256.932 274.793 255.984Z" fill="#FFB6B6"/>
<path d="M289.872 166.843L283.919 164.858L275.321 203.222L267.402 241.375L279.313 243.127L288.549 202.56L289.872 166.843Z" fill="#E4E4E4"/>
<path d="M296.374 143.976C304.217 143.976 310.575 137.617 310.575 129.773C310.575 121.929 304.217 115.57 296.374 115.57C288.53 115.57 282.172 121.929 282.172 129.773C282.172 137.617 288.53 143.976 296.374 143.976Z" fill="#FFB6B6"/>
<path d="M277.265 122.818C277.396 121.472 277.782 120.163 278.401 118.961C279.065 120.405 281.136 120.655 282.554 119.937C283.971 119.218 284.921 117.853 285.934 116.629C288.606 113.398 292.282 110.777 296.448 110.3C300.614 109.822 305.205 111.925 306.78 115.812C307.486 114.831 308.993 114.722 310.059 115.292C311.089 115.941 311.892 116.894 312.359 118.018C313.408 120.169 314 122.514 314.1 124.905C314.199 127.296 313.803 129.682 312.937 131.912C311.183 136.351 306.851 142.332 302.382 144.008C299.668 145.025 296.928 143.723 294.042 144.008C294.193 140.858 294.804 136.972 294.955 133.823C295.038 132.098 295.05 130.168 293.872 128.906C293.51 128.563 293.078 128.303 292.605 128.146C292.133 127.988 291.631 127.937 291.136 127.994C290.641 128.052 290.165 128.218 289.741 128.48C289.318 128.742 288.957 129.094 288.684 129.511C288.538 128.532 288.208 127.59 287.71 126.734C287.454 126.309 287.085 125.965 286.645 125.739C286.204 125.513 285.709 125.415 285.215 125.456C284.01 125.653 283.266 126.89 282.16 127.408C281.532 127.66 280.842 127.714 280.183 127.563C279.523 127.411 278.926 127.062 278.47 126.562C278.028 126.051 277.693 125.456 277.486 124.813C277.279 124.169 277.203 123.491 277.265 122.818Z" fill="#2F2E41"/>
<path opacity="0.1" d="M298.211 202.388L281.533 235.748H294.042L298.211 202.388Z" fill="black"/>
</g>
<defs>
<clipPath id="clip0_561_95">
<rect width="410" height="398" fill="white"/>
</clipPath>
</defs>
</svg>
