<svg width="467" height="421" viewBox="0 0 467 421" fill="none" xmlns="http://www.w3.org/2000/svg">
<g clip-path="url(#clip0_561_29)">
<path opacity="0.1" d="M455.644 244.048C455.644 244.368 455.644 244.688 455.644 245.003C455.594 250.518 455.297 256.019 454.756 261.506C454.758 261.54 454.758 261.573 454.756 261.606C454.713 262.062 454.665 262.513 454.618 262.969C454.537 263.74 454.452 264.505 454.357 265.276C453.249 274.657 451.416 283.916 448.878 292.952C445.479 305.162 440.672 316.84 434.577 327.7C432.702 331.02 430.705 334.234 428.586 337.341C427.455 338.987 426.3 340.597 425.108 342.18C424.271 343.288 423.419 344.379 422.551 345.452L422.01 346.112C417.443 351.645 412.521 356.806 407.281 361.557C398.728 369.379 389.52 376.184 380.165 382.496C379.633 382.858 379.096 383.214 378.559 383.545C378.522 383.575 378.482 383.601 378.44 383.623C365.726 392.106 352.541 399.76 338.957 405.889C324.086 412.615 308.729 417.507 292.974 419.646C271.014 422.623 248.787 420.201 226.96 416.039C208.806 412.597 190.873 407.869 173.27 401.883L170.372 400.882C168.87 400.354 167.37 399.816 165.872 399.267C156.823 395.965 147.874 392.295 139.027 388.258C116.808 378.16 95.5815 365.584 75.6784 350.726C73.1444 348.845 70.6468 346.923 68.1856 344.959C64.7457 342.226 61.3469 339.412 57.9894 336.518L55.9178 334.746C47.131 327.154 38.8986 318.812 31.2966 309.796C21.0718 297.518 12.3342 283.667 6.58985 267.855C5.68394 265.37 4.85405 262.838 4.10017 260.259L4.0289 260.002C3.6488 258.691 3.2972 257.381 2.97412 256.017C2.49899 254.067 2.08246 252.092 1.72453 250.093C1.64851 249.711 1.58199 249.328 1.52022 248.94C0.384607 242.212 -0.116951 235.372 0.0235616 228.53C0.142394 222.535 0.778777 216.567 1.92408 210.705C3.09633 204.629 4.90278 198.723 7.3073 193.106C9.48026 188.055 12.2489 183.342 15.5413 179.092C17.8548 176.12 20.4566 173.438 23.3002 171.092C28.4553 166.856 34.1711 163.904 40.096 161.571C42.8802 160.47 45.7025 159.506 48.539 158.609C50.5488 157.97 52.5681 157.361 54.5779 156.764L60.5075 154.997C64.3086 153.854 68.1096 152.68 71.8536 151.411C82.0594 147.972 92.0609 143.809 101.312 137.602C102.775 136.621 104.267 135.547 105.759 134.393C107.659 132.936 109.531 131.353 111.384 129.643C113.256 127.913 115.09 126.063 116.839 124.102C117.11 123.798 117.376 123.494 117.642 123.185C119.067 121.528 120.45 119.793 121.733 117.989C122.36 117.108 122.968 116.212 123.548 115.3C124.351 114.036 125.111 112.752 125.814 111.431C129.34 104.825 131.516 97.5376 131.259 89.8571C131.222 88.5916 131.118 87.3296 130.95 86.0771C130.333 81.4479 129.739 76.9287 129.302 72.5092C127.468 54.2281 128.242 37.6508 140.676 22.0749C156.137 2.71386 180.402 -1.23385 202.49 0.312729C266.353 4.76898 324.489 45.001 375.58 92.8978C379.999 97.036 384.364 101.23 388.675 105.48C389.761 106.55 390.849 107.626 391.939 108.71C400.016 116.736 407.97 125.061 415.377 133.979C415.976 134.703 416.574 135.426 417.163 136.155C417.525 136.606 417.89 137.051 418.247 137.507C420.556 140.391 422.797 143.344 424.97 146.368C430.791 154.394 435.931 162.993 440.326 172.056C447.056 186.281 451.612 201.633 453.81 217.494C454.637 223.254 455.181 229.06 455.44 234.884C455.521 236.599 455.573 238.318 455.601 240.033C455.601 240.583 455.601 241.128 455.601 241.679C455.649 242.476 455.649 243.252 455.644 244.048Z" fill="#047CFD"/>
<path d="M187.191 235.258L179.589 384.564L187.191 384.674L193.368 233.161L187.191 235.258Z" fill="#3F3D56"/>
<path d="M159.159 310.905H65.0835V333.448H159.159V310.905Z" fill="#047CFD"/>
<path d="M165.335 330.821V344.976H68.1572C64.7173 342.243 61.3185 339.43 57.9609 336.536V330.821H165.335Z" fill="#3F3D56"/>
<path d="M184.74 298.605C184.474 299.963 184.127 301.305 183.761 302.642C182.683 306.506 181.385 310.317 181.134 314.333C180.796 319.639 182.084 325.809 178.758 329.663C177.903 330.659 176.786 331.403 176.021 332.467C175.903 332.634 175.796 332.81 175.698 332.992C175.014 334.24 174.933 335.76 174.924 337.186C174.932 340.227 175.111 343.265 175.461 346.282C176.587 356.662 178.81 367.064 175.888 376.862C175.359 378.562 174.742 380.226 174.04 381.848C172.615 385.308 171.061 388.721 170.595 392.47C170.253 395.248 170.358 398.111 170.339 400.936C168.837 400.409 167.338 399.87 165.839 399.322C156.79 396.019 147.841 392.349 138.994 388.312C139.018 388.171 139.042 388.024 139.061 387.882C139.74 383.216 138.809 378.445 137.678 373.895C135.303 364.254 131.939 354.707 129.948 344.997C129.146 341.205 128.62 337.348 128.375 333.464C128.318 332.593 128.285 331.718 128.28 330.842C128.257 329.699 128.28 328.556 128.323 327.403C128.423 325.102 128.513 322.37 126.845 320.97C125.928 320.21 124.717 320.079 123.648 319.618C121.586 318.732 120.175 316.677 118.54 315.03C117.76 314.196 116.809 313.583 115.766 313.245C114.724 312.907 113.623 312.854 112.558 313.091C101.877 315.791 94.0282 325.788 84.0885 330.842C83.7037 331.041 83.3188 331.23 82.9292 331.408C81.6434 331.928 80.4197 332.618 79.285 333.464C78.4876 334.074 77.9093 334.974 77.6505 336.006C77.3987 337.118 77.6172 338.282 77.7408 339.424C77.9407 341.283 77.8685 343.164 77.527 344.997C77.3981 345.708 77.2283 346.408 77.0186 347.094C76.6385 348.337 76.1301 349.553 75.6455 350.764C73.1114 348.884 70.6138 346.962 68.1527 344.997C64.7127 342.264 61.314 339.451 57.9564 336.557L55.9181 334.748C47.1313 327.156 38.8989 318.814 31.2969 309.798C32.3089 306.653 33.7723 303.727 34.4755 300.503C34.8746 298.652 35.0219 296.728 35.573 294.93C36.2086 293.066 37.0926 291.317 38.1958 289.74C42.236 283.523 47.1694 278.076 52.8012 273.614C58.6881 268.958 65.4872 265.225 70.7849 259.941C72.9348 257.864 74.7881 255.441 76.2821 252.753C76.3724 252.591 76.4579 252.418 76.534 252.229C76.9475 251.28 77.234 250.27 77.3844 249.23C77.7645 246.881 77.7075 244.302 77.8976 242.048C84.3512 243.28 90.9304 243.499 97.4396 242.698C105.018 241.759 112.43 239.437 120.008 238.535C120.578 238.462 121.153 238.404 121.728 238.352C124.156 238.137 126.589 238.089 129.026 238.121C131.065 238.121 133.103 238.22 135.141 238.294L157.582 239.133C160.066 239.227 162.604 239.332 164.918 240.333C167.664 241.523 169.864 243.893 171.626 246.499C171.85 246.834 172.073 247.17 172.282 247.516C173.732 249.85 174.896 252.387 175.741 255.06C175.831 255.332 175.917 255.584 175.998 255.883C176.211 256.612 176.397 257.346 176.563 258.09C176.691 258.672 176.805 259.254 176.91 259.841C177.432 262.746 177.741 265.713 178.568 268.518C178.625 268.722 178.687 268.927 178.753 269.126C179.746 272.198 181.395 274.95 182.64 277.902C183.537 280.039 184.222 282.276 184.683 284.576C185.614 289.194 185.633 293.978 184.74 298.605Z" fill="#35323E"/>
<path d="M116.53 110.987C114.525 109.225 111.617 110.515 109.27 111.653C107.302 112.612 105.276 113.419 103.207 114.069C102.784 114.249 102.325 114.302 101.877 114.221C100.927 113.97 100.528 112.727 99.8198 111.972C98.5892 110.667 96.5746 110.976 94.9877 111.684C93.4007 112.392 91.8328 113.414 90.1319 113.257C88.3169 113.1 86.7394 111.621 84.9054 111.574C81.6746 111.49 78.9616 115.883 75.9065 114.719C74.044 114.012 72.5806 111.338 70.7466 112.098C69.3212 112.696 69.1929 114.872 68.3329 116.292C67.3209 117.949 65.3491 118.416 63.6624 119.15C58.3457 121.467 54.825 128.004 55.5187 134.264C55.9035 137.719 57.4192 140.886 58.4217 144.183C61.396 153.772 60.3745 164.588 64.1233 173.836C64.5984 173.343 64.8645 173.159 65.3253 172.672C64.14 175.384 63.9114 178.486 64.6839 181.374C65.0783 182.827 65.7197 184.179 66.2043 185.6C66.7078 187.194 67.1141 188.822 67.4207 190.476L71.5543 210.597C73.1697 218.461 74.7899 226.325 75.0702 234.378C75.2448 239.614 74.8814 244.855 73.987 250.001C81.475 248.632 88.3264 244.968 95.9142 245.015C98.6984 245.015 101.459 245.539 104.219 245.959C112.268 247.201 120.386 247.809 128.513 247.778C129.777 247.857 131.042 247.661 132.238 247.201C133.283 246.708 134.138 245.833 135.127 245.198C137.06 243.94 139.403 243.626 141.631 243.626C151.794 243.421 161.587 247.526 171.683 248.973C175.669 239.741 175.907 228.679 172.847 219.027C171.94 216.159 170.719 213.365 170.357 210.351C170.212 208.497 170.174 206.636 170.243 204.778C170.228 200.02 169.451 195.302 167.949 190.843C167.359 189.097 166.651 187.32 166.713 185.458C166.775 183.597 167.606 181.862 168.424 180.216C170.082 176.861 171.75 173.474 174.092 170.643C176.491 167.717 179.494 165.489 182.464 163.303L189.795 157.872C188.792 150.883 187.5 143.523 184.816 137.095C182.131 130.668 178.116 124.759 172.686 121C170.855 119.785 168.938 118.733 166.956 117.855C164.181 116.565 161.292 115.427 158.284 115.233C154.863 115.018 151.495 116.03 148.117 116.659C137.483 118.636 124.968 118.395 116.53 110.987Z" fill="#047CFD"/>
<path d="M196.694 232.26L193.206 237.119L186.63 246.278L179.028 256.863L176.905 259.82H172.785L70.7797 259.951L6.89852 260.03H4.04775C3.66764 258.719 3.31605 257.408 2.99296 256.045C2.51783 254.095 2.1013 252.12 1.74337 250.121C1.66735 249.738 1.60083 249.356 1.53906 248.968L24.7159 232.249L33.4298 232.197L60.0845 232.029L74.9703 231.934H77.6881H79.3938L89.3145 231.877L164.927 231.4L168.794 231.374H170.471L174.914 231.347L191.444 231.242L194.617 229.911L194.85 230.183L196.694 232.26Z" fill="#3F3D56"/>
<path d="M195.269 229.638L194.874 230.162L192.28 233.534L186.939 240.49L175.741 255.06L76.5337 252.265L1.72453 250.168C1.64851 249.786 1.58199 249.403 1.52022 249.015C0.384607 242.287 -0.116951 235.447 0.0235616 228.605L8.31932 223.919L10.2198 222.839L25.0106 214.45L37.9912 207.111L71.8489 211.965L79.3464 213.04L82.7389 213.522L87.704 214.235L88.1221 214.298L165.982 225.439L174.586 226.671L179.637 227.394L195.202 229.628L195.269 229.638Z" fill="#504F60"/>
<path d="M179.114 254.803L179.034 256.863L178.558 268.497L176.002 332.457L175.461 346.282L174.035 381.848L173.232 401.938L170.334 400.936C168.833 400.409 167.333 399.87 165.834 399.322L172.786 259.867L172.933 256.942L175.993 255.893L179.114 254.803Z" fill="#3F3D56"/>
<path d="M7.11774 254.651L6.90393 260.035L6.59034 267.899C5.68443 265.414 4.85454 262.882 4.10067 260.302L4.0294 260.046C3.64929 258.735 3.2977 257.424 2.97461 256.061L7.11774 254.651Z" fill="#3F3D56"/>
<path d="M131.364 175.382C143.434 175.382 153.22 160.829 153.22 142.878C153.22 124.926 143.434 110.373 131.364 110.373C119.293 110.373 109.508 124.926 109.508 142.878C109.508 160.829 119.293 175.382 131.364 175.382Z" fill="#A1616A"/>
<path opacity="0.1" d="M131.364 175.382C143.434 175.382 153.22 160.829 153.22 142.878C153.22 124.926 143.434 110.373 131.364 110.373C119.293 110.373 109.508 124.926 109.508 142.878C109.508 160.829 119.293 175.382 131.364 175.382Z" fill="black"/>
<path d="M134.452 156.771C151.246 156.771 164.861 141.749 164.861 123.218C164.861 104.687 151.246 89.6649 134.452 89.6649C117.658 89.6649 104.044 104.687 104.044 123.218C104.044 141.749 117.658 156.771 134.452 156.771Z" fill="#A1616A"/>
<path d="M135.056 71.5044C133.199 71.6677 131.356 71.9778 129.539 72.4323C124.731 73.722 120.574 76.5845 116.526 79.3946C114.711 80.658 112.843 81.974 111.717 83.8298C109.693 87.1589 110.477 91.395 109.342 95.091C108.753 96.9889 107.669 98.6927 106.752 100.46C104.229 105.304 102.908 110.625 101.611 115.894C101.345 116.984 101.269 118.463 102.348 118.882C102.969 119.025 103.615 118.944 104.191 118.651C107.598 117.409 111.926 117.052 114.454 119.574C116.982 122.096 116.768 126.568 119.776 128.487C123.22 130.704 128.599 128.025 131.725 130.641C133.065 131.763 133.55 133.562 134.647 134.914C137.203 138.06 142.121 137.908 146.212 137.273C148.559 136.906 151.438 136.66 152.864 138.479C153.548 139.339 153.743 140.519 154.536 141.294C155.961 142.7 158.57 141.987 159.962 140.545C161.354 139.103 162.019 137.153 163.179 135.533C165.435 132.387 169.403 130.673 171.731 127.564C173.679 124.943 174.268 121.661 174.8 118.494L176.782 106.756C177.585 101.996 178.316 96.7949 175.888 92.6008C175.024 91.0909 173.784 89.7907 173.038 88.2284C172.539 87.1799 172.258 86.0737 171.679 85.0828C170.991 84.0506 170.17 83.1356 169.241 82.3672L164.552 78.0839C162.948 76.5353 161.234 75.1327 159.425 73.8898C152.731 69.5856 142.705 70.718 135.056 71.5044Z" fill="#464353"/>
<path d="M34.8982 157.935C33.7722 159.256 32.7316 160.682 31.5248 161.919C30.4632 162.961 29.353 163.941 28.1989 164.855C26.3364 166.393 24.5151 167.985 22.7349 169.631C20.8777 171.251 19.1972 173.104 17.7271 175.151C15.1899 178.91 13.9878 183.587 11.6121 187.472C9.51207 190.916 6.55201 193.637 4.41868 197.055C3.48278 198.492 2.78763 200.103 2.36612 201.81C2.05149 203.463 1.90961 205.15 1.94325 206.838C1.90049 209.606 1.86248 212.406 2.37562 215.116C2.88876 217.827 4.01482 220.49 5.94384 222.267C7.73508 223.919 10.049 224.679 12.3153 225.308C13.4842 225.628 14.748 225.926 15.8598 225.418C16.6733 224.965 17.3795 224.307 17.9219 223.499L23.7042 216.159C27.5717 211.231 31.5913 206.198 36.8985 203.315C38.5615 202.418 40.3147 201.742 41.9824 200.872C49.0523 197.113 54.0507 189.417 55.9892 181.028C56.4644 178.979 56.7684 176.887 57.0773 174.795L57.9135 169.06C57.9777 168.772 57.9777 168.472 57.9135 168.184C57.7826 167.861 57.5718 167.585 57.3053 167.387C53.2777 163.798 49.5067 159.872 46.0258 155.644C45.199 154.637 44.4246 153.258 43.4696 152.414C42.2722 151.366 42.3625 151.444 40.9229 152.414C38.7083 153.961 36.6834 155.817 34.8982 157.935Z" fill="#A1616A"/>
<path d="M74.4531 196.101C74.4051 195.979 74.3352 195.87 74.2477 195.778C74.1602 195.687 74.0569 195.616 73.944 195.57C73.8311 195.524 73.7109 195.504 73.5906 195.51C73.4704 195.517 73.3526 195.55 73.2443 195.608C73.136 195.666 73.0395 195.748 72.9604 195.848C72.8814 195.948 72.8215 196.065 72.7845 196.191C72.7474 196.317 72.7338 196.451 72.7446 196.583C72.7554 196.715 72.7903 196.844 72.8472 196.961L72.3721 197.218L86.5404 229.261L89.1014 227.882L74.933 195.818L74.4531 196.101Z" fill="#3F3D56"/>
<path opacity="0.04" d="M34.8982 157.935C33.7722 159.256 32.7316 160.682 31.5248 161.919C30.4632 162.961 29.353 163.941 28.1989 164.855C26.3364 166.393 24.5151 167.985 22.7349 169.631C20.8777 171.251 19.1972 173.104 17.7271 175.151C15.1899 178.91 13.9878 183.587 11.6121 187.472C9.51207 190.916 6.55201 193.637 4.41868 197.055C3.48278 198.492 2.78763 200.103 2.36612 201.81C2.05149 203.463 1.90961 205.15 1.94325 206.838C1.90049 209.606 1.86248 212.406 2.37562 215.116C2.88876 217.827 4.01482 220.49 5.94384 222.267C7.73508 223.919 10.049 224.679 12.3153 225.308C13.4842 225.628 14.748 225.926 15.8598 225.418C16.6733 224.965 17.3795 224.307 17.9219 223.499L23.7042 216.159C27.5717 211.231 31.5913 206.198 36.8985 203.315C38.5615 202.418 40.3147 201.742 41.9824 200.872C49.0523 197.113 54.0507 189.417 55.9892 181.028C56.4644 178.979 56.7684 176.887 57.0773 174.795L57.9135 169.06C57.9777 168.772 57.9777 168.472 57.9135 168.184C57.7826 167.861 57.5718 167.585 57.3053 167.387C53.2777 163.798 49.5067 159.872 46.0258 155.644C45.199 154.637 44.4246 153.258 43.4696 152.414C42.2722 151.366 42.3625 151.444 40.9229 152.414C38.7083 153.961 36.6834 155.817 34.8982 157.935Z" fill="black"/>
<path d="M198.694 216.988C198.647 220.333 198.528 223.777 197.269 226.828C196.727 228.149 195.886 229.45 194.627 229.885C193.865 230.079 193.077 230.111 192.304 229.979C182.982 229.075 173.589 229.897 164.513 232.412C166.937 227.064 165.545 220.652 166.214 214.718C166.4 213.098 166.737 211.504 166.865 209.879C167.341 204.112 165.103 198.513 164.076 192.819C163.185 187.891 163.185 182.817 164.076 177.888C164.251 176.62 164.646 175.4 165.24 174.297C165.936 173.224 166.851 172.345 167.911 171.733C171.759 169.316 176.297 169.039 180.62 169.358C183.533 169.573 189.372 169.269 191.8 171.246C194.456 173.411 195.297 180.682 196.015 184.043C197.089 189.197 197.819 194.431 198.2 199.703C198.666 205.449 198.766 211.221 198.694 216.988Z" fill="#A1616A"/>
<path d="M28.4985 228.595L45.6032 241.177L122.574 238.032L71.7353 228.595H28.4985Z" fill="white"/>
<path d="M51.0527 128.623C48.2447 131.354 45.8643 134.573 43.2036 137.483C39.5546 141.478 35.4067 144.875 31.2778 148.257C32.7582 148.713 34.1058 149.586 35.1885 150.79C36.2713 151.994 37.0521 153.488 37.4545 155.125C37.6351 155.895 37.7253 156.697 37.9296 157.452C38.4048 159.24 39.4501 160.781 40.5714 162.171C45.3892 168.163 52.1313 172.598 54.9725 179.996C55.0653 180.356 55.2663 180.67 55.5427 180.887C55.7739 181 56.0307 181.033 56.2791 180.981C58.8496 180.682 60.8166 178.397 62.4558 176.174C65.8767 171.455 68.8463 166.244 70.533 160.488C72.2197 154.731 72.4905 148.367 70.6518 142.663C69.7348 139.821 68.3189 137.21 66.9125 134.626C65.6804 132.365 64.4514 130.107 63.2255 127.852C62.5841 126.662 61.7669 124.245 60.5078 123.658C57.79 122.369 52.7964 126.699 51.0527 128.623Z" fill="#047CFD"/>
<path d="M190.997 162.506L195.041 172.991C190.639 171.294 185.935 170.778 181.316 171.484C176.698 172.191 172.298 174.1 168.481 177.055C166.176 178.874 164.062 181.16 163.022 184.064C162.508 184.172 161.977 184.117 161.491 183.907C161.004 183.696 160.581 183.338 160.271 182.874C159.662 181.933 159.31 180.82 159.254 179.665C158.879 175.639 160.261 171.691 161.63 167.927C162.266 166.166 162.922 164.367 164.053 162.936C165.183 161.505 166.685 160.561 168.186 159.67C172.976 156.747 177.993 154.301 183.177 152.362C185.362 151.581 187.652 151.596 188.878 153.851C190.299 156.54 189.885 159.644 190.997 162.506Z" fill="#047CFD"/>
<path d="M28.5982 193.967C29.6102 194.859 30.4987 195.912 31.5393 196.762C32.6397 197.605 33.8107 198.33 35.0362 198.927L39.721 201.412C41.1727 202.244 42.6918 202.925 44.2585 203.446C46.2635 204.038 48.3683 204.096 50.3829 204.647C52.9248 205.339 55.2482 206.78 57.7522 207.614C60.2561 208.448 63.1876 208.584 65.2782 206.849C66.5848 205.763 67.5731 203.97 69.1933 203.703C70.2386 203.551 71.2458 204.107 72.1771 204.647L84.3689 211.719C86.0129 212.673 87.7518 213.732 88.6118 215.551C89.4718 217.37 88.8921 220.133 87.0819 220.605C86.451 220.685 85.8164 220.725 85.1814 220.726C84.5542 220.81 83.87 221.219 83.7845 221.916C83.7813 222.349 83.8848 222.775 84.0838 223.148C84.6302 224.532 84.7918 226.189 84.1551 227.531C83.5184 228.873 81.9553 229.706 80.7057 229.104C80.9195 231.132 78.9192 232.553 77.1374 233.093C72.6427 234.451 67.8772 233.617 63.2827 232.758C61.4772 232.422 59.6432 232.076 57.9992 231.185C57.2105 230.76 56.4788 230.215 55.6806 229.822C53.4902 228.747 51.0006 228.889 48.6059 228.936C37.5307 229.151 26.5504 226.886 15.6604 224.632C13.6411 224.212 11.5648 223.767 9.84011 222.534C6.5142 220.144 5.27886 215.237 5.82526 210.896C6.37166 206.555 8.3672 202.623 10.3295 198.806L12.8714 193.862C13.2037 193.105 13.6688 192.428 14.2398 191.87C17.9791 188.719 25.3958 191.126 28.5982 193.967Z" fill="#A1616A"/>
<path opacity="0.04" d="M28.5982 193.967C29.6102 194.859 30.4987 195.912 31.5393 196.762C32.6397 197.605 33.8107 198.33 35.0362 198.927L39.721 201.412C41.1727 202.244 42.6918 202.925 44.2585 203.446C46.2635 204.038 48.3683 204.096 50.3829 204.647C52.9248 205.339 55.2482 206.78 57.7522 207.614C60.2561 208.448 63.1876 208.584 65.2782 206.849C66.5848 205.763 67.5731 203.97 69.1933 203.703C70.2386 203.551 71.2458 204.107 72.1771 204.647L84.3689 211.719C86.0129 212.673 87.7518 213.732 88.6118 215.551C89.4718 217.37 88.8921 220.133 87.0819 220.605C86.451 220.685 85.8164 220.725 85.1814 220.726C84.5542 220.81 83.87 221.219 83.7845 221.916C83.7813 222.349 83.8848 222.775 84.0838 223.148C84.6302 224.532 84.7918 226.189 84.1551 227.531C83.5184 228.873 81.9553 229.706 80.7057 229.104C80.9195 231.132 78.9192 232.553 77.1374 233.093C72.6427 234.451 67.8772 233.617 63.2827 232.758C61.4772 232.422 59.6432 232.076 57.9992 231.185C57.2105 230.76 56.4788 230.215 55.6806 229.822C53.4902 228.747 51.0006 228.889 48.6059 228.936C37.5307 229.151 26.5504 226.886 15.6604 224.632C13.6411 224.212 11.5648 223.767 9.84011 222.534C6.5142 220.144 5.27886 215.237 5.82526 210.896C6.37166 206.555 8.3672 202.623 10.3295 198.806L12.8714 193.862C13.2037 193.105 13.6688 192.428 14.2398 191.87C17.9791 188.719 25.3958 191.126 28.5982 193.967Z" fill="black"/>
<path d="M173.636 203.027C171.161 204.316 168.32 204.442 165.735 205.433C163.15 206.424 160.955 208.206 158.584 209.659C152.407 213.465 145.281 214.901 138.282 216.27C134.039 217.108 129.73 217.947 125.453 217.748C119.666 217.475 114.107 215.347 108.501 213.743C102.894 212.138 96.9123 211.058 91.3581 212.862C88.4577 213.836 85.8062 215.551 83.6186 217.868C81.4311 220.184 79.769 223.036 78.7671 226.194C77.6031 229.963 77.4415 234.026 77.6649 238C78.8337 238.949 80.4681 237.633 81.1048 236.192C81.7415 234.75 82.0883 232.983 83.3237 232.144C85.4665 232.946 85.9891 236.097 87.7566 237.654C88.8589 238.629 90.3318 238.886 91.7334 239.107L98.9554 240.239C100.694 240.512 102.714 240.695 103.973 239.342C104.586 238.687 104.923 237.77 105.484 237.067C106.633 235.662 108.553 235.421 110.263 235.61C115.604 236.197 120.612 240.019 125.914 239.112C127.739 238.802 129.435 237.943 131.174 237.266C141.479 233.25 152.93 235.694 163.654 233.392C167.745 232.517 171.683 230.965 175.575 229.329C177.689 228.443 179.827 227.515 181.633 226.016C183.343 224.564 184.692 222.658 185.553 220.475C186.414 218.292 186.759 215.903 186.555 213.533C186.157 209.921 184.524 206.612 181.989 204.285C181.153 203.498 180.055 201.994 179.053 201.501C177.138 200.573 175.261 202.183 173.636 203.027Z" fill="#A1616A"/>
<g opacity="0.1">
<path opacity="0.1" d="M159.753 136.052C158.959 135.276 158.765 134.096 158.08 133.237C156.655 131.417 153.776 131.664 151.429 132.031C147.338 132.665 142.401 132.812 139.864 129.672C138.766 128.319 138.282 126.526 136.942 125.399C133.816 122.777 128.437 125.462 124.992 123.244C121.985 121.31 122.18 116.822 119.671 114.332C117.162 111.841 112.815 112.166 109.408 113.409C108.832 113.701 108.186 113.782 107.565 113.64C106.486 113.22 106.562 111.742 106.828 110.651C108.125 105.382 109.446 100.061 111.969 95.2169C112.886 93.4501 113.969 91.7462 114.559 89.8484C115.59 86.5246 115.062 82.7656 116.416 79.62C114.962 80.6685 113.566 81.8114 112.668 83.2898C110.644 86.6189 111.427 90.855 110.292 94.551C109.703 96.4489 108.619 98.1527 107.702 99.9195C105.18 104.764 103.859 110.085 102.562 115.354C102.295 116.444 102.219 117.923 103.298 118.342C103.919 118.485 104.565 118.404 105.142 118.111C108.548 116.869 112.877 116.512 115.404 119.034C117.932 121.556 117.718 126.028 120.726 127.947C124.17 130.164 129.549 127.485 132.675 130.101C134.015 131.223 134.5 133.022 135.597 134.374C138.154 137.52 143.071 137.368 147.162 136.733C149.509 136.366 152.388 136.12 153.814 137.939C154.498 138.799 154.693 139.979 155.486 140.754C156.912 142.16 159.52 141.447 160.912 140.005C161.805 138.979 162.569 137.826 163.183 136.576C161.948 136.99 160.632 136.927 159.753 136.052Z" fill="black"/>
<path opacity="0.1" d="M168.41 130.285C168.104 130.72 167.82 131.173 167.559 131.643C169.384 130.206 171.317 128.864 172.681 127.034C173.035 126.561 173.353 126.056 173.631 125.525C171.735 127.024 169.759 128.403 168.41 130.285Z" fill="black"/>
</g>
<path d="M264.4 234.1L265.825 384.564L272.477 383.515L271.052 234.1H264.4Z" fill="#3F3D56"/>
<path d="M304.311 261.362L305.736 411.825L312.388 410.777L310.963 261.362H304.311Z" fill="#3F3D56"/>
<path d="M428.571 337.369L428.543 334.481V332.761L428.291 306.296L427.897 264.921L427.83 261.351H421.178L421.211 264.79L421.421 286.951L421.511 296.545L421.587 304.314L421.71 317.746L421.786 325.668V326.507L421.886 336.918L421.972 346.098L422.513 345.438C423.384 344.365 424.236 343.274 425.07 342.166L428.571 337.369Z" fill="#3F3D56"/>
<path d="M296.947 285.74L293.146 292.01L296.947 320.577L329.255 330.334H381.52L412.878 332.426L427.816 321.143L425.232 301.767L413.828 285.74H296.947Z" fill="#047CFD"/>
<path d="M293.145 292.01L291.245 309.426C291.245 309.426 281.267 343.571 361.564 341.48C441.861 339.388 428.082 332.42 428.082 332.42L427.607 312.215C427.607 312.215 430.406 321.778 389.597 320.483C348.788 319.188 310.725 315.004 310.725 315.004C310.725 315.004 296.471 317.788 293.145 292.01Z" fill="#3F3D56"/>
<path d="M360.044 135.905C355.464 138.207 351.995 142.668 349.672 147.601C347.348 152.535 346.042 157.95 344.754 163.329C343.395 169.002 342.032 174.69 341.328 180.504C340.074 190.843 341.015 201.711 345.32 210.995C349.624 220.28 357.578 227.772 366.89 229.56C370.487 230.257 374.184 230.115 377.818 229.701C384.388 228.934 390.86 227.36 397.113 225.009C403.646 222.571 410.446 218.817 413.353 211.902C415.04 207.892 415.183 203.32 415.102 198.906C414.878 186.875 413.231 174.927 410.203 163.366C409.324 160.011 408.303 156.629 406.44 153.803C404.578 150.978 402.031 148.907 399.432 146.988C388.319 138.731 373.713 129.048 360.044 135.905Z" fill="#FBBEBE"/>
<path opacity="0.05" d="M360.044 135.905C355.464 138.207 351.995 142.668 349.672 147.601C347.348 152.535 346.042 157.95 344.754 163.329C343.395 169.002 342.032 174.69 341.328 180.504C340.074 190.843 341.015 201.711 345.32 210.995C349.624 220.28 357.578 227.772 366.89 229.56C370.487 230.257 374.184 230.115 377.818 229.701C384.388 228.934 390.86 227.36 397.113 225.009C403.646 222.571 410.446 218.817 413.353 211.902C415.04 207.892 415.183 203.32 415.102 198.906C414.878 186.875 413.231 174.927 410.203 163.366C409.324 160.011 408.303 156.629 406.44 153.803C404.578 150.978 402.031 148.907 399.432 146.988C388.319 138.731 373.713 129.048 360.044 135.905Z" fill="black"/>
<path d="M354.898 201.894C356.224 203.905 357.827 205.674 359.649 207.137C364.172 210.587 369.978 211.053 375.471 211.242C379.88 211.389 384.935 211.111 387.701 207.315C388.946 205.606 389.506 203.425 390.01 201.302C393.118 188.264 395.326 174.985 396.614 161.578L409.196 161.625C414.641 187.351 414.194 214.094 413.719 240.512L413.03 279.034L404.924 278.086C385.677 275.836 366.401 273.587 347.049 273.199C335.71 272.969 324.368 273.382 313.067 274.437L330.718 216.526C333.009 208.998 335.322 201.37 335.859 193.459C336.634 181.983 333.716 169.867 337.76 159.251C338.083 158.396 338.492 157.51 339.228 157.064C339.964 156.619 340.896 156.729 341.741 156.849C343.338 157.085 348.217 156.849 349.377 157.977C351.087 159.612 349.956 159.859 349.353 162.496C348.274 167.214 347.253 171.581 347.267 176.499C347.281 185.427 349.79 194.853 354.898 201.894Z" fill="#047CFD"/>
<path d="M428.572 337.369C430.691 334.266 432.688 331.052 434.563 327.728C433.613 325.484 432.567 323.293 431.736 321.002C430.463 317.489 429.731 313.767 429.009 310.071C428.762 308.813 428.516 307.554 428.272 306.296C425.612 292.608 423.112 278.725 422.594 264.848C422.547 263.694 422.517 262.541 422.504 261.388C422.504 261.22 422.504 261.057 422.504 260.863C422.504 259.6 422.504 258.336 422.504 257.078C422.561 253.933 422.742 250.761 423.07 247.605C423.131 246.986 423.203 246.368 423.279 245.749C423.279 245.613 423.307 245.482 423.326 245.345L455.635 244.045L458.353 243.935C460.22 243.862 462.197 243.746 463.736 242.577C466.325 240.616 466.629 236.595 466.587 233.14C466.429 224.408 465.532 215.711 463.907 207.163C462.681 200.736 460.933 194.167 457.008 189.228C453.787 185.17 449.121 182.219 447.444 177.17C446.821 175.293 446.665 173.233 445.857 171.44C445.049 169.647 443.714 168.331 442.455 166.947C438.024 162.102 434.347 156.483 431.574 150.317C429.65 146.039 427.564 141.321 425.051 138.364C424.927 138.212 424.804 138.07 424.676 137.934C422.537 135.601 420.091 134.579 417.192 136.167C416.671 136.456 416.175 136.796 415.71 137.184C414.677 138.055 413.732 139.046 412.892 140.141C409.965 143.855 407.396 147.897 405.229 152.199C403.704 155.228 402.395 158.383 401.313 161.636C400.459 164.206 399.753 166.832 399.199 169.5C398.791 171.476 398.467 173.474 398.211 175.477C397.261 183.005 397.261 190.68 397.394 198.303C397.536 205.307 397.816 212.327 398.391 219.305C398.534 220.993 398.692 222.68 398.867 224.364C399.215 227.695 399.646 231.015 400.159 234.325C400.363 235.589 400.572 236.852 400.805 238.11C400.862 238.446 400.924 238.781 400.986 239.112L401.014 239.253C401.642 242.178 402.129 245.137 402.473 248.119C402.511 248.493 402.539 248.865 402.558 249.235C402.638 250.949 402.626 252.666 402.52 254.378C402.411 256.402 402.24 258.42 402.154 260.444C402.154 260.801 402.154 261.152 402.121 261.493C402.097 262.515 402.121 263.537 402.121 264.56C402.218 267.005 402.481 269.44 402.91 271.842C403.711 276.309 405.096 280.625 407.02 284.655C407.2 285.032 407.386 285.404 407.571 285.771C409.98 290.521 413.021 294.878 415.249 299.738C417.171 304.111 418.607 308.725 419.525 313.479C419.842 315.048 420.143 316.621 420.428 318.197C420.87 320.713 421.264 323.251 421.668 325.788C421.706 326.04 421.749 326.313 421.792 326.543C422.328 329.909 422.894 333.259 423.621 336.546C424.044 338.46 424.519 340.347 425.075 342.203L428.572 337.369Z" fill="#464353"/>
<path d="M422.224 296.047C422.224 296.519 422.195 296.99 422.176 297.468C422.091 299.768 421.899 302.062 421.601 304.341C421.208 307.451 420.518 310.507 419.544 313.458C418.898 315.398 418.077 317.262 417.092 319.02C416.219 320.582 415.196 322.035 414.042 323.356C411.191 326.627 407.086 327.67 403.114 329.049C401.286 329.633 399.52 330.429 397.845 331.424C397.545 331.608 397.251 331.807 396.966 332.017L391.996 335.65C390.447 336.777 388.865 337.946 387.801 339.618C387.626 339.903 387.468 340.199 387.325 340.504C386.653 342.044 386.161 343.672 385.862 345.349C383.277 357.228 380.688 369.119 378.916 381.177C378.797 381.974 378.683 382.776 378.559 383.578L378.517 383.83C378.495 383.77 378.47 383.712 378.441 383.657C365.726 392.139 352.541 399.793 338.957 405.922L336.007 378.66C335.699 376.444 335.597 374.199 335.703 371.96C335.983 368.432 337.285 365.087 337.636 361.569C337.969 358.125 337.38 354.649 335.94 351.572C335.38 350.376 334.676 349.202 334.548 347.865C334.42 346.528 335.118 345.307 336.335 345.17C337.285 344.007 337.361 342.418 337.08 340.845C336.932 340.024 336.709 339.222 336.415 338.449C335.608 336.258 334.586 333.872 335.28 331.634C335.463 331.228 335.545 330.776 335.517 330.323C335.522 330.296 335.522 330.267 335.517 330.239C335.356 329.652 334.724 329.395 334.396 328.897C333.778 327.969 334.396 326.706 334.776 325.636C335.146 324.487 335.36 323.284 335.413 322.066C335.465 321.39 335.503 320.708 335.57 320.037C335.662 319.129 335.81 318.229 336.011 317.342C337.166 312.32 339.941 307.936 343.818 305.012C345.666 303.638 347.723 302.637 349.61 301.342C351.542 299.905 353.386 298.328 355.131 296.623C359.315 292.779 363.666 289.154 368.182 285.75C373.039 282.09 378.07 278.72 383.254 275.653C384.362 274.992 385.471 274.349 386.579 273.724C387.786 273.025 389.001 272.362 390.224 271.737C394.139 269.676 398.581 270.447 402.91 271.821C404.725 272.392 406.516 273.074 408.245 273.692C409.934 274.298 411.559 275.103 413.092 276.093C416.926 278.578 420.095 282.248 421.411 286.883C421.413 286.912 421.413 286.942 421.411 286.972C422.247 289.876 422.3 292.99 422.224 296.047Z" fill="#F86D70"/>
<path opacity="0.1" d="M422.224 296.047C422.224 296.519 422.195 296.99 422.176 297.468C422.091 299.768 421.899 302.062 421.601 304.341C421.208 307.451 420.518 310.507 419.544 313.458C418.898 315.398 418.077 317.262 417.092 319.02C416.219 320.582 415.196 322.035 414.042 323.356C411.191 326.627 407.086 327.67 403.114 329.049C401.286 329.633 399.52 330.429 397.845 331.424C397.545 331.608 397.251 331.807 396.966 332.017L391.996 335.65C390.447 336.777 388.865 337.946 387.801 339.618C387.626 339.903 387.468 340.199 387.325 340.504C386.653 342.044 386.161 343.672 385.862 345.349C383.277 357.228 380.688 369.119 378.916 381.177C378.797 381.974 378.683 382.776 378.559 383.578L378.517 383.83C378.495 383.77 378.47 383.712 378.441 383.657C365.726 392.139 352.541 399.793 338.957 405.922L336.007 378.66C335.699 376.444 335.597 374.199 335.703 371.96C335.983 368.432 337.285 365.087 337.636 361.569C337.969 358.125 337.38 354.649 335.94 351.572C335.38 350.376 334.676 349.202 334.548 347.865C334.42 346.528 335.118 345.307 336.335 345.17C337.285 344.007 337.361 342.418 337.08 340.845C336.932 340.024 336.709 339.222 336.415 338.449C335.608 336.258 334.586 333.872 335.28 331.634C335.463 331.228 335.545 330.776 335.517 330.323C335.522 330.296 335.522 330.267 335.517 330.239C335.356 329.652 334.724 329.395 334.396 328.897C333.778 327.969 334.396 326.706 334.776 325.636C335.146 324.487 335.36 323.284 335.413 322.066C335.465 321.39 335.503 320.708 335.57 320.037C335.662 319.129 335.81 318.229 336.011 317.342C337.166 312.32 339.941 307.936 343.818 305.012C345.666 303.638 347.723 302.637 349.61 301.342C351.542 299.905 353.386 298.328 355.131 296.623C359.315 292.779 363.666 289.154 368.182 285.75C373.039 282.09 378.07 278.72 383.254 275.653C384.362 274.992 385.471 274.349 386.579 273.724C387.786 273.025 389.001 272.362 390.224 271.737C394.139 269.676 398.581 270.447 402.91 271.821C404.725 272.392 406.516 273.074 408.245 273.692C409.934 274.298 411.559 275.103 413.092 276.093C416.926 278.578 420.095 282.248 421.411 286.883C421.413 286.912 421.413 286.942 421.411 286.972C422.247 289.876 422.3 292.99 422.224 296.047Z" fill="black"/>
<path d="M377.11 209.208C377.062 209.086 376.992 208.976 376.905 208.885C376.817 208.794 376.714 208.723 376.601 208.677C376.488 208.631 376.368 208.61 376.248 208.617C376.128 208.623 376.01 208.657 375.902 208.715C375.793 208.773 375.697 208.854 375.618 208.954C375.539 209.055 375.479 209.171 375.442 209.298C375.405 209.424 375.391 209.557 375.402 209.69C375.413 209.822 375.447 209.95 375.504 210.068L375.029 210.324L389.198 242.367L391.759 240.989L377.59 208.925L377.11 209.208Z" fill="#3F3D56"/>
<path d="M394.823 175.644C411.617 175.644 425.232 160.622 425.232 142.091C425.232 123.561 411.617 108.538 394.823 108.538C378.029 108.538 364.415 123.561 364.415 142.091C364.415 160.622 378.029 175.644 394.823 175.644Z" fill="#FBBEBE"/>
<path d="M434.957 121.32C434.815 118.653 434.455 116.005 433.883 113.409C432.097 104.932 428.833 96.5852 423.212 90.4985C422.866 89.0104 422.452 87.5423 421.972 86.0999C421.963 86.0642 421.952 86.0292 421.939 85.9951C420.262 80.9139 417.838 76.1722 414.764 71.9605C412.982 69.5175 410.673 67.1058 407.832 67.0115C407.034 66.98 406.188 67.1321 405.456 66.7284C404.918 66.3445 404.465 65.8321 404.131 65.229C402.724 63.2671 400.858 61.7667 398.734 60.8898C396.61 60.013 394.31 59.793 392.081 60.2537L391.787 60.3219C391.621 60.3586 391.454 60.4005 391.312 60.4477C391.169 60.4949 390.913 60.5735 390.713 60.6417C390.932 61.0401 391.145 61.4438 391.354 61.8527C391.918 62.9607 392.441 64.0931 392.922 65.25C393.322 66.2146 393.691 67.195 394.029 68.1911C389.164 68.8045 385.202 72.6159 381.581 76.2438L373.057 84.7788C373.042 84.7932 373.027 84.809 373.014 84.826L372.767 85.0881C372.706 85.1563 372.644 85.2244 372.587 85.2978C372.564 85.3197 372.543 85.3443 372.525 85.3712C372.454 85.4551 372.387 85.5442 372.321 85.6333C372.202 85.7985 372.096 85.9738 372.002 86.1576C371.956 86.2363 371.915 86.3187 371.879 86.404C371.866 86.4292 371.855 86.4555 371.846 86.4827C371.815 86.5542 371.788 86.6277 371.765 86.7028C371.763 86.7132 371.763 86.7239 371.765 86.7343C371.752 86.7773 371.74 86.821 371.732 86.8654C371.635 87.2343 371.663 87.6296 371.812 87.9768L377.433 88.045H378.094C378.122 88.8733 378.146 89.7069 378.174 90.5352C377.283 91.2718 376.426 92.0593 375.609 92.8944C374.717 93.8048 373.881 94.7785 373.105 95.8093C368.035 102.567 365.389 111.296 365.123 120.083C365.123 120.355 365.123 120.607 365.123 120.89C365.123 121.692 365.123 122.494 365.123 123.291C365.123 123.816 365.165 124.34 365.203 124.864C365.206 125.547 365.369 126.217 365.678 126.809C365.719 126.875 365.763 126.938 365.811 126.998C366.097 127.339 366.439 127.617 366.819 127.816L367.227 128.036C367.432 128.146 367.626 128.251 367.817 128.371C369.608 129.488 370.667 131.643 372.297 133.027C372.392 133.105 372.487 133.184 372.582 133.252L372.796 133.41L372.929 133.504L373.109 133.619C373.228 133.698 373.35 133.77 373.475 133.834L373.703 133.96H373.741C373.931 134.054 374.122 134.144 374.316 134.222L374.587 134.327L374.668 134.358C374.744 134.385 374.825 134.416 374.905 134.437C375.067 134.49 375.225 134.537 375.381 134.579L375.856 134.694C376.041 134.731 376.231 134.767 376.421 134.794L376.701 134.836L376.987 134.867C377.439 134.912 377.896 134.939 378.355 134.946C379.796 134.936 381.236 134.826 382.664 134.615L394.79 133.043C397.541 132.691 400.349 132.34 403.062 132.959C405.361 133.483 407.48 134.689 409.713 135.543C410.217 135.737 410.721 135.916 411.229 136.068C411.414 136.125 411.604 136.188 411.795 136.241L412.056 136.314L412.664 136.476C412.883 136.534 413.101 136.592 413.32 136.639C413.629 136.712 413.933 136.775 414.241 136.838C414.451 136.885 414.664 136.922 414.878 136.964H414.921L415.529 137.069H415.676L416.128 137.137C416.346 137.174 416.565 137.205 416.788 137.231C417.273 137.298 417.757 137.355 418.242 137.404C419.026 137.488 419.815 137.551 420.618 137.604L421.406 137.656L422.195 137.698L424.571 137.813H424.675H425.008C425.996 137.889 426.988 137.833 427.963 137.646C428.134 137.609 428.301 137.567 428.467 137.515C428.633 137.462 428.771 137.41 428.942 137.347C430.724 136.592 432.026 134.857 432.928 133.001C433.118 132.607 433.294 132.214 433.456 131.811C433.617 131.407 433.765 130.998 433.898 130.589C434.064 130.065 434.206 129.567 434.33 129.042C434.368 128.901 434.401 128.759 434.43 128.613C434.458 128.466 434.525 128.177 434.563 127.957C434.682 127.354 434.772 126.746 434.838 126.133C434.838 125.939 434.881 125.74 434.9 125.546C434.943 125.021 434.976 124.534 434.995 124.02C434.995 123.632 434.995 123.239 434.995 122.846C434.99 122.421 434.957 121.86 434.957 121.32ZM422.775 90.0214C422.39 89.623 421.996 89.2403 421.596 88.8785C422.041 89.1878 422.437 89.5737 422.77 90.0214H422.775Z" fill="#464353"/>
<path d="M336.463 140.246C332.885 139.758 329.336 138.028 325.806 138.878C323.596 139.402 321.696 140.917 319.928 142.474C313.351 148.291 307.758 155.346 303.408 163.314C302.671 164.505 302.152 165.844 301.883 167.256C301.655 168.892 302.059 170.554 302.539 172.121C305.789 182.717 312.74 191.566 315.904 202.193C319.23 213.37 318.075 225.586 315.624 237.036C312.585 251.171 307.646 264.725 300.971 277.247C300.065 279.109 298.929 280.824 297.597 282.342C295.868 284.177 293.545 285.488 292.518 287.889C292.043 288.938 291.905 290.133 291.568 291.255C290.618 294.401 288.318 297.095 288.095 300.414C287.929 302.946 289.017 305.342 289.677 307.754C290.791 311.897 290.673 316.325 289.34 320.388C286.931 327.676 280.631 334.302 282.46 341.794C286.541 340.499 291.064 338.816 292.989 334.638C293.668 333.159 294.005 331.398 295.15 330.318C297.436 328.174 301.327 330.113 303.755 328.142C305.589 326.643 305.656 323.571 304.838 321.211C304.021 318.852 302.615 316.776 301.988 314.349C300.895 309.971 302.643 305.342 302.32 300.818C302.168 298.721 301.584 296.713 301.541 294.626C301.46 290.573 303.494 286.762 306.197 284.01C308.901 281.257 312.241 279.433 315.529 277.635L327.958 270.819C332.467 268.355 337.408 265.351 338.886 260.046C339.447 258.059 339.452 255.941 339.48 253.864C339.903 222.141 347.106 191.058 354.266 160.33C355.378 155.57 356.509 150.789 358.162 146.217C359.816 141.646 363.051 137.976 364.7 133.729C355.136 132.492 346.398 141.619 336.463 140.246Z" fill="#464353"/>
<path d="M404.981 339.262C406.079 346.602 406.749 354.099 407.272 361.559C398.719 369.381 389.511 376.186 380.156 382.498C379.624 382.86 379.087 383.216 378.55 383.547L378.507 383.798C378.486 383.739 378.46 383.681 378.431 383.625C377.705 381.895 376.436 380.513 374.858 379.735C371.352 371.609 367.848 363.483 364.348 355.357C362.448 350.969 360.547 346.539 359.597 341.805C359.597 341.705 359.554 341.6 359.54 341.501C358.818 337.831 358.652 334.019 358.172 330.302C357.928 328.173 357.494 326.076 356.874 324.043C356.304 322.234 355.52 320.478 354.827 318.711C353.971 316.53 353.254 314.323 353.221 311.969C353.221 311.219 353.264 310.396 352.931 309.767C352.575 309.225 352.136 308.757 351.634 308.383C351.007 307.769 350.531 306.99 350.252 306.117C349.973 305.245 349.899 304.309 350.037 303.397C347.187 303.56 345.581 306.941 344.436 309.809C343.395 312.614 342.027 315.257 340.368 317.673C339.159 319.398 337.622 320.81 335.864 321.809C335.707 321.893 335.551 321.977 335.389 322.05C331.422 323.98 326.789 323.298 322.489 322.428C318.731 321.668 314.845 320.724 311.823 318.145L311.5 317.861C310.605 317.041 309.807 316.101 309.124 315.062C306.592 311.245 305.47 306.218 304.848 301.431C304.791 300.98 304.734 300.529 304.682 300.078C304.25 296.696 304.13 293.274 304.325 289.866C304.382 289.027 304.463 288.188 304.563 287.354C304.629 286.83 304.701 286.264 304.781 285.719C304.779 285.703 304.779 285.687 304.781 285.672C304.905 284.807 305.038 283.936 305.171 283.05C305.646 280.078 306.121 277.027 307.547 274.468C308.485 272.876 309.668 271.478 311.043 270.337C311.557 269.891 312.084 269.467 312.616 269.058C313.481 268.397 314.369 267.768 315.272 267.176C317.543 265.676 319.928 264.395 322.399 263.348C322.988 263.097 323.587 262.861 324.186 262.635C326.513 261.722 329.017 261.503 331.446 262.001C333.597 262.345 335.772 262.485 337.945 262.42C343.519 262.3 349.116 261.126 354.679 260.365C362.405 259.317 370.706 259.191 377.443 263.511C377.766 263.715 378.08 263.93 378.393 264.156C381.719 266.557 384.399 269.923 386.561 273.682C387.036 274.473 387.449 275.286 387.858 276.109C388.8 277.998 389.651 279.941 390.409 281.928C390.858 282.904 391.1 283.98 391.117 285.074C391.106 285.282 391.081 285.489 391.041 285.693C390.913 286.437 390.656 287.161 390.566 287.915C390.267 290.773 392.466 293.158 393.288 295.879C393.821 297.651 393.764 299.549 394.063 301.415C394.495 304.037 395.659 306.396 396.705 308.755C398.356 312.553 399.769 316.471 400.933 320.483C401.76 323.277 402.468 326.113 403.09 328.976C403.293 329.895 403.485 330.816 403.665 331.739C404.183 334.276 404.606 336.761 404.981 339.262Z" fill="#F86D70"/>
<path d="M455.639 261.624V265.293L455.026 265.283L454.342 265.273L446.702 265.168L427.878 264.895L422.594 264.822L421.226 264.801L413.296 264.691L402.121 264.528L378.412 264.187L337.27 263.6L322.423 263.39L316.464 263.307L310.981 263.228L307.565 263.175L304.33 263.128L280.34 262.788L273.689 262.693L272.239 262.672L271.299 259.993L264.462 240.538L263.212 236.983L264.162 232.789L268.438 235.935L271.071 236.296L314.407 242.242L322.541 243.358L339.789 245.728L356.684 248.045L363.307 248.952L402.501 254.331L413.453 255.836L422.518 257.078L454.751 261.503L455.639 261.624Z" fill="#3F3D56"/>
<path d="M264.163 232.789L272.715 257.429L455.64 261.624V234.886L264.163 232.789Z" fill="#504F60"/>
<path d="M273.665 260.051L275.09 410.515L281.742 409.466L280.317 260.051H273.665Z" fill="#3F3D56"/>
<path d="M455.027 265.278H454.343C453.235 274.658 451.402 283.918 448.864 292.954L446.703 265.168L446.612 263.983L454.604 262.966L454.87 262.934L455.027 265.278Z" fill="#3F3D56"/>
<path d="M429.032 247.468L359.426 249.041L337.808 241.177L395.773 237.507L429.032 247.468Z" fill="white"/>
<path d="M341.718 216.893C340.98 217.206 340.326 217.72 339.817 218.388C339.42 219.111 339.177 219.925 339.109 220.768L337.941 228.459C337.762 229.162 337.794 229.91 338.031 230.592C338.335 231.237 339.219 231.573 339.661 231.038C339.604 232.543 339.722 234.147 340.516 235.374C341.309 236.601 342.972 237.245 344.093 236.391C344.269 236.707 344.505 236.977 344.785 237.183C345.065 237.388 345.382 237.524 345.714 237.581C346.047 237.638 346.386 237.614 346.709 237.512C347.032 237.41 347.331 237.231 347.586 236.989C346.911 237.24 346.863 238.378 347.343 238.954C347.881 239.478 348.566 239.78 349.282 239.809C357.631 241.108 366.144 239.926 373.941 236.386C374.678 236.05 372.739 226.031 372.544 225.004C372.069 222.587 371.832 219.635 369.983 218.01C365.565 214.12 357.715 213.355 352.332 213.816C348.654 214.123 345.058 215.166 341.718 216.893Z" fill="#FBBEBE"/>
<path opacity="0.1" d="M412.541 218.057C395.355 218.419 377.814 218.728 361.412 213.051C362.979 219.75 362.871 226.792 361.099 233.429L441.453 240.768C444.859 241.078 458.985 242.839 462.306 241.953C465.627 241.067 434.44 229.733 435.699 226.225C439.162 216.563 450.765 210.901 442.408 210.539C431.86 210.078 423.17 217.837 412.541 218.057Z" fill="black"/>
<path d="M413.016 219.106C395.831 219.468 378.289 219.777 361.887 214.099C363.454 220.798 363.346 227.841 361.574 234.477L441.928 241.817C445.334 242.126 459.46 243.914 462.781 243.002C466.102 242.09 465.323 237.597 466.582 234.089C470.046 224.427 451.24 211.95 442.883 211.588C432.335 211.126 423.645 218.886 413.016 219.106Z" fill="#464353"/>
<path d="M385.691 220.563C386.429 220.875 387.083 221.389 387.592 222.057C387.989 222.781 388.232 223.595 388.304 224.438L389.473 232.129C389.649 232.832 389.617 233.58 389.383 234.262C389.079 234.907 388.19 235.243 387.753 234.708C387.805 236.213 387.691 237.817 386.898 239.044C386.104 240.27 384.442 240.915 383.315 240.061C383.14 240.377 382.904 240.647 382.624 240.852C382.344 241.058 382.027 241.194 381.695 241.251C381.362 241.308 381.023 241.284 380.7 241.182C380.377 241.079 380.078 240.901 379.823 240.658C380.498 240.91 380.55 242.048 380.07 242.624C379.531 243.148 378.845 243.45 378.127 243.479C369.779 244.778 361.269 243.596 353.473 240.055C352.736 239.72 354.67 229.701 354.87 228.674C355.345 226.257 355.582 223.305 357.43 221.68C361.844 217.79 369.698 217.024 375.081 217.486C378.758 217.793 382.353 218.836 385.691 220.563Z" fill="#FBBEBE"/>
<path d="M272.135 203.865C270.558 206.109 268.976 208.4 267.959 211.016C266.016 216.007 266.301 221.659 266.624 227.08C266.714 228.653 266.828 230.257 267.574 231.562C268.219 232.548 269.07 233.349 270.054 233.895C274.169 236.475 278.987 237.245 283.69 237.822C290.893 238.703 298.122 239.239 305.375 239.431C323.345 239.914 341.59 238.294 359.093 242.787C356.927 239.154 356.932 234.346 358.143 230.204C359.355 226.063 361.688 222.456 363.973 218.907C355.962 216.107 347.372 220.479 338.981 220.044C330.367 219.599 322.394 214.104 313.771 214.11C311.918 214.11 310.032 214.366 308.231 213.874C306.43 213.381 304.686 211.881 304.52 209.842C306.82 210.413 309.001 208.243 309.951 205.863C310.901 203.483 311.072 200.793 311.994 198.397C314.289 192.436 320.489 189.674 324.347 184.766C324.955 183.991 325.53 183.073 325.511 182.046C325.421 181.175 325.089 180.357 324.561 179.702C321.354 174.984 316.522 172.362 312.507 168.693C311.11 167.413 308.293 162.59 306.725 162.144C303.817 161.321 301.351 165.956 299.46 168.215C289.913 179.662 280.805 191.545 272.135 203.865Z" fill="#464353"/>
<path opacity="0.07" d="M367.674 202.534C368.879 203.519 369.949 204.69 370.853 206.01C371.303 206.673 371.624 207.431 371.795 208.238C371.966 209.045 371.983 209.882 371.846 210.697C371.698 209.177 372.005 207.646 372.72 206.337C373.435 205.028 374.518 204.013 375.804 203.446L367.674 202.534Z" fill="black"/>
<g opacity="0.1">
<path opacity="0.1" d="M394.025 65.0507C393.466 63.4121 392.822 61.8104 392.096 60.2537C391.627 60.3532 391.163 60.4845 390.708 60.6469C391.524 62.1409 392.258 63.6866 392.908 65.2761C393.274 65.1713 393.645 65.0979 394.025 65.0507Z" fill="black"/>
<path opacity="0.1" d="M421.592 85.7224C421.72 85.8377 421.844 85.9688 421.967 86.0894C421.958 86.0554 421.947 86.0221 421.934 85.9898C421.826 85.9024 421.712 85.8133 421.592 85.7224Z" fill="black"/>
<path opacity="0.1" d="M377.424 88.0292C377.671 87.8142 377.899 87.5888 378.165 87.3791L378.089 84.8888L373.015 84.8312C372.193 85.6648 371.318 86.8601 371.803 87.9768L377.424 88.0292Z" fill="black"/>
<path opacity="0.1" d="M432.9 129.949C431.997 131.805 430.695 133.546 428.914 134.296C427.541 134.872 426.03 134.82 424.562 134.746C419.554 134.521 414.46 134.275 409.728 132.445C407.514 131.585 405.395 130.385 403.076 129.855C400.363 129.236 397.555 129.588 394.804 129.944L382.679 131.517C379.101 131.978 375.115 132.324 372.259 129.902C370.625 128.518 369.57 126.363 367.779 125.252C367.023 124.78 366.125 124.476 365.636 123.679C365.327 123.087 365.163 122.417 365.161 121.734C365.123 121.184 365.099 120.633 365.08 120.083C365.029 121.682 365.055 123.283 365.161 124.88C365.163 125.563 365.327 126.233 365.636 126.825C366.111 127.616 367.023 127.92 367.779 128.398C369.57 129.509 370.63 131.664 372.259 133.048C375.11 135.47 379.101 135.145 382.679 134.663L394.804 133.09C397.555 132.733 400.363 132.382 403.076 133.001C405.376 133.525 407.495 134.731 409.728 135.59C414.479 137.42 419.554 137.688 424.562 137.892C426.03 137.96 427.541 138.018 428.914 137.441C430.695 136.691 431.997 134.951 432.9 133.095C434.649 129.504 435.138 125.43 434.953 121.325C434.851 124.331 434.15 127.276 432.9 129.949Z" fill="black"/>
</g>
<path opacity="0.1" d="M393.887 68.4218L400.539 75.2372C400.539 75.2372 394.837 72.6159 393.887 68.4218Z" fill="black"/>
</g>
<defs>
<clipPath id="clip0_561_29">
<rect width="467" height="421" fill="white"/>
</clipPath>
</defs>
</svg>
