<svg width="482" height="310" viewBox="0 0 482 310" fill="none" xmlns="http://www.w3.org/2000/svg">
<g clip-path="url(#clip0_587_14)">
<path d="M104.864 275.173C118.66 275.173 129.844 262.611 129.844 247.114C129.844 231.618 118.66 219.056 104.864 219.056C91.0677 219.056 79.8838 231.618 79.8838 247.114C79.8838 262.611 91.0677 275.173 104.864 275.173Z" fill="#F2F2F2"/>
<path d="M108.926 271.067C122.722 271.067 133.906 258.505 133.906 243.008C133.906 227.512 122.722 214.95 108.926 214.95C95.1298 214.95 83.9458 227.512 83.9458 243.008C83.9458 258.505 95.1298 271.067 108.926 271.067Z" fill="#047CFD"/>
<path d="M438.114 211.962H129.043V212.909H438.114V211.962Z" fill="#3F3D56"/>
<path d="M289.111 8.83385H179.411V6.29419H129.668V8.83385H19.5147C18.5402 8.83385 17.5753 9.04944 16.675 9.4683C15.7747 9.88717 14.9567 10.5011 14.2676 11.2751C13.5786 12.049 13.032 12.9679 12.6591 13.9791C12.2862 14.9903 12.0942 16.0742 12.0942 17.1687V185.894C12.0942 188.105 12.876 190.225 14.2676 191.788C15.6592 193.351 17.5467 194.229 19.5147 194.229H289.111C291.079 194.229 292.967 193.351 294.358 191.788C295.75 190.225 296.532 188.105 296.532 185.894V17.1687C296.532 16.0742 296.34 14.9903 295.967 13.9791C295.594 12.9679 295.048 12.049 294.358 11.2751C293.669 10.5011 292.851 9.88717 291.951 9.4683C291.051 9.04944 290.086 8.83385 289.111 8.83385V8.83385Z" fill="#3F3D56"/>
<path d="M286.584 23.564H22.043V191.182H286.584V23.564Z" fill="#047CFD"/>
<path d="M154.087 18.9924C155.585 18.9924 156.8 17.6279 156.8 15.9448C156.8 14.2617 155.585 12.8972 154.087 12.8972C152.588 12.8972 151.374 14.2617 151.374 15.9448C151.374 17.6279 152.588 18.9924 154.087 18.9924Z" fill="#047CFD"/>
<path opacity="0.1" d="M210.929 191.182H22.043V23.5642L210.929 191.182Z" fill="black"/>
<path d="M63.4353 178.639C77.4791 178.639 88.8638 165.851 88.8638 150.077C88.8638 134.302 77.4791 121.515 63.4353 121.515C49.3915 121.515 38.0068 134.302 38.0068 150.077C38.0068 165.851 49.3915 178.639 63.4353 178.639Z" fill="#F2F2F2"/>
<path d="M240.523 113.961H215.812V119.761H240.523V113.961Z" fill="#3F3D56"/>
<path d="M270.397 68.8059H185.937V71.2915H270.397V68.8059Z" fill="#3F3D56"/>
<path d="M270.397 76.677H185.937V79.1626H270.397V76.677Z" fill="#3F3D56"/>
<path d="M270.397 84.5483H185.937V87.034H270.397V84.5483Z" fill="#3F3D56"/>
<path d="M270.397 92.4194H185.937V94.9051H270.397V92.4194Z" fill="#3F3D56"/>
<path d="M270.397 100.291H185.937V102.776H270.397V100.291Z" fill="#3F3D56"/>
<path d="M270.397 26.9646H260.07V38.5642H270.397V26.9646Z" fill="#F2F2F2"/>
<path d="M275.192 43.9497H262.652V29.8645H275.192V43.9497ZM263.197 43.3374H274.647V30.4769H263.197V43.3374Z" fill="#3F3D56"/>
<path d="M303.96 188.134H278.142V186.045C278.142 185.99 278.133 185.936 278.114 185.886C278.096 185.836 278.068 185.79 278.034 185.752C278 185.713 277.959 185.683 277.915 185.662C277.87 185.641 277.822 185.63 277.773 185.63H268.922C268.873 185.63 268.825 185.641 268.781 185.662C268.736 185.683 268.695 185.713 268.661 185.752C268.627 185.79 268.599 185.836 268.581 185.886C268.562 185.936 268.553 185.99 268.553 186.045V188.134H263.021V186.045C263.021 185.99 263.011 185.936 262.992 185.886C262.974 185.836 262.947 185.79 262.913 185.752C262.878 185.713 262.838 185.683 262.793 185.662C262.748 185.641 262.7 185.63 262.652 185.63H253.8C253.752 185.63 253.704 185.641 253.659 185.662C253.614 185.683 253.573 185.713 253.539 185.752C253.505 185.79 253.478 185.836 253.459 185.886C253.441 185.936 253.431 185.99 253.431 186.045V188.134H247.899V186.045C247.899 185.99 247.889 185.936 247.871 185.886C247.852 185.836 247.825 185.79 247.791 185.752C247.757 185.713 247.716 185.683 247.671 185.662C247.626 185.641 247.579 185.63 247.53 185.63H238.678C238.63 185.63 238.582 185.641 238.537 185.662C238.493 185.683 238.452 185.713 238.418 185.752C238.383 185.79 238.356 185.836 238.338 185.886C238.319 185.936 238.31 185.99 238.31 186.045V188.134H232.777V186.045C232.777 185.99 232.768 185.936 232.749 185.886C232.731 185.836 232.703 185.79 232.669 185.752C232.635 185.713 232.594 185.683 232.55 185.662C232.505 185.641 232.457 185.63 232.408 185.63H223.557C223.508 185.63 223.46 185.641 223.416 185.662C223.371 185.683 223.33 185.713 223.296 185.752C223.262 185.79 223.235 185.836 223.216 185.886C223.197 185.936 223.188 185.99 223.188 186.045V188.134H217.656V186.045C217.656 185.99 217.646 185.936 217.628 185.886C217.609 185.836 217.582 185.79 217.548 185.752C217.513 185.713 217.473 185.683 217.428 185.662C217.383 185.641 217.335 185.63 217.287 185.63H208.435C208.387 185.63 208.339 185.641 208.294 185.662C208.249 185.683 208.209 185.713 208.174 185.752C208.14 185.79 208.113 185.836 208.094 185.886C208.076 185.936 208.066 185.99 208.066 186.045V188.134H202.534V186.045C202.534 185.99 202.524 185.936 202.506 185.886C202.487 185.836 202.46 185.79 202.426 185.752C202.392 185.713 202.351 185.683 202.306 185.662C202.262 185.641 202.214 185.63 202.165 185.63H193.313C193.265 185.63 193.217 185.641 193.172 185.662C193.128 185.683 193.087 185.713 193.053 185.752C193.018 185.79 192.991 185.836 192.973 185.886C192.954 185.936 192.945 185.99 192.945 186.045V188.134H187.412V186.045C187.412 185.99 187.403 185.936 187.384 185.886C187.366 185.836 187.339 185.79 187.304 185.752C187.27 185.713 187.229 185.683 187.185 185.662C187.14 185.641 187.092 185.63 187.043 185.63H117.705C117.657 185.63 117.609 185.641 117.564 185.662C117.519 185.683 117.479 185.713 117.444 185.752C117.41 185.79 117.383 185.836 117.364 185.886C117.346 185.936 117.336 185.99 117.336 186.045V188.134H111.804V186.045C111.804 185.99 111.795 185.936 111.776 185.886C111.757 185.836 111.73 185.79 111.696 185.752C111.662 185.713 111.621 185.683 111.576 185.662C111.532 185.641 111.484 185.63 111.435 185.63H102.584C102.535 185.63 102.487 185.641 102.442 185.662C102.398 185.683 102.357 185.713 102.323 185.752C102.289 185.79 102.261 185.836 102.243 185.886C102.224 185.936 102.215 185.99 102.215 186.045V188.134H96.6824V186.045C96.6824 185.99 96.6729 185.936 96.6544 185.886C96.6358 185.836 96.6087 185.79 96.5744 185.752C96.5402 185.713 96.4995 185.683 96.4548 185.662C96.41 185.641 96.362 185.63 96.3136 185.63H87.4619C87.4135 185.63 87.3655 185.641 87.3208 185.662C87.276 185.683 87.2354 185.713 87.2011 185.752C87.1669 185.79 87.1397 185.836 87.1212 185.886C87.1026 185.936 87.0931 185.99 87.0931 186.045V188.134H81.5608V186.045C81.5608 185.99 81.5512 185.936 81.5327 185.886C81.5142 185.836 81.487 185.79 81.4528 185.752C81.4185 185.713 81.3779 185.683 81.3331 185.662C81.2884 185.641 81.2404 185.63 81.192 185.63H72.3403C72.2918 185.63 72.2439 185.641 72.1991 185.662C72.1544 185.683 72.1137 185.713 72.0795 185.752C72.0452 185.79 72.0181 185.836 71.9995 185.886C71.981 185.936 71.9714 185.99 71.9714 186.045V188.134H66.4392V186.045C66.4392 185.99 66.4296 185.936 66.4111 185.886C66.3925 185.836 66.3654 185.79 66.3311 185.752C66.2969 185.713 66.2562 185.683 66.2115 185.662C66.1667 185.641 66.1188 185.63 66.0703 185.63H57.2186C57.1702 185.63 57.1222 185.641 57.0775 185.662C57.0327 185.683 56.9921 185.713 56.9578 185.752C56.9236 185.79 56.8964 185.836 56.8779 185.886C56.8593 185.936 56.8498 185.99 56.8498 186.045V188.134H51.3175V186.045C51.3175 185.99 51.308 185.936 51.2894 185.886C51.2709 185.836 51.2437 185.79 51.2095 185.752C51.1752 185.713 51.1346 185.683 51.0898 185.662C51.0451 185.641 50.9971 185.63 50.9487 185.63H42.097C42.0485 185.63 42.0006 185.641 41.9558 185.662C41.9111 185.683 41.8704 185.713 41.8362 185.752C41.8019 185.79 41.7748 185.836 41.7562 185.886C41.7377 185.936 41.7282 185.99 41.7282 186.045V188.134H36.1958V186.045C36.1958 185.99 36.1863 185.936 36.1678 185.886C36.1492 185.836 36.1221 185.79 36.0878 185.752C36.0536 185.713 36.0129 185.683 35.9682 185.662C35.9234 185.641 35.8755 185.63 35.827 185.63H26.9753C26.9269 185.63 26.8789 185.641 26.8342 185.662C26.7894 185.683 26.7488 185.713 26.7145 185.752C26.6803 185.79 26.6531 185.836 26.6346 185.886C26.616 185.936 26.6065 185.99 26.6065 186.045V188.134H9.64076C7.29314 188.134 5.04168 189.182 3.38167 191.046C1.72165 192.911 0.789065 195.44 0.789062 198.076V202.572C0.789069 205.209 1.72166 207.738 3.38167 209.603C5.04169 211.467 7.29315 212.515 9.64076 212.515H303.96C306.307 212.515 308.559 211.467 310.219 209.603C311.879 207.738 312.811 205.209 312.811 202.572V198.076C312.811 195.44 311.879 192.911 310.219 191.046C308.559 189.182 306.307 188.134 303.96 188.134Z" fill="#3F3D56"/>
<path d="M69.5905 167.916C63.2525 167.916 57.0568 165.805 51.7869 161.85C46.5171 157.895 42.4097 152.273 39.9843 145.696C37.5588 139.119 36.9242 131.882 38.1607 124.899C39.3972 117.917 42.4492 111.504 46.9309 106.47C51.4125 101.436 57.1225 98.0075 63.3387 96.6186C69.5549 95.2298 75.9982 95.9426 81.8538 98.6669C87.7093 101.391 92.7141 106.005 96.2354 111.924C99.7566 117.843 101.636 124.803 101.636 131.922C101.626 141.465 98.2471 150.614 92.2395 157.362C86.2318 164.11 78.0865 167.905 69.5905 167.916ZM69.5905 96.8742C63.4193 96.8742 57.3866 98.9297 52.2554 102.781C47.1243 106.632 43.125 112.105 40.7634 118.51C38.4017 124.914 37.7838 131.96 38.9878 138.759C40.1917 145.558 43.1634 151.802 47.5272 156.704C51.8909 161.605 57.4506 164.943 63.5032 166.296C69.5559 167.648 75.8296 166.954 81.531 164.301C87.2325 161.648 92.1056 157.156 95.5342 151.393C98.9627 145.629 100.793 138.853 100.793 131.922C100.783 122.63 97.493 113.721 91.6434 107.151C85.7939 100.581 77.8629 96.8848 69.5905 96.8742V96.8742Z" fill="#3F3D56"/>
<path d="M355.47 15.4128H247.949V16.3601H355.47V15.4128Z" fill="#3F3D56"/>
<path d="M481.122 265.48H172.052V266.428H481.122V265.48Z" fill="#3F3D56"/>
<path d="M189.55 309.053H82.0293V310H189.55V309.053Z" fill="#3F3D56"/>
<path d="M211.193 260.487H199.387V273.748H211.193V260.487Z" fill="#047CFD"/>
<path d="M218.362 266.17H204.025V250.068H218.362V266.17ZM204.649 265.47H217.738V250.768H204.649V265.47Z" fill="#3F3D56"/>
<path d="M348.23 10.4194H336.424V23.6806H348.23V10.4194Z" fill="#047CFD"/>
<path d="M355.398 16.1028H341.062V0H355.398V16.1028ZM341.685 15.4027H354.775V0.700125H341.685V15.4027Z" fill="#3F3D56"/>
<path d="M467.136 260.487H455.33V273.748H467.136V260.487Z" fill="#047CFD"/>
<path d="M474.304 266.17H459.968V250.068H474.304V266.17ZM460.591 265.47H473.681V250.768H460.591V265.47Z" fill="#3F3D56"/>
<path d="M446.547 109.858H445.544V78.997C445.544 76.6513 445.133 74.3287 444.333 72.1616C443.534 69.9945 442.363 68.0254 440.886 66.3668C439.41 64.7082 437.657 63.3925 435.727 62.4949C433.798 61.5972 431.73 61.1352 429.642 61.1353H371.431C369.343 61.1352 367.275 61.5972 365.346 62.4949C363.417 63.3925 361.664 64.7082 360.187 66.3668C358.71 68.0254 357.539 69.9945 356.74 72.1616C355.941 74.3287 355.529 76.6513 355.529 78.997V248.305C355.529 250.65 355.941 252.973 356.74 255.14C357.539 257.307 358.71 259.276 360.187 260.935C361.664 262.594 363.417 263.909 365.346 264.807C367.275 265.704 369.343 266.166 371.431 266.166H429.642C431.73 266.166 433.798 265.704 435.727 264.807C437.657 263.909 439.41 262.593 440.886 260.935C442.363 259.276 443.534 257.307 444.333 255.14C445.133 252.973 445.544 250.65 445.544 248.305V131.826H446.547V109.858Z" fill="#3F3D56"/>
<path d="M442.158 80.0469V249.108C442.158 252.645 440.908 256.039 438.681 258.541C436.454 261.043 433.434 262.449 430.284 262.449H371.793C368.643 262.449 365.623 261.043 363.396 258.541C361.169 256.039 359.918 252.645 359.919 249.108V80.0469C359.919 76.5098 361.17 73.1178 363.397 70.6167C365.624 68.1156 368.644 66.7103 371.793 66.71H378.889C378.54 67.6722 378.407 68.7161 378.501 69.7497C378.596 70.7834 378.915 71.775 379.431 72.6374C379.947 73.4997 380.644 74.2062 381.461 74.6947C382.277 75.1832 383.188 75.4387 384.113 75.4386H417.462C418.387 75.4387 419.298 75.1832 420.114 74.6947C420.931 74.2062 421.628 73.4997 422.144 72.6374C422.66 71.775 422.979 70.7834 423.074 69.7497C423.168 68.7161 423.035 67.6722 422.686 66.71H430.284C433.433 66.7103 436.453 68.1156 438.68 70.6167C440.907 73.1178 442.158 76.5098 442.158 80.0469V80.0469Z" fill="#047CFD"/>
<path d="M409.75 178.181H392.326V183.981H409.75V178.181Z" fill="#3F3D56"/>
<path d="M430.815 133.026H371.261V135.512H430.815V133.026Z" fill="#3F3D56"/>
<path d="M430.815 140.897H371.261V143.383H430.815V140.897Z" fill="#3F3D56"/>
<path d="M430.815 148.768H371.261V151.254H430.815V148.768Z" fill="#3F3D56"/>
<path d="M430.815 156.639H371.261V159.125H430.815V156.639Z" fill="#3F3D56"/>
<path d="M430.815 164.51H371.261V166.996H430.815V164.51Z" fill="#3F3D56"/>
<path d="M403.118 100.017H392.792V111.616H403.118V100.017Z" fill="#F2F2F2"/>
<path d="M396.745 102.917V117.003H409.285V102.917H396.745ZM408.741 116.392H397.289V103.528H408.741V116.392Z" fill="#3F3D56"/>
<path opacity="0.1" d="M442.158 231.053V249.108C442.158 252.645 440.908 256.038 438.681 258.541C436.454 261.043 433.434 262.449 430.284 262.449H371.793C368.643 262.449 365.623 261.043 363.396 258.541C361.169 256.038 359.918 252.645 359.919 249.108V158.074L409.197 201.803L410.041 202.551L419.207 210.683L420.063 211.446L442.158 231.053Z" fill="black"/>
<path d="M395.978 256.97C406.194 256.97 414.475 247.668 414.475 236.194C414.475 224.719 406.194 215.417 395.978 215.417C385.763 215.417 377.481 224.719 377.481 236.194C377.481 247.668 385.763 256.97 395.978 256.97Z" fill="#F2F2F2"/>
<path d="M135.79 310C128.534 310 121.442 307.583 115.409 303.056C109.377 298.528 104.675 292.093 101.898 284.564C99.1219 277.035 98.3954 268.75 99.8108 260.757C101.226 252.764 104.72 245.422 109.85 239.66C114.981 233.897 121.517 229.973 128.633 228.383C135.749 226.793 143.125 227.609 149.828 230.728C156.531 233.846 162.26 239.128 166.291 245.904C170.322 252.68 172.473 260.646 172.473 268.796C172.462 279.72 168.594 290.193 161.717 297.918C154.84 305.642 145.515 309.988 135.79 310ZM135.79 228.539C128.701 228.539 121.772 230.9 115.878 235.323C109.984 239.747 105.39 246.034 102.677 253.39C99.9648 260.746 99.255 268.84 100.638 276.649C102.021 284.459 105.434 291.632 110.447 297.262C115.459 302.892 121.845 306.726 128.798 308.279C135.75 309.833 142.956 309.035 149.505 305.988C156.054 302.941 161.652 297.782 165.59 291.161C169.528 284.541 171.63 276.758 171.63 268.796C171.619 258.123 167.84 247.89 161.121 240.343C154.402 232.796 145.292 228.551 135.79 228.539V228.539Z" fill="#3F3D56"/>
<path d="M401.431 252.219C396.844 252.219 392.36 250.691 388.546 247.829C384.733 244.967 381.76 240.899 380.005 236.139C378.25 231.379 377.791 226.142 378.685 221.089C379.58 216.036 381.789 211.394 385.032 207.751C388.275 204.108 392.408 201.627 396.906 200.622C401.405 199.617 406.068 200.133 410.305 202.105C414.543 204.076 418.165 207.415 420.713 211.699C423.261 215.982 424.621 221.019 424.621 226.171C424.614 233.077 422.169 239.698 417.821 244.581C413.474 249.464 407.579 252.211 401.431 252.219V252.219ZM401.431 201.069C397.011 201.069 392.69 202.541 389.015 205.299C385.34 208.058 382.476 211.978 380.784 216.565C379.093 221.151 378.65 226.198 379.512 231.068C380.375 235.937 382.503 240.409 385.628 243.92C388.754 247.43 392.736 249.821 397.071 250.79C401.406 251.758 405.899 251.261 409.983 249.361C414.066 247.461 417.556 244.244 420.012 240.116C422.467 235.988 423.778 231.135 423.778 226.171C423.771 219.515 421.415 213.135 417.225 208.429C413.036 203.724 407.355 201.077 401.431 201.069Z" fill="#3F3D56"/>
</g>
<defs>
<clipPath id="clip0_587_14">
<rect width="480.333" height="310" fill="white" transform="translate(0.789062)"/>
</clipPath>
</defs>
</svg>
